<svg width="715" height="916" viewBox="0 0 715 916" fill="none" xmlns="http://www.w3.org/2000/svg">
<path opacity="0.15" d="M47.6 450.1C91.2 481.6 153.9 467.301 202 491.201C222.2 501.201 238.7 517.4 256.9 530.8C323 579.4 420.7 587.101 486.6 538.201C517 515.601 538.9 483.3 568.8 460.1C595 439.8 626.7 427.001 651.3 404.901C679.7 379.301 696.5 342.901 705.6 305.701C723.4 232.501 712.8 152.701 676.5 86.6005C649.7 37.8005 600.2 -6.6995 545.1 1.1005C519.5 4.7005 496.9 19.1005 472.5 27.3005C404.8 50.0005 321.5 26.4005 265.9 71.2005C238.4 93.4005 224.5 127.7 206.9 158.3C193.3 182 175.7 205 150.6 215.8C138.1 221.2 124.5 223.2 111.6 227.5C77.6 238.8 33.6 270.5 13.5 300.201C-15.1 342.201 7.2 420.9 47.6 450.1Z" fill="#CDBFDE"/>
<path d="M331.75 472.712L322.025 471.498L299.438 652.394L309.163 653.609L331.75 472.712Z" fill="#D8D9D8" stroke="#010101" stroke-miterlimit="10"/>
<path d="M349.567 612.427H363.467V485.727H349.567V612.427Z" fill="#B7B7B8" stroke="#010101" stroke-miterlimit="10"/>
<path d="M410.193 653.518L419.918 652.304L397.331 471.407L387.606 472.622L410.193 653.518Z" fill="#D8D9D8" stroke="#010101" stroke-miterlimit="10"/>
<path d="M488.9 478H220.1C218 478 216.3 476.3 216.3 474.2V152.2C216.3 150.1 218 148.4 220.1 148.4H488.9C491 148.4 492.7 150.1 492.7 152.2V474.2C492.6 476.4 491 478 488.9 478Z" fill="#F3F3F3" stroke="#010101" stroke-miterlimit="10"/>
<path d="M472.3 471.501H236.7C228.5 471.501 221.9 464.901 221.9 456.701V169.901C221.9 161.701 228.5 155.101 236.7 155.101H472.3C480.5 155.101 487.1 161.701 487.1 169.901V456.601C487.1 464.801 480.5 471.501 472.3 471.501Z" fill="white" stroke="#010101" stroke-miterlimit="10"/>
<path d="M253.1 235.1C250.2 253.5 259.4 273.4 274.5 281.5C279.2 284 284.4 285.5 289.5 286C304 287.4 319.2 281.2 328.5 268.7C337.8 256.2 340.3 237.4 333.6 222.9C331.2 217.8 327.8 213.3 323.7 209.7C300.3 188.9 258.5 199.8 253.1 235.1Z" fill="white" stroke="#B8B6DB" stroke-width="2" stroke-miterlimit="10" stroke-linecap="round" stroke-linejoin="round"/>
<path d="M342.7 247.4C342.6 247.5 342.4 247.6 342.2 247.7C340.8 248.5 339.2 248.4 337.6 248.3C323.3 247.4 309 246.6 294.7 245.7C294.1 245.7 293.5 245.6 293.1 245.2C292.8 244.8 292.7 244.3 292.7 243.7C292.2 235 292 226.2 292 217.5C292 211.3 290.5 203.4 292.5 197.5C296 186.8 319.3 197.4 325.2 201.6C337.1 210.1 345.2 226.5 345 241.3C344.9 243.6 344.4 246.1 342.7 247.4Z" fill="white" stroke="#B8B6DB" stroke-width="2" stroke-miterlimit="10" stroke-linecap="round" stroke-linejoin="round"/>
<path d="M291.5 204.8C296 201.2 300.5 197.6 305 194" stroke="#B8B6DB" stroke-miterlimit="10" stroke-linecap="round" stroke-linejoin="round"/>
<path d="M291.6 209.3C298.4 205.2 304.8 200.5 310.9 195.4" stroke="#B8B6DB" stroke-miterlimit="10" stroke-linecap="round" stroke-linejoin="round"/>
<path d="M292.6 212.3C300.2 207 307.7 201.7 315.3 196.4" stroke="#B8B6DB" stroke-miterlimit="10" stroke-linecap="round" stroke-linejoin="round"/>
<path d="M292.2 216.7C301.7 211.5 310.9 205.5 319.5 198.9" stroke="#B8B6DB" stroke-miterlimit="10" stroke-linecap="round" stroke-linejoin="round"/>
<path d="M292.4 221.5C303.3 215 314 208.3 324.6 201.5" stroke="#B8B6DB" stroke-miterlimit="10" stroke-linecap="round" stroke-linejoin="round"/>
<path d="M293.1 225.4C305.1 219.3 316.8 212.5 327.9 204.8" stroke="#B8B6DB" stroke-miterlimit="10" stroke-linecap="round" stroke-linejoin="round"/>
<path d="M292.7 230.1C306 223.4 318.8 215.8 331.1 207.2" stroke="#B8B6DB" stroke-miterlimit="10" stroke-linecap="round" stroke-linejoin="round"/>
<path d="M292.4 234.9C303.7 228.8 314.9 222.8 326.2 216.7C329 215.2 331.9 213.6 334.2 211.4" stroke="#B8B6DB" stroke-miterlimit="10" stroke-linecap="round" stroke-linejoin="round"/>
<path d="M292.1 240.4C307.6 232.5 322.7 223.9 337.5 214.8" stroke="#B8B6DB" stroke-miterlimit="10" stroke-linecap="round" stroke-linejoin="round"/>
<path d="M293.6 244.7C309.4 237.8 324.6 229.3 338.8 219.4" stroke="#B8B6DB" stroke-miterlimit="10" stroke-linecap="round" stroke-linejoin="round"/>
<path d="M300 245.9C314.7 239.8 328.7 232.2 341.9 223.3" stroke="#B8B6DB" stroke-miterlimit="10" stroke-linecap="round" stroke-linejoin="round"/>
<path d="M306.3 247C318.8 241.8 330.8 235.1 341.9 227.2" stroke="#B8B6DB" stroke-miterlimit="10" stroke-linecap="round" stroke-linejoin="round"/>
<path d="M313.8 247.4C323.9 242.7 333.6 237.2 342.8 230.8" stroke="#B8B6DB" stroke-miterlimit="10" stroke-linecap="round" stroke-linejoin="round"/>
<path d="M321.7 247.3C322.6 246.4 323.8 245.8 325 245.2C331.5 242 337.6 238.1 343.4 233.7" stroke="#B8B6DB" stroke-miterlimit="10" stroke-linecap="round" stroke-linejoin="round"/>
<path d="M326.7 247.7C332.7 244.7 338.5 241 343.8 236.8C343.8 237 343.6 237.2 343.4 237.2" stroke="#B8B6DB" stroke-miterlimit="10" stroke-linecap="round" stroke-linejoin="round"/>
<path d="M333.2 248.4C337 246.2 340.8 243.8 344.4 241.2" stroke="#B8B6DB" stroke-miterlimit="10" stroke-linecap="round" stroke-linejoin="round"/>
<path d="M319.8 217.4C319.6 215.6 320.5 213.9 321.5 212.4C324.4 208 327.7 203.9 332 200.9C336.3 197.9 341.5 196.1 346.7 196.7C349.5 197 352.1 198 354.8 199" stroke="#303030" stroke-miterlimit="10" stroke-linecap="round" stroke-linejoin="round"/>
<path d="M361.3 191.2C359 194.2 361.4 199 359.1 202C358.5 200 358.3 197.8 358.6 195.7C358.7 194.9 358.8 194 359.4 193.3C359.9 192.6 360.9 192.3 361.6 192.7C362.3 193.1 362.6 194 362.4 194.8C362.2 195.6 361.7 196.3 361.2 196.9C360.7 195.9 362.4 194.7 363.2 195.6C363.8 196.2 363.7 197.4 364.5 197.7C365.9 198.2 366.6 194.9 367.9 195.5C368.7 195.8 368.7 197.4 369.5 197.5C370.4 197.6 370.7 196 371.6 195.9C372.2 195.8 372.8 196.4 373.4 196.6C374.3 196.8 375.2 196 375.4 195.2C375.6 194.3 375.3 193.4 375 192.5C373.9 193.8 373.7 195.7 374.3 197.3C376.3 196.3 377.7 193.9 377.5 191.7C377.5 193.4 377.5 195.1 377.5 196.9C379 196.6 380.3 195.7 381.2 194.5C381.6 196.2 382.3 198.1 384 198.5" stroke="#303030" stroke-miterlimit="10" stroke-linecap="round" stroke-linejoin="round"/>
<path d="M394.4 194.9C395.1 193.6 394.2 191.7 392.7 191.5C391.7 192.6 391.2 194.2 391.3 195.6C391.3 195.9 391.4 196.3 391.6 196.6C392.1 197.3 393.3 197 393.9 196.4C394.5 195.8 394.8 194.9 395.3 194.3C395.5 195.3 395.9 196.3 396.5 197.1C397.3 196.2 398.1 195.4 399 194.5C399.4 194.9 399.6 195.6 399.5 196.2C400.2 196.2 401 196.3 401.7 196.3C402 196.3 402.3 196.3 402.6 196.3C404.1 196 405 193.9 403.9 192.7C402.2 193 400.8 194.8 401.1 196.6C402.8 195.8 404.3 194.9 405.7 193.7C405.8 194.7 406 195.6 406.1 196.6C406.4 195.2 408.8 195 409.2 196.4C409.6 196 410.1 195.7 410.5 195.3C410.7 196 411.4 196.6 412.2 196.6C413 196.6 413.6 195.9 413.7 195.2C415 195.6 416.4 194.2 416 192.9C416.8 195.3 417.4 197.8 417.7 200.3C417.9 201.7 417.8 203.6 416.4 204.1C415.7 203.3 416 202 416.4 201C417.4 198.6 418.7 196.3 420.1 194.2C420.3 194 420.5 193.7 420.7 193.8C420.9 193.9 420.6 194.4 420.5 194.1" stroke="#303030" stroke-miterlimit="10" stroke-linecap="round" stroke-linejoin="round"/>
<path d="M363.5 206C362.5 205.8 361.5 205.6 360.5 205.9C359.5 206.2 358.6 206.9 358.5 207.9C358.4 208.9 359.3 210 360.3 209.8C360.9 209.7 361.3 209.3 361.7 208.9C362.7 207.9 363.7 206.9 364.7 205.9C365 207.3 365.3 208.6 365.6 210C366.1 208.9 367.3 207.6 368.3 208.3C368.7 208.5 368.9 209 369.3 209.3C370.5 210.2 372.1 208.7 372.8 207.3C372.5 208.6 374.1 209.7 375.4 209.3C376.7 208.9 377.3 207.5 377.4 206.2C376.2 206.4 375.4 207.8 375.8 209C377.6 209.1 379.4 208.1 380.2 206.5C380.2 207.2 380.3 207.9 380.3 208.7C381.1 208.3 382 208.2 382.9 208.3C383.5 208.4 384.2 208.7 384.8 208.7C385.5 208.7 386.2 208.4 386.3 207.7C387 209.3 389.6 209.6 390.6 208.2" stroke="#303030" stroke-miterlimit="10" stroke-linecap="round" stroke-linejoin="round"/>
<path d="M398 209.8C398.5 209.1 398.9 208.2 398.8 207.4C398.7 206.6 397.6 205.8 396.9 206.4C396.6 206.6 396.5 207 396.4 207.3C396.1 208.1 395.9 209 396.1 209.8C396.3 210.6 397 211.4 397.9 211.3C399.5 211.1 400.2 208.1 401.7 208.8C402.3 209.1 402.5 210 403.2 210.1C403.9 210.3 404.4 209.5 405 209.1C406.1 208.3 407.8 208.7 408.4 209.9C408.9 209.3 409.4 208.7 409.9 208C410.3 209.6 412.1 210.4 413.7 210.4C415.8 210.4 418 208.6 417.6 206.5C417.5 206 417.2 205.5 416.8 205.3C416.1 204.9 415.2 205.5 414.8 206.2C414.4 206.9 414.5 207.8 414.5 208.6C414.5 209.2 414.6 209.9 414.9 210.5C415.8 212 418.2 211.9 419.4 210.6C420.6 209.4 421 207.5 421.3 205.8C420.8 207.7 421.4 210 422.9 211.3" stroke="#303030" stroke-miterlimit="10" stroke-linecap="round" stroke-linejoin="round"/>
<path d="M429.6 203.5C429.4 202.5 429.4 201.1 430.4 200.6C431.1 200.2 432 200.7 432.4 201.4C432.8 202.1 432.8 202.9 432.8 203.7C432.6 205.6 432 207.5 431 209.2C431.5 209.1 432.1 209.5 432.1 210C433 210.5 433.5 213.6 432.7 214.2C431.7 213.5 432.5 211.5 433.8 211.7" stroke="#303030" stroke-miterlimit="10" stroke-linecap="round" stroke-linejoin="round"/>
<path d="M361.5 219C361.5 222 361.5 225 361.5 228" stroke="#303030" stroke-miterlimit="10" stroke-linecap="round" stroke-linejoin="round"/>
<path d="M365.1 223.4C364.1 224.6 364.8 226.8 366.3 227.2C367.8 227.6 369.5 226.2 369.4 224.6C369.2 223 367.2 222 365.8 222.8C366.7 221.8 368.1 221.3 369.5 221.5C370.8 221.8 372 222.9 372.3 224.2C372.5 225 372.9 226.2 373.7 225.9C374 225.8 374.2 225.4 374.3 225.1C374.6 224.2 374.9 223.3 374.7 222.4C374.5 221.5 373.8 220.6 372.9 220.6C372 220.5 371.1 221.5 371.4 222.4C373.5 220.7 375.7 219 377.8 217.3C377.5 222.3 377.7 227.4 378.4 232.4C379.6 230 380.4 227.4 380.7 224.7C381.1 225.5 381.5 226.3 382 227C382.7 225.9 384 225.2 385.3 225.3C385.7 225.3 386.1 225.4 386.5 225.3C387.2 225 387.5 224 388.2 224.1C388.5 224.1 388.8 224.4 389.1 224.6C390 225.2 391.4 224.8 391.9 223.8C392.1 224.2 392.3 224.6 392.6 225.1" stroke="#303030" stroke-miterlimit="10" stroke-linecap="round" stroke-linejoin="round"/>
<path d="M398.9 224.8C400.9 224.1 400.7 220.4 398.6 220C397.9 221.4 397.6 222.9 397.5 224.4C397.5 225.5 398 226.9 399.1 226.9C399.6 226.9 400 226.5 400.4 226.2C401.7 225 403.1 223.8 404.4 222.5C405.2 223.5 406.1 224.5 407.4 224.9C408.6 225.3 410.2 224.6 410.4 223.3C410.9 224 411.4 224.7 412.2 224.9C413 225.2 414.1 224.7 414 223.8C414.4 225.8 417.3 226.7 418.7 225.3C420.1 223.9 419.3 221 417.3 220.6C415.6 222.2 416.5 225.5 418.6 226.4C420.8 227.3 423.5 225.9 424.3 223.7C424.9 226.2 429 226.8 430.3 224.6C431.8 225.7 433.7 226.7 435.6 226.6C437.5 226.6 439.5 225.4 439.9 223.5C439.4 222.2 437.8 221.6 436.6 222.2C435.4 222.8 435 224.6 435.8 225.7C437.9 226 440.1 225.2 441.4 223.5C441.6 224.9 443.5 225.3 444.9 225.3C446.6 225.3 448.2 225.3 449.9 225.4C453.2 225.4 456.7 225.4 459.5 223.7C462.3 222 464 218 462.1 215.3C461.5 214.4 460.5 213.8 459.6 213.3C456.5 211.6 452.8 210.7 449.4 211.9C446.1 213.1 443.6 216.8 444.5 220.2" stroke="#303030" stroke-miterlimit="10" stroke-linecap="round" stroke-linejoin="round"/>
<path d="M291.1 259.9C291.7 268 291.7 276.4 289.2 284.1C286.7 291.9 281.4 299 273.8 302.2" stroke="#303030" stroke-miterlimit="10" stroke-linecap="round" stroke-linejoin="round"/>
<path d="M239.5 307.9C239.8 307.4 239 306.9 238.4 307.1C237.8 307.3 237.5 307.8 237.2 308.3C236.6 309.5 236 311.1 237.1 311.9C238 310.8 238.7 309.6 239.4 308.4C239.5 309.3 240 310.1 240.7 310.7C241.2 310.4 241.5 309.9 241.7 309.4C242.7 309.7 243.4 310.7 243.2 311.6C243.8 311 244.3 310.4 244.9 309.8C244.8 310.7 245.7 311.5 246.7 311.5C247.7 311.5 248.6 310.6 248.5 309.7C249.6 310.8 251.8 310.7 252.7 309.5C253.6 308.3 252.9 306.4 251.4 305.9C250.4 307.6 250.6 309.8 251.9 311.4C254.8 311.2 257.1 308.5 256.6 305.9C256.2 307.7 256.8 309.6 258.1 311C259.1 310.3 260 309.3 260.7 308.3C261.4 309.3 262.1 310.3 262.8 311.3C263 310.1 265 310.3 266.3 310.7C267.6 311.1 269.7 310.8 269.4 309.6C271.6 311.3 275.7 310.3 276.6 307.7C277.5 311.8 278.4 315.8 279.3 319.9C279.6 321.4 280 323 279.4 324.5C278.8 326 276.9 327.1 275.4 326.5C274.5 326.1 273.9 325.3 273.6 324.4C272.4 321.5 273.4 318 275.9 315.9" stroke="#303030" stroke-miterlimit="10" stroke-linecap="round" stroke-linejoin="round"/>
<path d="M284 310.8C284.6 309.2 284.7 307.4 284.3 305.7C283.4 306.8 282.4 308 282.6 309.3C282.8 310.6 284.8 311.7 285.8 310.7C286.3 310.2 286.3 309.5 286.9 309.1C287.9 308.5 289 309.6 289.6 310.5C288.8 309.6 290.3 308.3 291.6 308.4C292.9 308.5 294 309.3 295.3 309.5C297.8 309.8 300.1 307.2 299.2 305.1C299.1 305 299.1 304.8 298.9 304.7C298.7 304.6 298.5 304.6 298.3 304.7C296.6 305.1 295.9 307.2 296.9 308.5C297.9 309.8 300 310.1 301.5 309.3C303 308.5 303.8 306.9 303.8 305.4C304.5 306.2 304.2 307.3 304.3 308.3C304.4 309.3 305.4 310.4 306.4 309.9C307.3 309.5 307.3 307.9 308.4 307.9C308.5 308.9 309.7 309.8 310.9 309.6C312.1 309.4 312.9 308.4 313 307.4C314.5 309.3 318.2 309.2 319.6 307.2C320.6 308.6 323 308.6 324.5 307.7C326 306.8 326.9 305.3 327.8 303.8C326.8 305 325.8 306.8 326.9 307.9C328.1 309.1 330.3 308.2 331.5 307C334.1 304.6 335.3 300.9 334 297.8C333.7 297.1 333.3 296.4 332.6 295.9C331 294.9 328.7 295.5 327.4 296.8C326.1 298.1 325.6 299.8 325.1 301.5" stroke="#303030" stroke-miterlimit="10" stroke-linecap="round" stroke-linejoin="round"/>
<path d="M242.2 323.801C242.2 323.001 242.2 322.301 242.2 321.501C240.1 322.001 239.1 324.701 240.6 326.001C242.1 327.301 245.4 325.801 244.7 323.901C245.6 324.801 246.5 325.601 247.4 326.501C247.9 325.301 248.8 324.301 249.9 323.501C250.2 324.401 250.7 325.301 251.5 326.001C251.7 325.401 252 324.801 252.2 324.201C253 324.801 253.9 325.501 254.7 326.101C255.6 325.401 256.3 324.501 256.6 323.401C257.2 325.301 261.2 324.801 261.2 322.801C261.9 324.101 263.7 324.801 265.2 324.301C266.7 323.901 267.7 322.401 267.4 321.001C265.6 320.701 264 322.801 264.6 324.301C265.2 325.901 267.4 326.601 269.2 326.201C271 325.801 272.4 324.401 273.1 322.901C273.9 324.101 274.7 325.401 275.5 326.601C276.2 324.001 281 323.301 282.4 325.701C283.2 324.701 284.1 323.801 284.9 322.801C285.3 323.801 286.7 324.401 287.8 324.101C288.9 323.701 289.6 322.501 289.2 321.501C289.3 322.801 290.6 323.901 292 323.901C293.4 324.001 294.8 323.001 295.1 321.701C298.1 326.901 296.8 333.901 292.1 337.901C290.2 336.101 289.6 333.401 290.4 331.101C291.3 328.801 293.6 327.001 296.3 326.601C296.5 327.301 296.7 327.901 296.9 328.601C296.9 327.501 297.8 326.501 299 326.301C300.2 326.101 301.4 326.801 301.8 327.801C302.2 327.201 302.7 326.501 303.1 325.901C303.8 326.201 304.5 326.501 305.2 326.801C305.9 326.201 306.6 325.601 307.3 325.001" stroke="#303030" stroke-miterlimit="10" stroke-linecap="round" stroke-linejoin="round"/>
<path d="M317.1 322.9C318.5 322 319.3 320.5 319.3 318.9C319.3 318.1 318.6 317.1 317.8 317.3C317.5 317.4 317.3 317.6 317.1 317.9C315.8 319.6 315.3 321.7 315.9 323.7C316 324 316.1 324.3 316.3 324.6C317 325.2 318.3 324.7 318.9 324C319.5 323.3 320 322.4 320.9 322C321.4 322.5 322 323.1 322.5 323.6C322 323.2 322.8 322.5 323.5 322.6C324.2 322.7 324.7 323.2 325.4 323.2C325.8 323.2 326.2 323.1 326.6 323C328.2 322.6 330 322.9 331.6 322.5C333.2 322.1 334.8 320.6 334.1 319.2C332.3 319.9 331.3 321.9 332 323.6C333.6 322.8 334.9 321.5 335.6 320C337.1 322.8 334.6 326.6 331.2 326.9" stroke="#303030" stroke-miterlimit="10" stroke-linecap="round" stroke-linejoin="round"/>
<path d="M246.2 339C246.8 338.6 246.1 337.7 245.4 337.9C244.7 338 244.3 338.6 244 339.2C243.2 340.9 242.7 343.2 244.2 344.4C245.3 343.4 246.3 342.5 247.4 341.5C248.2 342.3 248.6 343.4 248.7 344.4C249.1 343.3 249.7 342.2 250.5 341.3C251.5 342.2 252.1 343.5 252.1 344.7C253 343.7 253.7 342.6 254.2 341.4C254.8 342.3 255.4 343.2 256 344.1C255.6 342.8 257.7 341.9 259.2 342.1C260.7 342.3 262.3 343 263.7 342.4C265 341.8 265.4 340.1 264.5 339.1C263 338.2 260.9 340.3 261.7 341.8C262.5 343.3 265 343.5 266.5 342.6C268 341.7 268.8 340 269.1 338.4C268.5 340.1 269 342.1 270.4 343.4C271.7 342.6 272.8 341.6 273.7 340.4C275.1 342.3 279.1 341.3 279.3 339C280.5 340.7 284 340.1 284.5 338.1C284.8 339.2 286.2 340 287.4 339.7C288.6 339.3 289.1 337.7 288.1 336.9C287.5 338 286.8 339.1 286.8 340.3C286.8 341.5 287.9 342.8 289.3 342.7C290.6 342.6 291.4 341.5 292.2 340.6C293 339.7 294.6 339.1 295.5 339.9C296.2 340.6 296 342.2 297 342.4C297.6 340.4 301.3 339.9 302.5 341.7" stroke="#303030" stroke-miterlimit="10" stroke-linecap="round" stroke-linejoin="round"/>
<path d="M362.6 314.901C362.6 315.801 362.6 316.801 363.2 317.501C363.8 318.201 364.8 318.301 365.7 318.301C386.7 319.601 407.8 320.901 428.8 319.801C440 319.201 451.4 318.001 462.5 320.201C464.2 297.701 464 275.101 462 252.601C438.6 253.801 415.1 253.701 391.7 252.201C385.6 251.801 373.9 249.001 366.6 252.301C364 253.501 364.1 259.601 364.4 262.201C365 267.001 364.6 271.501 364.3 276.301C363.5 289.201 362.9 302.101 362.6 314.901Z" stroke="#010101" stroke-miterlimit="10" stroke-linecap="round" stroke-linejoin="round"/>
<path d="M384.5 251.501C384.4 273.501 384.2 297.201 384.2 319.201" stroke="#010101" stroke-miterlimit="10" stroke-linecap="round" stroke-linejoin="round"/>
<path d="M404.8 253.4C404.6 275.3 404.4 298.3 404.2 320.2" stroke="#010101" stroke-miterlimit="10" stroke-linecap="round" stroke-linejoin="round"/>
<path d="M423.5 253.701C422.9 275.701 422.4 297.901 421.8 320.001" stroke="#010101" stroke-miterlimit="10" stroke-linecap="round" stroke-linejoin="round"/>
<path d="M443.2 253.4V319.1" stroke="#010101" stroke-miterlimit="10" stroke-linecap="round" stroke-linejoin="round"/>
<path d="M364.3 275.701C396.9 274.701 430.8 274.501 463.5 275.201" stroke="#010101" stroke-miterlimit="10" stroke-linecap="round" stroke-linejoin="round"/>
<path d="M363.1 299.401C396 297.401 430.7 296.701 463.7 297.201" stroke="#010101" stroke-miterlimit="10" stroke-linecap="round" stroke-linejoin="round"/>
<path d="M368.1 264.101C368.3 264.001 368.2 263.701 368 263.601C367.8 263.501 367.6 263.601 367.4 263.801C366.9 264.301 367 265.301 367.7 265.601C368.4 265.901 369.3 265.401 369.3 264.701C369.9 265.301 370.3 266.001 370.5 266.801C371.4 265.601 373.1 265.101 374.5 265.601C375.2 266.101 376.1 266.401 376.9 266.001C377.7 265.701 378.1 264.501 377.5 263.901C376.8 264.601 376.5 265.801 376.8 266.801C377.7 266.501 378.4 265.901 378.9 265.101C379.2 265.501 379.4 265.901 379.7 266.301C380.1 266.001 380.4 265.601 380.6 265.101C380.8 265.301 381 265.601 381.2 265.801C381.7 265.801 382 265.101 381.7 264.801" stroke="#010101" stroke-miterlimit="10" stroke-linecap="round" stroke-linejoin="round"/>
<path d="M388.6 264.101C388.8 264.001 388.7 263.701 388.5 263.601C388.3 263.501 388.1 263.601 387.9 263.801C387.4 264.301 387.5 265.301 388.2 265.601C388.9 265.901 389.8 265.401 389.8 264.701C390.4 265.301 390.8 266.001 391 266.801C391.9 265.601 393.6 265.101 395 265.601C395.7 266.101 396.6 266.401 397.4 266.001C398.2 265.701 398.6 264.501 398 263.901C397.3 264.601 397 265.801 397.3 266.801C398.2 266.501 398.9 265.901 399.4 265.101C399.7 265.501 399.9 265.901 400.2 266.301C400.6 266.001 400.9 265.601 401.1 265.101C401.3 265.301 401.5 265.601 401.7 265.801C402.2 265.801 402.5 265.101 402.2 264.801" stroke="#010101" stroke-miterlimit="10" stroke-linecap="round" stroke-linejoin="round"/>
<path d="M409.3 264.101C409.4 264.001 409.4 263.701 409.2 263.601C409 263.501 408.9 263.601 408.7 263.801C408.3 264.301 408.4 265.301 408.9 265.601C409.4 265.901 410.1 265.401 410.2 264.701C410.7 265.301 411 266.001 411.2 266.801C411.9 265.601 413.3 265.101 414.4 265.601C415 266.101 415.7 266.401 416.3 266.001C416.9 265.701 417.2 264.501 416.8 263.901C416.2 264.601 416 265.801 416.2 266.801C416.9 266.501 417.5 265.901 417.9 265.101C418.1 265.501 418.3 265.901 418.5 266.301C418.8 266.001 419.1 265.601 419.2 265.101C419.4 265.301 419.5 265.601 419.7 265.801C420.1 265.801 420.4 265.101 420.1 264.801" stroke="#010101" stroke-miterlimit="10" stroke-linecap="round" stroke-linejoin="round"/>
<path d="M428.1 264.101C428.2 264.001 428.2 263.701 428 263.601C427.8 263.501 427.7 263.601 427.5 263.801C427.1 264.301 427.2 265.301 427.7 265.601C428.2 265.901 428.9 265.401 429 264.701C429.5 265.301 429.8 266.001 430 266.801C430.7 265.601 432.1 265.101 433.2 265.601C433.8 266.101 434.5 266.401 435.1 266.001C435.7 265.701 436 264.501 435.6 263.901C435 264.601 434.8 265.801 435 266.801C435.7 266.501 436.3 265.901 436.7 265.101C436.9 265.501 437.1 265.901 437.3 266.301C437.6 266.001 437.9 265.601 438 265.101C438.2 265.301 438.3 265.601 438.5 265.801C438.9 265.801 439.2 265.101 438.9 264.801" stroke="#010101" stroke-miterlimit="10" stroke-linecap="round" stroke-linejoin="round"/>
<path d="M448.4 264.101C448.5 264.001 448.5 263.701 448.3 263.601C448.1 263.501 448 263.601 447.8 263.801C447.4 264.301 447.5 265.301 448 265.601C448.5 265.901 449.2 265.401 449.3 264.701C449.8 265.301 450.1 266.001 450.3 266.801C451 265.601 452.4 265.101 453.5 265.601C454.1 266.101 454.8 266.401 455.4 266.001C456 265.701 456.3 264.501 455.9 263.901C455.3 264.601 455.1 265.801 455.3 266.801C456 266.501 456.6 265.901 457 265.101C457.2 265.501 457.4 265.901 457.6 266.301C457.9 266.001 458.2 265.601 458.3 265.101C458.5 265.301 458.6 265.601 458.8 265.801C459.2 265.801 459.5 265.101 459.2 264.801" stroke="#010101" stroke-miterlimit="10" stroke-linecap="round" stroke-linejoin="round"/>
<path d="M370.1 286.101C369.8 285.501 369.5 284.901 369.2 284.201C368.7 284.701 368.3 285.201 368.2 285.801C368.2 286.401 368.9 287.101 369.4 286.801C370 286.501 370.1 285.501 370.7 285.601C371 285.701 371.1 285.901 371.3 286.101C371.8 286.601 372.8 286.501 373.3 285.901C373.3 286.501 374.1 286.801 374.7 286.501C375.2 286.201 375.5 285.701 375.8 285.201C376.2 285.701 376.8 286.001 377.5 285.901C378.1 285.801 378.7 285.201 378.5 284.601C378.2 284.601 377.8 284.501 377.5 284.501C377.1 285.301 376.8 286.201 376.9 287.101" stroke="#010101" stroke-miterlimit="10" stroke-linecap="round" stroke-linejoin="round"/>
<path d="M369.2 291.201C369.6 290.601 369.2 289.701 368.5 289.501C368.1 290.301 368.1 291.201 368.3 292.001C368.4 292.201 368.4 292.401 368.6 292.501C369.1 292.901 369.7 292.201 370 291.701C370.2 291.101 370.7 290.401 371.3 290.501C371.7 290.601 371.9 291.101 372.3 291.301C373.3 291.701 374.3 289.901 375.3 290.401C375.5 290.501 375.6 290.701 375.8 290.701C376.3 290.801 376.6 290.201 377 290.001C377.6 289.601 378.5 290.101 378.4 290.801C378.9 290.801 379.3 290.101 379 289.601" stroke="#010101" stroke-miterlimit="10" stroke-linecap="round" stroke-linejoin="round"/>
<path d="M366.5 310.201C366.7 309.401 366.6 308.501 366.2 307.801C365.3 308.101 365.3 309.601 366.1 310.001C366.9 310.401 368.1 309.901 368.4 309.101C368.8 309.001 368.8 309.801 369.1 310.101C369.7 310.501 370.1 309.101 370.8 309.101C371.3 309.101 371.5 309.801 372.1 309.901C372.9 310.001 373.3 308.601 374.1 308.801C374.4 308.901 374.6 309.401 375 309.401C375.4 309.401 375.7 308.701 376.1 308.801C376.3 308.801 376.4 309.001 376.5 309.201C377 309.801 378.2 309.501 378.4 308.801" stroke="#010101" stroke-miterlimit="10" stroke-linecap="round" stroke-linejoin="round"/>
<path d="M389.8 285.301C390.7 286.201 391.5 287.301 392 288.501C394.1 286.401 396.3 284.501 398.6 282.601" fill="white"/>
<path d="M389.8 285.301C390.7 286.201 391.5 287.301 392 288.501C394.1 286.401 396.3 284.501 398.6 282.601" stroke="#B8B6DB" stroke-width="2" stroke-miterlimit="10" stroke-linecap="round" stroke-linejoin="round"/>
<path d="M411.5 285.601C412.8 286.501 414.7 286.201 415.6 284.901C416.9 282.901 415 279.901 412.6 280.401C410.2 280.901 409.6 284.201 411.5 285.601Z" fill="white" stroke="#B8B6DB" stroke-width="2" stroke-miterlimit="10" stroke-linecap="round" stroke-linejoin="round"/>
<path d="M427.9 303.601C428.1 303.801 428.2 304.101 428.4 304.301C429.9 306.301 431.8 308.101 434 309.501" fill="white"/>
<path d="M427.9 303.601C428.1 303.801 428.2 304.101 428.4 304.301C429.9 306.301 431.8 308.101 434 309.501" stroke="#B8B6DB" stroke-width="2" stroke-miterlimit="10" stroke-linecap="round" stroke-linejoin="round"/>
<path d="M432.8 302.601C431.6 305.601 430 308.501 428.1 311.201L432.8 302.601Z" fill="white"/>
<path d="M432.8 302.601C431.6 305.601 430 308.501 428.1 311.201" stroke="#B8B6DB" stroke-width="2" stroke-miterlimit="10" stroke-linecap="round" stroke-linejoin="round"/>
<path d="M408.9 308C409.5 309 410.1 309.9 410.8 310.9C412.5 309.2 414.2 307.6 415.9 305.9" fill="white"/>
<path d="M408.9 308C409.5 309 410.1 309.9 410.8 310.9C412.5 309.2 414.2 307.6 415.9 305.9" stroke="#B8B6DB" stroke-width="2" stroke-miterlimit="10" stroke-linecap="round" stroke-linejoin="round"/>
<path d="M451.3 284.901C451.7 285.601 452.1 286.301 452.5 286.901C452.6 287.101 452.7 287.301 452.9 287.301C453.1 287.301 453.2 287.201 453.4 287.101C455.3 285.501 457.1 283.901 458.9 282.201" fill="white"/>
<path d="M451.3 284.901C451.7 285.601 452.1 286.301 452.5 286.901C452.6 287.101 452.7 287.301 452.9 287.301C453.1 287.301 453.2 287.201 453.4 287.101C455.3 285.501 457.1 283.901 458.9 282.201" stroke="#B8B6DB" stroke-width="2" stroke-miterlimit="10" stroke-linecap="round" stroke-linejoin="round"/>
<path d="M292.9 478H274.3C272.7 478 271.5 476.7 271.5 475.2V470.3C271.5 468.7 272.8 467.5 274.3 467.5H292.9C294.5 467.5 295.7 468.8 295.7 470.3V475.2C295.7 476.8 294.5 478 292.9 478Z" fill="#B7B7B8" stroke="#010101" stroke-miterlimit="10"/>
<path d="M430.1 478H411.5C409.9 478 408.7 476.7 408.7 475.2V470.3C408.7 468.7 410 467.5 411.5 467.5H430.1C431.7 467.5 432.9 468.8 432.9 470.3V475.2C432.9 476.8 431.6 478 430.1 478Z" fill="#B7B7B8" stroke="#010101" stroke-miterlimit="10"/>
<path d="M443.5 486.2H264.8C263.6 486.2 262.7 485.3 262.7 484.1V480.1C262.7 478.9 263.6 478 264.8 478H443.4C444.6 478 445.5 478.9 445.5 480.1V484.1C445.6 485.3 444.7 486.2 443.5 486.2Z" fill="#B7B7B8" stroke="#010101" stroke-miterlimit="10"/>
<path d="M379.9 478H331.1V468.7C331.1 466.5 332.9 464.7 335.1 464.7H375.3C377.9 464.7 379.9 466.8 379.9 469.3V478Z" fill="#E0E1E0" stroke="#010101" stroke-miterlimit="10"/>
<path d="M379.9 474.7H331.1V478.1H379.9V474.7Z" fill="#595A5A" stroke="#010101" stroke-miterlimit="10"/>
<path d="M377.1 464.701H340.2C339.8 464.701 339.4 464.301 339.4 463.901V462.401C339.4 462.001 339.8 461.601 340.2 461.601H377.1C377.5 461.601 377.9 462.001 377.9 462.401V463.901C377.9 464.401 377.6 464.701 377.1 464.701Z" fill="white" stroke="#010101" stroke-width="0.5" stroke-miterlimit="10"/>
<path d="M367 461.7C367 461.7 365.8 462.7 367 464.8V461.7Z" fill="white"/>
<path d="M367 461.7C367 461.7 365.8 462.7 367 464.8" stroke="#010101" stroke-width="0.5" stroke-miterlimit="10" stroke-linecap="round" stroke-linejoin="round"/>
<path d="M364.3 463.2H371.5" stroke="#010101" stroke-miterlimit="10" stroke-linecap="round" stroke-linejoin="round"/>
<path d="M351.7 369.301H328.5L325.8 351.601L351.7 349.801V369.301Z" fill="#EEDBEB" stroke="black" stroke-width="0.5" stroke-miterlimit="10" stroke-linecap="round" stroke-linejoin="round"/>
<path d="M330.7 358.401C330.9 357.901 330 357.501 329.8 358.001C330.4 358.001 331.1 358.401 331.4 358.901C332 358.301 332.8 357.801 333.6 357.401C333.7 357.901 333.7 358.401 333.8 358.901C336.4 359.001 339.1 358.101 341.1 356.401C340.7 357.101 341.7 358.001 342.5 357.801C343.3 357.601 343.9 356.901 344.3 356.201C345.5 356.801 347 356.901 348.3 356.701" stroke="black" stroke-width="0.5" stroke-miterlimit="10" stroke-linecap="round" stroke-linejoin="round"/>
<path d="M333.3 364.6C334.6 364.2 335.7 363.4 336.6 362.4C336.9 362.7 337.2 363 337.5 363.3C340.2 363 342.9 362.7 345.6 362.4" stroke="black" stroke-width="0.5" stroke-miterlimit="10" stroke-linecap="round" stroke-linejoin="round"/>
<path d="M424.9 379.101H401.7L399 361.401L424.9 359.501V379.101Z" fill="#EEDBEB" stroke="black" stroke-width="0.5" stroke-miterlimit="10" stroke-linecap="round" stroke-linejoin="round"/>
<path d="M407.1 367.501C406.7 367.101 406.4 366.701 406 366.301C405.4 366.201 404.7 366.901 404.9 367.501C407.5 367.401 410.1 367.301 412.7 367.101C415.3 367.001 418.2 366.701 420 364.901C419.6 365.501 419.9 366.501 420.6 366.701C421.3 367.001 422.2 366.501 422.3 365.801" stroke="black" stroke-width="0.5" stroke-miterlimit="10" stroke-linecap="round" stroke-linejoin="round"/>
<path d="M409.1 374.101C408.9 373.301 407.7 373.001 407.1 373.601C406.6 374.201 407.1 375.401 407.9 375.401C408.6 373.801 410.7 373.401 412.5 373.601C414.3 373.801 416.1 374.301 417.7 373.601" stroke="black" stroke-width="0.5" stroke-miterlimit="10" stroke-linecap="round" stroke-linejoin="round"/>
<path d="M390.8 396.001H365V413.001H390.8V396.001Z" fill="#EEDBEB" stroke="black" stroke-width="0.5" stroke-miterlimit="10" stroke-linecap="round" stroke-linejoin="round"/>
<path d="M372.5 404.001C373.1 403.401 373.2 402.501 372.8 401.801C371.7 403.401 371.5 405.501 372.2 407.301C373.3 406.101 374.2 404.701 374.8 403.301C375.7 403.701 376.3 404.501 376.6 405.401C378.9 403.701 382.2 403.601 384.7 405.001C385.1 404.601 385.4 403.901 385.4 403.301C384.4 403.701 383.6 404.601 383.2 405.601" stroke="black" stroke-width="0.5" stroke-miterlimit="10" stroke-linecap="round" stroke-linejoin="round"/>
<path d="M285.9 408.501H262.7L260.1 390.801L285.9 389.001V408.501Z" fill="#EEDBEB" stroke="black" stroke-width="0.5" stroke-miterlimit="10" stroke-linecap="round" stroke-linejoin="round"/>
<path d="M269 398.301C268.8 399.101 268.7 399.801 268.5 400.601C270.2 400.501 271.9 400.301 273.6 400.201C274.4 400.501 275.3 400.901 276.1 401.201C276.6 400.001 277.8 399.101 279 399.001C279.5 399.001 280.1 399.801 279.6 399.801" stroke="black" stroke-width="0.5" stroke-miterlimit="10" stroke-linecap="round" stroke-linejoin="round"/>
<path d="M456.5 429.301H427.1L430.7 412.301H456.5V429.301Z" fill="#EEDBEB" stroke="black" stroke-width="0.5" stroke-miterlimit="10" stroke-linecap="round" stroke-linejoin="round"/>
<path d="M436.1 420.3C436.1 419.3 436 418.4 436 417.4C434.3 417.9 433.2 419.8 433.5 421.5C434.4 421 435.3 420.5 436.2 419.9C439.3 420.1 442.5 420.3 445.6 420.6C448.5 420.8 452.3 420.4 453 417.6C452.5 417.8 451.9 417.9 451.4 418.1" stroke="black" stroke-width="0.5" stroke-miterlimit="10" stroke-linecap="round" stroke-linejoin="round"/>
<path d="M375 426.401C375 425.901 375 425.301 375 424.801C374.1 424.401 373 424.901 372.5 425.701C371.9 426.501 371.8 427.501 371.8 428.501C371.7 429.601 372.1 431.101 373.2 431.101C373.8 431.101 374.3 430.601 374.7 430.101C375.6 429.001 376.5 427.801 377.4 426.701C377.2 428.301 377.2 430.001 377.6 431.601C378.3 430.301 379.1 429.101 380.1 428.001C380.7 428.701 381.1 429.501 381.4 430.301C382 430.001 382.5 429.601 382.9 429.101C383.7 430.501 385.7 431.101 387.1 430.301C388.5 429.501 389 427.401 388.1 426.101C386.3 426.101 385.9 429.201 387.6 430.001C389.3 430.801 391.3 429.101 391.4 427.301C392 428.001 392.6 428.801 393.2 429.501C394.5 427.701 397.8 428.401 398.3 430.501C398.7 428.901 400.3 427.801 402 427.901C403.6 428.101 405 429.401 405.2 431.001C406.2 430.701 406.8 429.701 406.7 428.701C407.8 430.501 410.8 430.101 412.1 428.401C413.4 426.701 413.2 424.301 412.6 422.301C409.3 423.901 407.4 427.901 408.3 431.501C410.2 431.501 411.6 430.001 413 428.701C414.4 427.401 416.5 426.301 418 427.401C418.6 427.801 419 428.401 419.2 429.101C419.8 430.801 419.6 432.901 418.6 434.401C418.1 432.601 418.3 430.601 419.1 429.001C419.4 428.301 419.9 427.601 420.6 427.301C421.3 427.001 422.3 427.301 422.5 428.001" stroke="#010101" stroke-width="0.5" stroke-miterlimit="10" stroke-linecap="round" stroke-linejoin="round"/>
<path d="M381.8 441.401C382.4 440.101 380.2 439.001 379.1 439.901C378 440.801 377.9 442.401 377.9 443.901C377.9 444.501 377.9 445.101 378.2 445.501C378.8 446.501 380.4 446.501 381.4 445.701C382.3 444.901 382.8 443.701 383.1 442.601C383.7 443.601 384.3 444.501 385 445.501C386 444.701 386.9 443.901 387.9 443.201C388.9 444.001 389.8 445.001 390.5 446.101C391.1 445.301 391.7 444.601 392.3 443.801C394.3 444.301 396.1 445.401 398.1 445.701C400.1 446.001 402.5 445.201 403.1 443.201C403.8 444.801 406.1 445.401 407.5 444.401C408.9 443.401 409.1 441.101 407.9 439.801C405.2 439.901 404.6 443.701 404.8 446.401C404.9 446.901 404.9 447.501 405.3 447.901C406.2 448.801 407.7 447.901 408.6 447.001C410.1 445.501 411.6 444.001 413 442.501C414.1 443.801 415.2 445.101 416.4 446.401C417.7 444.901 419 443.501 420.4 442.001C421.7 444.001 425 444.201 426.6 442.401C425.9 443.601 427.8 444.901 429.2 444.601C430.6 444.301 431.9 443.401 433.3 443.601C434 443.701 434.6 444.101 435.2 444.101C436.5 444.201 437.6 442.901 437.8 441.601C438 440.301 437.5 439.001 437.1 437.701C434.4 436.901 431.5 439.801 432.1 442.401C432.8 445.101 436.7 446.201 438.7 444.301C439.9 443.101 440.4 441.201 441.8 440.301C443.3 439.401 445.2 440.001 446.8 440.701C448.4 441.401 450 442.401 451.7 442.201C453.4 442.001 454.9 439.801 453.8 438.501" stroke="#010101" stroke-width="0.5" stroke-miterlimit="10" stroke-linecap="round" stroke-linejoin="round"/>
<path d="M280 369.6C279.4 369 278.5 368.9 277.8 369.3C277.4 370.2 277.6 371.4 278.2 372.2C279 371.7 279.7 371.1 280.5 370.6C283.5 371.2 286.5 371.6 289.6 371.7C290.4 371.7 291.2 371.7 291.8 371.2C293 370.2 292.1 368.2 291.1 366.9C290 368.2 288.9 369.7 288.8 371.4C288.6 373.1 289.9 375.1 291.6 374.9C292.9 374.8 293.9 373.6 295.1 373.1C294.8 374.4 295.2 375.8 296.1 376.7C297 375.7 298.1 374.8 299.3 374.1C299.5 375 300.7 375.4 301.6 375.1C302.5 374.8 303.1 374 303.7 373.2C307 374.6 311.2 375.7 313.6 373.1C312.6 373.6 311.7 374.1 310.7 374.6" stroke="#010101" stroke-width="0.5" stroke-miterlimit="10" stroke-linecap="round" stroke-linejoin="round"/>
<path d="M280.4 382.601C280.6 381.801 280.9 381.001 281.1 380.101C280.2 379.501 279 380.101 278.5 381.001C278 381.901 278.1 383.001 278.2 384.101C279.5 384.801 281 383.601 282.2 382.801C283.4 382.001 285.7 381.801 285.9 383.301C286.7 382.501 287.6 381.701 288.4 380.801C288.7 381.301 289.4 381.501 290.1 381.501C292.9 381.801 296.4 381.601 297.4 379.001C298.2 380.301 300.1 380.901 301.5 380.101C302.3 379.701 302.9 378.801 303.8 378.701C304.9 378.501 305.9 379.501 307 379.801C308.1 380.201 309.7 379.201 309.1 378.301C308.8 378.801 308.4 379.201 308.1 379.701" stroke="#010101" stroke-width="0.5" stroke-miterlimit="10" stroke-linecap="round" stroke-linejoin="round"/>
<path d="M359 379.3C359 379.3 383.3 385.101 387.1 376.201C390.8 367.201 400 397.001 400 397.001C400 397.001 394.3 395.801 383.7 406.201C373.1 416.601 347.1 406.201 347.1 406.201C347.1 406.201 336.6 395.6 359 379.3Z" fill="white" stroke="black" stroke-miterlimit="10" stroke-linecap="round" stroke-linejoin="round"/>
<path d="M369.5 412.201C368.3 412.101 364.7 413.601 363.3 413.401C361.9 413.301 362.4 413.401 361.3 414.201C360.8 414.601 360 414.701 359 414.301C358.2 413.901 357.4 413.7 356.6 413.6C351.8 413.3 336.9 412.201 334.8 412.301C334 412.301 329.2 415.201 328.2 415.301C324.8 415.901 325.2 411 324.7 407.6C324.3 404.9 320.4 401.301 324.6 398.701C324.6 398.701 343.1 388.8 345.2 387.1C347.3 385.3 349.8 380.901 359.1 383.801C368.4 386.701 378.7 392.801 383.8 394.701C388.9 396.601 390.6 399.7 389.9 401.1C389.2 402.5 385.3 401.901 382 400.401C378.8 398.901 364.2 394.6 364.2 394.6C364.2 394.6 393.9 404.701 383 405.301C383 405.301 380.4 406.201 379.6 405.801C379.6 405.801 372.7 406 364.2 399.1C364.2 399.1 371.2 407.101 378.2 407.801C378.2 407.801 382.7 410.901 371.5 410.501C371.5 410.501 368.3 411.501 360.7 405.201C360.6 405.301 372.1 412.401 369.5 412.201Z" fill="white" stroke="black" stroke-miterlimit="10" stroke-linecap="round" stroke-linejoin="round"/>
<path d="M332.7 411.4C332.7 411.4 336.9 401 338.4 404.4C339.9 407.8 339 410.6 339 410.6L340.7 405.4C340.7 405.4 345.1 396.9 344.4 405.7L344.1 410.6C344.1 410.6 350.7 397.8 350.2 409.2L349.9 411.9C349.9 411.9 353.7 402.7 354.3 409.9C354.3 409.9 355.8 412.4 356.6 414.7C357.4 417.1 356.8 418.9 352.6 417.8C351.6 417.5 350.7 415.7 347.5 417.1C347.1 417.3 346.7 417 346.3 417C345.3 416.9 345.3 416 344.2 415.9C343.3 415.8 341.5 416.4 340.7 416.3C339.8 416.1 339.6 415.2 338.8 415C337.8 414.8 336.2 415.3 335.4 415C333 414.1 331.7 412.7 332.9 410.8" fill="white"/>
<path d="M332.7 411.4C332.7 411.4 336.9 401 338.4 404.4C339.9 407.8 339 410.6 339 410.6L340.7 405.4C340.7 405.4 345.1 396.9 344.4 405.7L344.1 410.6C344.1 410.6 350.7 397.8 350.2 409.2L349.9 411.9C349.9 411.9 353.7 402.7 354.3 409.9C354.3 409.9 355.8 412.4 356.6 414.7C357.4 417.1 356.8 418.9 352.6 417.8C351.6 417.5 350.7 415.7 347.5 417.1C347.1 417.3 346.7 417 346.3 417C345.3 416.9 345.3 416 344.2 415.9C343.3 415.8 341.5 416.4 340.7 416.3C339.8 416.1 339.6 415.2 338.8 415C337.8 414.8 336.2 415.3 335.4 415C333 414.1 331.7 412.7 332.9 410.8" stroke="black" stroke-miterlimit="10" stroke-linecap="round" stroke-linejoin="round"/>
<path d="M384.8 389C384.8 389 376.9 391.3 370.9 388.2C364.9 385.1 358.6 388.2 358.6 388.2C358.6 388.2 345.8 395.1 345.3 390.3C344.7 385.5 358.6 379.4 358.6 379.4" fill="white"/>
<path d="M384.8 389C384.8 389 376.9 391.3 370.9 388.2C364.9 385.1 358.6 388.2 358.6 388.2C358.6 388.2 345.8 395.1 345.3 390.3C344.7 385.5 358.6 379.4 358.6 379.4" stroke="black" stroke-miterlimit="10" stroke-linecap="round" stroke-linejoin="round"/>
<path d="M217.1 333.3C217.1 333.3 236.5 327.9 246 336C259.2 347.4 256.3 498.8 260.5 513.4C264.7 528 230.3 530.3 230.3 530.3L217.1 333.3Z" fill="#5C58A6" stroke="black" stroke-miterlimit="10" stroke-linecap="round" stroke-linejoin="round"/>
<path d="M217.2 301C216.8 302.5 206.5 320.6 210.8 325.9C215.1 331.2 246.3 339.4 245.9 340.9C245.4 342.4 213.6 362.9 169 357.1C169 357.1 105.9 369.4 170.8 329.5C170.8 329.5 190.1 310.4 191.2 294C192.3 277.6 217.2 301 217.2 301Z" fill="white" stroke="black" stroke-miterlimit="10"/>
<path d="M201.6 320.9C201.6 320.9 196.4 329.1 198.9 330.8L201.6 320.9Z" fill="white"/>
<path d="M201.6 320.9C201.6 320.9 196.4 329.1 198.9 330.8" stroke="black" stroke-miterlimit="10"/>
<path d="M245.9 340.901C245.9 340.901 206 334.301 201.4 339.501C196.8 344.601 129.7 346.301 136.9 378.101C141.7 399.201 152.6 416.401 159.2 434.601C163.9 447.501 166.5 461.001 163.1 476.701C154.9 514.401 116.7 612.901 151.5 736.001C151.5 736.001 135.1 837.701 167.6 830.801C167.6 830.801 181.9 837.801 211.4 831.101C240.9 824.501 257.2 833.901 272.9 821.301C283.6 812.701 274.8 795.001 273.4 783.601C270.5 760.201 270.6 736.301 271.3 712.801C271.8 697.601 277.6 685.601 279.1 670.701C280.6 654.501 278.7 638.101 275.9 622.101C270.1 590.201 260.4 559.101 255.1 527.101C251.8 507.301 250.3 486.901 252.6 466.901C253.8 456.801 257 447.501 259.1 437.701C260.7 430.101 260.7 422.501 264.1 415.101C276.7 388.201 279 394.601 245.9 340.901Z" fill="#5C58A6" stroke="black" stroke-miterlimit="10" stroke-linecap="round" stroke-linejoin="round"/>
<path d="M143.9 390.1C143.9 390.1 127.3 365.2 145.5 348.9C163.7 332.6 221.1 411.7 250 407.9C278.9 404.1 319.5 389.5 322.4 395.8C325.3 402.1 332.4 423.4 325.3 425.9C318.2 428.4 249.8 445.2 240.7 441C231.5 436.8 204.1 439.1 143.9 390.1Z" fill="#5C58A6" stroke="black" stroke-miterlimit="10" stroke-linecap="round" stroke-linejoin="round"/>
<path d="M164.6 466.4C164.6 466.4 231.4 484.8 252.2 472.6L251.8 479.7C251.8 479.7 224.7 489.4 164.2 473.1L164.6 466.4Z" fill="#8986C1" stroke="black" stroke-miterlimit="10" stroke-linecap="round" stroke-linejoin="round"/>
<path d="M242.9 434.601C242.9 434.601 244.1 437.901 250.3 436.301" stroke="black" stroke-miterlimit="10" stroke-linecap="round" stroke-linejoin="round"/>
<path d="M169.6 440.401C169.6 440.401 173.4 440.901 175.4 439.601L169.6 440.401Z" fill="#5C58A6"/>
<path d="M169.6 440.401C169.6 440.401 173.4 440.901 175.4 439.601" stroke="black" stroke-miterlimit="10" stroke-linecap="round" stroke-linejoin="round"/>
<path d="M273 682.601C273 682.601 247.1 763.201 248.7 786.201" stroke="black" stroke-miterlimit="10" stroke-linecap="round" stroke-linejoin="round"/>
<path d="M153.7 756.501C153.7 756.501 149.8 744.801 151.6 736.501" stroke="black" stroke-miterlimit="10" stroke-linecap="round" stroke-linejoin="round"/>
<path d="M224 622.501C224 622.501 221.5 633.001 213.1 643.001" stroke="black" stroke-miterlimit="10" stroke-linecap="round" stroke-linejoin="round"/>
<path d="M167.8 265.2C169.8 269.1 174.3 293.6 216.2 312.5C217.7 313.2 219.4 313.4 221.1 313C227.4 311.5 241.5 303.6 239.8 263.7C237.7 212.4 186 216 186 216C186 216 151 231.3 167.8 265.2Z" fill="white" stroke="black" stroke-miterlimit="10"/>
<path d="M208.6 262.6C208.8 261.5 209.3 260.6 209.9 259.8C210.5 259 211.4 258.2 212.4 257.7C213.4 257.2 214.7 257.1 215.9 257.5C217 257.9 217.8 258.8 218.2 259.7C217.2 259.4 216.3 259 215.5 259C214.7 259 214 259.2 213.2 259.5C212.5 259.8 211.7 260.3 211 260.8C210.3 261.4 209.5 262 208.6 262.6Z" fill="black"/>
<path d="M228.4 254.5C228.4 253.5 228.7 252.6 229.2 251.8C229.7 251 230.5 250.3 231.5 249.9C231.8 249.8 232 249.7 232.3 249.7C232.6 249.7 232.8 249.7 233.1 249.6C233.6 249.7 234.2 249.8 234.6 250C235.1 250.2 235.4 250.6 235.8 250.9C236.1 251.3 236.4 251.7 236.6 252.1C236.1 252 235.7 251.9 235.3 251.8C234.9 251.7 234.5 251.6 234.1 251.6C233.4 251.5 232.8 251.6 232.2 251.8C231.6 252 231 252.4 230.4 252.9C229.7 253.3 229.1 253.9 228.4 254.5Z" fill="black"/>
<path d="M215.2 274.6C216.249 274.6 217.1 272.675 217.1 270.3C217.1 267.925 216.249 266 215.2 266C214.151 266 213.3 267.925 213.3 270.3C213.3 272.675 214.151 274.6 215.2 274.6Z" fill="black" stroke="black" stroke-miterlimit="10" stroke-linecap="round" stroke-linejoin="round"/>
<path d="M233.8 265.999C234.849 265.999 235.7 264.074 235.7 261.699C235.7 259.325 234.849 257.399 233.8 257.399C232.751 257.399 231.9 259.325 231.9 261.699C231.9 264.074 232.751 265.999 233.8 265.999Z" fill="black" stroke="black" stroke-miterlimit="10" stroke-linecap="round" stroke-linejoin="round"/>
<path d="M225.7 264.5C225.7 264.5 222.9 270.7 228 274.5C233.1 278.4 228.7 278.3 226.8 279.2" stroke="black" stroke-miterlimit="10" stroke-linecap="round" stroke-linejoin="round"/>
<path d="M228 288.2C228 288.2 222.9 293.1 215.8 290.4C215.8 290.4 223.3 308.5 228 288.2Z" fill="#EEDBEB" stroke="black" stroke-miterlimit="10" stroke-linecap="round" stroke-linejoin="round"/>
<path d="M190.6 183.2C190.6 183.2 255.5 188.1 239.8 260.7C239.8 260.7 224.4 225.2 202 205.6C179.6 186 190.6 183.2 190.6 183.2Z" fill="#3A3A3A" stroke="black" stroke-miterlimit="10" stroke-linecap="round" stroke-linejoin="round"/>
<path d="M165.5 322.1C165.5 322.1 86.4 235 152.8 195.9C219.2 156.8 210.3 196.5 214.7 210.4C219.1 224.2 209.8 289.2 196.4 302.8C181.6 317.8 179 328.2 179 328.2L165.5 322.1Z" fill="#3A3A3A" stroke="black" stroke-miterlimit="10" stroke-linecap="round" stroke-linejoin="round"/>
<path d="M162.8 330.8C162.8 330.8 142.2 350.3 167.8 381.7C193.4 413.1 204.4 415.6 204.4 415.6C204.4 415.6 208.3 389.3 194.7 374.5C181.1 359.7 200.4 376.1 198.2 370.7C196 365.3 204.4 354.4 178.1 328C178.1 328 171.5 321.9 162.8 330.8Z" fill="#3A3A3A" stroke="black" stroke-miterlimit="10" stroke-linecap="round" stroke-linejoin="round"/>
<path d="M163.3 322.1C163.3 322.1 160.5 322.8 162.5 326.5C164.5 330.1 177.7 329.8 177.7 329.8C177.7 329.8 182.1 328.5 178.4 324.4C174.8 320.1 164.7 320.3 163.3 322.1Z" fill="#F7F2F8" stroke="black" stroke-miterlimit="10" stroke-linecap="round" stroke-linejoin="round"/>
<path d="M216.7 221.601C216.7 221.601 249.8 250.701 242.6 295.401C242.4 296.601 242.2 297.801 242.1 299.001C241.4 305.601 239 327.801 237.8 324.401C237.8 324.401 240.9 274.201 237.2 259.901C234.9 250.801 222.9 232.301 216.7 221.601Z" fill="#3A3A3A" stroke="black" stroke-miterlimit="10" stroke-linecap="round" stroke-linejoin="round"/>
<path d="M581.8 530.3C581.8 530.3 597.7 585.3 570.8 610.8L589.2 891.7L552.3 899.2L534.4 597.3L581.8 530.3Z" fill="#5A5A81" stroke="black" stroke-miterlimit="10" stroke-linecap="round" stroke-linejoin="round"/>
<path d="M581.8 543.399C581.8 543.399 582.4 593.999 551.7 610.999L566.8 897.899C566.8 897.899 520.9 929.899 509.3 905.399C497.7 880.899 462.9 550.299 462.9 550.299L581.8 543.399Z" fill="#5A5A81" stroke="black" stroke-miterlimit="10" stroke-linecap="round" stroke-linejoin="round"/>
<path d="M466.8 312.001C466.8 312.001 442.1 345.301 439 347.201C435.9 349.101 400.1 366.001 395.1 364.801C390.1 363.601 404.5 411.301 409.5 414.701C414.5 418.101 475.8 383.001 477.1 375.501C478.4 367.901 488.9 339.701 466.8 312.001Z" fill="#E2E2E2" stroke="black" stroke-miterlimit="10"/>
<path d="M395 364.8C395 364.8 382.9 363.2 406.8 415.4C406.8 415.4 418.7 420.6 409.5 397.8C409.5 397.8 399.9 364.8 395 364.8Z" fill="#CFCFCE" stroke="black" stroke-miterlimit="10" stroke-linecap="round" stroke-linejoin="round"/>
<path d="M395.1 371.3C393.9 372.6 383.9 373.8 383.9 376.3C383.9 378.8 392.7 403.6 396.5 405.8C400.3 408 410.1 400.5 410.1 400.5C410.1 400.5 402.5 363.5 395.1 371.3Z" fill="white" stroke="black" stroke-miterlimit="10"/>
<path d="M402.8 402.8C403.463 402.8 404 401.994 404 401C404 400.006 403.463 399.2 402.8 399.2C402.137 399.2 401.6 400.006 401.6 401C401.6 401.994 402.137 402.8 402.8 402.8Z" fill="#5C58A6" stroke="black" stroke-width="0.25" stroke-miterlimit="10" stroke-linecap="round" stroke-linejoin="round"/>
<path d="M543.5 234.501C543.5 234.501 539.8 237.501 545.1 242.301C550.4 247.101 529.6 254.701 512.4 263.701C512.4 263.701 506.9 258.601 506.7 253.401C506.6 248.201 529.9 223.401 539 226.701C548.2 230.101 543.5 234.501 543.5 234.501Z" fill="white" stroke="black" stroke-miterlimit="10" stroke-linecap="round" stroke-linejoin="round"/>
<path d="M481.8 279.2C501.2 267.4 533.2 248.1 545.1 242.3C545.1 242.3 556.4 235.2 556.2 242.3C556.2 242.3 556.4 245.9 560.8 251.9C565.2 258 601.4 230.7 586.2 408C586.2 408 597.4 481.2 622.5 540.2C622.5 540.2 608.7 565.3 557.2 562.2C557.2 562.2 533.3 551.5 476.2 567.2C419.1 582.9 442.3 583.1 440.4 548.2C438.6 514.7 464.5 442.2 466.1 306.8C466.3 295.5 472.2 285.1 481.8 279.2Z" fill="#E2E2E2" stroke="black" stroke-miterlimit="10"/>
<path d="M517.5 556.601C517.5 556.601 517.9 556.801 517.5 560.001C516.8 565.601 515.5 576.001 517.1 580.101C519.7 586.501 489.9 577.401 488.9 574.901C488.2 573.101 494 562.201 497.3 556.001C498.6 553.501 499.3 552.001 499.3 552.001L517.5 556.601Z" fill="white" stroke="black" stroke-miterlimit="10"/>
<path d="M469.2 507.001C469.2 507.001 489.7 503.701 498.7 507.001C498.7 507.001 501.8 509.901 469.2 507.001Z" fill="#CFCFCE" stroke="black" stroke-miterlimit="10" stroke-linecap="round" stroke-linejoin="round"/>
<path d="M493.5 543.4C493.5 543.4 491 551.4 493.5 553.3C496 555.2 519.1 558.8 521.5 556.7C523.9 554.6 526.1 543.4 526.1 543.4H493.5Z" fill="white" stroke="black" stroke-miterlimit="10"/>
<path d="M495.1 551.701C495.763 551.701 496.3 550.895 496.3 549.901C496.3 548.907 495.763 548.101 495.1 548.101C494.437 548.101 493.9 548.907 493.9 549.901C493.9 550.895 494.437 551.701 495.1 551.701Z" fill="#5C58A6" stroke="black" stroke-width="0.25" stroke-miterlimit="10" stroke-linecap="round" stroke-linejoin="round"/>
<path d="M482 571.001C482 571.001 490.3 587.201 522.3 582.401L482 571.001Z" fill="white"/>
<path d="M482 571.001C482 571.001 490.3 587.201 522.3 582.401" stroke="black" stroke-miterlimit="10" stroke-linecap="round" stroke-linejoin="round"/>
<path d="M497.3 556.101L517.5 559.701L516.8 565.101L495.1 561.001L497.3 556.101Z" fill="#9A9A9A" stroke="black" stroke-width="0.5" stroke-miterlimit="10" stroke-linecap="round" stroke-linejoin="round"/>
<path d="M506.3 565.101C508.785 565.101 510.8 563.086 510.8 560.601C510.8 558.115 508.785 556.101 506.3 556.101C503.815 556.101 501.8 558.115 501.8 560.601C501.8 563.086 503.815 565.101 506.3 565.101Z" fill="#E2E0F0" stroke="black" stroke-width="0.5" stroke-miterlimit="10" stroke-linecap="round" stroke-linejoin="round"/>
<path d="M502.2 559.101L503.3 559.401" stroke="black" stroke-width="0.5" stroke-miterlimit="10" stroke-linecap="round" stroke-linejoin="round"/>
<path d="M509.3 561.501L510.3 561.901" stroke="black" stroke-width="0.5" stroke-miterlimit="10" stroke-linecap="round" stroke-linejoin="round"/>
<path d="M508.4 556.9L507.8 557.9" stroke="black" stroke-width="0.5" stroke-miterlimit="10" stroke-linecap="round" stroke-linejoin="round"/>
<path d="M505.1 563.501L504.5 564.501" stroke="black" stroke-width="0.5" stroke-miterlimit="10" stroke-linecap="round" stroke-linejoin="round"/>
<path d="M506.3 561.201C506.466 561.201 506.6 561.066 506.6 560.901C506.6 560.735 506.466 560.601 506.3 560.601C506.134 560.601 506 560.735 506 560.901C506 561.066 506.134 561.201 506.3 561.201Z" fill="#F5F5FA" stroke="black" stroke-width="0.2" stroke-miterlimit="10"/>
<path d="M506.2 560.801L504.5 559.101" stroke="#7B7B7B" stroke-width="0.5" stroke-miterlimit="10" stroke-linecap="round" stroke-linejoin="round"/>
<path d="M506.3 560.7L506.5 557.2" stroke="#7B7B7B" stroke-width="0.5" stroke-miterlimit="10" stroke-linecap="round" stroke-linejoin="round"/>
<path d="M471.7 309.6C471.7 309.6 480.8 269.1 514.3 283.6C545.9 297.2 531.6 324 558.8 395.3C562.2 404.1 563 413.6 561.2 422.8C555.3 452.5 541.6 519.7 534.5 545.3C534.5 545.3 498.7 556.6 490.9 545.3C483.2 534 513.2 440.8 510.4 414.4C507.6 388 467.2 335.6 471.7 309.6Z" fill="#E2E2E2" stroke="black" stroke-miterlimit="10"/>
<path d="M549.6 404.201C549.6 404.201 555.4 417.701 549.6 422.401V404.201Z" fill="#E2E2E2"/>
<path d="M549.6 404.201C549.6 404.201 555.4 417.701 549.6 422.401" stroke="black" stroke-miterlimit="10"/>
<path d="M439 347.201C439 347.201 445.8 343.501 450 346.801" stroke="black" stroke-miterlimit="10" stroke-linecap="round" stroke-linejoin="round"/>
<path d="M447.7 340.501C447.7 340.501 450 340.801 450 343.801" stroke="black" stroke-miterlimit="10" stroke-linecap="round"/>
<path d="M584.3 422.401C584.3 422.401 578.7 452.801 581.8 464.101L584.3 422.401Z" fill="#CFCFCE"/>
<path d="M584.3 422.401C584.3 422.401 578.7 452.801 581.8 464.101" stroke="black" stroke-miterlimit="10" stroke-linecap="round" stroke-linejoin="round"/>
<path d="M567.4 266.001C567.4 266.001 574.9 280.001 570.8 301.801L567.4 266.001Z" fill="#E2E2E2"/>
<path d="M567.4 266.001C567.4 266.001 574.9 280.001 570.8 301.801" stroke="black" stroke-miterlimit="10"/>
<path d="M471.7 214.701C471.7 214.701 476.4 220.101 482.3 223.901C488.2 227.701 472.9 250.8 482.1 255.8C488.3 259.201 510.6 238.101 528.2 224.601C536.7 218.001 545.4 220.901 548.2 214.601C556.6 195.101 525.2 147.901 505.1 149.901C485 152.001 462.7 161.501 462.7 161.501C462.7 161.501 460.5 168.101 461.4 173.101C462.3 178.101 470 202.001 461.9 212.601C461.9 212.601 458.4 216.801 471.8 214.601" fill="white"/>
<path d="M471.7 214.701C471.7 214.701 476.4 220.101 482.3 223.901C488.2 227.701 472.9 250.8 482.1 255.8C488.3 259.2 510.6 238.101 528.2 224.601C536.7 218.001 545.4 220.901 548.2 214.601C556.6 195.101 525.2 147.901 505.1 149.901C485 152.001 462.7 161.501 462.7 161.501C462.7 161.501 460.5 168.101 461.4 173.101C462.3 178.101 470 202.001 461.9 212.601C461.9 212.601 458.4 216.801 471.8 214.601" stroke="black" stroke-miterlimit="10" stroke-linecap="round" stroke-linejoin="round"/>
<path d="M513.1 121.1C513.1 121.1 522.1 114.2 525.2 118.4C525.2 118.4 536.4 113.1 539.4 118.1C539.4 118.1 547.7 114.5 551.6 122.3C551.6 122.3 559.1 123.8 560.2 133.1C560.2 133.1 589.2 195.6 551 225.2C551 225.2 547.5 234.2 537.9 237.2C528.3 240.2 523.8 207.6 523.8 207.6C523.8 207.6 525.8 176.3 514.3 191.6C514.3 191.6 508.6 188.3 507.8 179C507.8 179 481.1 169.1 484.8 148.1C488.5 127.1 513.1 121.1 513.1 121.1Z" fill="#3A3A3A" stroke="black" stroke-miterlimit="10" stroke-linecap="round" stroke-linejoin="round"/>
<path d="M525.2 118.4C525.2 118.4 543.9 151.2 514.3 191.6L525.2 118.4Z" fill="#3A3A3A"/>
<path d="M525.2 118.4C525.2 118.4 543.9 151.2 514.3 191.6" stroke="black" stroke-miterlimit="10" stroke-linecap="round" stroke-linejoin="round"/>
<path d="M513.1 121.101C513.1 121.101 530.5 143.301 507.8 179.101" stroke="black" stroke-miterlimit="10" stroke-linecap="round" stroke-linejoin="round"/>
<path d="M502.8 125.3C502.8 125.3 522 135.3 499.1 173.4" stroke="black" stroke-miterlimit="10" stroke-linecap="round" stroke-linejoin="round"/>
<path d="M495.2 130.5C495.2 130.5 506.2 136.3 492.3 168.5" stroke="black" stroke-miterlimit="10" stroke-linecap="round" stroke-linejoin="round"/>
<path d="M511.8 121.1C518.2 127 499.9 164.1 490.9 167.4C490.9 167.4 457.8 178.7 444.9 154.4C444.9 154.4 447.1 147.4 452.6 146.1C452.6 146.1 455.9 139.2 461.3 140.6C461.3 140.6 466 132.7 470.5 135.5C470.5 135.5 475.8 126 481.7 129.9C481.7 129.9 487.7 119.6 496.6 123.7C496.6 123.8 505.1 114.9 511.8 121.1Z" fill="#3A3A3A" stroke="black" stroke-miterlimit="10" stroke-linecap="round" stroke-linejoin="round"/>
<path d="M490.9 167.4C467.7 167.4 452.6 146.1 452.6 146.1" stroke="black" stroke-miterlimit="10" stroke-linecap="round" stroke-linejoin="round"/>
<path d="M461.3 140.699C461.3 140.699 484.8 164.799 493.1 166.199" stroke="black" stroke-miterlimit="10" stroke-linecap="round" stroke-linejoin="round"/>
<path d="M470.5 135.5C470.5 135.5 476.9 153.9 499.2 159.1" stroke="black" stroke-miterlimit="10" stroke-linecap="round" stroke-linejoin="round"/>
<path d="M481.7 130C481.7 130 482.7 149.3 502.9 153.4" stroke="black" stroke-miterlimit="10" stroke-linecap="round" stroke-linejoin="round"/>
<path d="M496.6 123.8C496.6 123.8 488.3 142.5 506.7 146.2" stroke="black" stroke-miterlimit="10" stroke-linecap="round" stroke-linejoin="round"/>
<path d="M523.8 207.701C559.5 156.001 539.4 118.101 539.4 118.101" stroke="black" stroke-miterlimit="10" stroke-linecap="round" stroke-linejoin="round"/>
<path d="M550.9 121.101C550.9 121.101 578 176.501 527.6 223.001" stroke="black" stroke-miterlimit="10" stroke-linecap="round" stroke-linejoin="round"/>
<path d="M464.1 190.101C464.1 190.101 461.9 186.501 463.6 186.201C465.3 185.901 477.4 180.901 483.3 185.401C483.2 185.501 465.5 184.201 464.1 190.101Z" fill="black" stroke="black" stroke-miterlimit="10" stroke-linecap="round" stroke-linejoin="round"/>
<path d="M512.1 189.7C512.1 189.7 521.4 214.4 509 223C507.2 224.2 493.2 222.4 487.9 217.6C480.2 210.6 469.4 215.1 469.4 215.1C469.4 215.1 466.9 228.5 477.1 226.3C483 225 476 229 474.2 231.4C472.5 233.8 473.6 257.7 485.5 262.9C497.4 268.1 529.2 250.2 528.1 226.5L523.7 207.4C523.7 207.4 521.4 212.8 519.4 208.8C517.4 204.9 515.7 191.6 514.6 191.2L512.1 189.7Z" fill="#3A3A3A" stroke="black" stroke-miterlimit="10" stroke-linecap="round" stroke-linejoin="round"/>
<path d="M498.7 249.3C498.7 249.3 498.2 253.1 496.5 253.6L498.7 249.3Z" fill="#3A3A3A"/>
<path d="M498.7 249.3C498.7 249.3 498.2 253.1 496.5 253.6" stroke="black" stroke-miterlimit="10" stroke-linecap="round" stroke-linejoin="round"/>
<path d="M473.545 200.43C474.97 200.257 475.878 198.073 475.572 195.551C475.266 193.029 473.862 191.124 472.437 191.297C471.011 191.47 470.104 193.655 470.41 196.177C470.716 198.699 472.119 200.603 473.545 200.43Z" fill="black" stroke="black" stroke-miterlimit="10" stroke-linecap="round" stroke-linejoin="round"/>
</svg>
