<svg width="280" height="280" viewBox="0 0 280 280" fill="none" xmlns="http://www.w3.org/2000/svg">
<path d="M214.459 108.79C214.459 108.79 189.42 130.768 218.251 177.83C243.856 219.626 186.304 237.744 161.505 232.892C129.378 226.608 110.933 186.002 86.3649 198.868C61.7969 211.734 37.4581 153.432 73.1947 131.978C117.649 105.29 89.119 89.7819 93.1116 70.2138C95.9773 56.17 136.756 34.4568 158.744 59.2249C177.246 80.067 186.32 72.6106 194.777 69.8283C206.974 65.8153 233.597 86.6889 214.459 108.79Z" fill="#FCE8E4"/>
<path d="M143.565 133.557L135.362 167.205C135.057 168.453 135.001 169.749 135.198 171.018C135.394 172.287 135.839 173.506 136.506 174.603C137.173 175.701 138.05 176.656 139.087 177.414C140.123 178.173 141.299 178.72 142.547 179.024L183.346 188.97C184.395 200.488 193.927 201.339 197.687 201.734C197.724 201.736 197.761 201.726 197.792 201.705C197.822 201.684 197.845 201.653 197.857 201.618C197.868 201.583 197.867 201.545 197.855 201.51C197.843 201.475 197.819 201.445 197.788 201.425C195.087 199.779 194.281 195.266 194.101 191.592L197.13 192.33C198.378 192.635 199.673 192.691 200.943 192.494C202.212 192.298 203.43 191.853 204.528 191.186C205.625 190.519 206.58 189.642 207.339 188.605C208.097 187.569 208.644 186.393 208.948 185.145L217.151 151.496C217.456 150.248 217.512 148.953 217.315 147.683C217.119 146.414 216.674 145.196 216.007 144.098C215.34 143.001 214.463 142.046 213.426 141.287C212.39 140.529 211.214 139.982 209.966 139.678L155.383 126.371C154.136 126.067 152.84 126.011 151.571 126.207C150.301 126.403 149.083 126.848 147.985 127.515C146.888 128.182 145.933 129.059 145.174 130.096C144.416 131.133 143.869 132.309 143.565 133.557Z" fill="#FF7585"/>
<path d="M211.241 150.156L188.427 144.594C188.277 144.558 188.126 144.65 188.089 144.8L186.919 149.601C186.882 149.751 186.974 149.903 187.124 149.939L209.938 155.501C210.088 155.538 210.24 155.446 210.277 155.295L211.447 150.495C211.484 150.344 211.391 150.193 211.241 150.156Z" fill="white"/>
<path d="M207.984 163.518L146.171 148.449C146.021 148.412 145.87 148.504 145.833 148.655L144.663 153.455C144.626 153.606 144.718 153.757 144.868 153.794L206.681 168.863C206.831 168.9 206.982 168.808 207.019 168.657L208.189 163.857C208.226 163.706 208.134 163.555 207.984 163.518Z" fill="#FCE8E4"/>
<path d="M204.726 176.88L142.914 161.811C142.764 161.774 142.612 161.867 142.576 162.017L141.405 166.817C141.369 166.968 141.461 167.119 141.611 167.156L203.423 182.225C203.573 182.262 203.725 182.17 203.761 182.019L204.932 177.219C204.968 177.069 204.876 176.917 204.726 176.88Z" fill="#FCE8E4"/>
<path d="M166.536 93.1923L179.95 136.27C180.448 137.868 180.626 139.548 180.475 141.214C180.323 142.88 179.845 144.501 179.067 145.982C178.289 147.463 177.227 148.777 175.941 149.848C174.655 150.919 173.171 151.726 171.574 152.223L119.343 168.487C118.92 183.547 106.597 185.433 101.74 186.253C101.692 186.259 101.643 186.249 101.601 186.225C101.559 186.2 101.526 186.162 101.509 186.117C101.491 186.072 101.488 186.022 101.502 185.975C101.516 185.929 101.545 185.888 101.584 185.86C104.96 183.499 105.64 177.566 105.574 172.774L101.696 173.982C100.099 174.48 98.4189 174.658 96.7526 174.506C95.0863 174.355 93.4662 173.876 91.9848 173.099C90.5035 172.321 89.1899 171.259 88.1191 169.973C87.0483 168.687 86.2413 167.203 85.7442 165.606L72.3297 122.528C71.8317 120.93 71.6534 119.25 71.8049 117.584C71.9565 115.918 72.4348 114.297 73.2127 112.816C73.9906 111.335 75.0527 110.021 76.3384 108.95C77.6242 107.879 79.1083 107.072 80.706 106.575L150.583 84.8159C152.18 84.318 153.86 84.1397 155.527 84.2912C157.193 84.4427 158.813 84.9211 160.295 85.699C161.776 86.4768 163.09 87.539 164.161 88.8247C165.231 90.1104 166.038 91.5946 166.536 93.1923Z" fill="#FF9E89"/>
<path d="M117.186 108.621L79.7665 120.258C79.6189 120.304 79.5364 120.461 79.5823 120.609L81.5445 126.918C81.5904 127.066 81.7473 127.148 81.895 127.102L119.314 115.465C119.462 115.419 119.544 115.262 119.498 115.114L117.536 108.805C117.49 108.657 117.333 108.575 117.186 108.621Z" fill="white"/>
<path d="M164.407 112.62L85.1128 137.312C84.9652 137.358 84.8827 137.515 84.9287 137.663L86.893 143.971C86.939 144.119 87.096 144.201 87.2436 144.155L166.538 119.462C166.686 119.416 166.768 119.259 166.722 119.112L164.758 112.804C164.712 112.656 164.555 112.574 164.407 112.62Z" fill="#FCE8E4"/>
<path d="M169.727 129.814L90.4138 154.48C90.2661 154.525 90.1836 154.682 90.2295 154.83L92.1917 161.139C92.2376 161.287 92.3946 161.37 92.5422 161.324L171.855 136.658C172.003 136.612 172.085 136.455 172.039 136.307L170.077 129.998C170.031 129.85 169.874 129.768 169.727 129.814Z" fill="#FCE8E4"/>
</svg>
