<svg width="900" height="600" viewBox="0 0 900 600" fill="none" xmlns="http://www.w3.org/2000/svg"><path fill="transparent" d="M0 0h900v600H0z"/><path stroke="#E1E4E5" stroke-width="4" d="M148 527h610"/><path d="M432.509 202.039c-4.238 6.648-15.31 14.395-23.163 14.289-26.752-.49-35.559-18.713-38.446-25.348.543-.132 1.457-.238 2.106-.318 4.926-.715 9.959-5.588 11.429-11.084 1.894-7.152 4.225-21.137 3.947-30.023l33.837 18.726c-.053 2.569-.225 5.377-.464 8.211a243.86 243.86 0 0 1-.543 5.059 167.143 167.143 0 0 1-.596 4.45c-.622 4.635 1.444 9.23 5.351 11.786l6.542 4.252z" fill="#F8AE9D"/><path d="M435.422 129.199c-1.828 4.794-1.06 10.238.794 15.018 1.311 3.378 4.225.398 7.854.464 5.615.093 9.998-5.748 13.389-21.229 2.158-11.363 2.701-17.124 2.264-18.223-1.549-3.934-6.661-6.04-10.873-6.41" fill="#934231"/><path d="M443.965 95.15c8.846 10.661 12.064 40.658 4.595 61.556-5.311 14.859-11.482 24.448-18.687 24.143-10.939-.464-32.141-9.456-39.041-16.965-12.436-13.522-8.82-40.035-6.251-56.722 2.331-15.164 9.429-34.857 28.486-31.109 12.529 2.45 22.965 9.522 30.898 19.097z" fill="#F8AE9D"/><path d="M393.913 106.926c1.962 2.521 5.421 3.077 8.271 3.575 3.831.67 5.726 2.066 7.714 5.812 1.26 2.392 2.519 5.013 4.772 6.309 1.831 1.058 1.762-1.644 2.057-3.738a4.977 4.977 0 0 1 .112-.542c.445-1.671 2.225-1.384 2.749.264.477 1.481 1.498 2.734 2.797 3.432.212.114.437.214.662.171.305-.042.544-.327.743-.584.417-.538.832-1.221 1.26-1.945 1.407-2.375 4.062-1.521 5.632.749.981 1.41 2.148 2.863 3.752 3.19.517.114 1.166.029 1.405-.47.305-.612-.173-1.225-.093-1.851.066-.584.318-.841.596-1.339 1.094-1.938 3.589-2.007 5.127-.399a57 57 0 0 0 3.343 3.219c.491.427 1.207.855 1.697.427.265-.228.331-.612.384-.983.279-1.808.544-3.617.822-5.426.159-1.011.703-2.336 1.631-2.08.45.129.715.599.967 1.026.305.541 5.753 6.708 5.859 6.238.848-3.503 2.585-6.694 3.433-10.198 5.488-22.547-18.862-40.678-37.459-40.778-4.135-.029-7.913.038-11.93.993-4.281 1.025-8.801 2.653-12.685 4.946-5.447 3.205-9.57 9.03-8.509 15.981" fill="#934231"/><path d="M402.671 99.19c2.701 3.059 3.416 7.363 3.668 11.429.371 6.132-.132 12.502-2.966 17.945-.808 1.549-1.404 9.217-2.649 8.793-.397-.132-.331-6.078-1.377-9.283-1.616-4.967-9.059-6.86-12.41-3.722-5.35 4.993-2.211 11.059-.437 14.833 1.06 2.278 2.742 4.834 3.033 7.244.358 3.086.464 14.33-1.549 16.952-1.682 2.198-3.47-8.423-4.993-10.515-11.27-15.588-22.077-55.279-2.834-63.887 2.927-1.311 11.959-1.987 14.7-.318m79.064 326.041c1.113.186 2.239.345 3.404.385 6.198.198 12.184-1.166 18.236-2.199 5.324-.914 6.768-1.417 6.662-7.84-.927-50.868-8.41-101.604-21.865-150.671-2.053-7.496-4.291-15.045-8.224-21.746-6.715-11.429-22.13-21.295-33.957-26.831-1.668-.782-8.581 3.615-10.263 2.86-1.47-.662-2.768-1.695-4.252-2.344-4.343-1.894-7.257 2.066-10.886 3.722-1.88.847-3.973 1.39-6.039 1.298-1.682-.067-3.205-1.086-4.741-.292-6.913 3.576-24.077-22.964-24.077-22.964l-7.456 7.747-21.759 22.792-54.377 74.919s-9.867 61.397-16.647 101.644c-1.179 6.939-5.841 21.944-6.768 27.202.199-1.139 46.419-1.444 48.908-1.444h94.201c5.284 0 19.495 2.238 23.203-1.642 4.569-4.768 9.853-26.646 10.131-32.778.914-20.62-.503-41.081-.781-61.82.119 8.436 2.542 16.064 3.575 24.328 1.338 10.635 3.245 21.256 4.967 31.837 1.377 8.503 2.701 17.031 3.761 25.587.477 3.854-.133 6.145 3.125 7.655 2.742 1.258 8.715.052 11.919.595z" fill="#934231"/><path d="M396.953 375.078s9.668 5.483 8.807 17.137c-.861 11.654-4.357 25.163-18.952 23.746-14.594-1.404 10.145-40.883 10.145-40.883z" fill="#934231"/><path d="M350.214 266.124c.026 7.324-.993 14.66-2.9 21.759-1.921 7.099-4.728 13.945-7.986 20.541-1.629 3.297-3.364 6.529-5.152 9.72-1.761 3.205-3.576 6.384-5.059 9.642-.728 1.629-1.364 3.31-1.616 4.966-.066.808-.132 1.642.093 2.344.053.384.278.675.411 1.02.251.304.423.635.741.927 2.371 2.37 5.761 3.973 8.979 5.522 13.217 6.026 27.255 10.489 40.631 16.502 6.688 3.006 13.31 6.251 19.468 10.303l1.139.768c.384.265.742.609 1.113.914a10.869 10.869 0 0 1 1.761 2.225c.98 1.602 1.642 3.351 2.159 5.125.98 3.563 1.39 7.231 1.417 10.9-.239-3.642-.848-7.284-1.92-10.741-1.139-3.43-2.901-6.767-6.198-8.37-6.185-3.84-12.82-6.9-19.548-9.72-6.741-2.782-13.561-5.417-20.408-7.973-6.847-2.596-13.734-5.072-20.461-8.145-3.311-1.642-6.715-3.191-9.536-6.039-.357-.344-.648-.821-.953-1.231-.225-.504-.53-.98-.609-1.51-.318-1.06-.212-2.106-.119-3.099.317-1.96 1.033-3.735 1.801-5.43 1.576-3.39 3.416-6.556 5.204-9.747 1.788-3.192 3.589-6.357 5.298-9.575 6.82-12.82 11.561-26.924 12.25-41.598z" fill="transparent"/><path d="M440.892 207.058c-3.338 3.311-18.197 13.892-32.367 13.892-2.358 0-4.848-.212-7.483-.702-11.893-2.171-21.905-10.104-27.758-19.189a40.16 40.16 0 0 1-2.821-5.232c-1.06-2.277-1.815-4.608-2.252-6.86 5.96-.728 11.655-2.225 12.582-3.284 1.006 6.94 9.575 19.468 22.553 21.825 1.629.305 3.166.437 4.636.464h.026c6.092.106 10.767-1.841 13.959-3.801.026 0 6.211-4.874 6.237-4.9l12.688 7.787z" fill="#934231"/><path d="M450.217 358.349c-.037-.648.047-1.289.024-1.938-.027-.701-.105-1.387-.158-2.087l-.385-4.011c-.246-2.731-.493-5.463-.7-8.197-.41-5.416-.69-10.852-.836-16.282-.28-10.861-.123-21.747.607-32.585.201-3.036.455-6.061.735-9.088.152-1.547.316-3.108.481-4.656.167-1.522.413-3.034.433-4.574.012-.956-1.424-1.021-1.639-.133-.635 2.635-.727 5.466-1 8.161a406.075 406.075 0 0 0-.697 8.13 339.189 339.189 0 0 0-.786 16.439c-.235 10.917.155 21.838 1.086 32.729.265 3.062.569 6.109.939 9.152.194 1.555.387 3.096.62 4.648.105.684.196 1.368.327 2.037.163.787.456 1.513.62 2.3.09.181.351.113.329-.045z" fill="#fff"/><path d="M447.169 146.985c.092 0 .343-.145.132-.145-.106 0-.344.145-.132.145z" fill="#CC6144"/><path d="M687.042 527H218.958C204.938 527 194 516.997 194 505.163V245.837C194 234.003 204.938 224 218.958 224h468.084c14.02 0 24.958 10.003 24.958 21.837v259.326C712 516.997 701.062 527 687.042 527z" fill="transparent" stroke="#E1E4E5" stroke-width="4"/><path d="M712.479 256.794H194v-7.811C194 235.188 205.188 224 218.983 224h468.513c13.795 0 24.983 11.188 24.983 24.983v7.811z" fill="transparent" stroke="#E1E4E5" stroke-width="4"/><path d="M219.033 247.375a5.795 5.795 0 1 0 0-11.59 5.795 5.795 0 0 0 0 11.59zm24.145 0a5.796 5.796 0 1 0-.001-11.591 5.796 5.796 0 0 0 .001 11.591zm23.179 0a5.795 5.795 0 1 0-.002-11.59 5.795 5.795 0 0 0 .002 11.59z" fill="#E1E4E5"/><rect x="239" y="290" width="91" height="90" rx="18" fill="#fff" stroke="#E1E4E5" stroke-width="4"/><rect x="239" y="398" width="91" height="90" rx="18" fill="#fff" stroke="#E1E4E5" stroke-width="4"/><rect x="348" y="290" width="91" height="90" rx="18" fill="transparent" stroke="#E1E4E5" stroke-width="4"/><rect x="348" y="398" width="91" height="90" rx="18" fill="transparent" stroke="#E1E4E5" stroke-width="4"/><rect x="456" y="290" width="91" height="90" rx="18" fill="#fff" stroke="#E1E4E5" stroke-width="4"/><rect x="564" y="290" width="91" height="90" rx="18" fill="transparent" stroke="#E1E4E5" stroke-width="4"/><rect x="454" y="396" width="95" height="94" rx="20" fill="#9F7BCF"/><path fill-rule="evenodd" clip-rule="evenodd" d="m502 456.696 9.598 5.002c1.87.975 4.052-.602 3.695-2.666l-1.832-10.606 7.767-7.503c1.512-1.462.676-4.008-1.41-4.312l-10.734-1.545-4.799-9.656c-.932-1.88-3.638-1.88-4.57 0l-4.799 9.656-10.734 1.552c-2.086.297-2.922 2.849-1.41 4.312l7.767 7.503-1.832 10.605c-.357 2.065 1.825 3.641 3.695 2.666l9.598-5.008z" fill="#fff"/><rect x="564" y="398" width="91" height="90" rx="18" fill="transparent" stroke="#E1E4E5" stroke-width="4"/><path d="M369.866 380.251s18.787 2.767 27.958-.967c9.074-3.695 30.447-17.845 50.912-20.368a.828.828 0 0 1 .894.563c.426 1.341.655 4.588-5.414 7.764-7.908 4.121-13.881 7.433-13.881 7.433s37.229 9.744 47.12 13.135c1.953.668 3.449 1.424 4.605 2.23 3.603 2.513.962 8.164-3.304 7.11l-24.965-6.162s2.156 1.98 1.327 4.46c-.791 2.343-5.313 3.914-9.17 2.723 0 0 2.233 2.427.266 5.21-1.967 2.782-6.721 2.681-9.014 2.159 0 0 2.632 1.853 1.793 4.265-.839 2.412-6.089 3.565-7.771 3.402-1.681-.163-15.865.933-36.512-7.023l-27.808 6.313s-8.342-6.824 2.964-32.247z" fill="#F8AE9D"/><path d="M389.163 414.808c-34.989 12.145-81.805.543-111.484-19.626-18.594-12.608-30.46-28.62-28.46-44.26 5.178-40.631 37.108-133.759 64.734-147.347 18.779-9.244 41.558-13.071 54.259-14.608 5.959-.728 9.681-.9 9.681-.9l-4.609 13.005-23.07 65.052c-.861 38.605-28.487 61.529-22.991 70.521 5.496 8.966 48.895 18.647 71.687 33.996 6.304 4.265 14.303 35.109-9.747 44.167z" fill="#934231"/><path d="M715.541 247.349c-13.882 3.289-28.564-8.484-28.564-8.484s7.835-17.098 21.721-20.377c13.882-3.288 28.559 8.474 28.559 8.474s-7.835 17.099-21.716 20.387z" fill="url(#a)"/><path d="M309.936 150.721c14.614 10.066 36.942 3.029 36.942 3.029s-1.383-23.355-16.007-33.411c-14.615-10.067-36.932-3.04-36.932-3.04s1.382 23.355 15.997 33.422z" fill="url(#b)"/><path d="M588.554 182.066c15.844 16.125 45.471 12.725 45.471 12.725s3.921-29.545-11.938-45.661c-15.843-16.125-45.456-12.735-45.456-12.735s-3.921 29.545 11.923 45.671z" fill="url(#c)"/><ellipse cx="679.775" cy="387.263" rx="11.774" ry="11.263" transform="rotate(180 679.775 387.263)" fill="#9F7BCF"/><ellipse cx="240.87" cy="446.358" rx="15.87" ry="15.358" transform="rotate(180 240.87 446.358)" fill="#9F7BCF"/><circle r="5.631" transform="matrix(-1 0 0 1 150.631 308.631)" fill="#9F7BCF"/><circle r="10.751" transform="matrix(-1 0 0 1 678.751 169.751)" fill="#9F7BCF"/><ellipse rx="10.751" ry="10.239" transform="matrix(-1 0 0 1 678.751 498.239)" fill="#E1E4E5"/><circle r="6" transform="matrix(-1 0 0 1 219 382)" fill="#E1E4E5"/><circle r="3.584" transform="matrix(-1 0 0 1 342.583 507.584)" fill="#E1E4E5"/><circle r="5.119" transform="matrix(-1 0 0 1 565.119 126.119)" fill="#E1E4E5"/><circle r="5.003" transform="scale(1 -1) rotate(-75 -204.91 -310.585)" fill="#E1E4E5"/><circle r="6.655" transform="matrix(-1 0 0 1 236.655 187.655)" fill="#E1E4E5"/><ellipse rx="5.119" ry="4.095" transform="matrix(-1 0 0 1 683.119 292.095)" fill="#E1E4E5"/><circle r="10.411" transform="scale(1 -1) rotate(-75 140.535 -436.461)" fill="#E1E4E5"/><path d="M738.052 309.208h.134c.793 11.236 9.15 11.409 9.15 11.409s-9.215.18-9.215 13.164c0-12.984-9.215-13.164-9.215-13.164s8.353-.173 9.146-11.409zM169.752 194h.23c1.366 19.664 15.758 19.967 15.758 19.967s-15.87.314-15.87 23.036c0-22.722-15.87-23.036-15.87-23.036s14.386-.303 15.752-19.967z" fill="#E1E4E5"/><defs><linearGradient id="a" x1="663.265" y1="255.526" x2="784.787" y2="198.115" gradientUnits="userSpaceOnUse"><stop stop-color="#fff"/><stop offset="1" stop-color="#EEE"/></linearGradient><linearGradient id="b" x1="366.866" y1="183.75" x2="251.823" y2="62.441" gradientUnits="userSpaceOnUse"><stop stop-color="#fff"/><stop offset="1" stop-color="#EEE"/></linearGradient><linearGradient id="c" x1="651.768" y1="237.148" x2="537.227" y2="57.594" gradientUnits="userSpaceOnUse"><stop stop-color="#fff"/><stop offset="1" stop-color="#EEE"/></linearGradient></defs></svg>