<svg width="800" height="753" viewBox="0 0 800 753" fill="none" xmlns="http://www.w3.org/2000/svg">
<path d="M692.027 428.762C726.62 333.718 674.704 85.8271 627.881 68.7848C581.057 51.7425 365.298 202.208 330.705 297.252C296.112 392.297 355.358 671.848 402.181 688.89C449.004 705.932 657.433 523.807 692.027 428.762Z" fill="#FF9E89"/>
<path d="M597.936 372.088C597.936 474.309 454.599 691.785 401.126 691.785C347.654 691.785 185.304 474.309 185.304 372.088C185.304 269.866 347.654 24.8562 401.126 24.8562C454.599 24.8562 597.936 269.866 597.936 372.088Z" fill="#FFD089"/>
<path d="M108.191 429.891C73.5977 334.846 125.514 86.9552 172.337 69.9129C219.16 52.8706 434.919 203.336 469.513 298.38C504.106 393.425 444.86 672.976 398.037 690.018C351.213 707.06 142.785 524.935 108.191 429.891Z" fill="#FF7585"/>
</svg>
