<svg width="24" height="24" viewBox="0 0 24 24" fill="none" xmlns="http://www.w3.org/2000/svg">
<path d="M12 6.6625C13.015 6.6625 13.8375 7.485 13.8375 8.5C13.8375 9.515 13.015 10.3375 12 10.3375C10.985 10.3375 10.1625 9.515 10.1625 8.5C10.1625 7.485 10.985 6.6625 12 6.6625ZM12 14.5375C14.5988 14.5375 17.3375 15.815 17.3375 16.375V17.3375H6.6625V16.375C6.6625 15.815 9.40125 14.5375 12 14.5375ZM12 5C10.0662 5 8.5 6.56625 8.5 8.5C8.5 10.4338 10.0662 12 12 12C13.9338 12 15.5 10.4338 15.5 8.5C15.5 6.56625 13.9338 5 12 5ZM12 12.875C9.66375 12.875 5 14.0475 5 16.375V19H19V16.375C19 14.0475 14.3363 12.875 12 12.875Z" fill="#323232"/>
</svg>
