<?xml version="1.0" standalone="no"?>
<!DOCTYPE svg PUBLIC "-//W3C//DTD SVG 20010904//EN"
 "http://www.w3.org/TR/2001/REC-SVG-20010904/DTD/svg10.dtd">
<svg version="1.0" xmlns="http://www.w3.org/2000/svg"
 width="512.000000pt" height="512.000000pt" viewBox="0 0 512.000000 512.000000"
 preserveAspectRatio="xMidYMid meet">

<g transform="translate(0.000000,512.000000) scale(0.100000,-0.100000)"
fill="current" stroke="none">
<path d="M2380 5114 c-19 -2 -78 -9 -130 -14 -330 -36 -695 -160 -990 -336
-375 -224 -680 -529 -904 -904 -175 -292 -291 -632 -338 -990 -16 -123 -16
-497 0 -620 82 -623 356 -1150 820 -1581 256 -239 575 -425 922 -539 274 -91
491 -124 800 -124 228 0 329 9 530 50 689 141 1304 583 1674 1204 175 292 291
632 338 990 16 123 16 497 0 620 -47 358 -163 698 -338 990 -224 375 -529 680
-904 904 -289 173 -634 291 -980 336 -88 12 -438 21 -500 14z m405 -1124 c247
-64 468 -245 580 -475 70 -142 88 -224 88 -395 0 -118 -4 -160 -22 -225 -68
-251 -246 -468 -476 -580 -91 -45 -223 -85 -278 -85 -60 0 -18 -10 100 -25
529 -66 994 -354 1287 -799 78 -118 180 -329 171 -355 -3 -11 -52 -63 -107
-116 -340 -323 -748 -528 -1208 -606 -113 -19 -172 -23 -360 -23 -188 0 -247
4 -360 23 -460 78 -868 283 -1208 606 -55 53 -104 105 -107 116 -9 26 93 237
171 355 293 445 758 733 1287 799 118 15 160 25 100 25 -55 0 -187 40 -278 85
-230 112 -408 329 -476 580 -18 65 -22 107 -22 225 0 171 18 253 88 395 123
253 366 437 642 490 105 20 282 13 388 -15z"/>
</g>
</svg>
