<svg width="978" height="579" viewBox="0 0 978 579" fill="none" xmlns="http://www.w3.org/2000/svg">
<path opacity="0.15" d="M0.900001 453.1C-1.7 407.9 14.5 360.1 49.1 332.4C86.5 302.5 137.5 300 184.7 301.9C231.9 303.8 281.1 308.5 324.6 289.4C376.1 266.7 409.4 215.1 437.4 165C465.5 114.9 493.3 61.4 540.1 29.8C577.4 4.59999 625.4 -2.60001 669.6 1.39999C714.6 5.49999 755.5 14.8 788.6 48C814.4 73.8 832.7 105.9 853.9 135.6C877.3 168.4 904.4 198.5 927.7 231.4C974.6 297.3 988.3 364.6 970 443.2C957.8 495.8 934.4 550.8 877.1 561.3C853.6 565.6 829.4 562.2 805.8 558.6C673.6 538 539.5 506.8 407.6 529.8C374 535.6 341 545 307.6 552.8C263.2 563.2 218.2 570.9 172.9 575.8C137.1 579.6 99.8 581.5 66.4 567.8C18.9 548.2 3.7 502 0.900001 453.1Z" fill="#CDBFDE"/>
<path d="M777.8 447.7H743.1V453.6H777.8V447.7Z" fill="white" stroke="black" stroke-miterlimit="10" stroke-linecap="round" stroke-linejoin="round"/>
<path d="M783.4 453.6H737.6V462H783.4V453.6Z" fill="white" stroke="black" stroke-miterlimit="10" stroke-linecap="round" stroke-linejoin="round"/>
<path d="M776 513.9H747.8L739.4 461.9H781.5L776 513.9Z" fill="#DDDBEE" stroke="black" stroke-miterlimit="10" stroke-linecap="round" stroke-linejoin="round"/>
<path d="M777.8 504L744 504.3L741.3 481.5H780.3L777.8 504Z" fill="white" stroke="black" stroke-miterlimit="10" stroke-linecap="round" stroke-linejoin="round"/>
<path d="M774.2 488.9C774.2 488.9 773.8 496.4 773.1 499L774.2 488.9Z" fill="#DDDBEE"/>
<path d="M774.2 488.9C774.2 488.9 773.8 496.4 773.1 499" stroke="black" stroke-miterlimit="10" stroke-linecap="round" stroke-linejoin="round"/>
<path d="M756.8 440.9C752.7 435.5 752.5 427.4 756.5 421.9C758.1 419.7 760.2 418 761.7 415.7C765.1 410.6 764.5 403.3 760.4 398.7" stroke="#DDDBEE" stroke-width="2" stroke-miterlimit="10" stroke-linecap="round" stroke-linejoin="round"/>
<path d="M771.4 434.5C768.1 431.2 768.1 425.3 771.3 421.9C772.8 420.3 774.8 419.3 776 417.5C777.8 414.9 777.4 411.5 777 408.4" stroke="#DDDBEE" stroke-width="2" stroke-miterlimit="10" stroke-linecap="round" stroke-linejoin="round"/>
<path d="M653.5 180.8C647.1 163 649.9 141.7 657.3 124.5C659.5 119.5 662 114.7 665.2 110.2C675.7 95.5 693.2 85.6 711.6 83.7C733.1 81.4 755.9 89.4999 769.2 106.4C779.7 119.7 783.6 137.3 781.9 153.9C779.4 179.6 767 201 741.8 211.6C727.1 217.8 710.9 220.3 695.2 217C692.5 216.4 689.9 215.7 687.1 215.6C676.4 215.3 667.9 227.5 657 226.9C661.5 224.6 665.3 219.4 668 215.3C672 209 672.1 205.8 666.5 200.6C660.4 195.1 656.2 188.2 653.5 180.8Z" fill="white" stroke="black" stroke-width="2" stroke-miterlimit="10" stroke-linecap="round" stroke-linejoin="round"/>
<path d="M696.1 127.9C687.3 134.9 682.4 146.5 682.8 158.8C683 166.1 685.3 173.5 690 179.1C695.7 186 704.4 189.8 713.3 190.8C726.9 192.3 740.6 186.8 747.4 174.5C754.3 162.1 751.9 144.9 743.1 133.9C736.3 125.3 725.2 120.3 714.2 121C707.1 121.5 701 124 696.1 127.9Z" fill="#EEDBEB" stroke="black" stroke-miterlimit="10" stroke-linecap="round" stroke-linejoin="round"/>
<path d="M714.5 130.3C714.6 133.4 714.7 136.5 714.9 139.5C715.3 145.7 715.8 151.8 716.5 157.9C719.3 156.5 722 155 724.7 153.4C729.1 150.9 733.5 148.4 737.9 145.9C739.1 145.2 744.1 143.3 744.5 142.1C744.9 140.9 741.7 137.3 741 136.4C738.1 132.8 734.4 129.8 730.2 127.8C726.5 126 720.3 123.5 716.1 124.4C713.6 125 714.5 127.9 714.6 130.1C714.5 130.2 714.5 130.3 714.5 130.3Z" fill="white" stroke="black" stroke-miterlimit="10" stroke-linecap="round" stroke-linejoin="round"/>
<path d="M712.3 120.6C712.3 120.7 712.3 120.8 712.4 120.9C712.5 121 712.5 121 712.6 121C713.5 121 714.4 120.9 715.3 120.9C715.3 119.8 715.3 118.7 715.2 117.6C715.2 117.2 715.1 116.7 715 116.5C714.9 116.4 714.8 116.4 714.7 116.4C714.2 116.4 712.7 116 712.4 116.7C712 117.4 712.2 119.8 712.3 120.6Z" fill="black" stroke="black" stroke-miterlimit="10" stroke-linecap="round" stroke-linejoin="round"/>
<path d="M707.1 116.6C707.1 116.7 707.1 116.8 707.2 116.8C707.3 116.8 707.4 116.8 707.5 116.8C711.8 116.7 716 116.7 720.3 116.6C720.3 115.8 720.3 115.1 720.4 114.3C720.4 114.2 720.4 114 720.3 113.9C720.2 113.8 720 113.8 719.8 113.8C717 113.9 714.2 113.9 711.4 114C710.7 114 710 114 709.3 114C708.9 114 707.7 113.9 707.3 114.1C706.7 114.6 707.1 116.1 707.1 116.6Z" fill="black" stroke="black" stroke-miterlimit="10" stroke-linecap="round" stroke-linejoin="round"/>
<path d="M732.8 115.3C733.6 112.3 734.3 109.2 734.9 106.2" stroke="black" stroke-width="2" stroke-miterlimit="10" stroke-linecap="round" stroke-linejoin="round"/>
<path d="M738.2 118.4C740.9 117.1 743.7 115.7 746.4 114.4" stroke="black" stroke-width="2" stroke-miterlimit="10" stroke-linecap="round" stroke-linejoin="round"/>
<path d="M618 419.6H100.4C97.3 419.6 94.8 417.1 94.8 414V94.8C94.8 91.7 97.3 89.2 100.4 89.2H618C621.1 89.2 623.6 91.7 623.6 94.8V414C623.5 417.1 621 419.6 618 419.6Z" fill="#E5E5E5" stroke="black" stroke-miterlimit="10" stroke-linecap="round" stroke-linejoin="round"/>
<path d="M605.7 412.1H112.7C107.6 412.1 103.4 407.9 103.4 402.8V106C103.4 100.9 107.6 96.7 112.7 96.7H605.7C610.8 96.7 615 100.9 615 106V402.8C615 407.9 610.8 412.1 605.7 412.1Z" fill="#E6E6EE" stroke="black" stroke-miterlimit="10" stroke-linecap="round" stroke-linejoin="round"/>
<path d="M338.3 136.2H136.9V376.9H338.3V136.2Z" fill="#F4F4F5" stroke="black" stroke-miterlimit="10" stroke-linecap="round" stroke-linejoin="round"/>
<path d="M145.9 149.1C148.33 149.1 150.3 147.13 150.3 144.7C150.3 142.27 148.33 140.3 145.9 140.3C143.47 140.3 141.5 142.27 141.5 144.7C141.5 147.13 143.47 149.1 145.9 149.1Z" fill="#C4C0E0" stroke="black" stroke-miterlimit="10" stroke-linecap="round" stroke-linejoin="round"/>
<path d="M329.8 149.1C332.23 149.1 334.2 147.13 334.2 144.7C334.2 142.27 332.23 140.3 329.8 140.3C327.37 140.3 325.4 142.27 325.4 144.7C325.4 147.13 327.37 149.1 329.8 149.1Z" fill="#C4C0E0" stroke="black" stroke-miterlimit="10" stroke-linecap="round" stroke-linejoin="round"/>
<path d="M145.9 373C148.33 373 150.3 371.03 150.3 368.6C150.3 366.17 148.33 364.2 145.9 364.2C143.47 364.2 141.5 366.17 141.5 368.6C141.5 371.03 143.47 373 145.9 373Z" fill="#C4C0E0" stroke="black" stroke-miterlimit="10" stroke-linecap="round" stroke-linejoin="round"/>
<path d="M329.8 373C332.23 373 334.2 371.03 334.2 368.6C334.2 366.17 332.23 364.2 329.8 364.2C327.37 364.2 325.4 366.17 325.4 368.6C325.4 371.03 327.37 373 329.8 373Z" fill="#C4C0E0" stroke="black" stroke-miterlimit="10" stroke-linecap="round" stroke-linejoin="round"/>
<path d="M174.9 147.1C179.4 147.1 183.8 147.1 188.3 147.1" stroke="black" stroke-miterlimit="10" stroke-linecap="round" stroke-linejoin="round"/>
<path d="M181.2 147.3C181.2 153.3 181.3 159.4 181.3 165.4" stroke="black" stroke-miterlimit="10" stroke-linecap="round" stroke-linejoin="round"/>
<path d="M188.6 161.3C188.6 162.6 188.8 164.2 189.9 165C191 165.7 192.5 165.3 193.3 164.3C194.2 163.4 194.6 162.1 195 160.9C195.9 157.8 196.8 154.6 196.8 151.4C196.8 147.8 193 145.2 190.7 148.7C188.3 152.2 188.6 157.2 188.6 161.3Z" stroke="black" stroke-miterlimit="10" stroke-linecap="round" stroke-linejoin="round"/>
<path d="M201.9 157.3C203.8 157.1 205.7 157.2 207.5 157.4" stroke="black" stroke-miterlimit="10" stroke-linecap="round" stroke-linejoin="round"/>
<path d="M228.5 161.3C228.5 162.6 228.7 164.2 229.8 165C230.9 165.7 232.4 165.3 233.2 164.3C234.1 163.4 234.5 162.1 234.9 160.9C235.8 157.8 236.7 154.6 236.7 151.4C236.7 147.8 232.9 145.2 230.6 148.7C228.2 152.2 228.5 157.2 228.5 161.3Z" stroke="black" stroke-miterlimit="10" stroke-linecap="round" stroke-linejoin="round"/>
<path d="M215.1 147.6C214.9 153.6 214.7 159.6 214.5 165.6C214.5 165.5 214.5 165.3 214.5 165.2" stroke="black" stroke-miterlimit="10" stroke-linecap="round" stroke-linejoin="round"/>
<path d="M214.6 154.6C215.1 152.9 215.9 151.3 217 149.9C217.8 148.9 218.7 148 220 147.7C222.1 147.2 224.2 148.8 225.1 150.7C225.9 152.7 225.8 154.9 225.4 157C225.1 158.8 224.7 160.6 223.7 162.1C221.9 164.8 218.4 166.3 215.2 165.5" stroke="black" stroke-miterlimit="10" stroke-linecap="round" stroke-linejoin="round"/>
<path d="M278.1 147.7C282.6 147.7 287 147.7 291.5 147.7" stroke="black" stroke-miterlimit="10" stroke-linecap="round" stroke-linejoin="round"/>
<path d="M284.4 147.9C284.4 153.7 284.5 159.4 284.5 165.2" stroke="black" stroke-miterlimit="10" stroke-linecap="round" stroke-linejoin="round"/>
<path d="M253.1 147.6C253.3 153.4 253.5 159.2 253.8 165C253.8 165.2 253.8 165.5 254 165.7C254.1 165.8 254.3 165.8 254.5 165.8C257.6 165.9 260.8 165.9 263.9 166" stroke="black" stroke-miterlimit="10" stroke-linecap="round" stroke-linejoin="round"/>
<path d="M273.1 147.6C272.5 147.2 271.7 147.8 271.3 148.5C270.1 150.5 269.8 153 269.7 155.4C269.7 156.3 269.7 157.2 270 158C270.3 158.8 271.1 159.5 271.9 159.4C272.5 159.4 273 159 273.5 158.6C274.3 157.8 274.9 156.8 275.8 156C276.7 155.2 278 154.8 279 155.5C280 156.2 280 157.7 279.9 159C279.7 160.2 279.4 161.4 278.8 162.5C278.2 163.6 277.3 164.5 276.1 164.8C275.2 165.1 274.1 165 273.4 165.6" stroke="black" stroke-miterlimit="10" stroke-linecap="round" stroke-linejoin="round"/>
<path d="M265.8 147.8C266.3 153.7 266.6 159.5 266.9 165.4" stroke="black" stroke-miterlimit="10" stroke-linecap="round" stroke-linejoin="round"/>
<path d="M266.5 142C266.4 141.9 266.3 141.9 266.2 142C266.1 142.1 266 142.2 265.9 142.3C265.7 142.6 265.4 143 265.4 143.4C265.4 143.8 265.5 144.3 265.9 144.4C266.2 144.5 266.5 144.4 266.7 144.2C267.2 143.9 267.5 143.2 267.4 142.5C267.4 142.4 267.4 142.3 267.3 142.2C267.1 141.9 266.7 142 266.5 142Z" stroke="black" stroke-miterlimit="10" stroke-linecap="round" stroke-linejoin="round"/>
<path d="M242.7 222.6C247.4 222.5 252.2 222.6 256.9 222.9C257.3 218.1 257.3 213.2 256.7 208.4C256.7 208.2 256.6 208 256.5 207.8C256.3 207.6 256 207.6 255.7 207.6C253.3 207.8 251 207.9 248.6 208C247.4 208 246.1 208 244.9 208C243.9 208 243 207.6 242.6 208.5C242.3 209.5 243.2 222.6 242.7 222.6Z" fill="white" stroke="black" stroke-width="0.5" stroke-miterlimit="10" stroke-linecap="round" stroke-linejoin="round"/>
<path d="M266.9 213.8C266 212.5 267.3 210.4 268.9 210.7C270.5 211 270.9 213.6 269.5 214.4C269.9 212.7 272.5 212.5 273.6 213.8C274.7 215.1 274.6 217 274.2 218.7C274 219.3 273.8 219.9 273.3 220.3C272.5 221 271.1 220.6 270.4 219.7C269.8 218.8 269.7 217.7 269.9 216.6C270.4 214.1 272.2 211.9 274.6 211C274.9 212 275 213.1 274.9 214.1C274.8 213.2 276.1 212.7 276.8 213.2C277.5 213.7 277.6 214.8 277.5 215.6C277.1 214.7 278.3 213.9 279.2 214.1C280.1 214.3 280.7 215.1 281.2 215.9C281.7 215 282.5 214.2 283.5 213.8C283.5 215.2 285 216.5 286.4 216.2C287.8 215.9 288.7 214.2 288.1 212.8C286.9 213.5 286.4 215.2 287 216.5C288.8 215.8 289.9 213.8 289.5 211.9C289.2 213.4 289.7 215 290.7 216.1C291.6 215.5 292.2 214.3 292.1 213.2C292 213.7 292.1 214.2 292.4 214.7C293.4 213.3 293.7 211.5 293.3 209.9C292.2 214.4 292.7 219.2 294.6 223.4C295.7 222.7 296.3 221.4 296.2 220.1C296.1 218.8 295.1 217.7 293.9 217.2C295.4 216.2 296.1 214.2 295.6 212.4C295.1 213.5 295.2 214.9 295.9 215.9C297.1 215.8 298.2 214.8 298.4 213.6C298.8 214.4 299.2 215.2 299.6 215.9C299.7 215.1 300.8 214.8 301.6 215.1C302.4 215.4 303 215.9 303.9 216C304.7 216.1 305.7 215.2 305.2 214.6" stroke="black" stroke-width="0.5" stroke-miterlimit="10" stroke-linecap="round" stroke-linejoin="round"/>
<path d="M311.6 213.6C312.4 213.1 313 212.3 313.1 211.4C313.2 210.5 312.4 209.5 311.5 209.6C310.5 209.7 310.1 210.8 309.8 211.7C309.5 212.9 309.1 214.2 309.7 215.4C310.3 216.6 312.1 217 312.7 216C313.1 215.4 313.2 214.4 313.8 214.5C314.4 215.1 314.9 215.9 315.2 216.7C316.3 216.5 316.3 214.4 317.4 214.5C318 214.6 318.3 215.3 318.9 215.5C319.4 215.7 320 215.2 320 214.6C320.5 215.6 321.8 216.2 322.9 215.9C324 215.6 324.8 214.5 324.8 213.4C324.4 213.6 324 213.9 323.7 214.3" stroke="black" stroke-width="0.5" stroke-miterlimit="10" stroke-linecap="round" stroke-linejoin="round"/>
<path d="M242.7 249.6C247.4 249.5 252.2 249.6 256.9 249.9C257.3 245.1 257.3 240.2 256.7 235.4C256.7 235.2 256.6 235 256.5 234.8C256.3 234.6 256 234.6 255.7 234.6C253.3 234.8 251 234.9 248.6 235C247.4 235 246.1 235 244.9 235C243.9 235 243 234.6 242.6 235.5C242.3 236.5 243.2 249.6 242.7 249.6Z" fill="white" stroke="black" stroke-width="0.5" stroke-miterlimit="10" stroke-linecap="round" stroke-linejoin="round"/>
<path d="M268.4 236.6C269 236.1 268.1 235.1 267.4 235.4C266.7 235.7 266.5 236.5 266.5 237.3C266.5 238.1 266.7 238.8 266.4 239.5C267.5 239.3 268.6 238.5 269.2 237.5C269.4 238.3 269.6 239 270 239.8C270.3 239 270.9 238.3 271.7 237.8C271.6 238.5 272.1 239.2 272.8 239.3C273.5 239.4 274.2 238.7 274.2 238C274.3 238.8 275.5 239.1 276.1 238.6C276.7 238.1 276.9 237.2 277.1 236.4C277.1 236.2 277.2 236.1 277.1 235.9C277 235.6 276.6 235.6 276.3 235.6C275.2 235.8 274.5 237.2 275 238.2C275.5 239.2 277.1 239.5 277.9 238.7C278.1 238.5 278.3 238.2 278.6 238C279.3 237.6 280.1 238.4 280.6 239.1C281.4 239 281.6 237.8 282.4 237.8C283 237.8 283.3 238.4 283.9 238.6C284.8 238.9 285.6 237.9 286.6 237.8C287.3 237.8 287.9 238.3 288.5 238.4C289 238.5 289.6 238.2 289.9 237.8" stroke="black" stroke-width="0.5" stroke-miterlimit="10" stroke-linecap="round" stroke-linejoin="round"/>
<path d="M298.2 236.3C298.3 235.9 298.4 235.4 298.3 235C298.2 234.6 297.8 234.2 297.3 234.3C297 234.4 296.8 234.6 296.6 234.9C296.1 235.7 295.8 236.7 295.8 237.7C295.8 237.9 295.8 238.2 295.9 238.4C296.3 239 297.2 238.5 297.6 237.9C298 237.3 298.3 236.6 299 236.4C299 237.2 299.8 237.8 300.6 237.6C300.9 237.5 301.1 237.3 301.4 237.3C302.1 237.1 303 237.6 303.1 238.4C303.9 237.4 305.4 238.3 306.6 237.9C307.7 237.5 308.3 236.1 309.4 236.1C310.5 236.1 311 237.4 311.2 238.5C311.4 239.9 311.4 241.5 310.5 242.7C309.9 243.5 308.5 244 308 243.1C307.8 242.8 307.8 242.4 307.8 242C307.8 241.1 307.8 240.2 308.2 239.4C308.5 238.6 309.2 237.8 310 237.7C310.9 237.5 311.9 238.2 311.9 239C312.6 238.2 313.6 237.4 314.4 238C314.6 238.2 314.8 238.4 315.1 238.5C315.7 238.8 316.3 238.5 316.9 238.3C318 238 319.2 238.1 320.3 238C321.5 237.9 322.7 237.6 323.3 236.6C322.6 236.5 321.8 236.7 321.3 237.2" stroke="black" stroke-width="0.5" stroke-miterlimit="10" stroke-linecap="round" stroke-linejoin="round"/>
<path d="M268.9 246.1C269.2 245.2 269.4 244 268.6 243.5C267.8 242.9 266.5 243.8 266.4 244.8C266.3 245.8 266.8 246.8 267.3 247.7C268 247.1 268.8 246.6 269.6 246.3C269.9 246.7 270.2 247 270.5 247.4C271 247.2 271.5 246.9 271.9 246.5C274.3 247.8 277.5 247.7 279.7 246.1C278.9 245.1 276.8 246 277 247.3C280 248.3 282 252.1 280.7 255C277 253.1 281.1 248.2 282 245.9C280.7 250.1 290.7 248.6 292.8 248.2C296 247.6 305.3 250 307 247.1" stroke="black" stroke-width="0.5" stroke-miterlimit="10" stroke-linecap="round" stroke-linejoin="round"/>
<path d="M292.5 244.7C292.3 244.1 292.1 243.4 292.4 242.8C292.8 242.1 293.8 242 294.4 242.5C295 243 295.1 244 294.6 244.6C294.5 244.8 294.4 244.9 294.2 245C293.7 245.2 293.1 244.8 293 244.2C292.9 243.6 293.2 243.1 293.5 242.7C293.3 243.4 292.9 244.2 292.5 244.7Z" stroke="black" stroke-width="0.5" stroke-miterlimit="10" stroke-linecap="round" stroke-linejoin="round"/>
<path d="M145.8 276.6C150.5 276.5 155.3 276.6 160 276.9C160.4 272.1 160.4 267.2 159.8 262.4C159.8 262.2 159.7 262 159.6 261.8C159.4 261.6 159.1 261.6 158.8 261.6C156.4 261.8 154.1 261.9 151.7 262C150.5 262 149.2 262 148 262C147 262 146.1 261.6 145.7 262.5C145.5 263.5 146.3 276.6 145.8 276.6Z" fill="white" stroke="black" stroke-width="0.5" stroke-miterlimit="10" stroke-linecap="round" stroke-linejoin="round"/>
<path d="M170.3 268.8C170.6 267.8 169 267.1 168.1 267.7C167.2 268.3 167.1 269.5 167 270.6C167 271 166.9 271.5 166.9 271.9C166.9 272.3 166.8 272.8 167 273.1C167.4 273.8 168.5 273.6 169 273C169.5 272.4 169.6 271.6 169.7 270.8C171.5 273.4 172.4 276.7 172.2 279.8C169.5 277.6 169.6 272.7 172.5 270.7C172.8 270.5 173.2 270.2 173.6 270.3C175 270.4 175.1 272.8 176.4 273.2C177.5 272.5 178.3 271.5 178.8 270.4C179.1 271.5 180.7 271.8 181.5 271C182.2 271.5 183.2 271.3 183.8 270.7C184.4 270.1 184.5 269.1 184 268.4C183.1 268.6 183.1 270.1 183.8 270.7C184.5 271.3 185.6 271.3 186.6 271.2C188.1 271.1 189.5 271.1 191 271C192.8 270.9 194.6 270.8 196.1 269.8C197.5 268.8 198.3 266.5 197.1 265.2C195.5 266.3 196.2 269.3 198.2 269.5C199 269.6 199.8 269.2 200.6 269C203.2 268.3 206 269.3 208.7 269.2C209.7 269.1 211.1 268.3 210.5 267.4C209.6 268.4 209.1 269.8 209.2 271.1C209.8 271.4 210.7 271.3 211.2 270.8" stroke="black" stroke-width="0.5" stroke-miterlimit="10" stroke-linecap="round" stroke-linejoin="round"/>
<path d="M224.8 272.8C225.5 272 226.3 271.1 226.4 270C226.5 268.9 225.5 267.7 224.4 268C223.5 268.3 223.2 269.3 223.1 270.2C223 270.8 222.9 271.4 223.1 272C223.3 272.6 223.8 273.1 224.4 273C225.5 272.9 226.3 271.1 227.3 271.6C227.7 271.8 227.9 272.3 228.3 272.4C229.1 272.7 229.7 271.4 230.5 271.5C231 271.5 231.3 272 231.7 272.1C232 272.2 232.3 272.2 232.7 272.2C235.3 271.9 237.1 268.8 236.2 266.4C236 265.9 235.8 265.5 235.3 265.2C234.3 264.6 233 265.4 232.6 266.4C232.2 267.4 232.4 268.6 232.6 269.7C232.7 270.2 232.9 270.9 233.4 271.1C234.3 271.4 235.3 270.2 236 270.7C236.3 271.3 236.6 271.9 236.9 272.6C237.5 271.9 238.4 271.2 239.1 271.8C239.5 272.1 239.5 272.8 240 272.9C240.6 273.1 241.1 272.3 241.6 271.9C242.2 271.5 243 271.5 243.7 271.5C245.7 271.4 247.5 270.2 248.4 268.5C247.9 269.9 250.2 270.7 250.6 272C251 273.3 249.8 274.5 248.7 275.3C248.2 275.6 247.6 275.9 247.1 275.6C246.7 275.3 246.7 274.8 246.7 274.3C247.1 271.5 249.8 269.7 252.3 268.5C251.9 269 251.5 269.4 251.2 269.9" stroke="black" stroke-width="0.5" stroke-miterlimit="10" stroke-linecap="round" stroke-linejoin="round"/>
<path d="M261.1 269.7C263.8 268.2 265.4 264.9 264.9 261.8C263.9 263.7 263.3 265.8 263.2 268C263.2 268.7 263.3 269.6 264 269.7C265 269.8 265.4 268.1 266.3 268.2C267.3 268.3 267.5 270 268.5 269.9C269.2 269.8 269.5 268.9 270.1 268.8C270.9 268.7 271.3 269.9 272 269.8C272.4 269.8 272.7 269.5 273 269.3C274.4 268.5 275.9 270.2 277.5 270.7C279.3 271.3 281.3 270 282.1 268.3C283 266.6 283 264.6 283 262.8C283 261.9 282.8 260.7 281.9 260.6C281.3 260.5 280.8 261.1 280.5 261.6C279.4 263.3 279.1 265.4 279.6 267.3C279.7 267.8 279.9 268.4 280.3 268.8C281 269.5 282.3 269.5 283.2 269C284.1 268.5 284.8 267.6 285.4 266.8C285.8 267.6 286.2 268.5 287 268.9C287.8 269.3 289 268.9 289.1 268.1C291.2 269.2 293.9 269 295.9 267.6C296.3 269.4 299 269.9 300.5 268.8C302 267.7 302.7 265.8 302.9 263.9C303.3 261.3 303 258.4 301.2 256.5C298.6 257.1 296.8 259.6 296.3 262.2C295.8 264.8 296.5 267.5 297.5 270" stroke="black" stroke-width="0.5" stroke-miterlimit="10" stroke-linecap="round" stroke-linejoin="round"/>
<path d="M145.8 357.6C150.5 357.5 155.3 357.6 160 357.9C160.4 353.1 160.4 348.2 159.8 343.4C159.8 343.2 159.7 343 159.6 342.8C159.4 342.6 159.1 342.6 158.8 342.6C156.4 342.8 154.1 342.9 151.7 343C150.5 343 149.2 343 148 343C147 343 146.1 342.6 145.7 343.5C145.5 344.5 146.3 357.6 145.8 357.6Z" fill="white" stroke="black" stroke-width="0.5" stroke-miterlimit="10" stroke-linecap="round" stroke-linejoin="round"/>
<path d="M172.8 350.5C173 349.1 172.5 347.6 171.4 346.7C170.6 348.5 170.3 350.5 170.4 352.4C170.4 353.1 170.5 353.8 170.9 354.3C171.3 354.8 172.1 355.1 172.7 354.8C173 354.6 173.2 354.3 173.3 354C173.9 352.9 174.3 351.8 174.6 350.6C175.1 352.2 176.1 353.7 177.4 354.9C177.6 354 177.8 353.2 178.1 352.3C178.6 353 179.1 353.7 179.8 354.3C180.1 354.5 180.4 354.7 180.7 354.6C180.9 354.5 181.1 354.3 181.2 354.1C182.5 352.1 183.1 349.7 182.8 347.3C182.6 345.7 181.7 343.8 180.1 343.9C179.1 344 178.4 344.8 177.9 345.6C176.9 347.5 177.1 350 178.6 351.6C180 353.2 182.7 353.6 184.4 352.3C184.6 353.2 185.2 354 185.9 354.6C186.1 353.8 186.6 352.8 187.4 353C187.9 353.1 188.2 353.6 188.5 354C188.8 354.4 189.6 354.6 189.8 354.1" stroke="black" stroke-width="0.5" stroke-miterlimit="10" stroke-linecap="round" stroke-linejoin="round"/>
<path d="M197.6 351.4C197.6 350.2 197.8 349 198.2 347.9C199.1 347.9 199.9 348.8 200.1 349.7C200.3 350.6 200.2 351.5 200 352.5C200.2 351.5 200.5 350.5 201 349.7C201.2 349.4 201.3 349.1 201.6 349C202.3 348.7 203 349.4 203.2 350.1C203.4 350.8 203.5 351.6 204 352.1C204.8 351.1 205.9 350.1 207.1 350.5C208.1 350.9 208.6 352.2 209.7 352.1C210.4 352 210.9 351 211.7 351.1C212.2 351.2 212.5 351.8 212.9 352.2C213.7 352.9 215 352.6 215.7 351.9C216.4 351.2 216.7 350.1 217 349.1C217.2 348.3 217.4 347.3 216.8 346.7C216.3 346.2 215.3 346.3 214.7 346.8C214.1 347.3 213.8 348 213.5 348.7C212.9 350 212.7 352 214.1 352.3C214.6 352.4 215.1 352.1 215.6 352C216.9 351.7 218.3 352.5 218.8 353.7C219.3 353 220.1 352.3 220.9 352.6C221.2 352.7 221.4 353 221.7 353.2C222.6 353.8 223.8 353.5 224.8 353.1C225.9 352.7 227.2 351.5 226.3 350.7C225.8 350.3 225 350.5 224.7 351C224.4 351.5 224.3 352.2 224.4 352.8C224.7 351.4 226.8 351.2 227.9 352.2C229 353.2 229.2 354.7 229.4 356.1C229.8 359.3 230.1 362.9 228.1 365.4C225.2 363.1 225 358.8 225.3 355.1C225.4 354.1 225.5 353.1 226 352.2C226.5 351.3 227.6 350.7 228.5 351C229.4 351.3 229.9 352.7 229.2 353.4C230 352.9 230.8 352.4 231.6 351.9C231.7 352.6 232 353.3 232.4 353.9C233.9 353.1 235.8 353.1 237.2 353.9" stroke="black" stroke-width="0.5" stroke-miterlimit="10" stroke-linecap="round" stroke-linejoin="round"/>
<path d="M247.1 350.8C246.4 349.5 245.7 348.3 244.9 347C244.6 347 244.4 347 244.1 347C244 348.1 244.2 349.3 244.6 350.4C244.7 350.8 244.9 351.1 245.3 351.3C245.8 351.5 246.4 351.2 247 351.1C248.1 351 248.9 352.2 249.3 353.3C249.5 352.6 250.5 352.3 251.2 352.6C251.9 352.9 252.4 353.6 252.8 354.2C253.1 353.4 254.2 353.3 255.1 353.4C256 353.5 256.8 353.9 257.7 353.7C258.4 353.5 259 352.8 259.8 352.8C261 352.7 262.1 354.3 263.2 353.7C263.6 353.5 263.8 353 264.1 352.7C265.3 351.3 267.5 351.7 269.3 352.3C269.5 351.7 269.5 351 269.3 350.4" stroke="black" stroke-width="0.5" stroke-miterlimit="10" stroke-linecap="round" stroke-linejoin="round"/>
<path d="M277.8 346.8C277.1 346.3 277 345.1 277.6 344.5C278.2 343.9 279.4 344 279.9 344.7C280.2 345.1 280.2 345.7 280.2 346.3C280.1 347.8 279.6 349.3 278.7 350.5C280.4 349.1 282.3 347.9 284.3 347" stroke="black" stroke-width="0.5" stroke-miterlimit="10" stroke-linecap="round" stroke-linejoin="round"/>
<path d="M284.2 341.9C281.8 340.2 278.8 338.3 276 339.4C273.7 340.3 272.4 342.9 272.2 345.3C272 347.1 272.3 349 273.1 350.5C274 352.1 275.6 353.3 277.4 353.4C278.9 353.5 280.4 352.9 281.6 352C284.1 350.3 285.9 347.5 286.5 344.4C286.8 342.6 286.7 340.6 285.4 339.2C284.4 338.1 282.7 337.6 281.2 338C279.7 338.4 278.6 339.8 278.4 341.3" stroke="black" stroke-width="0.5" stroke-miterlimit="10" stroke-linecap="round" stroke-linejoin="round"/>
<path d="M145.8 195.6C150.5 195.5 155.3 195.6 160 195.9C160.4 191.1 160.4 186.2 159.8 181.4C159.8 181.2 159.7 181 159.6 180.8C159.4 180.6 159.1 180.6 158.8 180.6C156.4 180.8 154.1 180.9 151.7 181C150.5 181 149.2 181 148 181C147 181 146.1 180.6 145.7 181.5C145.5 182.5 146.3 195.6 145.8 195.6Z" fill="white" stroke="black" stroke-width="0.5" stroke-miterlimit="10" stroke-linecap="round" stroke-linejoin="round"/>
<path d="M168.5 185.3C168.4 185 168.5 184.7 168.5 184.4C168.5 184.1 168.3 183.7 168 183.8C167.9 183.8 167.8 184 167.7 184.1C167.3 185 167.2 186 167.6 186.9C168 186.4 168.4 185.8 168.9 185.3C169.2 186 169.6 186.7 169.9 187.4C170.4 186.7 170.7 186 171 185.2C171.6 185.2 171.7 186.5 172.3 186.3C172.7 186.2 172.6 185.6 172.9 185.4C173 185.9 173.8 185.9 174.1 185.5C174.4 185.1 174.4 184.6 174.4 184.1C174.4 183.9 174.4 183.7 174.2 183.6C173.9 183.4 173.6 183.8 173.5 184.2C173.4 184.7 173.2 185.2 173.4 185.7C173.6 186.2 174.2 186.5 174.6 186.2C174.8 186.1 174.9 185.8 175 185.6C175.1 185.4 175.4 185.3 175.6 185.4C175.8 185.5 175.8 185.8 176 185.9C176.4 186.2 176.7 185.4 177.2 185.4C177.4 185.4 177.6 185.6 177.9 185.7C178.5 186 179.3 185.8 179.7 185.2C180 185.9 180.6 186.7 181.2 186.4C181.4 186.3 181.5 186.2 181.7 186.1C182.3 185.5 182.5 184.6 182.3 183.8C181.2 184.5 180.8 186.1 181.3 187.3C182.1 187.3 182.9 186.7 183 185.9" stroke="black" stroke-width="0.5" stroke-miterlimit="10" stroke-linecap="round" stroke-linejoin="round"/>
<path d="M187.8 186.2C188.8 186.1 189.5 184.9 189.1 184C188.4 184.2 188.1 185.3 188.7 185.8C189.3 186.3 190.3 185.8 190.4 185.1C190.4 185.7 191.2 185.8 191.7 185.6C192.2 185.4 192.7 185 193.3 185.1C193.7 185.1 194 185.4 194.4 185.5C194.8 185.6 195.3 185.5 195.4 185.1C195.7 185.7 196.5 185.9 197.2 185.7C197.9 185.5 198.4 185.1 198.9 184.7C199.3 184.4 199.7 184 199.8 183.5C199.9 183 199.4 182.4 198.9 182.6C198.6 182.8 198.5 183.1 198.5 183.5C198.4 184.3 198.5 185.1 198.8 185.8C199.2 186.5 200 186.9 200.8 186.6C201.8 186.2 202.3 184.5 203.4 184.8C204.2 185 204.4 186.4 205.3 186.5C206.2 186.7 206.7 185.4 207.7 185.3C208 185.3 208.3 185.4 208.6 185.5C210.2 186.1 212 186 213.5 185.4C213.9 185.2 214.3 185 214.8 185.1C215.8 185.3 215.9 186.9 215.1 187.5C214.3 188.1 213.2 188.1 212.2 188C212.2 186.3 213 184.7 214.4 183.8C215.3 183.2 216.5 183 217.4 183.6C218.3 184.2 218.4 185.8 217.4 186.2C217.5 185.5 218.2 185 218.9 185C219.6 185 220.3 185.4 220.6 186C220.8 186.3 220.9 186.6 221.2 186.8C221.6 187 222.1 186.8 222.4 186.5C222.7 186.2 222.8 185.7 222.9 185.3" stroke="black" stroke-width="0.5" stroke-miterlimit="10" stroke-linecap="round" stroke-linejoin="round"/>
<path d="M171.3 193.3C171.7 192.9 171.5 192.1 171 191.9C170.5 191.7 169.8 192 169.5 192.4C169.2 192.9 169.1 193.5 169.1 194.1C169.1 194.3 169.2 194.5 169.3 194.6C169.5 194.7 169.7 194.7 169.9 194.6C170.9 194.3 171.7 193.6 172.1 192.6C172.3 193.5 173.7 193.9 174.4 193.3C174.8 192.9 175.2 192.2 175.7 192.4C176 192.6 176 193 176.3 193.3C176.9 193.9 178 192.8 178.8 193.1C179.1 193.2 179.3 193.5 179.6 193.6C180.2 193.9 180.9 193.4 181.5 193.6C181.9 193.7 182.2 194.1 182.6 194.3C183.3 194.6 184.1 194.4 184.6 193.9C185.1 193.4 185.5 192.7 185.8 192.1C185.9 191.9 186 191.7 185.9 191.5C185.8 191.2 185.3 191.2 184.9 191.4C184 191.9 183.3 193.1 183.9 193.9C184.4 194.5 185.3 194.5 186 194.2C186.7 193.9 187.3 193.3 188 193C188.2 192.9 188.3 192.8 188.5 192.9C188.7 193 188.9 193.2 189 193.4C189.5 194 190.5 193.8 191.3 193.5C192 193.2 192.9 192.7 193.6 193.1C193.8 193.9 193.4 194.7 192.8 195.2C193.4 194.7 194.1 194.3 194.8 194C195.6 193.8 196.4 193.9 197 194.5C197.3 194.9 197.5 195.4 197.6 195.9C197.8 197.7 197 199.6 195.5 200.6C195.4 198.2 196.7 195.4 199.1 195C199.5 194.9 199.9 194.9 200.3 195.2C200.9 195.6 200.9 196.5 200.6 197C200.3 197.5 199.7 198 199.1 198.3C199.1 197.4 199.3 196.4 200 195.8C200.7 195.2 202 195.4 202.1 196.4C203 195.5 204.2 194.9 205.5 194.9C207.1 194.8 208.6 195.5 210.2 195.6C211.8 195.8 213.7 195.3 214.2 193.8C214.3 193.4 214.4 193 214.2 192.6C214 192.1 213.5 191.8 213 191.8C211.8 191.7 210.8 193.2 211.2 194.4C211.6 195.6 212.9 196.3 214.2 196.1C215.4 196 216.5 195.1 217.2 194.1C217.9 193.1 218.3 191.9 218.7 190.7C218.8 190.2 219 189.7 218.7 189.3C218.4 188.8 217.5 188.8 217.1 189.2C216.7 189.6 216.4 190.2 216.3 190.8" stroke="black" stroke-width="0.5" stroke-miterlimit="10" stroke-linecap="round" stroke-linejoin="round"/>
<path d="M147 187.3C147.5 188.5 149.5 191.3 150.5 192.1C150.8 192.3 151 192.5 151.4 192.6C152.1 192.7 152.7 192.2 153.2 191.7C157.6 187.4 161.9 182.9 166 178.4" stroke="#C4C0E0" stroke-width="4" stroke-miterlimit="10" stroke-linecap="round" stroke-linejoin="round"/>
<path d="M145.8 249.6C150.5 249.5 155.3 249.6 160 249.9C160.4 245.1 160.4 240.2 159.8 235.4C159.8 235.2 159.7 235 159.6 234.8C159.4 234.6 159.1 234.6 158.8 234.6C156.4 234.8 154.1 234.9 151.7 235C150.5 235 149.2 235 148 235C147 235 146.1 234.6 145.7 235.5C145.5 236.5 146.3 249.6 145.8 249.6Z" fill="white" stroke="black" stroke-width="0.5" stroke-miterlimit="10" stroke-linecap="round" stroke-linejoin="round"/>
<path d="M165.7 245.2C165.2 245.8 165.7 246.9 166.5 246.9C168.4 243.4 168.9 239.2 168.1 235.3C168.9 239.5 170.5 243.5 172.7 247.1C172.6 245.7 172.4 244.1 171.3 243.1C170.3 242.1 168.1 242.3 167.8 243.7C167.5 244.8 169 245.9 170 245.4C171 244.9 171.5 243.3 172.6 243.5C173.5 243.7 173.5 245 174.1 245.7C174.1 244.7 174.4 243.8 175 243C175.6 243.7 176.3 244.4 176.9 245.1C176.8 243.9 179 244.5 179.8 243.6C180.1 243.3 180.1 242.9 180.2 242.5C180.3 241.6 180.4 240.7 180.2 239.9C180 239 179.2 238.3 178.4 238.2C176.2 242.4 176.4 247.7 178.8 251.7C178.8 249.4 179.2 247.2 180.2 245.1C181.1 246.3 181.4 248 180.7 249.3C180 248.4 179.9 247.1 180.4 246C180.6 245.5 181.1 245.1 181.6 245.2C182 245.3 182.3 245.7 182.6 246C183.8 247.2 185.9 246.4 187.2 245.3C187.9 244.7 188.6 243.9 188.8 243C189 242.1 188.5 240.9 187.6 240.7C187.6 245.6 188.6 250.5 190.5 255C189.7 252.3 189.1 249.5 188.8 246.8C188.7 245.7 188.7 244.2 189.7 243.7C190.2 244.4 190.4 245.4 190.2 246.2C190.9 245.8 191.5 245.3 192 244.6C192.7 245.2 193.7 245.3 194.5 245C195 244.8 195.4 244.3 196 244.3C196.4 244.3 196.8 244.5 197.2 244.6C198.6 245 200.2 244.2 200.8 242.8C201.3 241.4 200.7 239.7 199.4 239.1C197.6 241.5 197.8 245.2 199.8 247.4C200.5 246.8 201.1 245.9 201.3 245C201.8 245.4 202.2 245.9 202.2 246.6C202.3 246.4 202.5 246.2 202.6 245.9" stroke="black" stroke-width="0.5" stroke-miterlimit="10" stroke-linecap="round" stroke-linejoin="round"/>
<path d="M205.5 245.1C205.1 243.3 205.1 241.5 205.4 239.7C206.1 239.5 206.7 240.4 206.9 241.1C207.4 242.6 207.5 244.2 207.4 245.8C207.6 244.9 208.4 243.7 209.2 244.1C209.9 244.4 210.1 245.5 210.8 245.5C211.8 245.4 211.7 243.4 212.7 243.6C213.2 243.7 213.4 244.5 214 244.6C214.5 244.8 215 244.2 215.5 243.9C216.5 243.4 217.6 244.1 218.7 244.4C220.7 245 223.1 243.8 223.8 241.8C222.8 242.4 221.9 243.2 221.3 244.2" stroke="black" stroke-width="0.5" stroke-miterlimit="10" stroke-linecap="round" stroke-linejoin="round"/>
<path d="M147.9 241.6C148.4 242.8 150.4 245.6 151.4 246.4C151.7 246.6 151.9 246.8 152.3 246.9C153 247 153.6 246.5 154.1 246C158.5 241.7 162.8 237.2 166.9 232.7" stroke="#C4C0E0" stroke-width="4" stroke-miterlimit="10" stroke-linecap="round" stroke-linejoin="round"/>
<path d="M242.7 303.6C247.4 303.5 252.2 303.6 256.9 303.9C257.3 299.1 257.3 294.2 256.7 289.4C256.7 289.2 256.6 289 256.5 288.8C256.3 288.6 256 288.6 255.7 288.6C253.3 288.8 251 288.9 248.6 289C247.4 289 246.1 289 244.9 289C243.9 289 243 288.6 242.6 289.5C242.3 290.5 243.2 303.6 242.7 303.6Z" fill="white" stroke="black" stroke-width="0.5" stroke-miterlimit="10" stroke-linecap="round" stroke-linejoin="round"/>
<path d="M266.2 297.6C266 296.9 265.8 296.1 266 295.4C266.2 294.7 266.8 294 267.5 294.1C268.3 294.2 268.7 295.1 268.7 295.9C268.6 296.7 268.1 297.3 267.7 298C268.1 296.7 269.9 296.3 271.1 297C272.3 297.7 272.8 299.1 272.9 300.5C273.1 302.9 271.9 305.4 269.9 306.8C269.8 306.9 269.6 307 269.4 307C269.2 307 269.1 306.8 269 306.7C267.7 305.1 268.5 302.8 269.5 301C270.1 299.9 270.9 298.8 271.9 298.2C273 297.6 274.5 297.5 275.4 298.3C276.3 299.2 276.1 301 274.9 301.4C274.8 301.4 274.7 301.5 274.6 301.4C274.4 301.3 274.4 301 274.4 300.7C274.7 299.8 275.2 298.9 275.9 298.2C276.1 298 276.3 297.9 276.5 297.9C276.7 297.9 276.9 298.2 276.8 298.4" stroke="black" stroke-width="0.5" stroke-miterlimit="10" stroke-linecap="round" stroke-linejoin="round"/>
<path d="M279.5 298.2C279.6 297.2 279.8 296 280.8 295.8C281.7 295.7 282.4 296.8 282.2 297.7C282 298.6 281.2 299.2 280.5 299.8C280.1 298.6 280.7 297 281.9 296.7C283.1 296.4 284.5 298 283.7 299C286 298.2 288.5 298 290.8 298.5C291.6 298.7 292.5 298.9 293.3 298.6C294.1 298.3 294.4 297 293.7 296.6C293 297.5 292.7 298.7 293 299.8C293 299.9 293.1 300.1 293.2 300.2C293.5 300.4 293.9 300.2 294.2 299.9C294.9 299.2 295.6 298.6 296.3 297.9C296.8 298.5 297.3 299.1 297.8 299.7C297.8 299 298.6 298.5 299.3 298.5C300 298.5 300.7 298.8 301.3 299.1C303.5 300 306.5 300.2 308.1 298.4C309.2 297.2 309.4 295.4 309.4 293.8C309.4 292.3 309.3 290.7 308.6 289.4C307.8 288.1 306.1 287.2 304.7 287.8C303.2 288.5 302.8 290.5 303.6 292C304.4 293.4 306 294.2 307.6 294.3" stroke="black" stroke-width="0.5" stroke-miterlimit="10" stroke-linecap="round" stroke-linejoin="round"/>
<path d="M246.2 294.9C246.7 296.1 248.7 298.9 249.7 299.7C250 299.9 250.2 300.1 250.6 300.2C251.3 300.3 251.9 299.8 252.4 299.3C256.8 295 261.1 290.5 265.2 286" stroke="#C4C0E0" stroke-width="4" stroke-miterlimit="10" stroke-linecap="round" stroke-linejoin="round"/>
<path d="M145.8 303.6C150.5 303.5 155.3 303.6 160 303.9C160.4 299.1 160.4 294.2 159.8 289.4C159.8 289.2 159.7 289 159.6 288.8C159.4 288.6 159.1 288.6 158.8 288.6C156.4 288.8 154.1 288.9 151.7 289C150.5 289 149.2 289 148 289C147 289 146.1 288.6 145.7 289.5C145.5 290.5 146.3 303.6 145.8 303.6Z" fill="white" stroke="black" stroke-width="0.5" stroke-miterlimit="10" stroke-linecap="round" stroke-linejoin="round"/>
<path d="M169.5 296.9C168.8 296.4 169.7 294.7 168.8 294.5C168.4 294.4 168.1 294.8 168 295.2C167.4 296.3 166.8 297.6 167.2 298.9C167.3 299.2 167.5 299.5 167.7 299.6C168.4 300 169.1 299.2 169.5 298.5C169.8 297.8 170.2 296.9 170.9 296.8C171.1 297.5 171.3 298.1 171.6 298.8C172.2 298.3 172.7 297.7 173.3 297.2C172.8 297.8 173.4 298.8 174.1 298.9C174.8 299 175.6 298.5 176 297.8C175.8 298.7 176.7 299.6 177.6 299.6C178.5 299.6 179.3 298.9 179.7 298.1C180 297.4 180.1 296.6 179.9 295.9C178.9 295.9 178 296.8 178.1 297.8C178.2 299.2 179.9 300 181.3 299.7C182.7 299.4 183.7 298.3 184.6 297.3C184.6 298.1 185 298.9 185.6 299.5C186.3 299.3 186.3 298 187 298C187.5 298 187.8 298.6 187.8 299C187.8 299.5 187.8 300.1 188.2 300.4C188.8 300.9 189.6 300.3 190 299.6C190.4 298.9 190.7 298.1 191.4 298C191.5 299.1 192.5 300.1 193.6 300.1" stroke="black" stroke-width="0.5" stroke-miterlimit="10" stroke-linecap="round" stroke-linejoin="round"/>
<path d="M198.5 299.1C198.2 298.6 197.9 298.1 197.9 297.5C197.9 296.9 198.3 296.3 198.9 296.3C199.5 296.3 199.9 296.8 200 297.4C200.1 298 199.9 298.5 199.7 299C200.1 298.1 201.6 298.1 202.2 299C202.8 299.8 202.6 301 202.2 301.9C202 302.3 201.8 302.7 201.4 302.9C201 303.1 200.5 303.1 200.2 302.7C200 302.5 200 302.2 200 301.9C200 300.4 200.6 298.9 201.5 297.8C201.7 297.6 201.9 297.4 202.1 297.4C202.6 297.4 202.9 298.1 202.8 298.6C202.7 299.1 202.7 299.8 203.2 300.1C204 300.5 204.6 299.1 205.5 299.1C206.5 299.1 207.2 300.9 208.1 300.4C208.6 300.1 208.7 299.3 209.2 299.3C209.4 299.3 209.6 299.5 209.8 299.7C211.2 300.9 213.8 300.2 214.4 298.4C214.8 299.6 216.2 300.3 217.3 300C218.5 299.7 219.3 298.4 219.1 297.2C218.6 297.7 218.2 298.3 218.1 299C218 299.7 218.5 300.4 219.1 300.6C219.6 300.7 220 300.5 220.4 300.2C222.5 298.7 222.6 295.3 221.2 293.1C220.5 292 219.3 291 217.9 291C216.6 290.9 215.1 292 215.1 293.3" stroke="black" stroke-width="0.5" stroke-miterlimit="10" stroke-linecap="round" stroke-linejoin="round"/>
<path d="M147.2 295.7C147.7 296.9 149.7 299.7 150.7 300.5C151 300.7 151.2 300.9 151.6 301C152.3 301.1 152.9 300.6 153.4 300.1C157.8 295.8 162.1 291.3 166.2 286.8" stroke="#C4C0E0" stroke-width="4" stroke-miterlimit="10" stroke-linecap="round" stroke-linejoin="round"/>
<path d="M242.7 195.6C247.4 195.5 252.2 195.6 256.9 195.9C257.3 191.1 257.3 186.2 256.7 181.4C256.7 181.2 256.6 181 256.5 180.8C256.3 180.6 256 180.6 255.7 180.6C253.3 180.8 251 180.9 248.6 181C247.4 181 246.1 181 244.9 181C243.9 181 243 180.6 242.6 181.5C242.3 182.5 243.2 195.6 242.7 195.6Z" fill="white" stroke="black" stroke-width="0.5" stroke-miterlimit="10" stroke-linecap="round" stroke-linejoin="round"/>
<path d="M266.6 186.9C267.6 186.4 266.5 184.7 265.4 185C264.3 185.3 263.9 186.5 263.7 187.6C263.5 188.6 263.6 189.7 264.4 190.2C265.1 190.6 266.1 190.4 266.6 189.8C267.1 189.2 267.5 188.4 267.8 187.7C268.3 188.2 268.9 188.7 269.4 189.2C270 188.7 270.6 188.2 271.1 187.7C271.2 188.9 273.3 189.3 273.7 188.1C274.7 189.2 276.6 189.5 277.8 188.6C279 187.7 279.5 185.9 278.7 184.6C277.5 184.9 276.6 186.3 276.9 187.5C277.2 188.7 278.5 189.6 279.8 189.4C281.4 189.1 283.1 187.3 284.3 188.4C284.6 188.7 284.7 189 285 189.2C286.4 190.1 287.4 186.7 289 187.1C289.4 187.2 289.6 187.5 290 187.6C290.5 187.8 291.1 187.7 291.6 187.6C292.8 187.4 294 187.2 295.2 187C295.5 186.9 295.8 186.9 296.1 187.1C296.4 187.3 296.5 187.8 296.4 188.2C296.2 189.9 295 191.5 293.4 192.2C292.8 190.4 293.6 187.7 295.5 187.7C296.9 187.7 298 189.1 298.3 190.5C298.7 192.6 298.1 194.9 296.6 196.4C296.6 195.1 296.9 193.7 297.8 192.9C298.7 192 300.5 191.9 301.2 193C301.9 194.1 300.6 195.9 299.5 195.2C299.9 191.9 302.5 188.9 305.8 188.1" stroke="black" stroke-width="0.5" stroke-miterlimit="10" stroke-linecap="round" stroke-linejoin="round"/>
<path d="M310.5 186.4C310.9 185.8 311.9 186 312.3 186.5C312.7 187.1 312.7 187.8 312.6 188.5C312.3 188 312.8 187.2 313.4 187.1C314 187 314.7 187.3 315.2 187.5C315.7 187.7 316.4 188 317.1 187.8C317.4 187.7 317.7 187.5 318 187.4C318.9 187.2 319.8 188.1 320.7 188C321.3 188 321.8 187.5 322.4 187.2C323.2 186.8 324.2 186.8 325 186.5C325.8 186.2 326.6 185.3 326.3 184.4C324.2 184.2 322.1 184.9 320.5 186.3" stroke="black" stroke-width="0.5" stroke-miterlimit="10" stroke-linecap="round" stroke-linejoin="round"/>
<path d="M243.6 187.3C244.1 188.5 246.1 191.3 247.1 192.1C247.4 192.3 247.6 192.5 248 192.6C248.7 192.7 249.3 192.2 249.8 191.7C254.2 187.4 258.5 182.9 262.6 178.4" stroke="#C4C0E0" stroke-width="4" stroke-miterlimit="10" stroke-linecap="round" stroke-linejoin="round"/>
<path d="M145.8 222.6C150.5 222.5 155.3 222.6 160 222.9C160.4 218.1 160.4 213.2 159.8 208.4C159.8 208.2 159.7 208 159.6 207.8C159.4 207.6 159.1 207.6 158.8 207.6C156.4 207.8 154.1 207.9 151.7 208C150.5 208 149.2 208 148 208C147 208 146.1 207.6 145.7 208.5C145.5 209.5 146.3 222.6 145.8 222.6Z" fill="white" stroke="black" stroke-width="0.5" stroke-miterlimit="10" stroke-linecap="round" stroke-linejoin="round"/>
<path d="M169.8 214.8C170.2 214.3 169.5 213.5 168.8 213.7C168.2 213.9 167.9 214.6 167.7 215.2C167.5 215.9 167.4 216.7 167.5 217.4C167.5 218.3 168.1 219.4 168.9 219.1C169.2 219 169.4 218.7 169.5 218.4C170 217.5 170.5 216.7 170.9 215.8C170.9 216.4 171.6 216.8 172.2 216.7C172.8 216.6 173.3 216.1 173.6 215.7C173.8 217 176.1 217.2 176.5 216C176.4 217 177.3 217.9 178.3 217.9C179.3 217.9 180.2 217 180.2 216C179.6 216.9 180.7 218.1 181.7 217.9C182.7 217.7 183.3 216.5 183.2 215.5C183.2 215 182.9 214.4 182.4 214.3C181.7 214.2 181.3 215.1 181.1 215.8C180.9 216.5 180.8 217.2 180.9 217.9C181.1 218.6 181.6 219.2 182.3 219.2C183.1 219.2 183.5 218.4 184 217.9C184.5 217.3 185.3 216.8 185.9 217.2C186.5 217.6 186.6 218.7 187.3 218.8C188 218 188.8 217.2 189.5 216.4C190.1 217.1 190.6 217.7 191.2 218.4C192.7 217.3 194.2 216.1 195.6 214.8C197.6 218.7 198.8 222.9 199.3 227.2C199.4 228.1 199.4 229.3 198.6 229.8C197.1 226.9 196.9 223.4 198.1 220.4" stroke="black" stroke-width="0.5" stroke-miterlimit="10" stroke-linecap="round" stroke-linejoin="round"/>
<path d="M202.6 215.8C202.9 215.1 202.2 214.2 201.5 214.2C201.2 215.1 201 216 201.2 216.8C201.4 217.6 202.5 218.3 203.3 217.8C204.2 217.2 204.1 215.5 205.2 215.3C205.2 216.3 205.6 217.4 206.3 218.2C206.6 217.4 207.2 216.6 207.8 216.1C208 216.9 208.8 217.6 209.6 217.5C210.4 217.4 211.2 216.7 211.2 215.9C211.8 215.8 212 216.7 212.3 217.2C212.7 217.8 213.4 217.9 214.1 217.8C214.8 217.7 215.3 217.2 215.8 216.7C216.2 216.3 216.7 215.8 216.8 215.2C216.9 214.6 216.4 213.9 215.8 214C215.2 214.1 214.9 214.8 214.8 215.4C214.5 216.5 214.5 218.1 215.5 218.4C216.1 218.6 216.7 218.2 217 217.7C217.3 217.2 217.5 216.6 217.6 216C219.4 219.5 221 223.7 219.3 227.2C218.1 225.2 217.8 222.8 218.4 220.6C218.6 220 218.9 219.3 219.5 219.4" stroke="black" stroke-width="0.5" stroke-miterlimit="10" stroke-linecap="round" stroke-linejoin="round"/>
<path d="M148.6 210.8C151.4 213.8 154.1 216.9 156.6 220.1C156.5 219.9 156.3 219.8 156.2 219.6" stroke="#C4C0E0" stroke-width="4" stroke-miterlimit="10" stroke-linecap="round" stroke-linejoin="round"/>
<path d="M148.6 220.5C151.3 217.3 154 214 156.7 210.8" stroke="#C4C0E0" stroke-width="4" stroke-miterlimit="10" stroke-linecap="round" stroke-linejoin="round"/>
<path d="M145.8 330.6C150.5 330.5 155.3 330.6 160 330.9C160.4 326.1 160.4 321.2 159.8 316.4C159.8 316.2 159.7 316 159.6 315.8C159.4 315.6 159.1 315.6 158.8 315.6C156.4 315.8 154.1 315.9 151.7 316C150.5 316 149.2 316 148 316C147 316 146.1 315.6 145.7 316.5C145.5 317.5 146.3 330.6 145.8 330.6Z" fill="white" stroke="black" stroke-width="0.5" stroke-miterlimit="10" stroke-linecap="round" stroke-linejoin="round"/>
<path d="M169.2 319.1C168.9 318.7 168.4 318.4 167.9 318.4C169 323.7 170.5 328.8 172.3 333.9C170.1 332.2 167.8 330.6 165.6 328.9C168.5 326.2 171.7 323.1 171.8 319.1C169.7 321.7 169.8 325.8 172 328.3C172.7 327.3 173.3 326.4 174 325.4C174.5 327 175.3 328.5 176.3 329.8C176.9 328.7 177.5 327.7 178.1 326.6C178.5 327.2 179 327.9 179.7 328.3C180.4 328.7 181.3 328.8 181.9 328.2C182.2 327.9 182.4 327.4 182.9 327.3C183.7 327 184.2 328.3 185 328.7C185.9 329.3 187.1 328.7 187.6 327.8C188.1 326.9 188 325.8 188 324.8C188 324.1 187.6 323.2 186.9 323.4C186.7 323.4 186.6 323.6 186.5 323.7C185.3 325.1 186.1 327.6 187.8 328.2C189.5 328.8 191.6 327.9 192.5 326.3C193.1 327.6 194.7 328.3 196 327.8C196.4 327.7 196.8 327.5 197.2 327.5C197.8 327.5 198.4 328 198.9 328.3C199.5 328.6 200.4 328.4 200.4 327.8" stroke="black" stroke-width="0.5" stroke-miterlimit="10" stroke-linecap="round" stroke-linejoin="round"/>
<path d="M207.4 327.5C209 324.6 210 320.9 208.2 318.1C206.7 318.7 206.4 320.6 206.2 322.2C206.1 323.5 206 324.9 206.6 326.1C207.2 327.3 208.9 327.9 209.9 327.1C210.8 326.4 211.2 324.6 212.4 324.8C213.5 325 213.7 327 214.9 326.9C215.8 326.8 216 325.6 216.8 325.3C218 324.8 219.2 326.6 220.3 326.1C221 325.8 221.3 324.8 222.1 324.8C222.4 324.8 222.7 325 223 325.2C224.1 325.9 225.6 325.7 226.6 324.9" stroke="black" stroke-width="0.5" stroke-miterlimit="10" stroke-linecap="round" stroke-linejoin="round"/>
<path d="M233.6 326.6C233.6 325.9 234.1 325.3 234.2 324.6C234.3 323.9 233.6 323.1 233.1 323.5C232.9 323.7 232.9 323.9 232.8 324.1C232.7 324.6 232.6 325 232.5 325.5C232.4 325.9 232.3 326.4 232.7 326.7C233 327 233.5 326.8 233.8 326.6C234.6 326.1 235.2 325.2 236.1 325C236.6 324.9 237.1 325 237.6 325.1C238.8 325.4 240.1 325.6 241.3 325.9C243.2 326.3 245 326.7 246.9 326.7C247.2 326.7 247.6 326.8 247.6 327C247.6 327.1 247.6 327.2 247.5 327.3C246.7 328.7 244.9 329.5 243.3 329.2C243.4 327.4 243.9 325.6 244.5 323.9C244.8 323.2 245.2 322.4 246 322.3C246.4 322.2 246.9 322.4 247.2 322.7C248.7 323.7 249.6 325.7 249.2 327.6C250.1 326.4 251.2 325.2 252.6 324.8C254 324.3 255.9 324.9 256.3 326.4C257.4 326.1 258.6 326 259.8 326.1C259.5 326.4 259.2 326.7 258.8 327" stroke="black" stroke-width="0.5" stroke-miterlimit="10" stroke-linecap="round" stroke-linejoin="round"/>
<path d="M275.2 316.4C275.4 318.8 275.7 321.1 275.9 323.5C276 324 276.8 324 276.9 323.5C277 323 276.2 322.7 275.9 323.2" stroke="black" stroke-width="0.5" stroke-miterlimit="10" stroke-linecap="round" stroke-linejoin="round"/>
<path d="M275.4 325.8C282.8 324.8 285.5 311.2 276.6 312.2C269.5 312.9 267.1 326.9 275.4 325.8Z" stroke="black" stroke-width="0.5" stroke-miterlimit="10" stroke-linecap="round" stroke-linejoin="round"/>
<path d="M148.6 318.4C151.4 321.4 154.1 324.5 156.6 327.7C156.5 327.5 156.3 327.4 156.2 327.2" stroke="#C4C0E0" stroke-width="4" stroke-miterlimit="10" stroke-linecap="round" stroke-linejoin="round"/>
<path d="M148.6 328.1C151.3 324.9 154 321.6 156.7 318.4" stroke="#C4C0E0" stroke-width="4" stroke-miterlimit="10" stroke-linecap="round" stroke-linejoin="round"/>
<path d="M469.9 140.7H378.2V192.4H469.9V140.7Z" fill="white" stroke="black" stroke-miterlimit="10" stroke-linecap="round" stroke-linejoin="round"/>
<path d="M424 145.1C426.43 145.1 428.4 143.13 428.4 140.7C428.4 138.27 426.43 136.3 424 136.3C421.57 136.3 419.6 138.27 419.6 140.7C419.6 143.13 421.57 145.1 424 145.1Z" fill="#C4C0E0" stroke="black" stroke-miterlimit="10" stroke-linecap="round" stroke-linejoin="round"/>
<path d="M397.8 155.7C398 155.3 397.1 155.3 396.8 155.6C396.2 156.1 395.7 156.7 395.3 157.4C395 157.8 394.8 158.3 394.9 158.8C395.1 159.8 396.5 160 397.5 159.6C398.5 159.3 399.5 158.6 400.5 158.9C401.3 159.1 401.8 159.9 401.9 160.7C402 161.5 401.8 162.3 401.5 163C401.1 163.9 400.4 164.8 399.5 165.1C398.5 165.4 397.3 165 397 164C396.7 162.9 397.9 161.8 399.1 161.9C400.3 162 401.1 163.1 401.4 164.2C402 163.4 402.7 162.5 403.3 161.8C403.5 161.6 403.7 161.4 403.9 161.4C404.2 161.4 404.4 161.8 404.5 162.1C404.8 162.8 405.1 163.5 405.4 164.2C405.8 163.2 406.2 162.2 406.6 161.3C406.8 161.9 407 162.6 407.5 163C408 163.4 408.8 163.6 409.2 163.1C409.4 162.9 409.5 162.6 409.5 162.3C409.8 160.8 409.9 159.3 409.7 157.8C409.6 159.7 410 161.6 410.9 163.2C410.8 162.6 410.8 161.9 411 161.3C411.3 160.7 412 160.3 412.6 160.5C412.8 160.6 413 160.8 413.2 161.1C413.7 162.2 412.7 163.6 411.5 163.5C412.2 162.5 413.1 161.6 414.1 161C414.3 160.9 414.6 160.7 414.9 160.7C415.9 160.7 416.3 162.1 416.2 163.2C416 162.2 416.7 161.2 417.7 161.1C418.7 161 419.6 161.9 419.6 162.9C419.5 162.4 419.5 161.8 419.7 161.3C419.9 160.8 420.4 160.4 421 160.6C422 160.9 421.7 162.6 422.5 163.2C423.3 162.5 423.9 161.5 424.1 160.4C424.4 161.6 425.1 162.8 426 163.6C426.5 162.3 426.9 160.9 427.4 159.6C427.1 160.5 427.7 161.7 428.7 161.9C429 162 429.2 162 429.4 162.1C429.8 162.4 429.6 163.1 429.1 163.3C428.7 163.5 428.1 163.4 427.6 163.3C428.8 162.4 430 161.5 431.2 160.5C430.8 160.4 430.4 160.8 430.4 161.3C431 161.4 431.6 161.5 432.2 161.6C432.5 161.7 432.8 161.7 433 161.9C433.3 162.3 433 163 432.5 163.2C432 163.4 431.4 163.3 430.9 163.2C432 162.1 433 161 434.1 159.9C434.1 160.7 434.2 161.6 434.5 162.4C434.7 162.8 435 163.2 435.4 163.1C435.7 163.1 435.9 162.8 436 162.5C436.4 161.9 436.8 161.2 437.1 160.6C436.6 161.3 436.9 162.4 437.7 162.8C438.5 163.2 439.5 162.8 439.9 162.1C440.2 161.3 439.8 160.3 439 160C438.1 159.7 437 160.8 437.6 161.5C438 162 438.8 161.9 439.3 161.7C439.9 161.4 440.4 161 441 160.9C442.1 160.8 443.1 162.2 442.5 163.2C443.2 162 444 160.7 444.7 159.5C445 160.6 445.4 161.7 445.7 162.8C445.8 163 445.8 163.2 446 163.3C446.2 163.4 446.3 163.3 446.5 163.2C447.6 162.7 448.6 161.8 449.1 160.7" stroke="black" stroke-width="0.5" stroke-miterlimit="10" stroke-linecap="round" stroke-linejoin="round"/>
<path d="M434.7 155.9C434.4 155.7 434 155.7 433.7 155.9C433.4 156.1 433.3 156.4 433.2 156.8C433 157.4 433.1 158.1 433.6 158.3C434 158.5 434.5 158.2 434.7 157.8C434.9 157.4 434.9 156.9 434.9 156.5C434.9 156.3 434.8 156 434.7 155.9ZM434.7 155.9C434.5 155.8 434.2 156 434.3 156.2" stroke="black" stroke-width="0.5" stroke-miterlimit="10" stroke-linecap="round" stroke-linejoin="round"/>
<path d="M423.3 156.5C423 156.5 422.6 156.7 422.5 157C422.3 157.3 422.3 157.6 422.2 158C422.2 158.2 422.1 158.5 422.3 158.7C422.5 159 423 158.9 423.3 158.6C423.5 158.3 423.6 157.9 423.5 157.5C423.5 157.1 423.4 156.7 423 156.5C422.7 156.3 422.1 156.7 422.3 157" stroke="black" stroke-width="0.5" stroke-miterlimit="10" stroke-linecap="round" stroke-linejoin="round"/>
<path d="M414.5 174.3C413.7 173.2 413.9 171.5 414.9 170.6C415.9 169.7 417.7 169.8 418.7 170.7C420 172 419.7 174.2 418.8 175.8C417.9 177.4 416.4 178.6 415.5 180.2C414.5 181.8 414.2 184 415.5 185.3C415.7 184.7 416.2 184.3 416.8 184.2C417.4 184.1 418 184.1 418.6 184.3C419.7 184.5 420.7 184.9 421.7 185.3C421.9 185.4 422.2 185.5 422.4 185.4C422.5 185.3 422.6 185.2 422.6 185C422.9 183.9 422.9 182.8 422.8 181.8" stroke="black" stroke-width="0.75" stroke-miterlimit="10" stroke-linecap="round" stroke-linejoin="round"/>
<path d="M427.4 169.3C426.7 169.4 426.1 169.8 425.5 170.3C424.6 171 423.9 172.1 423.8 173.2C423.7 174.3 424.4 175.6 425.5 175.8C426.7 176.1 427.8 175.2 429 175.1C431 174.9 432.7 176.8 433 178.8C433.3 180.8 432.4 183.1 430.5 184.1C428.6 185.1 426.1 184.5 425.1 182.7C423.3 179.6 425.6 176.9 427.9 175C429.6 173.8 430.8 168.9 427.4 169.3Z" stroke="black" stroke-width="0.75" stroke-miterlimit="10" stroke-linecap="round" stroke-linejoin="round"/>
<path d="M432.5 166.4C432.4 166.3 432.4 166.4 432.4 166.5C432.4 167.2 432.4 167.8 432.4 168.5C432.4 168.8 432.5 169.2 432.8 169.2C433.1 169.2 433.3 168.9 433.4 168.7C433.6 168 433.7 167.3 433.6 166.6C433.6 166.5 433.5 166.4 433.4 166.4C433.2 167.3 433.3 168.2 433.7 169C433.8 168.5 434 168 434.3 167.6L434.4 167.5C434.5 167.5 434.6 167.6 434.6 167.7C434.8 168.1 434.9 168.7 435.2 169C435.2 169.1 435.3 169.1 435.4 169.1C435.5 169.1 435.6 169 435.6 169C435.8 168.7 436.1 168.4 436.2 168.1" stroke="black" stroke-width="0.5" stroke-miterlimit="10" stroke-linecap="round" stroke-linejoin="round"/>
<path d="M430.6 167.7C431.1 168.1 432 167.9 432.2 167.3" stroke="black" stroke-width="0.5" stroke-miterlimit="10" stroke-linecap="round" stroke-linejoin="round"/>
<path d="M445 237.7H369.6V289.4H445V237.7Z" fill="#E8E8E8" stroke="black" stroke-miterlimit="10" stroke-linecap="round" stroke-linejoin="round"/>
<path d="M407.3 246.9C409.122 246.9 410.6 245.422 410.6 243.6C410.6 241.777 409.122 240.3 407.3 240.3C405.477 240.3 404 241.777 404 243.6C404 245.422 405.477 246.9 407.3 246.9Z" fill="white" stroke="black" stroke-miterlimit="10" stroke-linecap="round" stroke-linejoin="round"/>
<path d="M386.1 260.7H376.1V270.7H386.1V260.7Z" fill="white" stroke="black" stroke-miterlimit="10" stroke-linecap="round" stroke-linejoin="round"/>
<path d="M399.2 260.7H389.2V270.7H399.2V260.7Z" fill="#F4F2F9" stroke="black" stroke-miterlimit="10" stroke-linecap="round" stroke-linejoin="round"/>
<path d="M412.3 260.7H402.3V270.7H412.3V260.7Z" fill="#DBD6EB" stroke="black" stroke-miterlimit="10" stroke-linecap="round" stroke-linejoin="round"/>
<path d="M425.4 260.7H415.4V270.7H425.4V260.7Z" fill="#CFC9E4" stroke="black" stroke-miterlimit="10" stroke-linecap="round" stroke-linejoin="round"/>
<path d="M438.4 260.7H428.4V270.7H438.4V260.7Z" fill="#9893C8" stroke="black" stroke-miterlimit="10" stroke-linecap="round" stroke-linejoin="round"/>
<path d="M414.7 380.2L381.1 378.2L385 278.6H416L414.7 380.2Z" fill="#E6E6ED" stroke="black" stroke-miterlimit="10" stroke-linecap="round" stroke-linejoin="round"/>
<path d="M399.8 288.4C401.622 288.4 403.1 286.923 403.1 285.1C403.1 283.277 401.622 281.8 399.8 281.8C397.977 281.8 396.5 283.277 396.5 285.1C396.5 286.923 397.977 288.4 399.8 288.4Z" fill="white" stroke="black" stroke-miterlimit="10" stroke-linecap="round" stroke-linejoin="round"/>
<path d="M389.4 303C389.8 302.8 389.3 302.1 388.9 302.3C388.5 302.5 388.4 303 388.4 303.5C388.4 303.9 388.4 304.3 388.5 304.7C388.7 305.1 389.1 305.4 389.5 305.3C390.1 305.2 390.2 304.4 390.2 303.7C389.9 304 390.4 304.5 390.8 304.4C391.2 304.3 391.5 303.9 391.7 303.6C391.6 304 391.8 304.5 392.2 304.7C392.6 304.9 393.1 304.8 393.4 304.4C393.9 304.8 394.7 304.7 395.2 304.2C395.7 303.7 395.7 302.9 395.3 302.4C394.5 302.8 394.3 304.2 395.1 304.8C395.9 305.4 397.1 304.9 397.3 304C397.6 304.5 398.1 305.1 398.6 304.8C399 304.6 399.1 303.8 399.6 303.8C399.8 303.8 400 304 400.2 304.2C400.6 304.4 401.3 304.1 401.3 303.6C401.6 303.9 402 304.2 402.4 304.2C402.8 304.2 403.3 303.9 403.3 303.5C403.3 304.1 403.9 304.7 404.6 304.7C405.3 304.7 405.8 304 405.7 303.4C405.1 303.8 405.4 304.9 406.1 305.1C406.8 305.3 407.6 304.7 407.8 304C408 303.3 407.9 302.5 407.7 301.8C407.5 301.1 406.8 300.2 406.1 300.5C405.8 300.6 405.7 301 405.5 301.2C405.2 302 405.1 302.9 405.3 303.7C405.5 304.5 406.2 305.2 407.1 305.3C408 305.4 408.8 304.8 408.9 304C409.3 304.7 409.9 305.2 410.6 305.4" stroke="black" stroke-width="0.5" stroke-miterlimit="10" stroke-linecap="round" stroke-linejoin="round"/>
<path d="M388.1 316.1C387.8 315.1 388.3 313.9 389.2 313.3C389.4 314.3 389.5 315.4 389.5 316.4C390.1 316.1 390.7 315.5 390.9 314.9C390.9 315.4 391.4 315.9 392 315.9C392.5 315.9 393 315.4 393.1 314.9C393.1 315.4 393.6 315.9 394.1 315.9C394.6 315.9 395.2 315.4 395.2 314.9C395.6 315.5 396.5 315.7 397.2 315.3C397.7 315 398 314.5 398.2 314C398.4 313.6 398.6 313.1 398.4 312.6C398.3 312.1 397.7 311.8 397.3 312C397 312.2 397 312.5 396.9 312.8C396.7 313.8 396.7 315 397.5 315.6C398.1 316 398.9 316 399.6 315.7C400.3 315.4 400.7 314.8 401.1 314.1C401.5 314.2 401.7 314.6 402 315C402.3 315.3 402.7 315.6 403.1 315.4C403.3 315.3 403.5 315 403.7 314.9C404.1 314.6 404.7 314.9 405.1 315.2C405.5 315.5 405.8 316 406.3 316.1C407 316.3 407.7 315.9 408 315.3C408.3 314.7 408.3 314 408.2 313.3C407.6 313.8 407.3 314.7 407.6 315.4" stroke="black" stroke-width="0.5" stroke-miterlimit="10" stroke-linecap="round" stroke-linejoin="round"/>
<path d="M388.8 323.5C389 323.2 388.8 322.7 388.5 322.5C388.1 323.1 387.9 323.9 387.9 324.6C387.9 324.7 387.9 324.9 388 325C388.2 325.3 388.8 325.1 389 324.8C389.2 324.5 389.4 324 389.8 323.9C390 324.4 390.2 324.8 390.6 325.2C390.9 324.7 391.2 324.2 391.6 323.8C391.7 323.7 391.8 323.6 391.9 323.6C392.2 323.6 392.3 324 392.5 324.1C392.9 324.5 393.5 323.9 393.8 323.4C394.2 324 394.7 324.5 395.4 324.8" stroke="black" stroke-width="0.5" stroke-miterlimit="10" stroke-linecap="round" stroke-linejoin="round"/>
<path d="M402.7 323C403 322.2 403.3 321.5 403.5 320.7C402.9 320.5 402.2 320.8 401.9 321.3C401.5 321.8 401.4 322.4 401.4 323.1C401.4 323.8 401.6 324.7 402.3 324.8C403.2 324.9 403.6 323.8 404.2 323.2C404.3 323.1 404.4 323 404.5 323.1C404.6 323.1 404.7 323.2 404.7 323.3C404.9 323.6 405.1 323.9 405.2 324.2C405.8 324.3 406.1 323 406.7 323.3C407 323.5 406.9 324 407.2 324.1C407.4 324.2 407.5 324.1 407.7 324.1C408.3 324.1 408.7 325 409.4 325C409.9 324.9 410.1 324.2 410.1 323.7C410.1 323.3 410.1 322.8 409.8 322.5C409.2 322.1 408.5 322.8 408.2 323.5C407.4 325.2 407 327.1 407.1 329C407.1 330.6 407.5 332.4 406.8 333.8C406.5 334.4 405.9 334.9 405.3 334.8C404.7 334.7 404.3 334.1 404.2 333.5C404.1 332.9 404.4 332.3 404.6 331.8C405.5 329.9 406.8 328.2 408.4 326.9" stroke="black" stroke-width="0.5" stroke-miterlimit="10" stroke-linecap="round" stroke-linejoin="round"/>
<path d="M388.9 336.7C388.7 336 388.4 335.2 388.6 334.4C388.7 333.6 389.3 332.9 390.1 332.8C390.6 334.1 390.8 335.5 390.6 336.9C390.8 336.2 391.1 335.5 391.6 334.9C391.9 335.8 392.3 336.6 392.6 337.5C393.1 337 393.6 336.3 393.8 335.6C394 336.2 394.6 336.6 395.2 336.5C395.8 336.4 396.4 336 396.5 335.4C396.8 336.2 398.1 336.2 398.5 335.5C398.6 335.3 398.7 335.1 398.8 335C399.1 334.9 399.4 335.1 399.7 335.2C400.6 335.7 402 335 402 333.9C402 332.9 400.5 332.1 399.8 332.9C399.5 333.1 399.4 333.5 399.3 333.8C399.1 335.1 399.9 336.4 401.1 336.8C402.3 337.2 403.8 336.6 404.3 335.4C404.6 336.1 405 336.7 405.6 337.1C406 336.6 406.5 336.2 406.9 335.7C407.2 336.3 407.6 336.9 408.3 337C408.9 337.1 409.7 336.3 409.3 335.8" stroke="black" stroke-width="0.5" stroke-miterlimit="10" stroke-linecap="round" stroke-linejoin="round"/>
<path d="M387.7 343.7C388.1 344.2 388.2 345.2 388.9 345.2C389.7 345.2 389.6 343.5 390.4 343.5C391 343.4 391.5 344.3 392 344.1C392.2 344 392.4 343.7 392.6 343.6C393.3 343.2 394 344.4 394.8 344.3C395.2 344.3 395.5 344 395.8 343.8C396.5 343.4 397.3 343.2 398.1 343.4C398.3 343.4 398.6 343.7 398.4 343.8" stroke="black" stroke-width="0.5" stroke-miterlimit="10" stroke-linecap="round" stroke-linejoin="round"/>
<path d="M390.5 354.5C390.5 354.3 390.2 354.4 390.1 354.6C389.8 355.1 389.4 355.8 389.6 356.4C389.8 357 390.8 357.2 391 356.6C391.1 356.9 391.4 357.2 391.7 357.4C391.9 356.8 392.6 356.5 393.1 356.8C393.3 356.9 393.5 357 393.7 357C394.1 357 394.3 356.6 394.6 356.4C395.1 356.1 395.7 356.6 396.3 356.7C397 356.7 397.5 356.1 397.9 355.6C398.1 355.4 398.2 355.1 398 354.9C397.7 354.6 397.4 355.1 397.3 355.4C397.1 356.1 397.2 357 397.7 357.5C398.2 358 399.3 357.9 399.5 357.2C399.7 357.7 400 358.1 400.4 358.4C400.6 357.9 400.9 357.3 401.4 357.1C401.9 356.9 402.7 357.4 402.5 357.9C403.4 357.8 404 356.5 404.9 356.6C405.2 356.6 405.5 356.8 405.8 356.8C406.4 356.8 406.8 356.1 407.4 355.9C408.1 355.8 408.7 356.4 408.9 357.1C409.4 358.6 409 360.3 407.9 361.4C407.1 359.8 407.8 357.5 409.4 356.7C409.6 356.9 409.5 357.3 409.3 357.5" stroke="black" stroke-width="0.5" stroke-miterlimit="10" stroke-linecap="round" stroke-linejoin="round"/>
<path d="M388.3 364.9C388.5 365 388.7 364.7 388.6 364.5C388.5 364.3 388.3 364.2 388.1 364.2C387.6 365 387.4 365.9 387.6 366.8C387.6 367 387.7 367.2 387.8 367.3C388.1 367.7 388.7 367.6 389.1 367.3C389.5 367 389.6 366.5 389.8 366C390.1 366.4 390.6 366.9 391 366.6C391.2 366.5 391.2 366.2 391.3 366C391.4 365.8 391.6 365.6 391.8 365.7C392 365.8 392 366.1 392.1 366.3C392.2 366.6 392.6 366.7 392.8 366.6C393.1 366.5 393.2 366.1 393 365.9C394.3 366.5 395.7 367.2 397.1 366.8C397.5 366.7 397.9 366.5 398.4 366.4C398.8 366.4 399.4 366.6 399.4 367.1" stroke="black" stroke-width="0.5" stroke-miterlimit="10" stroke-linecap="round" stroke-linejoin="round"/>
<path d="M552.739 108.648L477.535 114.102L481.275 165.668L556.479 160.213L552.739 108.648Z" fill="white" stroke="black" stroke-miterlimit="10" stroke-linecap="round" stroke-linejoin="round"/>
<path d="M515.4 122.8C517.83 122.8 519.8 120.83 519.8 118.4C519.8 115.97 517.83 114 515.4 114C512.97 114 511 115.97 511 118.4C511 120.83 512.97 122.8 515.4 122.8Z" fill="#C4C0E0" stroke="black" stroke-miterlimit="10" stroke-linecap="round" stroke-linejoin="round"/>
<path opacity="0.15" d="M509.4 146.1C514.702 146.1 519 141.802 519 136.5C519 131.198 514.702 126.9 509.4 126.9C504.098 126.9 499.8 131.198 499.8 136.5C499.8 141.802 504.098 146.1 509.4 146.1Z" fill="#AFA5C1"/>
<path opacity="0.15" d="M524.8 146.7C530.544 146.7 535.2 142.044 535.2 136.3C535.2 130.556 530.544 125.9 524.8 125.9C519.056 125.9 514.4 130.556 514.4 136.3C514.4 142.044 519.056 146.7 524.8 146.7Z" fill="#CDBFDE"/>
<path opacity="0.15" d="M517.6 157.6C523.344 157.6 528 152.944 528 147.2C528 141.456 523.344 136.8 517.6 136.8C511.856 136.8 507.2 141.456 507.2 147.2C507.2 152.944 511.856 157.6 517.6 157.6Z" fill="#A187BF"/>
<path d="M579.3 323C609.179 323 633.4 286.466 633.4 241.4C633.4 196.334 609.179 159.8 579.3 159.8C549.421 159.8 525.2 196.334 525.2 241.4C525.2 286.466 549.421 323 579.3 323Z" fill="#262626" stroke="black" stroke-miterlimit="10" stroke-linecap="round" stroke-linejoin="round"/>
<path d="M565.5 314.6C565 315.3 565.9 316.2 566.7 316.5C570.1 318.2 573.5 319.8 576.9 321.5C578.8 322.4 580.7 323.3 582.7 323.8C587.7 325 592.9 323.3 597.6 321.1C601.2 319.3 604.7 317.1 607.1 313.8C607.4 313.4 607.6 313 607.6 312.6C607.6 312.2 607.3 311.8 607.1 311.4C605.3 308.8 603.4 306.4 601.4 304C600 302.4 598.6 300.8 597.4 299.1C593.5 293.5 592.2 286.5 591.7 279.7C591.6 278.8 590.7 278.3 589.8 278.4C589 278.5 588.2 279 587.5 279.4C584.7 281.1 581.6 282.3 578.4 282.7C576.8 283 575 282.7 573.4 282.9C571.8 283.2 572 283.3 572.2 285C573.1 291.7 572.9 298.1 570.7 304.5C569.3 308.1 567.6 311.5 565.5 314.6Z" fill="white" stroke="black" stroke-miterlimit="10" stroke-linecap="round" stroke-linejoin="round"/>
<path d="M641.1 392.1C612.9 523.5 595.7 485.8 616.4 496.5C637.1 507.2 639.5 526.2 639.5 526.2C651.1 486.8 709.8 347.4 701.7 316.7C693.6 286 653.1 285.6 640.9 289.9C628.7 294.2 607.4 300.7 607.4 300.7C585.2 311.6 565.4 302.7 565.4 302.7C565.4 302.7 538.1 285.2 527.5 284.7C516.8 284.1 490.3 266.5 490.3 266.5C490.3 266.5 498.3 239.6 527 211C527 211 528.5 190.4 500.2 166.4C500.2 166.4 491.4 162 441.3 263.8C441.3 263.8 421.8 300.3 487.3 344.3C552.8 388.3 534.4 419.4 536.1 513.5C536.1 513.5 567.6 540.2 689.6 532.2C689.6 532.2 715 528.9 710 486.8C705.2 445.9 701 390.9 704.2 357.2C704.4 355.4 705.2 338 705 336.2C704 329.3 701.2 311.8 698.4 308.5" fill="#5C58A6"/>
<path d="M641.1 392.1C612.9 523.5 595.7 485.8 616.4 496.5C637.1 507.2 639.5 526.2 639.5 526.2C651.1 486.8 709.8 347.4 701.7 316.7C693.6 286 653.1 285.6 640.9 289.9C628.7 294.2 607.4 300.7 607.4 300.7C585.2 311.6 565.4 302.7 565.4 302.7C565.4 302.7 538.1 285.2 527.5 284.7C516.8 284.1 490.3 266.5 490.3 266.5C490.3 266.5 498.3 239.6 527 211C527 211 528.5 190.4 500.2 166.4C500.2 166.4 491.4 162 441.3 263.8C441.3 263.8 421.8 300.3 487.3 344.3C552.8 388.3 534.4 419.4 536.1 513.5C536.1 513.5 567.6 540.2 689.6 532.2C689.6 532.2 715 528.9 710 486.8C705.2 445.9 701 390.9 704.2 357.2C704.4 355.4 705.2 338 705 336.2C704 329.3 701.2 311.8 698.4 308.5" stroke="black" stroke-miterlimit="10" stroke-linecap="round" stroke-linejoin="round"/>
<path d="M602.2 512.6H322.2C320.5 512.6 319.1 511.2 319.1 509.5V501C319.1 499.3 320.5 497.9 322.2 497.9H594.4C600.4 497.9 605.3 502.8 605.3 508.8V509.5C605.3 511.2 603.9 512.6 602.2 512.6Z" fill="#CECFDB" stroke="black" stroke-miterlimit="10"/>
<path d="M303.2 374.8H483.1C492.4 374.8 500.5 381.3 502.4 390.5L523.7 491.5C526 502.4 517.7 512.6 506.6 512.6H326.1C317.3 512.6 309.7 506.5 307.8 497.9L285.2 397.3C282.6 385.8 291.4 374.8 303.2 374.8Z" fill="#F4F4F5" stroke="black" stroke-miterlimit="10"/>
<path d="M399.769 453.379C402.351 453.119 404.117 449.655 403.713 445.644C403.309 441.632 400.887 438.591 398.304 438.852C395.721 439.112 393.956 442.575 394.36 446.587C394.764 450.598 397.186 453.639 399.769 453.379Z" fill="#CCCCCB" stroke="black" stroke-miterlimit="10" stroke-linecap="round" stroke-linejoin="round"/>
<path d="M594.1 502.2C594.1 502.2 597.7 504.2 596.9 506.2" stroke="black" stroke-miterlimit="10" stroke-linecap="round" stroke-linejoin="round"/>
<path d="M405.4 450.1C405.4 450.1 405.5 453.6 402.9 454.9L405.4 450.1Z" fill="#F4F4F5"/>
<path d="M405.4 450.1C405.4 450.1 405.5 453.6 402.9 454.9" stroke="black" stroke-miterlimit="10" stroke-linecap="round" stroke-linejoin="round"/>
<path d="M626.7 503.5C624.2 501.5 621.6 499.7 618.8 497.5C613.8 493.6 608.8 487.6 601.7 489.2C592.8 491.2 586.9 495.5 582.3 501.8C577.7 508.2 585.8 503.6 585.8 503.6C585.8 503.6 583.4 505.8 582.5 507.9C581.6 510.1 586.6 508.7 588.7 507.4C588.7 507.4 585.7 510.1 586.8 511.5C587.9 512.8 592.2 510.4 593 510C593.7 509.6 594.4 509.3 594.4 509.3C594.4 509.3 592.4 510.5 592 512C591.6 513.5 593.1 514.2 597.7 513.5C600.4 513.1 607.1 509.3 609 512.2C609.5 513 609.7 513.8 610.1 514.7C611.8 518.4 616.3 520.2 620.4 520C624.5 519.8 628.3 518 632.1 516.2C633.2 515.7 634.4 515 634.5 513.8C634.6 513.1 634.3 512.4 633.9 511.8C631.9 508.2 629.4 505.7 626.7 503.5Z" fill="white" stroke="black" stroke-miterlimit="10" stroke-linecap="round" stroke-linejoin="round"/>
<path d="M585.8 503.6C585.8 503.6 592.3 495.8 599.3 494.8L585.8 503.6Z" fill="white"/>
<path d="M585.8 503.6C585.8 503.6 592.3 495.8 599.3 494.8" stroke="black" stroke-miterlimit="10" stroke-linecap="round" stroke-linejoin="round"/>
<path d="M588.7 507.4C588.7 507.4 599.7 497.2 605.3 497.6L588.7 507.4Z" fill="white"/>
<path d="M588.7 507.4C588.7 507.4 599.7 497.2 605.3 497.6" stroke="black" stroke-miterlimit="10" stroke-linecap="round" stroke-linejoin="round"/>
<path d="M594.3 509.3C594.3 509.3 602.7 504.5 607.6 502.9L594.3 509.3Z" fill="white"/>
<path d="M594.3 509.3C594.3 509.3 602.7 504.5 607.6 502.9" stroke="black" stroke-miterlimit="10" stroke-linecap="round" stroke-linejoin="round"/>
<path d="M607.9 510.9C607.9 510.9 610.7 509 611.2 507.2L607.9 510.9Z" fill="white"/>
<path d="M607.9 510.9C607.9 510.9 610.7 509 611.2 507.2" stroke="black" stroke-miterlimit="10" stroke-linecap="round" stroke-linejoin="round"/>
<path d="M648.3 482C648.3 482 638.4 497.4 635 499.7L648.3 482Z" fill="#5C58A6"/>
<path d="M648.3 482C648.3 482 638.4 497.4 635 499.7" stroke="black" stroke-miterlimit="10" stroke-linecap="round" stroke-linejoin="round"/>
<path d="M518.7 371.1C518.7 371.1 534.9 374.7 538.7 383.6L518.7 371.1Z" fill="#5C58A6"/>
<path d="M518.7 371.1C518.7 371.1 534.9 374.7 538.7 383.6" stroke="black" stroke-miterlimit="10" stroke-linecap="round" stroke-linejoin="round"/>
<path d="M495.2 284.7C495.2 284.7 520.1 301.4 523.1 308.9L495.2 284.7Z" fill="#5C58A6"/>
<path d="M495.2 284.7C495.2 284.7 520.1 301.4 523.1 308.9" stroke="black" stroke-miterlimit="10" stroke-linecap="round" stroke-linejoin="round"/>
<path d="M688.6 319.6C688.6 319.6 688.2 325.8 684.7 330.5L688.6 319.6Z" fill="#5C58A6"/>
<path d="M688.6 319.6C688.6 319.6 688.2 325.8 684.7 330.5" stroke="black" stroke-miterlimit="10" stroke-linecap="round" stroke-linejoin="round"/>
<path d="M499.8 179.2C499.8 179.2 492.9 183.2 489.1 195.2L499.8 179.2Z" fill="#5C58A6"/>
<path d="M499.8 179.2C499.8 179.2 492.9 183.2 489.1 195.2" stroke="black" stroke-miterlimit="10" stroke-linecap="round" stroke-linejoin="round"/>
<path d="M577.9 296.8C580.1 297.8 581.7 300 582 302.4" stroke="black" stroke-miterlimit="10" stroke-linecap="round" stroke-linejoin="round"/>
<path d="M535 197.3C531.6 202.2 530.4 208.3 529.9 214.2C528.7 228.6 530.9 243.9 536.7 257.2C542.9 271.5 553 279.9 566.9 286.4C570.9 288.3 575.2 290.2 579.7 290C592.8 289.6 602.2 274.5 608.4 264.7C612.4 258.4 615.7 251.6 617.2 244.3C619.5 233.4 616.4 222.8 612.5 212.6C608.6 202.6 603.1 192.4 593.5 187.6C584.8 183.2 570.8 180.9 561 181.9C551.7 182.8 540.4 189.8 535 197.3Z" fill="white" stroke="black" stroke-miterlimit="10" stroke-linecap="round" stroke-linejoin="round"/>
<path d="M525.7 206.9C525.4 202.4 522.9 197.8 520.6 192.2C517.1 183.7 522.8 178 527 171.1C531.1 164.5 535.9 158.4 541.5 153.1C559 136.6 585.7 128.8 607.5 138.5C635.1 150.7 646.6 184.6 650 215.3C654.6 257.5 649.6 300.7 635.5 340.6C635.4 341 634.8 341 634.6 340.6L630.1 328.8C629.9 328.4 629.4 328.4 629.2 328.8L626.1 338C625.9 338.5 625.3 338.4 625.2 337.9C624.8 335.7 623.7 333.6 622.2 332.1C622 331.9 621.6 332 621.4 332.3L615 346.8C614.8 347.3 614.1 347.1 614.1 346.6C614.8 306.1 611.5 265.5 604.3 225.7C604.3 225.4 604 225.3 603.8 225.3C593 226.9 581.9 225.1 571.7 221.3C565.4 219 559.4 215.9 553.6 212.4C551.9 211.3 542.4 206.6 539.8 203.4C539.5 203.1 539 203.2 539 203.6C536.1 225.8 538.6 248.6 545.1 270C549.4 284.3 557.4 300.8 556 316.3C556 316.8 555.3 316.9 555.1 316.4C554.3 314.5 553.1 312.9 551.5 311.7C551.2 311.5 550.9 311.7 550.8 312L546.3 327.7C546.2 328.2 545.5 328.2 545.4 327.7C544.9 325.6 544 323.6 542.8 321.9C542.5 321.5 542 321.7 542 322.1C541.7 324.5 539.8 328.7 538.8 330.8C538.6 331.2 538.1 331.2 537.9 330.8C537 328.4 535.7 326.1 533.7 324.5C532.8 323.8 531.5 323.2 530.6 323.8C530.1 324.2 529.8 324.8 529.5 325.4L526.1 333.9C526 334.2 525.5 334.3 525.3 334C517.5 324.4 514.4 311.6 512.2 299.3C510.3 288.8 508.8 278.3 508 267.7C506.9 253.6 501.8 239.2 512 227.1C514.6 224 517.8 221.5 520.6 218.7C524.7 214.4 525.9 210.7 525.7 206.9Z" fill="#3A3A3A" stroke="black" stroke-miterlimit="10" stroke-linecap="round" stroke-linejoin="round"/>
<path d="M558.7 247.9C560.909 247.9 562.7 245.527 562.7 242.6C562.7 239.673 560.909 237.3 558.7 237.3C556.491 237.3 554.7 239.673 554.7 242.6C554.7 245.527 556.491 247.9 558.7 247.9Z" fill="black"/>
<path d="M587.5 247.9C589.709 247.9 591.5 245.527 591.5 242.6C591.5 239.673 589.709 237.3 587.5 237.3C585.291 237.3 583.5 239.673 583.5 242.6C583.5 245.527 585.291 247.9 587.5 247.9Z" fill="black"/>
<path d="M552.3 229.6C552.6 228.9 553.1 228.2 553.9 227.9C554.7 227.6 555.5 227.7 556.2 228C556.6 228.2 557 228.6 557.3 228.9" stroke="#181818" stroke-miterlimit="10" stroke-linecap="round" stroke-linejoin="round"/>
<path d="M581.9 229.6C582.2 228.9 582.7 228.2 583.5 227.9C584.3 227.6 585.1 227.7 585.8 228C586.2 228.2 586.6 228.6 586.9 228.9" stroke="#181818" stroke-miterlimit="10" stroke-linecap="round" stroke-linejoin="round"/>
<path d="M576 268.2C576.4 267.9 579.4 261.7 586.3 264.1" stroke="#2A2A2A" stroke-miterlimit="10" stroke-linecap="round" stroke-linejoin="round"/>
<path d="M558.7 141.2C558.7 141.2 641.6 152.5 638.8 221.9" stroke="black" stroke-miterlimit="10" stroke-linecap="round" stroke-linejoin="round"/>
<path d="M603.9 225.4C603.9 225.4 619.6 226.5 623.7 222.1" stroke="black" stroke-miterlimit="10" stroke-linecap="round" stroke-linejoin="round"/>
<path d="M548.6 150.6C549.1 152.3 549 159.2 547 160C545 160.8 543.2 152.7 543.2 152.7C543.2 152.7 545 160.9 542.2 161.9C539.4 162.9 539.8 155.4 539.8 155.4C540.1 162.1 538.3 163.5 537 163.3C535.7 163.1 536.1 159.8 536.1 159.8C536.1 159.8 540.1 148.3 548.6 150.6Z" fill="white" stroke="black" stroke-miterlimit="10" stroke-linecap="round" stroke-linejoin="round"/>
<path d="M511.7 177.4C511.4 177.1 511.2 176.8 510.9 176.6C509.9 175.7 508.8 174.8 508.2 173.5C507.2 171.5 508.6 170 509.4 168.3C510.3 166.2 511.3 164.1 512.4 162C513.8 159.1 515.4 156.2 517 153.4C517.9 151.9 521.3 151.2 522.9 150.4C525.8 148.8 533.3 145.8 533.3 145.8C533.3 145.8 540.2 140.9 543.5 144.1C543.5 144.1 556.4 144.9 556.1 150.9C556.1 150.9 554 154 550.6 151.2C547.2 148.4 535 154.3 532.8 167.9C532.8 167.9 535.9 167.9 548 155.1C548 155.1 553.8 152.1 552.6 158.2C552.6 158.2 545.3 165.9 544 169.2C542.7 172.5 536.4 180.8 528.6 182.3C525.9 182.8 523.4 184.3 521.1 185.7C519.4 186.5 519.7 187.5 518.1 186.5C517 185.8 516 183.4 515.2 182.3C514.1 180.6 513.1 179 511.7 177.4Z" fill="white" stroke="black" stroke-miterlimit="10" stroke-linecap="round" stroke-linejoin="round"/>
<path d="M543.4 144.1C543.4 144.1 536.7 147.2 529.5 155.1" stroke="black" stroke-miterlimit="10" stroke-linecap="round" stroke-linejoin="round"/>
<path d="M532.6 145.8C532.6 145.8 523.9 150.3 522.9 151.1" stroke="black" stroke-miterlimit="10" stroke-linecap="round" stroke-linejoin="round"/>
<path d="M973.7 536.6H96.7V521.8C96.7 516.7 100.8 512.6 105.9 512.6H964.2C969.4 512.6 973.7 516.8 973.7 522.1V536.6Z" fill="#AAA6BF" stroke="black" stroke-miterlimit="10" stroke-linecap="round" stroke-linejoin="round"/>
<path d="M960.3 518.8C960.3 518.8 965.6 525.9 958.5 529.9" stroke="black" stroke-miterlimit="10" stroke-linecap="round" stroke-linejoin="round"/>
</svg>
