<svg width="672" height="522" viewBox="0 0 672 522" fill="none" xmlns="http://www.w3.org/2000/svg">
<path opacity="0.15" d="M0.799978 155.8C4.49998 206.9 40.9 252.4 87.2 274.1C116.9 288 149.8 293.2 181.2 302.8C212.6 312.4 244.2 328 261.6 355.8C273.7 375.2 277.8 398.9 290.8 417.7C308.7 443.6 340.5 456.2 371.5 462C439.5 474.6 512.2 459.9 570 421.9C625.8 385.3 668.2 324.5 671.2 257.9C672.8 222.9 663.7 187.8 647.5 156.7C626.6 116.5 590.8 81 546.1 74.3C489.4 65.8 433.1 104.7 376.6 94.9001C344.4 89.3001 317.3 68.8001 289 52.5001C266 39.2001 241.6 28.5001 217 18.6001C167.1 -1.49993 107.6 -13.2999 63.3 26.3001C29.5 56.5001 -2.50002 110.1 0.799978 155.8Z" fill="#CDBFDE"/>
<path d="M457.2 420.5C457.2 420.5 469 429.6 472.5 438.7C476 447.8 476.2 446.5 476.2 446.5C476.2 446.5 480.3 455.5 480.1 446.6C479.9 437.7 478.1 436 478.1 436C478.1 436 485.7 445.3 487.9 452.4C490.1 459.5 490.7 463.7 492.5 462.4C494.2 461.1 487.3 440.5 486.4 437.9C485.5 435.3 495.8 458.7 496.4 460.4C497.1 462.1 500.1 467.3 498.6 459.3C497.1 451.3 489.7 434.6 489.7 434.6L500.2 456.6C500.2 456.6 502.5 461.7 502.4 455.7C502.3 449.8 493.5 432.5 493.5 432.5L502.4 447.1C502.4 447.1 506.3 451.9 504.6 445.4C502.9 438.9 497.9 426.6 495 424.2C492.1 421.7 475.5 411.4 472.9 408.9C470.3 406.4 457.2 420.5 457.2 420.5Z" fill="white" stroke="black" stroke-miterlimit="10" stroke-linecap="round" stroke-linejoin="round"/>
<path d="M271.2 187C271.2 187 209 209.9 206.1 215.4C203.2 220.9 186.4 246.7 185.7 283C185.7 283 179 294 179.6 298.2C180.2 302.4 223.3 335.8 225.4 342.5C227.5 349.3 238.9 372.8 242.5 432.4C243.4 447 376.6 442 372.5 425.6C369 411.6 370.1 308.2 373.2 303.6C376.3 298.9 404.3 353.4 417.2 382.5C430 411.6 434 401.2 438.9 409.5C443.8 417.8 450 429.2 454.4 429.2C458.8 429.2 473 411 477.8 406.3C482.7 401.6 467.6 385.5 465 382.4C462.3 379.3 444.2 341.8 437.6 323.1C431 304.4 420.8 277.4 402.2 249.8C383.6 222.3 381.4 202 370.8 198.3C360.2 194.7 308.8 184.8 308.8 184.8L271.2 187Z" fill="#5C58A6" stroke="black" stroke-miterlimit="10" stroke-linecap="round" stroke-linejoin="round"/>
<path d="M277 175.1V196.8C277 196.8 292.6 208.5 322.5 198.1C322.5 198.1 320.7 183.8 319.9 169.8C319.1 155.7 278.8 176.6 277 175.1Z" fill="white" stroke="black" stroke-miterlimit="10" stroke-linecap="round" stroke-linejoin="round"/>
<path d="M278.4 185.9C278.4 185.9 266.8 186.1 265.4 189.2C264 192.3 265.4 225.4 269.9 225.1C274.4 224.8 300.1 203.4 299.7 198.9C299.3 194.4 278.4 185.9 278.4 185.9Z" fill="#5C58A6" stroke="black" stroke-miterlimit="10" stroke-linecap="round" stroke-linejoin="round"/>
<path d="M321 185.1C321 185.1 332.6 185.3 334 188.4C335.4 191.5 334 224.6 329.5 224.3C325 224 299.3 202.6 299.7 198.1C300.1 193.6 321 185.1 321 185.1Z" fill="#5C58A6" stroke="black" stroke-miterlimit="10" stroke-linecap="round" stroke-linejoin="round"/>
<path d="M299.9 203.5C299.9 203.5 294.9 422.8 307.2 439.4" stroke="black" stroke-miterlimit="10" stroke-linecap="round" stroke-linejoin="round"/>
<path d="M300.2 207.2C301.636 207.2 302.8 206.036 302.8 204.6C302.8 203.164 301.636 202 300.2 202C298.764 202 297.6 203.164 297.6 204.6C297.6 206.036 298.764 207.2 300.2 207.2Z" fill="white" stroke="black" stroke-miterlimit="10" stroke-linecap="round" stroke-linejoin="round"/>
<path d="M304.6 227.7C306.036 227.7 307.2 226.536 307.2 225.1C307.2 223.664 306.036 222.5 304.6 222.5C303.164 222.5 302 223.664 302 225.1C302 226.536 303.164 227.7 304.6 227.7Z" fill="white" stroke="black" stroke-miterlimit="10" stroke-linecap="round" stroke-linejoin="round"/>
<path d="M304.6 253C306.036 253 307.2 251.836 307.2 250.4C307.2 248.964 306.036 247.8 304.6 247.8C303.164 247.8 302 248.964 302 250.4C302 251.836 303.164 253 304.6 253Z" fill="white" stroke="black" stroke-miterlimit="10" stroke-linecap="round" stroke-linejoin="round"/>
<path d="M304.6 278.3C306.036 278.3 307.2 277.136 307.2 275.7C307.2 274.264 306.036 273.1 304.6 273.1C303.164 273.1 302 274.264 302 275.7C302 277.136 303.164 278.3 304.6 278.3Z" fill="white" stroke="black" stroke-miterlimit="10" stroke-linecap="round" stroke-linejoin="round"/>
<path d="M304.6 303.6C306.036 303.6 307.2 302.436 307.2 301C307.2 299.564 306.036 298.4 304.6 298.4C303.164 298.4 302 299.564 302 301C302 302.436 303.164 303.6 304.6 303.6Z" fill="white" stroke="black" stroke-miterlimit="10" stroke-linecap="round" stroke-linejoin="round"/>
<path d="M304.6 335.5C306.036 335.5 307.2 334.336 307.2 332.9C307.2 331.464 306.036 330.3 304.6 330.3C303.164 330.3 302 331.464 302 332.9C302 334.336 303.164 335.5 304.6 335.5Z" fill="white" stroke="black" stroke-miterlimit="10" stroke-linecap="round" stroke-linejoin="round"/>
<path d="M304.6 367.5C306.036 367.5 307.2 366.336 307.2 364.9C307.2 363.464 306.036 362.3 304.6 362.3C303.164 362.3 302 363.464 302 364.9C302 366.336 303.164 367.5 304.6 367.5Z" fill="white" stroke="black" stroke-miterlimit="10" stroke-linecap="round" stroke-linejoin="round"/>
<path d="M305.5 399.4C306.936 399.4 308.1 398.236 308.1 396.8C308.1 395.364 306.936 394.2 305.5 394.2C304.064 394.2 302.9 395.364 302.9 396.8C302.9 398.236 304.064 399.4 305.5 399.4Z" fill="white" stroke="black" stroke-miterlimit="10" stroke-linecap="round" stroke-linejoin="round"/>
<path d="M439.7 411.9C439.7 411.9 450.9 396.3 467.3 386.9L439.7 411.9Z" fill="#5C58A6"/>
<path d="M439.7 411.9C439.7 411.9 450.9 396.3 467.3 386.9" stroke="black" stroke-miterlimit="10" stroke-linecap="round" stroke-linejoin="round"/>
<path d="M182.5 375.8C182.5 375.8 134.7 357.3 173.3 306.5C173.3 306.5 190.3 282.1 192.6 264.7C192.6 264.7 188.3 253.4 229.7 277.5C229.6 277.6 238.7 330 182.5 375.8Z" fill="#5C58A6" stroke="black" stroke-miterlimit="10" stroke-linecap="round" stroke-linejoin="round"/>
<path d="M192.4 264.4C192.4 264.4 224.9 283.8 230.7 280.2C236.5 276.6 194.6 256 192.4 264.4Z" fill="#5A5A81" stroke="black" stroke-miterlimit="10" stroke-linecap="round" stroke-linejoin="round"/>
<path d="M201.1 269.3C201.1 269.3 202.6 266.2 201.4 263.2C200.2 260.2 190.8 233.9 204.9 223.8C204.9 223.8 201.7 223.8 203.6 227.2C203.6 227.2 203.3 222.1 208.2 223.8C208.2 223.8 208.2 218.3 212.9 219.9C217.6 221.5 222.5 203.7 226.7 214.2C231.6 226.3 227.8 211.2 229.7 203.8C230.9 199.1 228.7 181.8 232.8 187.2C236.9 192.5 235.9 198.6 237.2 209.5C238.6 220.4 236.3 232.6 239 228.9C241.7 225.3 239.5 218.9 242.7 219.8C245.9 220.7 248.2 229.8 242.7 238.3C237.2 246.8 225.1 262.4 226 266.2C226.9 270.1 220.8 270.3 221.6 276.9C222.4 283.5 201.1 269.3 201.1 269.3Z" fill="white" stroke="black" stroke-miterlimit="10" stroke-linecap="round" stroke-linejoin="round"/>
<path d="M203.1 226.4C203.6 227.1 209.9 252.4 213.1 251.1C216.3 249.9 213.3 229.9 208.2 223.7" fill="white"/>
<path d="M203.1 226.4C203.6 227.1 209.9 252.4 213.1 251.1C216.3 249.9 213.3 229.9 208.2 223.7" stroke="black" stroke-miterlimit="10" stroke-linecap="round" stroke-linejoin="round"/>
<path d="M208.2 222.8C208.2 222.8 213.3 232.5 214.9 241.7C216.5 250.9 219.2 255.2 219.6 250.2C219.6 250.2 222.5 230.9 215.7 218.9" fill="white"/>
<path d="M208.2 222.8C208.2 222.8 213.3 232.5 214.9 241.7C216.5 250.9 219.2 255.2 219.6 250.2C219.6 250.2 222.5 230.9 215.7 218.9" stroke="black" stroke-miterlimit="10" stroke-linecap="round" stroke-linejoin="round"/>
<path d="M217.9 216C217.9 216 218.7 236.7 220.6 247.2C222.5 257.7 230.7 219.4 228.1 216.3" fill="white"/>
<path d="M217.9 216C217.9 216 218.7 236.7 220.6 247.2C222.5 257.7 230.7 219.4 228.1 216.3" stroke="black" stroke-miterlimit="10" stroke-linecap="round" stroke-linejoin="round"/>
<path d="M187.2 281.8C187.2 281.8 224.8 306.5 228.9 303.1" stroke="black" stroke-miterlimit="10" stroke-linecap="round" stroke-linejoin="round"/>
<path d="M338.4 136.2C338.9 135.2 339.6 134.4 340.3 133.6C341.3 132.7 342.8 131.9 343.9 132.7C344.8 133.3 344.9 134.6 344.7 135.7C344.5 138.1 343.8 140.4 342.8 142.6C341.9 144.5 340.6 146.4 338.7 147.3C338.5 147.4 338.3 147.5 338.1 147.5C337.8 147.5 337.5 147.2 337.5 146.9" fill="white"/>
<path d="M338.4 136.2C338.9 135.2 339.6 134.4 340.3 133.6C341.3 132.7 342.8 131.9 343.9 132.7C344.8 133.3 344.9 134.6 344.7 135.7C344.5 138.1 343.8 140.4 342.8 142.6C341.9 144.5 340.6 146.4 338.7 147.3C338.5 147.4 338.3 147.5 338.1 147.5C337.8 147.5 337.5 147.2 337.5 146.9" stroke="black" stroke-miterlimit="10" stroke-linecap="round" stroke-linejoin="round"/>
<path d="M256.6 136.2C256.1 135.2 255.4 134.4 254.7 133.6C253.7 132.7 252.2 131.9 251.1 132.7C250.2 133.3 250.1 134.6 250.3 135.7C250.5 138.1 251.2 140.4 252.2 142.6C253.1 144.5 254.4 146.4 256.3 147.3C256.5 147.4 256.7 147.5 256.9 147.5C257.2 147.5 257.5 147.2 257.5 146.9" fill="white"/>
<path d="M256.6 136.2C256.1 135.2 255.4 134.4 254.7 133.6C253.7 132.7 252.2 131.9 251.1 132.7C250.2 133.3 250.1 134.6 250.3 135.7C250.5 138.1 251.2 140.4 252.2 142.6C253.1 144.5 254.4 146.4 256.3 147.3C256.5 147.4 256.7 147.5 256.9 147.5C257.2 147.5 257.5 147.2 257.5 146.9" stroke="black" stroke-miterlimit="10" stroke-linecap="round" stroke-linejoin="round"/>
<path d="M250.3 98.8001C249.3 100.1 248.2 182.9 298.8 183.8C349.4 184.8 343.5 82.4001 341.4 82.7001C339.4 83.1001 250.3 98.8001 250.3 98.8001Z" fill="white" stroke="black" stroke-miterlimit="10"/>
<path d="M285.7 158.8C285.7 158.8 307 159.7 312 155.5C312 155.5 303 186.2 285.7 158.8Z" fill="#EEDBEB" stroke="black" stroke-miterlimit="10" stroke-linecap="round" stroke-linejoin="round"/>
<path d="M314.2 153.6C314.2 153.6 316.2 155.6 314.6 158.4" stroke="black" stroke-miterlimit="10" stroke-linecap="round" stroke-linejoin="round"/>
<path d="M248.6 102.9C248.6 102.9 243.7 118.9 248.6 140.6C248.6 140.6 300.2 147.3 343.3 140.6C343.3 140.6 348.6 123.6 343.3 102.9C343.3 102.9 296 97.3 248.6 102.9Z" fill="#C6C6C5" stroke="black" stroke-miterlimit="10" stroke-linecap="round" stroke-linejoin="round"/>
<path d="M343.3 137.9C313.7 142.4 248.6 137.9 248.6 137.9C243.4 122.8 247.9 105.4 247.9 105.4C247.9 105.4 300 100.9 344 105.4C344 105.3 348.5 137.1 343.3 137.9Z" fill="#EEDBEB" stroke="black" stroke-miterlimit="10" stroke-linecap="round" stroke-linejoin="round"/>
<path d="M337 118.2C337.1 118.6 337.8 129.3 337 132.3" stroke="black" stroke-miterlimit="10" stroke-linecap="round" stroke-linejoin="round"/>
<path d="M248.2 104.7C245.6 103.6 242.7 102.3 241.4 99.7001C240.6 98.1002 240.5 96.2001 239.2 95.0001C238.6 94.5001 237.8 94.2001 237.3 93.6001C236.8 93.0001 236.6 92.0001 237.3 91.5001C236.5 91.2001 235.6 90.9001 235.1 90.2001C234.6 89.5001 234.8 88.2001 235.7 88.1001C234.4 87.5001 234.3 85.4001 235.5 84.6001C234.1 85.0001 232.4 84.5001 231.6 83.3001C232.7 83.1001 233.7 82.5001 234.3 81.6001C232.9 81.7001 231.6 80.3001 231.9 78.9001C232.5 78.9001 233.1 78.8001 233.7 78.8001C234.1 77.7001 233.1 76.4001 231.9 76.5001C231.5 75.0001 235 74.7001 234.5 73.3001C234.3 72.8001 233.6 72.6001 233.1 72.3001C231.9 71.6001 232.1 69.5001 233.3 68.9001C232.1 68.5001 231.5 66.9001 232.3 65.8001C233 64.8001 234.8 64.7001 235.6 65.7001C235.6 64.7001 235.5 63.6001 235.5 62.6001C236.1 61.8001 237.3 62.6001 237.9 63.4001C238.5 64.2001 239.7 65.1001 240.3 64.3001C240.5 64.0001 240.6 63.6001 240.7 63.3001C241.4 62.2001 243.1 63.3001 243.8 64.3001C244.6 64.3001 245 63.4001 245 62.7001C245 61.9001 244.9 61.1001 245.3 60.5001C245.6 60.0001 246.3 59.7001 246.8 59.3001C247.3 58.9001 247.7 58.2001 247.3 57.6001C245.7 57.8001 244 57.0001 243.3 55.6001C242.6 54.2001 242.9 52.3001 244 51.1001C244.8 50.3001 246.5 50.1001 246.9 51.1001C247.5 50.6001 248 50.1001 248.6 49.7001C249 50.7001 249.3 51.6001 249.7 52.6001C250.2 52.2001 250.7 51.9001 251.2 51.5001C250.5 52.6001 252.7 53.8001 253.5 52.7001C254.3 51.6001 253.4 50.0001 252.1 49.6001C253.3 50.0001 254.5 48.5001 253.9 47.4001C253.7 47.0001 253.3 46.6001 253 46.2001C252.8 45.7001 253 45.0001 253.5 45.0001C252.3 45.1001 252.1 42.9001 253.3 42.8001C253.8 42.8001 254.2 43.0001 254.6 43.0001C255.5 43.1001 256.2 42.4001 257 42.1001C257.8 41.8001 259.1 42.3001 258.8 43.1001C259.3 42.1001 260 40.9001 261.1 40.7001C262.2 40.4001 263.5 41.9001 262.7 42.7001C263.2 43.1001 263.9 43.2001 264.5 42.8001C264.6 43.4001 264.6 43.9001 264.7 44.5001C265.2 45.2001 266.1 43.8001 265.5 43.2001C264.9 42.6001 264 42.2001 263.8 41.4001C263.6 40.6001 264.3 39.9001 265.1 39.8001C265.9 39.7001 266.6 40.2001 267.2 40.8001C267.7 39.8001 269 38.8001 269.7 39.6001C269.9 39.9001 270 40.3001 270.2 40.6001C270.7 41.3001 272 40.4001 271.6 39.7001C272.5 39.7001 273.4 40.1001 274 40.8001C274.4 40.0001 275.4 39.5001 276.4 39.7001C277.3 39.9001 274.2 43.9001 276.4 44.0001C277.1 44.0001 277.6 43.5001 277.9 42.9001C278 43.6001 278.5 44.2001 279.1 44.4001C279.8 44.6001 280.5 44.3001 281 43.8001C281.2 44.6001 282.1 45.0001 282.9 44.8001C283.7 44.6001 284.2 43.9001 284.4 43.1001C284 43.0001 283.6 42.8001 283.4 42.5001C283.2 42.2001 283.1 41.7001 283.4 41.4001C283.7 41.1001 284.3 41.3001 284.6 41.1001C285.2 40.7001 284.7 39.8001 284.3 39.3001C283.9 38.8001 283.6 37.8001 284.2 37.5001C284.4 37.4001 284.7 37.5001 284.9 37.3001C285.3 36.9001 284.3 36.0001 284.7 35.6001C285.1 35.2001 285.8 35.1001 286.2 35.4001C286.5 35.6001 286.9 36.0001 287.2 35.8001C287.4 35.6001 287.4 35.2001 287.5 35.0001C287.8 34.5001 288.5 34.7001 289.1 35.0001C289.6 35.3001 290.4 35.4001 290.6 34.8001C290.4 35.2001 291.1 35.5001 291.6 35.3001C292.1 35.1001 292.3 34.6001 292.8 34.6001C293 34.6001 293.2 34.7001 293.5 34.8001C294.5 35.0001 295.4 33.7001 294.9 32.9001C295.3 32.6001 295.7 32.4001 296.2 32.5001C296.6 32.6001 297 33.2001 296.7 33.6001C297.4 33.5001 298.4 33.5001 298.4 34.2001C298.4 34.7001 297.9 35.3001 298.2 35.6001C298.6 36.0001 299.4 35.1001 299.9 35.4001C300.5 35.8001 299.5 37.0001 300.1 37.4001C300.7 37.8001 301.3 36.7001 302 36.7001C301.9 37.5001 303.3 37.9001 303.7 37.2001C303.9 37.6001 304 38.1001 303.8 38.5001C304.2 38.6001 304.6 38.6001 305 38.4001C305.3 38.2001 305.4 37.6001 305.2 37.3001C305 37.1001 304.7 37.0001 304.5 36.9001C304.2 36.6001 304.1 36.1001 304.4 35.8001C304.7 35.5001 305.3 35.5001 305.5 35.8001C305.8 35.8001 305.9 35.4001 305.8 35.2001C305.7 35.0001 305.4 34.8001 305.3 34.5001C305 34.0001 305.5 33.3001 306.1 33.4001C306.7 33.5001 306.9 34.3001 306.5 34.7001C307.2 34.9001 308 34.6001 308.5 34.0001C308.5 34.4001 308.6 34.8001 308.6 35.2001C309.3 35.1001 310.1 35.0001 310.8 34.9001C311 35.5001 310.9 36.3001 310.5 36.8001C311.4 36.9001 311.9 38.6001 312.7 38.2001C313.2 37.9001 313.3 36.7001 313.9 36.9001C314.2 37.5001 314.9 38.3001 315.4 37.8001C315.7 37.5001 315.6 36.8001 316.1 36.7001C316.4 36.6001 316.7 36.8001 316.9 37.0001C318.1 37.5001 319.4 35.8001 320.5 36.4001C320.5 37.1001 320.4 37.8001 320.4 38.6001C321.6 39.1001 323.1 39.2001 324.4 38.7001C324.7 39.0001 324.4 39.5001 324.1 39.9001C323.8 40.2001 323.7 40.9001 324.1 41.0001C324.3 41.1001 324.5 40.9001 324.7 40.8001C325.2 40.6001 325.9 40.8001 326.2 41.3001C326.5 41.8001 326.4 42.4001 326 42.8001C326.4 43.0001 326.9 43.1001 327.3 42.9001C327.3 42.5001 327.3 42.2001 327.3 41.8001C327.7 41.6001 328.4 41.6001 328.5 42.0001C328.5 42.2001 328.3 42.4001 328.2 42.6001C327.9 43.2001 328.9 43.9001 329.4 43.4001C329.6 43.2001 329.7 42.9001 329.9 42.7001C330.1 42.5001 330.6 42.7001 330.5 42.9001C330.6 42.6001 331 42.4001 331.1 42.1001C331.2 41.8001 331.4 41.4001 331.7 41.6001C331.8 41.7001 331.9 41.8001 332 41.9001C332.4 42.1001 332.7 41.3001 333.2 41.3001C333.5 41.3001 333.7 41.7001 333.7 42.0001C333.7 42.3001 333.8 42.7001 334 42.9001C334.5 43.2001 335.2 42.5001 335.7 42.9001C336.2 43.3001 335.7 44.3001 336.2 44.5001C336.5 44.6001 336.9 44.3001 337.2 44.5001C337.4 44.7001 337.4 45.0001 337.3 45.3001C337.2 45.6001 337.2 46.0001 337.5 46.0001C337.1 46.3001 336.8 46.8001 337.1 47.1001C337.4 47.4001 338 47.0001 338.4 47.2001C338.7 47.3001 338.7 47.6001 338.8 47.9001C338.9 48.2001 339.1 48.5001 339.4 48.4001C339.6 48.4001 339.7 48.2001 339.9 48.2001C340.2 48.2001 340.4 48.6001 340.3 49.0001C340.2 49.3001 340.1 49.7001 340.3 50.0001C340.6 50.5001 341.5 50.0001 341.9 50.3001C342.3 50.7001 341.9 51.5001 342.2 51.9001C342.5 52.2001 343 52.2001 343.3 52.6001C343.5 52.8001 343.4 53.2001 343.3 53.4001C343 54.1001 342.8 54.9001 342.5 55.6001C342.4 55.8001 342.4 56.1001 342.5 56.3001C342.8 56.7001 343.8 56.1001 344 56.6001C344 56.7001 344 56.8001 344 57.0001C344 57.4001 344.5 57.8001 344.9 57.7001C344.7 58.2001 345 58.7001 345.4 59.0001C345.6 59.1001 345.9 59.1001 346 59.3001C346.1 59.5001 345.9 59.9001 345.7 60.0001C345.5 60.2001 345.2 60.4001 345.2 60.6001C345.1 61.0001 345.5 61.3001 345.9 61.4001C346.3 61.5001 346.7 61.3001 347 61.1001C346.9 61.7001 347.6 62.2001 348 62.7001C348.7 63.5001 349.1 64.6001 348.6 65.5001C349.1 65.1001 349.9 65.4001 350.3 65.9001C350.7 66.4001 350.8 67.1001 350.8 67.7001C350.8 68.0001 350.8 68.4001 350.6 68.6001C350.3 68.9001 349.8 68.9001 349.4 69.2001C348.8 69.6001 348.8 70.4001 348.6 71.1001C348.4 71.8001 347.6 72.5001 347.1 72.0001C346.9 72.5001 347.5 72.9001 347.9 73.1001C348.9 73.6001 349.7 74.2001 350.5 75.0001C350.7 75.2001 351 75.5001 351.1 75.8001C351.4 76.7001 350 77.7001 349.3 77.0001C349.5 77.9001 349.6 78.9001 349.8 79.8001C349.2 79.6001 348.6 79.4001 348 79.2001C348.3 79.8001 348.7 80.4001 349 81.0001C348.3 81.0001 347.7 81.1001 347 81.1001C347.5 81.8001 348.1 82.5001 348.6 83.3001C349 83.8001 349.4 84.4001 349.5 85.0001C349.6 85.7001 349.1 86.4001 348.5 86.4001C349.2 86.9001 350 87.5001 350.1 88.4001C350.2 89.3001 348.8 90.0001 348.4 89.2001C348.4 90.1001 348.7 91.0001 349.1 91.8001C348.7 91.7001 348.3 91.6001 347.9 91.7001C347.5 91.8001 347.2 92.3001 347.4 92.6001C347.7 93.2001 348.6 92.9001 349.1 93.3001C349.8 93.9001 348.9 94.9001 348.1 95.3001C348.8 95.7001 349.5 96.6001 348.9 97.1001C348.2 97.7001 347.1 96.3001 346.3 96.7001C346 97.5002 346.2 98.4001 346.8 98.9001C346.3 98.7001 345.9 99.3001 345.9 99.9001C345.9 100.4 346.2 100.9 346.2 101.4C346.1 102.3 345.1 102.8 344.1 102.8C343.2 102.8 342.3 102.5 341.4 102.5C340.5 102.5 339.4 103.1 339.4 104C338.5 103.6 337.7 103.1 336.8 102.7C336.6 103 336.4 103.3 336.3 103.6C335.9 103.9 335.3 103.5 335 103.1C334.7 102.7 334.4 102.1 333.9 102C333.5 101.9 333 102.2 332.7 102.1C332.3 101.9 332.3 101.4 331.9 101.1C331 100.5 330.6 102.8 329.5 102.9C328.9 103 328.2 103.4 327.5 103.6C327.5 102.9 327.3 102 326.6 102.1C326.2 102.1 326 102.5 325.6 102.6C324.9 102.8 324.3 101.9 324.1 101.2C323.9 101.8 323.1 101.9 322.5 101.6C321.9 101.3 321.5 100.8 320.9 100.7C320.3 100.6 319.6 100.8 319.1 100.5C318.8 100.3 318.7 100 318.4 99.8001C317.4 99.2001 316.5 100.8 315.4 101C314.5 101.1 313.5 100.3 312.7 100.7C312.4 100.8 312.2 101.1 311.9 101.2C311.5 101.3 311.1 101.1 310.7 100.9C309.6 100.4 308.2 100.6 307.3 101.3C307.1 101.5 306.9 101.7 306.6 101.7C306.1 101.8 305.7 101.6 305.2 101.3C304.3 100.7 303.4 100.1 302.5 99.5001C302.2 99.3001 301.9 99.1001 301.6 99.1001C301.4 99.1001 301.1 99.2001 300.9 99.3001C300.1 99.7001 299.3 100.1 298.5 100.5C298.4 101 297 101.2 296.5 101C296 100.8 295.6 100.4 295.1 100.3C294.7 100.2 294.3 100.4 293.9 100.2C293.5 100.1 293.3 99.7001 293 99.5001C292.4 99.0001 291.5 98.9001 290.7 98.9001C289.6 98.9001 288.5 98.8001 287.5 99.2001C287 99.4001 286.6 99.7001 286.1 99.9001C285.6 100.2 285 100.3 284.4 100.5C282.5 101.1 280.5 101.7 278.6 100.9C278.3 100.8 277.9 100.6 277.5 100.6C277 100.6 276.6 100.9 276.1 100.9C275.1 101.1 274 100.4 273 100.9C272.5 101.1 272.1 101.7 271.5 101.6C270.9 101.6 270.6 100.9 270.1 100.7C268.9 100 267.6 101.6 266.1 101.7C265.5 101.7 264.8 101.4 264.2 101.7C263.8 101.8 263.6 102.2 263.2 102.3C262.8 102.4 262.3 102 262.6 101.7C262.3 101.5 261.3 101.9 261 102.1C260.7 102.3 260.4 102.6 260 102.6C259.1 102.7 258.4 101.5 257.6 101.8C257.4 101.9 257.2 102 257 102.1C256.6 102.3 256 102.2 255.6 102.1C255.1 102 254.5 102.1 254.3 102.5C254.2 102.6 254.2 102.8 254.1 102.9C253.9 103.3 253.3 103.5 252.9 103.5C252.4 103.5 252 103.3 251.5 103.3C250.6 103.7 249.2 104.3 248.2 104.7Z" fill="#3A3A3A" stroke="black" stroke-miterlimit="10" stroke-linecap="round" stroke-linejoin="round"/>
<g opacity="0.8">
<path opacity="0.8" d="M31.9 204.3V495.4C31.9 495.4 261.1 552.9 553.9 495.4V204.3C553.9 204.3 361.6 260.1 31.9 204.3Z" fill="#D9D4E8" stroke="black" stroke-width="0.25" stroke-miterlimit="10"/>
<g opacity="0.8">
<g opacity="0.8">
<path opacity="0.8" d="M52.2 229.4C52.2 229.4 47.5 303.8 52.2 308.5C56.9 313.2 106.2 321.6 123.5 317.9C123.5 317.9 128.7 250.3 123.5 241.4C118.2 232.6 63.7 225.8 52.2 229.4Z" fill="white" stroke="black" stroke-miterlimit="10" stroke-linecap="round" stroke-linejoin="round"/>
<g opacity="0.8">
<path opacity="0.8" d="M74.1 280C75.0389 280 75.8 279.239 75.8 278.3C75.8 277.361 75.0389 276.6 74.1 276.6C73.1611 276.6 72.4 277.361 72.4 278.3C72.4 279.239 73.1611 280 74.1 280Z" fill="white" stroke="black" stroke-miterlimit="10" stroke-linecap="round" stroke-linejoin="round"/>
<g opacity="0.8">
<path opacity="0.8" d="M90.7 265.6C90.6 266.3 90.6 267 90.5 267.7C90.5 267.8 90.5 267.9 90.6 268C91.3 268.9 91.6 269.9 91.4 271C91.1 273 89.5 274.5 87.5 274.7C85.3 274.8 83.3 273.1 83.1 270.9C83 269.6 83.4 268.4 84.4 267.5C84.5 267.4 84.5 267.3 84.6 267.2C84.7 265.8 85.4 257.2 85.6 255.8C85.7 254.3 86.8 253 88.4 253C89.4 253 90.3 253.4 90.9 254.1C91.4 254.8 91.6 255.6 91.6 256.4C91.4 257.1 90.7 265 90.7 265.6ZM89.5 265.8C89.6 265 90.3 257 90.3 256.3C90.4 255.6 90.1 254.9 89.7 254.6C89.2 254.2 88.4 254 87.8 254.3C87.2 254.6 86.8 255.3 86.8 255.9C86.7 257.4 85.9 266.1 85.8 267.6C85.8 267.9 85.7 268.1 85.4 268.3C84.8 268.8 84.5 269.4 84.4 270.1C84.1 272 85.6 273.6 87.5 273.5C89.3 273.4 90.6 271.8 90.3 270C90.2 269.4 89.9 268.8 89.5 268.3C89.4 268.2 89.4 268.1 89.4 268C89.3 267.4 89.4 266.6 89.5 265.8Z" fill="#1E1D44"/>
<path opacity="0.8" d="M88.2 268.9V268.8C88.3 268.1 88.7 262.6 88.7 262.6C88.7 262.2 88.4 261.8 88 261.7C87.6 261.7 87.2 262 87.1 262.4C87.1 262.4 86.7 267.1 86.6 268.6C86.6 268.7 86.6 268.7 86.6 268.7C85.8 268.9 85.3 269.6 85.2 270.5C85.2 270.7 85.2 270.9 85.2 271.1C85.4 272 86.1 272.7 87 272.8C88 272.9 88.9 272.3 89.1 271.3C89.1 271.2 89.2 271 89.2 270.9C89.3 270 88.9 269.2 88.2 268.9Z" fill="#AEA7D3"/>
</g>
</g>
</g>
<g opacity="0.8">
<path opacity="0.8" d="M151.5 242.3C151.5 242.3 146.8 316.7 151.5 321.4C156.2 326.1 205.7 330.1 223 326.4C223 326.4 226.7 258.7 221.5 249.8C216.2 241 163 238.6 151.5 242.3Z" fill="white" stroke="black" stroke-miterlimit="10" stroke-linecap="round" stroke-linejoin="round"/>
<g opacity="0.8">
<path opacity="0.8" d="M186.9 284.5C183.3 284.5 180.4 282.1 179.8 278.5C179.5 276.6 179.8 274.8 180.9 273.3C181.7 272.2 182.5 271.1 183.3 270.1C183.7 269.6 184.1 269.1 184.5 268.5L184.6 268.4C185.2 267.6 185.8 266.8 185.9 265.9C186 265.5 186.3 265.2 186.7 265.1H186.8C187.2 265.1 187.6 265.4 187.7 265.8C188 267.1 188.9 268.2 189.8 269.3C190.1 269.7 190.5 270.1 190.8 270.5C191.6 271.6 192.5 272.8 193.3 274.1C193.9 275.1 194.2 276.2 194.1 277.2C194.1 281 191.2 284.2 187.6 284.4C187.3 284.4 187.1 284.5 186.9 284.5ZM186.8 267.5C186.5 268.2 186.1 268.7 185.6 269.3L185.5 269.4C185.1 269.9 184.7 270.4 184.3 271C183.5 272 182.7 273.1 182 274.2C181.2 275.4 180.9 276.8 181.1 278.4C181.6 281.2 184 283.2 186.9 283.2C187.1 283.2 187.2 283.2 187.4 283.2C190.2 283 192.5 280.4 192.6 277.4C192.7 276.7 192.4 275.8 192 275.1C191.2 273.9 190.4 272.7 189.6 271.6C189.3 271.2 189 270.8 188.7 270.4C188 269.3 187.3 268.5 186.8 267.5Z" fill="#1E1D44"/>
<g opacity="0.8">
<g opacity="0.8">
<path opacity="0.8" d="M191.5 277.1V277.2C191.5 279.7 189.6 281.8 187.3 282C187.2 282 187 282 186.9 282C184.5 282 182.6 280.4 182.2 278.1C182 276.8 182.2 275.7 182.9 274.7C183.2 274.3 183.4 273.9 183.7 273.5C184 273.7 184.4 273.8 184.8 273.8C185.5 273.8 186 273.5 186.4 273C186.5 272.9 186.7 272.9 186.8 273C187.1 273.5 187.7 273.8 188.4 273.8C188.9 273.8 189.4 273.6 189.7 273.3C190.2 274 190.6 274.7 191.1 275.4C191.4 275.9 191.6 276.6 191.5 277.1Z" fill="#AEA7D3"/>
</g>
</g>
</g>
</g>
<g opacity="0.8">
<path opacity="0.8" d="M245.8 246.9C245.8 246.9 241.1 321.3 245.8 326C250.5 330.7 300 334.7 317.3 331C317.3 331 321 263.3 315.8 254.4C310.6 245.5 257.3 243.2 245.8 246.9Z" fill="white" stroke="black" stroke-miterlimit="10" stroke-linecap="round" stroke-linejoin="round"/>
<g opacity="0.8">
<path opacity="0.8" d="M291.9 291.6C294.7 291.6 296.9 289.4 296.9 286.6C296.9 283.8 294.7 281.6 291.9 281.6C291.5 281.6 291.2 281.6 290.8 281.7C290.7 278.2 287.8 275.5 284.4 275.6C281.9 275.7 279.7 277.2 278.7 279.5C277 278.1 274.4 278.4 273.1 280.2C272.5 280.9 272.2 281.8 272.2 282.7V282.8C269.8 283.4 268.2 285.8 268.8 288.2C269.3 290.3 271.1 291.7 273.2 291.7H285.8" stroke="#1E1D44" stroke-width="1.8" stroke-miterlimit="10" stroke-linecap="round" stroke-linejoin="round"/>
<path opacity="0.8" d="M289.5 290.5C291.5 290.5 293.2 288.8 293.2 286.6C293.2 284.4 291.6 282.7 289.5 282.7C289.2 282.7 289 282.7 288.7 282.8C288.6 280.1 286.5 278 284 278C282.2 278 280.5 279.2 279.8 281C278.5 279.9 276.7 280.2 275.7 281.5C275.3 282.1 275.1 282.7 275.1 283.4V283.5C273.3 283.9 272.2 285.8 272.6 287.7C272.9 289.3 274.3 290.4 275.8 290.4H285" fill="#AEA7D3"/>
<g opacity="0.8">
<path opacity="0.8" d="M284.8 281.5C285.9 281.5 286.8 282.4 286.8 283.5V286.5C286.8 287.6 285.9 288.5 284.8 288.5C283.7 288.5 282.8 287.6 282.8 286.5V283.5C282.8 282.4 283.7 281.5 284.8 281.5Z" stroke="#1E1D44" stroke-miterlimit="10" stroke-linecap="round" stroke-linejoin="round"/>
<path opacity="0.8" d="M281.3 286.5C281.3 287.6 280.4 288.5 279.3 288.5C278.2 288.5 277.3 287.6 277.3 286.5V283.5C277.3 282.4 278.2 281.5 279.3 281.5C280.4 281.5 281.3 282.4 281.3 283.5" stroke="#1E1D44" stroke-miterlimit="10" stroke-linecap="round" stroke-linejoin="round"/>
<path opacity="0.8" d="M289.9 293.1H287.9L289.7 290.7C289.8 290.5 289.9 290.3 289.9 290.1C289.9 289.5 289.4 289.1 288.9 289.1C288.3 289.1 287.9 289.6 287.9 290.1" stroke="#1E1D44" stroke-miterlimit="10" stroke-linecap="round" stroke-linejoin="round"/>
</g>
</g>
</g>
<g opacity="0.8">
<g opacity="0.8">
<path opacity="0.8" d="M157.8 489.6C197.123 489.6 229 457.723 229 418.4C229 379.077 197.123 347.2 157.8 347.2C118.477 347.2 86.6 379.077 86.6 418.4C86.6 457.723 118.477 489.6 157.8 489.6Z" fill="#EEEEF7" stroke="black" stroke-width="2" stroke-miterlimit="10" stroke-linecap="round" stroke-linejoin="round" stroke-dasharray="6 6"/>
<path opacity="0.8" d="M222 449.2C222 449.2 256.1 377.4 174.6 349.1C174.6 349.1 105.9 334.4 88.2 403.1" stroke="#5C58A6" stroke-width="6" stroke-miterlimit="10" stroke-linecap="round" stroke-linejoin="round"/>
<path opacity="0.8" d="M88.1 411.4C91.3032 411.4 93.9 408.803 93.9 405.6C93.9 402.397 91.3032 399.8 88.1 399.8C84.8967 399.8 82.3 402.397 82.3 405.6C82.3 408.803 84.8967 411.4 88.1 411.4Z" fill="white" stroke="#5C58A6" stroke-width="3" stroke-miterlimit="10" stroke-linecap="round" stroke-linejoin="round"/>
<g opacity="0.8">
<path opacity="0.8" d="M157.8 462.5C182.156 462.5 201.9 442.756 201.9 418.4C201.9 394.044 182.156 374.3 157.8 374.3C133.444 374.3 113.7 394.044 113.7 418.4C113.7 442.756 133.444 462.5 157.8 462.5Z" fill="white" stroke="black" stroke-miterlimit="10" stroke-linecap="round" stroke-linejoin="round"/>
<g opacity="0.8">
<g opacity="0.8">
<path opacity="0.8" d="M145.2 399.9C146.139 399.9 146.9 399.139 146.9 398.2C146.9 397.261 146.139 396.5 145.2 396.5C144.261 396.5 143.5 397.261 143.5 398.2C143.5 399.139 144.261 399.9 145.2 399.9Z" fill="white" stroke="black" stroke-miterlimit="10" stroke-linecap="round" stroke-linejoin="round"/>
</g>
<g opacity="0.8">
<g opacity="0.8">
<path opacity="0.8" d="M137.2 428.1C137.752 428.1 138.2 427.652 138.2 427.1C138.2 426.548 137.752 426.1 137.2 426.1C136.648 426.1 136.2 426.548 136.2 427.1C136.2 427.652 136.648 428.1 137.2 428.1Z" stroke="#575757" stroke-width="0.75" stroke-miterlimit="10"/>
</g>
<path opacity="0.8" d="M133.839 434.581C134.316 434.581 134.726 434.469 135.07 434.244C135.414 434.019 135.679 433.709 135.864 433.314C136.049 432.919 136.142 432.468 136.142 431.961C136.142 431.445 136.047 430.989 135.857 430.594C135.666 430.197 135.399 429.887 135.057 429.665C134.713 429.44 134.311 429.327 133.852 429.327C133.495 429.327 133.173 429.393 132.886 429.526C132.599 429.658 132.364 429.843 132.181 430.081C131.998 430.32 131.885 430.598 131.841 430.915H132.621C132.681 430.684 132.813 430.479 133.018 430.3C133.221 430.119 133.495 430.029 133.839 430.029C134.143 430.029 134.41 430.108 134.64 430.267C134.867 430.423 135.045 430.645 135.173 430.932C135.298 431.216 135.361 431.551 135.361 431.934C135.361 432.327 135.299 432.669 135.176 432.96C135.05 433.251 134.874 433.477 134.646 433.638C134.417 433.799 134.148 433.88 133.839 433.88C133.636 433.88 133.452 433.845 133.287 433.774C133.121 433.704 132.981 433.602 132.866 433.47C132.752 433.337 132.67 433.179 132.621 432.993H131.841C131.885 433.293 131.994 433.563 132.168 433.804C132.34 434.042 132.568 434.232 132.853 434.373C133.135 434.512 133.464 434.581 133.839 434.581Z" fill="#575757"/>
</g>
</g>
</g>
</g>
<g opacity="0.8">
<path opacity="0.8" d="M236.1 502.3C242.341 502.3 247.4 497.241 247.4 491C247.4 484.759 242.341 479.7 236.1 479.7C229.859 479.7 224.8 484.759 224.8 491C224.8 497.241 229.859 502.3 236.1 502.3Z" fill="#DFD6EA" stroke="black" stroke-miterlimit="10" stroke-linecap="round" stroke-linejoin="round"/>
<path opacity="0.8" d="M241.7 491.3L230.8 491.2" stroke="black" stroke-width="3" stroke-miterlimit="10" stroke-linecap="round" stroke-linejoin="round"/>
</g>
<g opacity="0.8">
<path opacity="0.8" d="M70.7 484.3C76.9408 484.3 82 479.241 82 473C82 466.759 76.9408 461.7 70.7 461.7C64.4592 461.7 59.4 466.759 59.4 473C59.4 479.241 64.4592 484.3 70.7 484.3Z" fill="#DFD6EA" stroke="black" stroke-miterlimit="10" stroke-linecap="round" stroke-linejoin="round"/>
<g opacity="0.8">
<path opacity="0.8" d="M76.2 473L65.2 473.1" stroke="black" stroke-width="3" stroke-miterlimit="10" stroke-linecap="round" stroke-linejoin="round"/>
<path opacity="0.8" d="M70.6 467.6L70.8 478.5" stroke="black" stroke-width="3" stroke-miterlimit="10" stroke-linecap="round" stroke-linejoin="round"/>
</g>
</g>
</g>
<g opacity="0.8">
<path opacity="0.8" d="M526.8 262.9C526.8 262.9 535.5 302.8 532.8 305.9C529.6 309.7 360.8 316.9 350.8 314C350.8 314 341 289.5 345.3 274.3C349.6 259.1 526.8 262.9 526.8 262.9Z" fill="white" stroke="black" stroke-miterlimit="10" stroke-linecap="round" stroke-linejoin="round"/>
<path opacity="0.8" d="M440.2 269.5C440.2 269.5 442.2 292.4 447.3 303.4" stroke="black" stroke-miterlimit="10" stroke-linecap="round" stroke-linejoin="round"/>
<path opacity="0.8" d="M427.8 284.5C429.5 285.6 433.2 289.1 435.1 290.3C436.6 291.2 436 289.8 436 289.8C435.5 288.8 434.6 287.1 434.1 286.3C433.8 285.8 434.1 285.7 434.3 285.7L436.9 285.2C437.3 285.1 437.5 284.9 437.3 284.4C436.5 283.1 434.5 280.1 433.8 278.8C433.5 278.4 433.3 278.3 432.9 278.4L428.3 279.4C427.8 279.5 428 279.8 428.3 280.1C429 280.8 430.1 282.2 430.6 282.9C431 283.3 430.6 283.3 430.4 283.4L428 283.9C427.4 283.9 427.5 284.2 427.8 284.5Z" fill="#AEA7D3"/>
<g opacity="0.8">
<g opacity="0.8">
<path opacity="0.8" fill-rule="evenodd" clip-rule="evenodd" d="M517.6 272.7C516.3 271.9 515 271.7 513.5 272C512 272.3 510.8 273.1 510 274.4C509.2 275.7 508.9 277.1 509.2 278.6C509.5 280.1 510.3 281.3 511.6 282.1C512.9 282.9 514.3 283.2 515.8 282.9C517.3 282.6 518.5 281.8 519.3 280.5C520.1 279.3 520.3 278.1 520.2 276.8L517.5 277.4C517.5 277.5 517.5 277.5 517.5 277.6C517.5 278 517.4 278.4 517.1 278.7C516.9 279 516.7 279.2 516.4 279.4C516.2 279.5 515.9 279.6 515.7 279.7L514 280.1L513.8 279.2L511.9 279.6C511.8 279.6 511.7 279.6 511.5 279.5C511.4 279.4 511.3 279.3 511.3 279.2C511.3 279.1 511.3 279 511.4 278.8C511.5 278.7 511.6 278.6 511.7 278.6L513.6 278.2L513.4 277.3L511.5 277.7C511.4 277.7 511.3 277.7 511.1 277.6C511 277.5 510.9 277.4 510.9 277.3C510.9 277.2 510.9 277.1 511 276.9C511.1 276.8 511.2 276.7 511.3 276.7L513.2 276.3L513 275.4L514.7 275C515 274.9 515.2 274.9 515.5 275C515.8 275 516.1 275.2 516.4 275.4C516.8 275.7 517.1 276 517.3 276.4L521 275.6C521 275.7 521.1 275.9 521.1 276.1C521.5 277.9 521.2 279.5 520.2 281C519.2 282.5 517.8 283.5 516.1 283.8C514.3 284.2 512.7 283.9 511.2 282.9C509.7 281.9 508.7 280.5 508.4 278.8C508 277 508.3 275.4 509.3 273.9C510.3 272.4 511.7 271.4 513.4 271.1C515.1 270.7 516.7 271 518.2 272L517.6 272.7Z" fill="#AEA7D3"/>
</g>
</g>
</g>
<g opacity="0.8">
<path opacity="0.8" d="M512.8 336V471.7C512.8 471.7 316 499.5 279.3 472.1" stroke="black" stroke-miterlimit="10" stroke-linecap="round" stroke-linejoin="round"/>
<g opacity="0.8">
<path opacity="0.8" d="M485.472 490.27C486.12 490.27 486.672 490.094 487.128 489.741C487.584 489.386 487.932 488.871 488.173 488.197C488.414 487.52 488.534 486.703 488.534 485.745C488.534 484.793 488.414 483.98 488.173 483.306C487.929 482.63 487.579 482.113 487.123 481.758C486.665 481.399 486.114 481.22 485.472 481.22C484.829 481.22 484.28 481.399 483.824 481.758C483.365 482.113 483.015 482.63 482.775 483.306C482.531 483.98 482.409 484.793 482.409 485.745C482.409 486.703 482.529 487.52 482.77 488.197C483.011 488.871 483.36 489.386 483.816 489.741C484.271 490.094 484.823 490.27 485.472 490.27ZM485.472 489.324C484.829 489.324 484.33 489.014 483.975 488.395C483.619 487.775 483.441 486.892 483.441 485.745C483.441 484.982 483.523 484.333 483.686 483.797C483.847 483.26 484.079 482.852 484.383 482.571C484.684 482.29 485.047 482.149 485.472 482.149C486.108 482.149 486.606 482.463 486.964 483.091C487.323 483.716 487.502 484.601 487.502 485.745C487.502 486.508 487.422 487.156 487.261 487.689C487.1 488.223 486.87 488.629 486.568 488.907C486.264 489.185 485.899 489.324 485.472 489.324ZM477.677 481.341V490.15H478.744V482.459H478.796L480.946 483.887V482.803L478.744 481.341H477.677Z" fill="black"/>
<path opacity="0.8" d="M531.913 456.822C532.561 456.822 533.113 456.646 533.569 456.293C534.025 455.937 534.373 455.423 534.614 454.749C534.855 454.072 534.976 453.255 534.976 452.297C534.976 451.345 534.855 450.532 534.614 449.858C534.371 449.181 534.021 448.665 533.565 448.31C533.106 447.951 532.555 447.772 531.913 447.772C531.271 447.772 530.721 447.951 530.266 448.31C529.807 448.665 529.457 449.181 529.216 449.858C528.972 450.532 528.85 451.345 528.85 452.297C528.85 453.255 528.971 454.072 529.212 454.749C529.453 455.423 529.801 455.937 530.257 456.293C530.713 456.646 531.265 456.822 531.913 456.822ZM531.913 455.876C531.271 455.876 530.772 455.566 530.416 454.947C530.06 454.327 529.883 453.444 529.883 452.297C529.883 451.534 529.964 450.885 530.128 450.348C530.288 449.812 530.521 449.404 530.825 449.122C531.126 448.841 531.489 448.701 531.913 448.701C532.55 448.701 533.047 449.015 533.406 449.643C533.764 450.268 533.943 451.153 533.943 452.297C533.943 453.06 533.863 453.708 533.702 454.241C533.542 454.775 533.311 455.18 533.01 455.459C532.706 455.737 532.34 455.876 531.913 455.876Z" fill="black"/>
<path opacity="0.8" d="M532.033 413.683C532.538 413.683 532.993 413.583 533.397 413.382C533.801 413.182 534.125 412.906 534.369 412.556C534.613 412.207 534.746 411.808 534.769 411.361H533.737C533.697 411.759 533.516 412.089 533.195 412.35C532.871 412.608 532.484 412.737 532.033 412.737C531.672 412.737 531.351 412.653 531.07 412.483C530.786 412.314 530.564 412.082 530.403 411.786C530.24 411.488 530.158 411.151 530.158 410.776C530.158 410.391 530.243 410.049 530.412 409.748C530.578 409.444 530.808 409.204 531.1 409.029C531.392 408.854 531.727 408.765 532.102 408.763C532.372 408.76 532.649 408.801 532.932 408.887C533.216 408.97 533.45 409.078 533.634 409.21L534.631 409.089L534.098 404.754H529.521V405.7H533.203L533.513 408.298H533.462C533.281 408.155 533.054 408.036 532.782 407.941C532.509 407.846 532.226 407.799 531.93 407.799C531.391 407.799 530.911 407.928 530.489 408.186C530.065 408.441 529.732 408.791 529.491 409.236C529.248 409.68 529.126 410.188 529.126 410.758C529.126 411.32 529.252 411.822 529.504 412.264C529.754 412.703 530.098 413.05 530.537 413.305C530.975 413.557 531.474 413.683 532.033 413.683Z" fill="black"/>
<path opacity="0.8" d="M531.689 372.284V381.093H532.756V373.402H532.808L534.958 374.83V373.746L532.756 372.284H531.689ZM526.282 381.214C526.93 381.214 527.482 381.037 527.938 380.685C528.394 380.329 528.743 379.814 528.984 379.14C529.225 378.464 529.345 377.646 529.345 376.689C529.345 375.737 529.225 374.924 528.984 374.25C528.74 373.573 528.39 373.057 527.934 372.701C527.475 372.343 526.925 372.163 526.282 372.163C525.64 372.163 525.091 372.343 524.635 372.701C524.176 373.057 523.826 373.573 523.585 374.25C523.342 374.924 523.22 375.737 523.22 376.689C523.22 377.646 523.34 378.464 523.581 379.14C523.822 379.814 524.17 380.329 524.626 380.685C525.082 381.037 525.634 381.214 526.282 381.214ZM526.282 380.267C525.64 380.267 525.141 379.958 524.785 379.338C524.43 378.719 524.252 377.836 524.252 376.689C524.252 375.926 524.334 375.276 524.497 374.74C524.658 374.204 524.89 373.795 525.194 373.514C525.495 373.233 525.858 373.093 526.282 373.093C526.919 373.093 527.417 373.407 527.775 374.035C528.133 374.66 528.313 375.544 528.313 376.689C528.313 377.451 528.232 378.099 528.072 378.633C527.911 379.166 527.68 379.572 527.379 379.85C527.075 380.128 526.71 380.267 526.282 380.267Z" fill="black"/>
<path opacity="0.8" d="M531.689 338.515V347.325H532.756V339.634H532.808L534.958 341.062V339.978L532.756 338.515H531.689ZM526.403 347.445C526.908 347.445 527.362 347.345 527.766 347.144C528.171 346.943 528.495 346.668 528.739 346.318C528.982 345.968 529.116 345.57 529.139 345.122H528.106C528.066 345.521 527.885 345.851 527.564 346.112C527.24 346.37 526.853 346.499 526.403 346.499C526.041 346.499 525.72 346.414 525.439 346.245C525.155 346.076 524.933 345.844 524.773 345.548C524.609 345.25 524.527 344.913 524.527 344.537C524.527 344.153 524.612 343.81 524.781 343.509C524.947 343.205 525.177 342.966 525.469 342.791C525.762 342.616 526.096 342.527 526.472 342.524C526.741 342.521 527.018 342.563 527.302 342.649C527.586 342.732 527.819 342.84 528.003 342.972L529.001 342.851L528.468 338.515H523.891V339.462H527.573L527.883 342.06H527.831C527.65 341.916 527.424 341.797 527.151 341.703C526.879 341.608 526.595 341.561 526.3 341.561C525.76 341.561 525.28 341.69 524.859 341.948C524.434 342.203 524.102 342.553 523.861 342.997C523.617 343.442 523.495 343.949 523.495 344.52C523.495 345.082 523.621 345.584 523.874 346.026C524.123 346.464 524.467 346.811 524.906 347.067C525.345 347.319 525.844 347.445 526.403 347.445Z" fill="black"/>
<path opacity="0.8" d="M441.131 494.683C441.779 494.683 442.331 494.507 442.787 494.154C443.243 493.799 443.591 493.284 443.832 492.61C444.073 491.933 444.193 491.116 444.193 490.158C444.193 489.206 444.073 488.393 443.832 487.719C443.588 487.043 443.238 486.526 442.783 486.171C442.324 485.812 441.773 485.633 441.131 485.633C440.488 485.633 439.939 485.812 439.483 486.171C439.024 486.526 438.675 487.043 438.434 487.719C438.19 488.393 438.068 489.206 438.068 490.158C438.068 491.116 438.189 491.933 438.429 492.61C438.67 493.284 439.019 493.799 439.475 494.154C439.931 494.507 440.483 494.683 441.131 494.683ZM441.131 493.737C440.488 493.737 439.989 493.427 439.634 492.808C439.278 492.189 439.1 491.305 439.1 490.158C439.1 489.396 439.182 488.746 439.346 488.21C439.506 487.673 439.739 487.265 440.042 486.984C440.344 486.703 440.706 486.562 441.131 486.562C441.767 486.562 442.265 486.876 442.623 487.504C442.982 488.129 443.161 489.014 443.161 490.158C443.161 490.921 443.081 491.569 442.92 492.103C442.76 492.636 442.529 493.042 442.228 493.32C441.924 493.598 441.558 493.737 441.131 493.737ZM436.434 494.563V493.789L433.526 490.606C433.185 490.233 432.903 489.909 432.683 489.634C432.462 489.355 432.298 489.094 432.192 488.851C432.083 488.604 432.029 488.346 432.029 488.076C432.029 487.767 432.103 487.499 432.253 487.272C432.399 487.045 432.6 486.871 432.855 486.747C433.11 486.624 433.397 486.562 433.715 486.562C434.053 486.562 434.349 486.633 434.601 486.773C434.851 486.911 435.044 487.104 435.182 487.354C435.317 487.603 435.384 487.896 435.384 488.231H436.399C436.399 487.715 436.28 487.262 436.042 486.872C435.804 486.482 435.48 486.178 435.07 485.96C434.657 485.742 434.194 485.633 433.681 485.633C433.164 485.633 432.707 485.742 432.308 485.96C431.91 486.178 431.597 486.472 431.371 486.842C431.144 487.212 431.031 487.623 431.031 488.076C431.031 488.4 431.09 488.717 431.207 489.027C431.322 489.334 431.523 489.677 431.809 490.055C432.093 490.431 432.488 490.89 432.992 491.432L434.971 493.548V493.617H430.876V494.563H436.434Z" fill="black"/>
<path opacity="0.8" d="M395.425 499.824C396.073 499.824 396.625 499.648 397.081 499.295C397.537 498.939 397.885 498.425 398.126 497.751C398.367 497.074 398.487 496.257 398.487 495.299C398.487 494.347 398.367 493.534 398.126 492.86C397.882 492.183 397.532 491.667 397.076 491.311C396.618 490.953 396.067 490.774 395.425 490.774C394.782 490.774 394.233 490.953 393.777 491.311C393.318 491.667 392.969 492.183 392.728 492.86C392.484 493.534 392.362 494.347 392.362 495.299C392.362 496.257 392.482 497.074 392.723 497.751C392.964 498.425 393.313 498.939 393.769 499.295C394.225 499.648 394.777 499.824 395.425 499.824ZM395.425 498.878C394.782 498.878 394.283 498.568 393.928 497.949C393.572 497.329 393.394 496.446 393.394 495.299C393.394 494.536 393.476 493.887 393.64 493.35C393.8 492.814 394.032 492.405 394.336 492.124C394.638 491.843 395 491.703 395.425 491.703C396.061 491.703 396.559 492.017 396.917 492.645C397.276 493.27 397.455 494.155 397.455 495.299C397.455 496.062 397.375 496.71 397.214 497.243C397.054 497.777 396.823 498.182 396.522 498.46C396.218 498.739 395.852 498.878 395.425 498.878ZM387.751 499.824C388.319 499.824 388.825 499.727 389.269 499.532C389.711 499.337 390.062 499.066 390.323 498.719C390.581 498.369 390.722 497.963 390.745 497.501H389.661C389.638 497.785 389.54 498.03 389.368 498.237C389.196 498.44 388.971 498.598 388.693 498.71C388.415 498.822 388.106 498.878 387.768 498.878C387.39 498.878 387.054 498.812 386.762 498.68C386.469 498.548 386.24 498.364 386.073 498.129C385.907 497.894 385.824 497.622 385.824 497.312C385.824 496.988 385.904 496.703 386.065 496.456C386.225 496.207 386.46 496.012 386.77 495.871C387.08 495.731 387.458 495.66 387.906 495.66H388.611V494.714H387.906C387.556 494.714 387.249 494.651 386.985 494.525C386.719 494.398 386.511 494.221 386.362 493.991C386.21 493.762 386.134 493.492 386.134 493.183C386.134 492.884 386.2 492.625 386.331 492.404C386.463 492.183 386.65 492.011 386.891 491.888C387.129 491.765 387.41 491.703 387.734 491.703C388.038 491.703 388.324 491.759 388.594 491.871C388.861 491.98 389.079 492.139 389.248 492.348C389.417 492.555 389.509 492.804 389.523 493.097H390.555C390.538 492.635 390.399 492.231 390.138 491.884C389.877 491.534 389.536 491.261 389.114 491.066C388.69 490.871 388.224 490.774 387.716 490.774C387.172 490.774 386.704 490.884 386.314 491.105C385.924 491.323 385.625 491.611 385.415 491.97C385.206 492.328 385.101 492.715 385.101 493.131C385.101 493.627 385.232 494.05 385.493 494.4C385.751 494.75 386.102 494.992 386.546 495.127V495.196C385.99 495.287 385.556 495.524 385.243 495.905C384.931 496.284 384.774 496.753 384.774 497.312C384.774 497.791 384.905 498.221 385.166 498.602C385.424 498.981 385.777 499.279 386.224 499.497C386.671 499.715 387.18 499.824 387.751 499.824Z" fill="black"/>
<path opacity="0.8" d="M355.005 498.658C355.653 498.658 356.205 498.482 356.661 498.129C357.117 497.773 357.465 497.259 357.706 496.585C357.947 495.908 358.067 495.091 358.067 494.133C358.067 493.181 357.947 492.368 357.706 491.694C357.462 491.017 357.112 490.501 356.657 490.145C356.198 489.787 355.647 489.608 355.005 489.608C354.362 489.608 353.813 489.787 353.357 490.145C352.898 490.501 352.549 491.017 352.308 491.694C352.064 492.368 351.942 493.181 351.942 494.133C351.942 495.091 352.063 495.908 352.303 496.585C352.544 497.259 352.893 497.773 353.349 498.129C353.805 498.482 354.357 498.658 355.005 498.658ZM355.005 497.712C354.362 497.712 353.863 497.402 353.508 496.783C353.152 496.163 352.974 495.28 352.974 494.133C352.974 493.37 353.056 492.721 353.22 492.184C353.38 491.648 353.613 491.239 353.917 490.958C354.218 490.677 354.58 490.537 355.005 490.537C355.641 490.537 356.139 490.851 356.497 491.479C356.856 492.104 357.035 492.989 357.035 494.133C357.035 494.896 356.955 495.544 356.794 496.077C356.634 496.611 356.403 497.016 356.102 497.294C355.798 497.573 355.432 497.712 355.005 497.712ZM350.514 496.731V495.853L346.643 489.728H346.006V491.087H346.436L349.361 495.716V495.785H344.148V496.731H350.514ZM346.367 498.538V496.464V496.056V489.728H345.352V498.538H346.367Z" fill="black"/>
<path opacity="0.8" d="M310.854 496.547C311.502 496.547 312.054 496.37 312.51 496.018C312.966 495.662 313.315 495.147 313.556 494.473C313.797 493.797 313.917 492.979 313.917 492.022C313.917 491.07 313.797 490.257 313.556 489.583C313.312 488.906 312.962 488.39 312.506 488.034C312.047 487.676 311.497 487.496 310.854 487.496C310.212 487.496 309.663 487.676 309.207 488.034C308.748 488.39 308.398 488.906 308.157 489.583C307.914 490.257 307.792 491.07 307.792 492.022C307.792 492.979 307.912 493.797 308.153 494.473C308.394 495.147 308.742 495.662 309.198 496.018C309.654 496.37 310.206 496.547 310.854 496.547ZM310.854 495.6C310.212 495.6 309.713 495.291 309.357 494.671C309.002 494.052 308.824 493.169 308.824 492.022C308.824 491.259 308.906 490.609 309.069 490.073C309.23 489.537 309.462 489.128 309.766 488.847C310.067 488.566 310.43 488.426 310.854 488.426C311.491 488.426 311.989 488.74 312.347 489.368C312.705 489.993 312.885 490.877 312.885 492.022C312.885 492.784 312.804 493.432 312.644 493.966C312.483 494.499 312.252 494.905 311.951 495.183C311.647 495.461 311.282 495.6 310.854 495.6ZM303.404 496.547C303.909 496.547 304.363 496.446 304.768 496.246C305.172 496.045 305.496 495.77 305.74 495.42C305.984 495.07 306.117 494.671 306.14 494.224H305.108C305.067 494.623 304.887 494.952 304.566 495.213C304.242 495.471 303.854 495.6 303.404 495.6C303.043 495.6 302.722 495.516 302.441 495.347C302.157 495.177 301.935 494.945 301.774 494.65C301.611 494.352 301.529 494.015 301.529 493.639C301.529 493.255 301.613 492.912 301.783 492.611C301.949 492.307 302.178 492.067 302.471 491.893C302.763 491.718 303.097 491.629 303.473 491.626C303.743 491.623 304.019 491.665 304.303 491.751C304.587 491.834 304.821 491.941 305.004 492.073L306.002 491.953L305.469 487.617H300.892V488.563H304.574L304.884 491.161H304.832C304.652 491.018 304.425 490.899 304.153 490.804C303.88 490.71 303.596 490.662 303.301 490.662C302.762 490.662 302.282 490.791 301.86 491.049C301.436 491.305 301.103 491.655 300.862 492.099C300.618 492.543 300.496 493.051 300.496 493.622C300.496 494.184 300.623 494.686 300.875 495.127C301.124 495.566 301.469 495.913 301.907 496.168C302.346 496.421 302.845 496.547 303.404 496.547Z" fill="black"/>
</g>
<g opacity="0.8">
<g opacity="0.8">
<path opacity="0.8" d="M512.8 454.4C512.8 454.4 339.2 459.8 284 439.8" stroke="#B7B4DA" stroke-width="0.5" stroke-miterlimit="10" stroke-linecap="round" stroke-linejoin="round" stroke-dasharray="6 6"/>
<path opacity="0.8" d="M512.8 417.7C512.8 417.7 339.2 423.1 284 403.1" stroke="#B7B4DA" stroke-width="0.5" stroke-miterlimit="10" stroke-linecap="round" stroke-linejoin="round" stroke-dasharray="6 6"/>
<path opacity="0.8" d="M512.8 380.5C512.8 380.5 339.2 385.9 284 365.9" stroke="#B7B4DA" stroke-width="0.5" stroke-miterlimit="10" stroke-linecap="round" stroke-linejoin="round" stroke-dasharray="6 6"/>
</g>
<path opacity="0.8" d="M489.9 361V453.8C489.9 453.8 471.7 456.5 471.7 453.8C471.7 451.1 471.7 361 471.7 361C471.7 361 480.1 357.2 489.9 361Z" fill="#EEEEF7" stroke="black" stroke-width="0.75" stroke-miterlimit="10" stroke-linecap="round" stroke-linejoin="round"/>
<path opacity="0.8" d="M446.9 419V454.6C446.9 454.6 428.7 455.6 428.7 454.6C428.7 453.6 428.7 419 428.7 419C428.7 419 437.1 417.5 446.9 419Z" fill="#EEEEF7" stroke="black" stroke-width="0.75" stroke-miterlimit="10" stroke-linecap="round" stroke-linejoin="round"/>
<path opacity="0.8" d="M403.8 368.1V452.7C403.8 452.7 385.6 455.2 385.6 452.7C385.6 450.2 385.6 368.1 385.6 368.1C385.6 368.1 394 364.6 403.8 368.1Z" fill="#5C58A6" stroke="black" stroke-miterlimit="10"/>
<path opacity="0.8" d="M360.8 381.2V449.8C360.8 449.8 342.6 451.8 342.6 449.8C342.6 447.8 342.6 381.2 342.6 381.2C342.6 381.2 351 378.4 360.8 381.2Z" fill="#EEEEF7" stroke="black" stroke-width="0.75" stroke-miterlimit="10" stroke-linecap="round" stroke-linejoin="round"/>
<path opacity="0.8" d="M319.1 431.3V447.4C319.1 447.4 300.9 445.6 300.9 445.2C300.9 444.8 300.9 431.3 300.9 431.3C300.9 431.3 309.3 430.7 319.1 431.3Z" fill="#EEEEF7" stroke="black" stroke-width="0.75" stroke-miterlimit="10" stroke-linecap="round" stroke-linejoin="round"/>
<g opacity="0.8">
<path opacity="0.8" d="M430.1 336.6C430.1 336.6 430 344.2 424.3 349.1C419.5 353.2 402.1 350 402 350.4L396.4 359.7L392 350.3C392 350.3 374.3 350.4 371.9 349.1C369.5 347.8 364.5 336.2 367.9 334.5C371.1 332.7 426.8 332.4 430.1 336.6Z" fill="#C7C3E2" stroke="black" stroke-width="0.75" stroke-miterlimit="10" stroke-linecap="round" stroke-linejoin="round"/>
<path opacity="0.8" d="M416.561 343.275V342.532L413.286 337.349H412.747V338.5H413.111L415.586 342.416V342.474H411.175V343.275H416.561ZM413.053 344.803V343.049V342.703V337.349H412.194V344.803H413.053ZM407.379 344.905C407.928 344.905 408.395 344.756 408.781 344.458C409.166 344.157 409.461 343.721 409.665 343.151C409.869 342.578 409.971 341.887 409.971 341.076C409.971 340.271 409.869 339.583 409.665 339.013C409.459 338.44 409.163 338.003 408.777 337.702C408.389 337.399 407.923 337.248 407.379 337.248C406.836 337.248 406.371 337.399 405.985 337.702C405.597 338.003 405.301 338.44 405.097 339.013C404.891 339.583 404.788 340.271 404.788 341.076C404.788 341.887 404.89 342.578 405.094 343.151C405.298 343.721 405.592 344.157 405.978 344.458C406.364 344.756 406.831 344.905 407.379 344.905ZM407.379 344.105C406.836 344.105 406.414 343.843 406.113 343.318C405.812 342.794 405.661 342.047 405.661 341.076C405.661 340.431 405.731 339.881 405.869 339.428C406.005 338.974 406.201 338.628 406.459 338.39C406.713 338.153 407.02 338.034 407.379 338.034C407.918 338.034 408.339 338.299 408.642 338.831C408.946 339.36 409.097 340.108 409.097 341.076C409.097 341.722 409.029 342.27 408.894 342.722C408.758 343.173 408.562 343.516 408.308 343.752C408.05 343.987 407.741 344.105 407.379 344.105ZM399.707 342.765L399.722 341.702H399.547L397.101 339.213H396.038L398.644 341.848H398.717L399.707 342.765ZM400.508 344.803V337.349H399.649V344.803H400.508ZM396.955 344.803L399.139 342.037L398.528 341.44L395.864 344.803H396.955ZM393.462 344.803L395.5 337.349H394.583L393.025 343.42H392.953L391.366 337.349H390.347L388.76 343.42H388.687L387.129 337.349H386.212L388.25 344.803H389.182L390.827 338.864H390.885L392.53 344.803H393.462ZM384.345 341.44V344.803H385.204V337.349H384.345V340.086H384.272C384.141 339.798 383.945 339.568 383.682 339.399C383.418 339.226 383.066 339.14 382.627 339.14C382.246 339.14 381.912 339.217 381.626 339.369C381.34 339.52 381.118 339.752 380.96 340.065C380.8 340.375 380.72 340.771 380.72 341.251V344.803H381.579V341.309C381.579 340.865 381.694 340.522 381.924 340.279C382.153 340.034 382.469 339.912 382.874 339.912C383.156 339.912 383.408 339.971 383.631 340.09C383.852 340.209 384.027 340.382 384.156 340.611C384.282 340.839 384.345 341.115 384.345 341.44Z" fill="black"/>
</g>
</g>
</g>
</g>
</g>
</svg>
