<svg width="962" height="698" viewBox="0 0 962 698" fill="none" xmlns="http://www.w3.org/2000/svg">
<path opacity="0.15" d="M181.3 20.5998C217.7 -1.40024 264.4 -5.30025 303.9 10.1997C326.2 18.9997 345.9 33.3997 367.9 42.9998C392.1 53.4998 418.4 57.8998 444.6 60.6998C465.4 62.8998 486.5 64.1997 507.3 61.3997C527.7 58.5997 547.3 51.9998 567.1 46.4998C635 27.6998 708 22.4998 775.8 41.4998C843.7 60.4998 905.8 105.5 936.7 168.9C956.7 209.9 963 256.5 960.5 302C957.3 360.6 936.7 422.6 888.4 455.9C860.3 475.2 825.9 482.8 792.1 487C752.9 491.8 713.2 492.6 673.9 489.3C642.8 486.7 611.5 481.6 580.6 485.6C516.5 494 464.8 539.7 409.4 573C352.1 607.4 287.4 629.7 221 637.8C178.2 643.1 133.2 642.2 94.1 624.1C43.7 600.7 8.40001 549.1 1.40001 494C-5.59999 438.9 14.7 381.6 52.1 340.5C76 314.2 107.9 291.9 116.8 257.4C128.3 212.9 106.6 166.2 113.4 121.5C119.6 81.5998 146.6 41.3998 181.3 20.5998Z" fill="#CDBFDE"/>
<path d="M134.7 697.399H873.9" stroke="black" stroke-miterlimit="10" stroke-linecap="round" stroke-linejoin="round"/>
<path d="M857.9 153.7H563.8V361.3H857.9V153.7Z" fill="#3A3A3A" stroke="black" stroke-miterlimit="10" stroke-linecap="round" stroke-linejoin="round"/>
<path d="M848.8 161.7H572.8V353.3H848.8V161.7Z" fill="#DADAE0" stroke="black" stroke-miterlimit="10" stroke-linecap="round" stroke-linejoin="round"/>
<path d="M652.533 187.955L605.085 191.789L607.534 222.092L654.982 218.257L652.533 187.955Z" fill="white" stroke="black" stroke-width="0.25" stroke-miterlimit="10" stroke-linecap="round" stroke-linejoin="round"/>
<path d="M628.6 197.2C629.981 197.2 631.1 196.081 631.1 194.7C631.1 193.319 629.981 192.2 628.6 192.2C627.219 192.2 626.1 193.319 626.1 194.7C626.1 196.081 627.219 197.2 628.6 197.2Z" fill="#EEDBEB" stroke="black" stroke-width="0.5" stroke-miterlimit="10" stroke-linecap="round" stroke-linejoin="round"/>
<path d="M611.3 205.4C611.7 204.5 611.2 203.3 610.2 203C609 204.7 608.9 207.1 609.8 208.9C610 209.4 610.4 209.9 611 209.9C611.4 209.9 611.7 209.7 612 209.4C613.2 208.4 614.1 207.1 614.6 205.6C615.3 206.2 615.9 206.9 616.2 207.8C617 206.9 617.4 205.8 617.5 204.7C617.7 205.5 618.2 206.2 618.7 206.8C618.9 206.2 619.1 205.7 619.3 205.1C619.7 206.1 620.3 206.9 621.1 207.6C621.9 206.7 622.8 205.6 622.7 204.4C622.6 203.2 621 202.2 620.2 203.1C619.8 203.5 619.8 204.2 619.8 204.7C619.8 205.7 620.1 207 621.1 207.2C622.4 207.4 623.2 205.4 624.5 205.6C625.1 206.2 625.5 207 625.4 207.9C625.3 206.9 625.5 206 625.9 205.1C626.3 205.6 626.6 206.1 627 206.6C627.3 206.3 627.5 205.9 627.8 205.6C628.3 205.9 628.8 206.3 629.1 206.8C629.5 206.1 630.4 205.8 631.1 206.2C631.5 206.4 631.8 206.7 632.2 206.9C633.1 207.4 634.3 206.9 634.9 206C635.5 205.2 635.7 204.1 635.8 203.1C635.4 202.9 635 202.7 634.6 202.6C633.4 203.2 632.6 204.4 632.6 205.7C632.6 207 633.6 208.3 634.9 208.4C636.2 208.5 637.5 207.4 637.4 206.1C638.2 206.6 639 207 639.8 207.5C639.9 206.5 640.8 205.8 641.8 205.7C642.8 205.6 643.7 205.9 644.6 206.3C645.2 206.6 645.8 206.9 646.5 207C647.7 207.1 648.9 206.3 649.2 205.2C649.5 204.1 649 202.8 647.9 202.2C646.4 203 645.5 204.7 645.7 206.4C646.2 206.2 646.8 205.9 647.3 205.7" stroke="black" stroke-width="0.25" stroke-miterlimit="10" stroke-linecap="round" stroke-linejoin="round"/>
<path d="M823.7 185H708.8V272H823.7V185Z" fill="white" stroke="black" stroke-width="0.25" stroke-miterlimit="10" stroke-linecap="round" stroke-linejoin="round"/>
<path d="M714.5 192.6C715.881 192.6 717 191.48 717 190.1C717 188.719 715.881 187.6 714.5 187.6C713.119 187.6 712 188.719 712 190.1C712 191.48 713.119 192.6 714.5 192.6Z" fill="#EEDBEB" stroke="black" stroke-width="0.5" stroke-miterlimit="10" stroke-linecap="round" stroke-linejoin="round"/>
<path d="M819.3 192.6C820.681 192.6 821.8 191.48 821.8 190.1C821.8 188.719 820.681 187.6 819.3 187.6C817.919 187.6 816.8 188.719 816.8 190.1C816.8 191.48 817.919 192.6 819.3 192.6Z" fill="#EEDBEB" stroke="black" stroke-width="0.5" stroke-miterlimit="10" stroke-linecap="round" stroke-linejoin="round"/>
<path d="M767.6 226.8C771.4 226.6 774.9 224.1 776.2 220.5C777.5 217 776.5 212.7 773.7 210.2C760.5 198.1 749.6 227.5 767.6 226.8Z" stroke="black" stroke-width="0.25" stroke-miterlimit="10" stroke-linecap="round" stroke-linejoin="round"/>
<path d="M749.1 220.601C746 223.901 745.3 229.2 747.3 233.3C749.3 237.4 754.1 239.9 758.6 239.3C763 238.7 766.8 235.2 768 230.9C769.3 226.2 767.3 219.3 762.6 217C758.7 215.1 751.9 217.601 749.1 220.601Z" stroke="black" stroke-width="0.25" stroke-miterlimit="10" stroke-linecap="round" stroke-linejoin="round"/>
<path d="M771.1 217.9C769 218.7 766.9 219.8 765.4 221.5C763.4 223.7 762.6 226.8 762.6 229.8C762.6 232.7 763.5 235.8 765.8 237.7C767.2 238.9 769 239.5 770.8 240C772.4 240.4 774.1 240.7 775.8 240.5C780.2 240 783.7 236.2 784.9 232C787.5 222.2 780.8 214.1 771.1 217.9Z" stroke="black" stroke-width="0.25" stroke-miterlimit="10" stroke-linecap="round" stroke-linejoin="round"/>
<path d="M767.6 211C767.3 210.2 767.5 209.3 767.9 208.5C769.3 205.5 772.1 203.5 775.3 202.5C778.4 201.6 781.8 201.7 785 202.2" stroke="black" stroke-width="0.25" stroke-miterlimit="10" stroke-linecap="round" stroke-linejoin="round"/>
<path d="M788.2 201.8C788.1 201.4 788.1 201 788 200.6C786.8 200.3 785.8 202 786.6 202.9C787.4 203.8 789.2 202.8 788.9 201.6C789.2 202 789.6 202.4 789.9 202.8C790.2 202.2 790.6 201.6 791 201.2C791.3 201.7 791.8 202.2 792.3 202.5C792.6 202 792.8 201.5 793.1 201.1C793.2 202 794.1 202.8 795 202.5C795.9 202.2 796 200.7 795.1 200.4C794.5 201 794.2 202 794.3 202.9C795.4 202.6 796.4 202 797.1 201.1C797.5 201.8 797.8 202.6 797.9 203.4C798 202.7 798.2 201.8 798.9 201.5C799.6 201.2 800.6 201.9 800.2 202.6C800.7 202.4 801.1 202.2 801.6 202C801.6 202.5 801.8 202.9 802.1 203.3C802.6 202.9 803.1 202.4 803.4 201.8C803.6 202.3 803.8 202.8 804 203.3C804.4 202.4 805.8 202.1 806.5 202.8C807.2 203.5 807 204.9 806.1 205.3C806.3 204.4 807.1 203.7 808 203.8C808.3 204.9 808.7 206.2 808.2 207.2C807.7 208.2 806.1 208.8 805.4 207.9C805.1 207.5 805.1 207 805.1 206.5C805.2 204.7 805.9 203 807.1 201.7C806.7 201.6 806.4 202.3 806.7 202.6C807 202.9 807.6 202.9 807.9 202.6C808.2 202.3 808.4 201.9 808.5 201.4C808.1 202.1 808.2 203.1 808.9 203.4C809.6 203.8 810.6 202.8 810 202.2C810 202.5 810.1 202.7 810.1 203C810.5 202.8 810.8 202.5 811.2 202.3C811.2 202.4 811.3 202.5 811.4 202.6C812.5 203.5 814.3 202.4 814.6 201C813.1 200.7 811.4 201.8 811.3 203.4C812.6 202.4 813.2 200.7 813 199.1C812.8 197.5 811.7 196 810.3 195.3C809.4 196.2 809 197.6 809.2 198.8" stroke="black" stroke-width="0.25" stroke-miterlimit="10" stroke-linecap="round" stroke-linejoin="round"/>
<path d="M787 207.8C787.2 207.9 787.2 207.5 786.9 207.5C786.7 207.6 786.7 207.9 786.7 208.1C787.2 210.4 787.7 212.6 788.3 214.9C787.6 213.5 786.3 212.5 784.7 212.1C786.2 211.5 787.5 210.4 788.4 209.1C788.6 208.8 788.8 208.4 788.7 208.1C788.6 207.7 788.3 207.4 787.9 207.6C787.1 208.9 787.3 210.7 788.4 211.8C789 211.1 789.4 210.4 789.8 209.6C790.2 210.3 790.5 211.1 790.7 211.9C790.9 211.3 791.2 210.8 791.4 210.2C791.7 210.7 792 211.1 792.4 211.5C792.7 211 792.8 210.4 792.8 209.8C792.9 210.4 793.2 210.9 793.7 211.3C794 211 794.2 210.6 794.2 210.2C794.2 210.9 795.4 211.1 795.7 210.5C796 209.9 795 209.1 794.5 209.6C795.1 209.9 796 209.8 796.5 209.3C796.6 209.9 796.9 210.5 797.4 210.9C797.5 210.5 797.7 210.2 798 210C798.4 210.3 798.7 210.8 798.9 211.2C799.4 211.1 799.7 210.4 799.4 209.9C799.1 209.5 798.3 209.6 798.1 210.1C799.2 209.4 801 210.1 801.2 211.4C801.5 211 801.8 210.6 802.1 210.2C802.9 210.9 804.4 209.9 804.1 208.8C805 210.2 805.9 211.7 806.5 213.3C807 214.9 807.1 216.7 806.4 218.3C804.1 216.3 804 212.3 806.2 210.2C806.3 210.6 806.5 210.9 806.8 211.2C807.2 211.2 807.6 210.7 807.5 210.3C807.3 210.5 807.2 210.8 807.2 211" stroke="black" stroke-width="0.25" stroke-miterlimit="10" stroke-linecap="round" stroke-linejoin="round"/>
<path d="M811.5 208.6C811.1 208.2 811.1 207.6 811.4 207.2C811.7 206.8 812.3 206.6 812.7 206.8C813.6 207.2 813.6 208.5 813.2 209.5C812.8 210.4 812.3 211.5 812.8 212.4" stroke="black" stroke-width="0.25" stroke-miterlimit="10" stroke-linecap="round" stroke-linejoin="round"/>
<path d="M813.7 215.1C813.7 215.4 813.7 215.6 813.7 215.9C814.3 216 815 215.4 815 214.8C815 214.7 815 214.6 814.9 214.5C814.7 214.3 814.3 214.5 814.2 214.7C813.7 215.3 813.5 216 813.5 216.7" stroke="black" stroke-width="0.25" stroke-miterlimit="10" stroke-linecap="round" stroke-linejoin="round"/>
<path d="M777.5 234.7C777.7 235.1 778 235.4 778.2 235.8C779.3 237.2 780.6 238.6 782.2 239.4C783.8 240.2 785.8 240.5 787.5 239.7" stroke="black" stroke-width="0.25" stroke-miterlimit="10" stroke-linecap="round" stroke-linejoin="round"/>
<path d="M791.2 238C791.4 237.4 791.6 236.8 791.8 236.3C791.1 236.2 790.3 236.6 790 237.3C789.7 238 789.9 238.9 790.5 239.3C791.2 238.9 791.6 238 791.5 237.2C792.6 239 793.6 241.2 792.6 243C791.6 242.8 790.9 242 790.7 241C790.5 240.1 790.8 239 791.4 238.3C791.8 237.8 792.4 237.4 793.1 237.5C793.7 237.6 794.2 238.4 793.8 238.9C793.5 238.3 793.8 237.5 794.4 237.2C794.7 237.6 795.1 238 795.4 238.4C795.6 237.9 796 237.5 796.3 237.1C796.6 237.6 796.9 238.1 797.2 238.6C797.5 238.4 797.7 238.2 797.8 237.9C798.3 238.2 798.8 238.5 799.3 238.8C799.8 238.2 799.6 237.3 799 236.9C798.3 237.2 797.8 238.2 798.1 238.9C798.2 239.1 798.3 239.4 798.5 239.5C799.1 239.9 799.9 239.4 800.4 238.8C800.9 238.2 801.2 237.5 802 237.3C802.4 238.3 804 238.3 804.5 237.4C804.8 237.8 805.2 238.3 805.5 238.7C805.7 238.5 805.8 238.3 806 238.1C806.4 238.3 806.7 238.4 807.1 238.6C807.3 238.3 807.5 238 807.6 237.7C807.8 238.2 808.4 238.4 808.9 238.3C809.4 238.1 809.7 237.6 809.6 237.1C808.4 237.2 807.6 238.7 808.3 239.7C809.8 239.1 810.8 237.4 810.8 235.8C810.8 234.2 810.1 232.6 809.1 231.3C808.8 233.5 809.1 235.9 810.1 237.9" stroke="black" stroke-width="0.25" stroke-miterlimit="10" stroke-linecap="round" stroke-linejoin="round"/>
<path d="M793.6 245.899C793.1 245.299 793.6 244.299 794.3 244.199C794.9 244.899 795.2 245.799 795.3 246.699C795.3 246.099 795.6 245.499 796 245.099C796.4 245.499 796.7 245.999 796.8 246.599C797 245.899 797.2 245.299 797.3 244.599C797.6 244.999 797.9 245.399 798.3 245.699C798.7 245.899 799.3 245.999 799.7 245.599C800 245.299 799.9 244.499 799.4 244.399C799 244.799 798.9 245.499 799.1 246.099C799.2 245.599 799.6 245.299 800.1 245.299C800.3 245.299 800.6 245.399 800.8 245.499C801.7 245.699 802.8 244.799 802.6 243.799C804.6 243.099 806.9 243.199 808.8 244.099C809 244.199 809.1 244.299 809.3 244.199C809.8 244.099 809.8 243.399 809.6 242.899C808.8 243.399 809.2 244.799 810.1 244.999C811 245.199 811.9 244.299 811.8 243.399C811.8 243.899 812.2 244.499 812.7 244.499C813.2 244.499 813.8 243.999 813.7 243.499C814.2 244.599 816.2 244.599 816.7 243.499C815.8 243.499 814.9 243.999 814.4 244.699" stroke="black" stroke-width="0.25" stroke-miterlimit="10" stroke-linecap="round" stroke-linejoin="round"/>
<path d="M752 223.2C748.2 227 742.4 228.8 737.1 227.7C735.1 227.3 733 226.4 731.8 224.7C731.7 224.6 731.5 224.4 731.4 224.4C731.3 224.4 731.4 224.8 731.5 224.7" stroke="black" stroke-width="0.25" stroke-miterlimit="10" stroke-linecap="round" stroke-linejoin="round"/>
<path d="M716.4 214.8C716.4 214.4 716.3 214.1 716.3 213.7C715.2 214 714.4 215.2 714.5 216.3C714.5 216.5 714.6 216.7 714.7 216.8C715.1 217.2 715.8 216.8 716 216.3C716.3 215.8 716.6 215.2 717.1 215.2C717.2 215.9 717.3 216.5 717.5 217.2C717.9 216.7 718.2 216.2 718.6 215.6C718.7 216.2 718.9 216.8 719 217.4C719.4 217 719.8 216.7 720.2 216.3C720.4 217 721.2 217.5 721.8 217.3C722.5 217.1 723 216.4 722.8 215.7C722.8 216 722.7 216.3 722.7 216.6C723.9 217 725.3 216 725.4 214.7C724.6 214.9 724 215.7 724 216.5C724 216.7 724 216.8 724.2 216.9C724.3 217 724.5 217 724.7 217C725.7 216.9 726.6 216.3 727.1 215.5C727.3 216.1 727.6 216.6 727.9 217.1C728.3 216.2 729.1 215.4 730.1 215.1C730.3 215.6 730.6 216 731.1 216.3C731.3 215.6 732.1 215.3 732.8 215.2C733.5 215.1 734.2 215.2 734.9 215C736.1 214.6 736.7 213.1 736.2 211.9C735.1 211.8 734.5 213.1 734.2 214.1C734.1 214.4 734 214.8 734.1 215.1C734.2 215.9 735.1 216.3 735.9 216.2C736.7 216.1 737.3 215.6 737.8 215C738.6 214.2 739.2 213.2 739.4 212C739.6 210.9 739.3 209.6 738.5 208.8C738 210 737.7 211.3 737.6 212.6" stroke="black" stroke-width="0.25" stroke-miterlimit="10" stroke-linecap="round" stroke-linejoin="round"/>
<path d="M715.9 221.5C716.7 223.6 717.2 225.8 717.4 228C716.2 226.3 715.9 223.9 716.6 221.9C717.5 221.6 718.6 222.4 718.8 223.4C719 224.4 718.3 225.4 717.5 225.9C717.3 225.3 718 224.8 718.5 224.9C719.1 224.9 719.6 225.3 720.1 225.5C720.6 225.7 721.2 226 721.7 225.7C722.2 225.4 722.3 224.5 721.8 224.4C720.8 224.7 720.2 226.1 720.7 227C721.1 226.3 721.5 225.5 722.3 225.1C723.1 224.8 724.2 225.4 724 226.2C725.1 225.3 725.7 223.8 725.4 222.4C725.3 223 725.4 223.7 725.7 224.2C726.3 224.3 727 224 727.2 223.4C727.4 222.8 727.2 222.1 726.7 221.8C726.4 222.7 726.7 223.8 727.4 224.5C728.1 223.2 730.2 223.1 731.1 224.2C731.2 223.5 731.9 223.1 732.6 223C733.3 222.9 734 222.9 734.6 222.7C736.4 222 736.6 219.4 735.8 217.7C735.6 218.8 735.6 220.2 736.5 221C737.4 221.8 739.2 221.2 739 220C738.7 220.6 739.5 221.2 740.2 221.1C740.9 221 741.4 220.5 742 220.3C742.9 219.9 744.1 220.2 744.8 220.9C745 221.1 745.1 221.4 744.9 221.6C744.7 221.8 744.4 221.3 744.7 221.3" stroke="black" stroke-width="0.25" stroke-miterlimit="10" stroke-linecap="round" stroke-linejoin="round"/>
<path d="M765.9 223.8C766.9 228.6 767.9 233.6 766.6 238.3C765.9 240.8 764.6 243.1 763.3 245.4C763.2 245.5 763.1 245.7 763 245.6C762.9 245.6 763 245.3 763.1 245.4" stroke="black" stroke-width="0.25" stroke-miterlimit="10" stroke-linecap="round" stroke-linejoin="round"/>
<path d="M744.1 245.1C743.7 245.1 743.7 245.6 743.7 246C744 248.2 744.2 250.3 744.5 252.5C743.4 252.1 742.2 251.7 741.1 251.2C742.8 250.7 744.4 249.6 745.5 248.3C745.7 248.1 745.9 247.8 745.9 247.5C745.9 247.2 745.8 246.8 745.5 246.7C745.3 247.3 745.1 247.9 745.2 248.5C745.3 249.1 745.5 249.8 746 250.1C746.5 250.4 747.3 250.2 747.6 249.7C747.8 250.3 748 250.9 748.6 251.2C749.1 251.5 750 251.3 750 250.7C750 250.5 749.9 250.3 749.8 250.1C749.4 249.6 748.4 249.4 748.2 250C748.3 250.1 748.4 250.3 748.5 250.4C749.2 250.1 749.9 249.7 750.5 249.2C750.7 249.7 751 250.1 751.2 250.6C751.5 250.1 751.7 249.7 752 249.2C752.3 249.5 752.7 249.9 753 250.2C753.2 249.9 753.3 249.5 753.3 249.1C753.8 249.4 754.3 249.7 754.9 250C755.3 249.8 755.4 249.4 755.3 249C755.2 248.6 754.7 248.5 754.3 248.6C754.6 248.6 754.8 248.6 755.1 248.6" stroke="black" stroke-width="0.25" stroke-miterlimit="10" stroke-linecap="round" stroke-linejoin="round"/>
<path d="M756.7 246.599C756.2 246.399 755.9 245.899 756 245.399C756.1 244.899 756.6 244.499 757.1 244.599C757.5 245.499 757.4 246.699 756.9 247.599C756.8 247.799 756.7 247.899 756.7 248.099C756.8 248.499 757.4 248.699 757.2 248.999" stroke="black" stroke-width="0.25" stroke-miterlimit="10" stroke-linecap="round" stroke-linejoin="round"/>
<path d="M758.2 251.5C757.9 252.1 758.7 252.9 759.3 252.6C759.9 252.3 759.9 251.3 759.2 251C758.6 250.7 757.8 251.4 757.9 252.1" stroke="black" stroke-width="0.25" stroke-miterlimit="10" stroke-linecap="round" stroke-linejoin="round"/>
<path d="M774.5 330.101L747.4 325.801L757.1 256.601L787.3 262.501L774.5 330.101Z" fill="#F2F2F3" stroke="black" stroke-width="0.25" stroke-miterlimit="10" stroke-linecap="round" stroke-linejoin="round"/>
<path d="M785.5 327.1L758.2 329.3L751.4 259.8L782.1 258.4L785.5 327.1Z" fill="white" stroke="black" stroke-width="0.25" stroke-miterlimit="10" stroke-linecap="round" stroke-linejoin="round"/>
<path d="M767.4 266.2C768.781 266.2 769.9 265.081 769.9 263.7C769.9 262.319 768.781 261.2 767.4 261.2C766.019 261.2 764.9 262.319 764.9 263.7C764.9 265.081 766.019 266.2 767.4 266.2Z" fill="#EEDBEB" stroke="black" stroke-width="0.5" stroke-miterlimit="10" stroke-linecap="round" stroke-linejoin="round"/>
<path d="M760.1 277C760.2 276.6 759.8 276.2 759.4 276.2C759.2 276.7 759.2 277.3 759.3 277.8C759.4 277.9 759.6 277.9 759.7 278C759.9 277.7 760.1 277.4 760.2 277.1C760.3 277.3 760.5 277.5 760.6 277.7C761.1 277.5 761.6 277.1 761.9 276.6C762 277 762.2 277.3 762.6 277.5C762.8 277.3 762.9 277 763.1 276.8C763.1 277.1 763.4 277.4 763.7 277.4C764 277.4 764.3 277.1 764.3 276.8C764.6 277.1 765.3 277.1 765.6 276.7C765.9 276.3 765.9 275.7 765.5 275.4C764.9 275.7 765.1 276.8 765.8 276.9C766.5 277 767.1 276.4 767.3 275.8C767.3 276.2 767.7 276.6 768.1 276.6C768.5 276.6 768.9 276.2 768.9 275.8C769.3 276 769.6 276.2 769.9 276.5C769.9 276.1 770.3 275.9 770.7 275.9C771.1 275.9 771.4 276.1 771.7 276.1C772.4 276.2 773.2 275.9 773.6 275.3C774 275.8 774.8 275.9 775.4 275.7C776 275.4 776.4 274.8 776.6 274.2C776.1 274.2 775.6 274.4 775.3 274.8" stroke="black" stroke-width="0.25" stroke-miterlimit="10" stroke-linecap="round" stroke-linejoin="round"/>
<path d="M760.2 284.3C760.4 283.8 760.2 283.1 759.7 282.8C759.1 283.5 759.1 284.5 759.6 285.2C760.2 284.8 760.7 284.4 761.3 284C761.4 284.5 761.6 284.9 761.9 285.3C762.2 284.8 762.5 284.2 762.8 283.7C763.1 284 763.5 284.3 763.8 284.6C763.6 284 764.4 283.6 765.1 283.6C765.7 283.6 766.6 283.4 766.6 282.8C766.6 283.2 766.9 283.7 767.4 283.7C767.9 283.7 768.3 283.3 768.3 282.9C768.3 283.4 768.9 283.7 769.3 283.5C769.7 283.3 770 282.9 770.1 282.4C770.2 282.7 770.3 283 770.4 283.3C771.4 283.2 772.4 282.6 772.9 281.7C773.7 282.8 774.6 284 775 285.3C775.5 286.6 775.5 288.2 774.7 289.4C774.1 287.3 774.3 285.1 775.1 283.1C775.3 282.7 775.6 282.2 776 282C776.4 281.8 777.1 282 777.1 282.5" stroke="black" stroke-width="0.25" stroke-miterlimit="10" stroke-linecap="round" stroke-linejoin="round"/>
<path d="M762.7 292.001C762.6 291.701 762.5 291.301 762.2 291.101C761.9 290.901 761.5 290.801 761.3 291.101C761.2 291.201 761.2 291.401 761.2 291.501C761.2 291.801 761.2 292.101 761.2 292.301C761.3 292.701 761.4 293.101 761.8 293.201C762.1 293.201 762.4 292.901 762.5 292.601C762.6 292.301 762.7 291.901 762.9 291.701C763.1 292.201 763.5 292.701 764 292.901C764.2 292.401 764.5 292.001 764.9 291.601C765.2 291.901 765.5 292.301 765.9 292.601C766.3 292.201 766.9 291.701 767.4 291.901C767.6 292.001 767.9 292.201 768.1 292.101C768.3 292.001 768.4 291.801 768.6 291.701C768.8 291.601 769 291.701 769.2 291.701C770.1 291.901 771 291.401 771.4 290.601C771.6 291.201 772.4 291.501 773 291.401C773.6 291.301 774.3 291.101 774.9 291.401C775.3 291.501 775.7 291.901 776.1 291.701C776.3 291.601 776.5 291.401 776.6 291.201C777 290.601 777.3 289.801 777.4 289.101" stroke="black" stroke-width="0.25" stroke-miterlimit="10" stroke-linecap="round" stroke-linejoin="round"/>
<path d="M762.2 304.701C762.2 304.801 762.2 305.001 762.3 305.001C762.4 305.101 762.6 305.101 762.8 305.001C764.4 304.501 766.1 304.301 767.7 304.301C767.4 302.301 766.9 300.201 766.3 298.301C766.1 297.601 762 298.601 761.7 299.401C761.1 300.601 762.1 303.401 762.2 304.701Z" stroke="black" stroke-width="0.25" stroke-miterlimit="10" stroke-linecap="round" stroke-linejoin="round"/>
<path d="M763.9 313.1C763.9 313.2 763.9 313.4 764 313.4C764.1 313.5 764.3 313.5 764.5 313.4C766.1 312.9 767.8 312.7 769.4 312.7C769.1 310.7 768.6 308.6 768 306.7C767.8 306 763.7 307 763.4 307.8C762.8 309 763.7 311.8 763.9 313.1Z" stroke="black" stroke-width="0.25" stroke-miterlimit="10" stroke-linecap="round" stroke-linejoin="round"/>
<path d="M765.8 321.501C765.8 321.601 765.8 321.801 765.9 321.801C766 321.901 766.2 321.901 766.4 321.801C768 321.301 769.7 321.101 771.3 321.101C771 319.101 770.5 317.001 769.9 315.101C769.7 314.401 765.6 315.401 765.3 316.201C764.7 317.401 765.6 320.201 765.8 321.501Z" stroke="black" stroke-width="0.25" stroke-miterlimit="10" stroke-linecap="round" stroke-linejoin="round"/>
<path d="M771 301.4C771 301.1 771.1 300.7 770.9 300.4C770.7 300.1 770.3 300 770.1 300.2C770 300.3 770 300.5 770 300.6C770 301 770 301.4 770.1 301.8C770.3 302.2 770.7 302.4 771.1 302.3C771.7 302.1 771.8 301.3 772.3 301C772.7 300.8 773.3 301 773.7 301.3C773.6 301 773.9 300.7 774.1 300.6C774.3 300.5 774.7 300.6 775 300.6C775.8 300.7 776.6 300.8 777.3 300.6C778 300.4 778.8 299.9 779 299.2C778.8 299.1 778.6 299 778.5 298.9C778.3 300.3 778.6 301.7 779.5 302.8" stroke="black" stroke-width="0.25" stroke-miterlimit="10" stroke-linecap="round" stroke-linejoin="round"/>
<path d="M772.5 309.3C772.5 308.9 772 308.6 771.6 308.7C771.2 308.8 771 309.3 771.1 309.8C771.2 310.1 771.3 310.4 771.5 310.6C771.8 310.5 772.1 310.2 772.2 309.9C772.3 309.6 772.5 309.3 772.8 309.1C773.1 308.9 773.6 309.2 773.5 309.5C773.9 309.3 774.4 309.4 774.5 309.8C775 309.7 775.2 308.9 775.6 309.1C775.7 309.2 775.7 309.3 775.8 309.3C776 309.4 776.2 309.2 776.3 309C776.4 308.8 776.5 308.5 776.7 308.5C776.9 308.8 777.2 309.1 777.5 309.3C777.7 308.9 778 308.6 778.4 308.4C779.2 309.1 779.8 310.1 779.8 311.2C779.9 312 779.5 313 778.8 313.2C778.4 311.1 778.9 308.8 780.2 307.2" stroke="black" stroke-width="0.25" stroke-miterlimit="10" stroke-linecap="round" stroke-linejoin="round"/>
<path d="M772.2 317.301C772.1 317.001 772 316.801 772.1 316.501C772.2 316.201 772.5 316.101 772.7 316.201C772.8 316.301 772.9 316.401 772.9 316.501C773.1 316.901 773.2 317.401 773.2 317.901C772.9 317.601 773.2 317.001 773.6 316.801C774 316.701 774.5 317.001 774.7 317.401C774.9 317.801 775 318.301 775 318.701C775 319.701 774.7 320.901 773.8 321.301C773.2 320.001 773.3 318.301 774.2 317.101C774.5 316.701 775 316.401 775.3 316.701C775.5 317.301 775.6 317.901 775.5 318.501C775.4 318.101 775.6 317.701 776 317.601C776.4 317.501 776.8 317.801 776.8 318.201C777 318.101 777.1 317.801 777.2 317.601C777.4 317.101 778.1 317.101 778.6 317.201C779.6 317.301 780.7 317.301 781.6 316.701" stroke="black" stroke-width="0.25" stroke-miterlimit="10" stroke-linecap="round" stroke-linejoin="round"/>
<path d="M680.3 322.2C680.3 322.2 716.9 323 722.5 318.6C728.1 314.2 725.9 388.2 722.5 391.2C719.1 394.2 674.1 394.4 671.3 391.2C668.5 388 687 334 680.3 322.2Z" fill="white" stroke="black" stroke-width="0.25" stroke-miterlimit="10" stroke-linecap="round" stroke-linejoin="round"/>
<path d="M700.9 329.1C702.281 329.1 703.4 327.98 703.4 326.6C703.4 325.219 702.281 324.1 700.9 324.1C699.519 324.1 698.4 325.219 698.4 326.6C698.4 327.98 699.519 329.1 700.9 329.1Z" fill="#EEDBEB" stroke="black" stroke-width="0.5" stroke-miterlimit="10" stroke-linecap="round" stroke-linejoin="round"/>
<path d="M686.6 341.599C687 340.999 686.7 340.099 686.1 339.899C685.1 340.799 684.5 342.099 684.6 343.499C685.8 343.299 686.8 342.299 687 341.099C688.5 346.399 689.6 352.299 687 357.099C685.8 356.699 685 355.599 684.5 354.399C683.5 352.199 683.2 349.599 683.7 347.299C684 345.799 684.7 344.299 686 343.399C687.2 342.499 689.1 342.399 690.2 343.499C691.3 344.599 691 346.799 689.6 347.299C688.7 346.999 688.5 345.799 688.9 344.999C689.3 344.199 690.2 343.799 691.1 343.599C691.6 344.099 692 344.799 692.2 345.599C692.6 344.899 693.1 344.199 693.7 343.499C694 344.099 694.4 344.799 694.7 345.399C695 344.999 695.4 344.499 695.7 344.099C696.1 344.899 697.4 344.899 697.8 344.099C698.5 345.199 700.3 344.899 701 343.799C701.7 342.699 701.6 341.299 701.5 340.099C700.7 340.699 700.3 341.699 700.2 342.699C700.2 343.599 700.5 344.699 701.3 344.999C702.1 345.399 703.3 344.499 703 343.699C703.8 344.299 704.5 344.799 705.3 345.399C705.6 344.999 705.8 344.499 706.1 344.099C706 344.799 707.1 345.099 707.7 344.899C708.4 344.699 709 344.099 709.7 344.199C710.1 344.199 710.5 344.499 710.9 344.599C712.2 344.999 713.7 344.399 714.3 343.199C713.7 342.899 712.9 342.799 712.2 343.099" stroke="black" stroke-width="0.25" stroke-miterlimit="10" stroke-linecap="round" stroke-linejoin="round"/>
<path d="M682.2 364.2C681.7 363.3 682.3 362.2 683.2 361.6C684.1 361 685.1 360.9 686 360.4C686.3 360.2 686.6 360 686.7 359.7C686.8 359.4 686.4 359 686.1 359.1C685.6 360.4 685.3 361.7 685.3 363C685.3 364.4 685.5 365.9 685.3 367.3C685.1 368.7 684.5 370.2 683.2 370.9C681.9 371.6 680 370.9 679.8 369.5C681.8 369.8 683.9 368.8 685 367.1C685.5 367.6 685.8 368.3 685.9 369C685.8 368.2 686.1 367.3 686.8 366.9C687.5 366.5 688.6 367.3 688.2 368C688.6 367.5 689.1 367 689.5 366.4C689.9 366.9 690.3 367.3 690.7 367.8C691.8 366.7 692.3 365 692 363.5C690.6 364.8 690.2 367 691 368.7C692.2 368.5 693.3 367.8 693.9 366.7C694.1 367.3 694.3 368 694.6 368.6C694.7 368.2 695 367.8 695.3 367.7C695.7 367.6 696.2 367.9 696 368.3C696.1 367.2 697.9 366.7 698.5 367.7C699 366.9 699.2 366 699 365.1C698.3 365.4 698.3 366.7 699.1 366.9C699.9 366.3 700.4 365.3 700.5 364.2C700.1 364.8 700.1 365.7 700.5 366.3C700.6 365.6 701.6 365.6 702.2 365.9C702.8 366.2 703.6 366.5 704.1 366.1C704.6 366.9 705.9 367.1 706.8 366.6C707.7 366.1 708.3 365.3 708.9 364.5C708.8 363.4 707.7 362.5 706.6 362.6C705.5 362.7 704.6 363.9 704.8 365" stroke="black" stroke-width="0.25" stroke-miterlimit="10" stroke-linecap="round" stroke-linejoin="round"/>
<path d="M682.5 378.6C682.8 381.4 683 384.3 683 387.2C683 388.4 682.8 389.8 681.7 390.2C679.7 389.8 678.1 387.8 678.1 385.7C679.9 386.1 681.8 386.1 683.4 385.2C685 384.3 685.9 382.3 685.2 380.6C684.9 380.6 684.6 380.6 684.3 380.6C683.5 383.1 683.6 385.8 684.7 388.2C685.1 387 685.4 385.7 685.8 384.5C686.6 385.5 687.1 386.7 687.5 387.9C687.8 387 688.3 386.2 689 385.5C689.6 387.1 691.7 388 693.3 387.4C693.3 386.4 692.3 385.5 691.3 385.6C690.6 386.1 690.9 387.5 691.8 387.5C692.8 387.5 693.5 386.1 694.5 386.3C695.2 386.4 695.5 387.2 695.6 387.9C696.1 387.2 696.5 386.5 697 385.9C697.1 386.7 698.4 387.1 698.9 386.5C699.3 386.8 699.6 387 700 387.3C700.4 386.2 702.2 386.1 702.7 387.1C703.2 386.7 703.6 386.2 703.9 385.7C704.4 386 704.8 386.3 705.3 386.7C706.1 386.4 706.5 385.5 706.3 384.7C705.9 384.9 705.5 385.2 705.2 385.4" stroke="black" stroke-width="0.25" stroke-miterlimit="10" stroke-linecap="round" stroke-linejoin="round"/>
<path d="M715.2 338.899C715.6 339.699 716 340.399 716.5 341.199C718.4 339.399 720.3 337.699 722.1 335.899C722.3 336.099 722.3 336.399 722.2 336.599" stroke="black" stroke-width="0.25" stroke-miterlimit="10" stroke-linecap="round" stroke-linejoin="round"/>
<path d="M711.2 360.599C711.1 360.399 711.1 360.299 711 360.099C711.6 361.099 712.2 362.199 712.9 363.199C713.7 362.899 714.2 362.299 714.7 361.699C716.1 359.999 717.5 358.199 719 356.499C719.1 356.699 719.2 356.899 719.1 357.099" stroke="black" stroke-width="0.25" stroke-miterlimit="10" stroke-linecap="round" stroke-linejoin="round"/>
<path d="M709.3 379.2C711.1 379.6 711.7 382.5 713.5 382.5C714.6 382.5 715.3 381.3 715.5 380.2C715.7 379.4 715.7 378.7 715.5 377.9C715.5 377.6 715.3 377.3 715.1 377.3C714.9 377.3 714.7 377.5 714.6 377.6C712.9 380 711.6 382.7 710.7 385.5" stroke="black" stroke-width="0.25" stroke-miterlimit="10" stroke-linecap="round" stroke-linejoin="round"/>
<path d="M698.11 236.101L646.723 227.515L634.528 300.501L685.915 309.087L698.11 236.101Z" fill="white" stroke="black" stroke-width="0.25" stroke-miterlimit="10" stroke-linecap="round" stroke-linejoin="round"/>
<path d="M671.7 238.9C673.081 238.9 674.2 237.781 674.2 236.4C674.2 235.02 673.081 233.9 671.7 233.9C670.319 233.9 669.2 235.02 669.2 236.4C669.2 237.781 670.319 238.9 671.7 238.9Z" fill="#EEDBEB" stroke="black" stroke-width="0.5" stroke-miterlimit="10" stroke-linecap="round" stroke-linejoin="round"/>
<path d="M652.2 246.2C652.5 245.6 652 244.7 651.3 244.7C650.4 245.5 649.8 246.6 649.8 247.8C649.8 248.3 649.9 248.9 650.4 249C651.3 249.2 651.5 247.4 652.4 247.3C652.7 247.9 652.9 248.5 653 249.2C653.6 248.7 654.2 248.2 655 248C654.9 248.6 655.1 249.4 655.6 249.7C656.1 250 657.1 249.7 657 249.1C657.8 250.1 659.4 250.4 660.5 249.7C661.6 249 662 247.4 661.4 246.3C660.4 246.6 659.5 247.3 659.2 248.2C658.9 249.2 659.5 250.4 660.5 250.5C661.9 250.6 662.7 248.7 664 248.2C664.3 249.3 665.2 250.7 666.2 250.1C666.5 249.9 666.7 249.6 667 249.6C667.4 249.5 667.7 250 668 250.2C668.8 250.9 670.3 250.5 670.6 249.4C670.7 250.6 672.6 251.2 673.3 250.2C672.7 251.3 673.7 252.7 674.9 252.9C676.1 253.1 677.3 252.2 677.9 251.2C678.5 250.1 678.5 248.3 677.2 248C675.9 248.3 675.4 250.1 676.2 251.2C676.9 252.3 678.4 252.6 679.7 252.4C681 252.1 682.1 251.4 683.2 250.7C685 249.5 686.8 248 687.1 245.8C684.7 245.7 682.2 246.2 680 247.3" stroke="black" stroke-width="0.25" stroke-miterlimit="10" stroke-linecap="round" stroke-linejoin="round"/>
<path d="M655.3 260.401C655.1 259.101 653.8 258.001 652.5 258.001C651.1 258.001 649.9 259.101 649.7 260.401C649.6 261.001 649.7 261.601 650.2 262.001C650.7 262.401 651.5 262.301 652.1 261.901C652.6 261.501 653 260.901 653.3 260.301C653.7 261.001 654.1 261.801 654.6 262.501C655 261.701 655.6 261.101 656.4 260.601C656.8 261.301 657.5 261.601 658.2 261.901C658.7 262.101 659.3 262.301 659.8 262.501C660.9 262.901 662.1 263.401 663.2 263.101C664.3 262.801 665.2 261.401 664.6 260.501C664 259.701 662.7 259.901 662.3 260.701C661.9 261.501 662.3 262.701 663.2 263.001C664.1 263.401 665.1 263.001 665.7 262.301C666.2 262.901 667.1 263.201 667.9 262.901C668.4 262.701 668.8 262.401 669.3 262.301C670.5 262.001 671.4 263.201 672.1 264.201C672.8 263.701 673.6 263.101 674.3 262.601C676 264.301 678.7 264.901 681 264.101C679.8 264.201 678.6 264.701 677.7 265.501" stroke="black" stroke-width="0.25" stroke-miterlimit="10" stroke-linecap="round" stroke-linejoin="round"/>
<path d="M654.5 280.201C654.9 281.901 656.1 283.401 657.5 284.401C658.9 285.401 660.6 286.101 662.2 286.701C663 287.001 663.8 287.301 664.6 287.201C665.3 287.101 665.9 286.801 666.4 286.501C668.5 285.201 670.3 283.301 671 281.001C674.4 269.901 652.2 268.801 654.5 280.201Z" stroke="black" stroke-width="0.25" stroke-miterlimit="10" stroke-linecap="round" stroke-linejoin="round"/>
<path d="M661.1 293.8C662.1 292.9 663.5 293.1 664.8 293.3C668 293.9 671.1 294.4 674.3 295C674.8 290.8 675.1 286.5 675.1 282.2C675.1 281.6 663.3 279 662.3 279.9C660.4 281.7 661.2 291.2 661.1 293.8Z" stroke="black" stroke-width="0.25" stroke-miterlimit="10" stroke-linecap="round" stroke-linejoin="round"/>
<path d="M693.2 231.4H641.1V305.4H693.2V231.4Z" fill="white" stroke="black" stroke-width="0.25" stroke-miterlimit="10" stroke-linecap="round" stroke-linejoin="round"/>
<path d="M667.1 238.5C668.481 238.5 669.6 237.381 669.6 236C669.6 234.619 668.481 233.5 667.1 233.5C665.719 233.5 664.6 234.619 664.6 236C664.6 237.381 665.719 238.5 667.1 238.5Z" fill="#EEDBEB" stroke="black" stroke-width="0.5" stroke-miterlimit="10" stroke-linecap="round" stroke-linejoin="round"/>
<path d="M649.5 249C649.7 248.3 649 247.6 648.4 247.7C647.6 248.6 647.3 249.9 647.4 251.1C647.4 251.6 647.7 252.1 648.2 252.2C649.1 252.3 649 250.4 649.9 250.2C650.3 250.7 650.6 251.3 650.8 252C651.3 251.4 651.9 250.9 652.5 250.5C652.5 251.1 652.8 251.8 653.4 252.1C654 252.4 654.8 251.9 654.7 251.2C655.7 252.1 657.3 252.1 658.2 251.2C659.1 250.3 659.3 248.7 658.5 247.7C657.6 248.2 656.8 249 656.7 250C656.6 251 657.4 252.1 658.4 252C659.8 251.9 660.2 249.9 661.5 249.2C661.9 250.2 663.1 251.5 664 250.7C664.2 250.5 664.4 250.1 664.7 250C665.1 249.9 665.4 250.2 665.8 250.5C666.7 251.1 668.1 250.4 668.2 249.3C668.5 250.5 670.5 250.7 671 249.6C670.6 250.8 671.8 252 673 252C674.2 252 675.2 250.9 675.7 249.8C676.2 248.6 675.8 246.9 674.5 246.8C673.3 247.3 673.1 249.1 674 250.1C674.9 251.1 676.4 251.2 677.6 250.7C678.8 250.2 679.8 249.3 680.7 248.4C682.2 246.9 683.8 245.1 683.8 243C681.4 243.3 679 244.2 677 245.6" stroke="black" stroke-width="0.25" stroke-miterlimit="10" stroke-linecap="round" stroke-linejoin="round"/>
<path d="M654.9 262.4C654.5 261.1 653.1 260.2 651.7 260.5C650.4 260.7 649.3 262 649.3 263.4C649.3 264 649.5 264.6 650 264.9C650.6 265.2 651.3 265 651.8 264.5C652.3 264 652.5 263.4 652.8 262.8C653.3 263.5 653.9 264.1 654.4 264.8C654.7 264 655.2 263.2 655.8 262.6C656.3 263.2 657.1 263.4 657.8 263.6C658.4 263.7 658.9 263.9 659.5 264C660.6 264.3 661.9 264.5 663 264C664.1 263.5 664.7 262 663.9 261.2C663.2 260.5 661.9 260.9 661.6 261.8C661.3 262.7 662 263.7 662.9 263.9C663.8 264.1 664.8 263.6 665.2 262.8C665.8 263.4 666.8 263.5 667.5 263.1C667.9 262.9 668.3 262.4 668.8 262.2C669.9 261.8 671.1 262.7 671.9 263.6C672.5 262.9 673.2 262.3 673.8 261.6C675.8 263 678.5 263.1 680.6 262C679.4 262.3 678.4 263 677.6 264" stroke="black" stroke-width="0.25" stroke-miterlimit="10" stroke-linecap="round" stroke-linejoin="round"/>
<path d="M657.4 282.1C658 283.7 659.4 285 661 285.7C662.6 286.5 664.3 286.8 666 287.2C666.8 287.4 667.6 287.5 668.4 287.3C669 287.1 669.6 286.7 670.1 286.3C672 284.7 673.4 282.5 673.8 280.1C675.2 268.6 653.2 271.2 657.4 282.1Z" stroke="black" stroke-width="0.25" stroke-miterlimit="10" stroke-linecap="round" stroke-linejoin="round"/>
<path d="M666.1 294.501C666.9 293.501 668.4 293.401 669.7 293.401C672.9 293.401 676.1 293.401 679.3 293.501C679.1 289.201 678.7 285.001 678 280.701C677.9 280.101 665.8 279.501 665 280.501C663.4 282.601 665.7 291.901 666.1 294.501Z" stroke="black" stroke-width="0.25" stroke-miterlimit="10" stroke-linecap="round" stroke-linejoin="round"/>
<path d="M794.6 495.8H226.6C226.6 495.8 226.5 495.8 226.5 495.7V477.1C226.5 474.1 228.9 471.8 231.8 471.8H789.2C792.2 471.8 794.5 474.2 794.5 477.1V495.8H794.6Z" fill="#2A2A2A" stroke="black" stroke-miterlimit="10" stroke-linecap="round" stroke-linejoin="round"/>
<path d="M764.2 495.8H266.1V530.9H764.2V495.8Z" fill="#151515" stroke="black" stroke-miterlimit="10" stroke-linecap="round" stroke-linejoin="round"/>
<path d="M411.6 496.1H257.2V697.4H411.6V496.1Z" fill="#2A2A2A" stroke="black" stroke-miterlimit="10" stroke-linecap="round" stroke-linejoin="round"/>
<path d="M405.3 502H263.4V691.6H405.3V502Z" fill="#565656" stroke="black" stroke-miterlimit="10" stroke-linecap="round" stroke-linejoin="round"/>
<path d="M400.2 568.6H268.6V624.9H400.2V568.6Z" fill="#EAEAEA" stroke="black" stroke-miterlimit="10"/>
<path d="M348.7 578.4H320.1C319.7 578.4 319.4 578.1 319.4 577.7V575.7C319.4 575.3 319.7 575 320.1 575H348.7C349.1 575 349.4 575.3 349.4 575.7V577.7C349.4 578.1 349.1 578.4 348.7 578.4Z" fill="#565656" stroke="black" stroke-miterlimit="10" stroke-linecap="round" stroke-linejoin="round"/>
<path d="M334.4 586.299C335.339 586.299 336.1 585.538 336.1 584.599C336.1 583.66 335.339 582.899 334.4 582.899C333.461 582.899 332.7 583.66 332.7 584.599C332.7 585.538 333.461 586.299 334.4 586.299Z" fill="#F4F4F5" stroke="black" stroke-miterlimit="10"/>
<path d="M400.2 630.899H268.6V687.199H400.2V630.899Z" fill="#EAEAEA" stroke="black" stroke-miterlimit="10"/>
<path d="M348.7 640.599H320.1C319.7 640.599 319.4 640.299 319.4 639.899V637.899C319.4 637.499 319.7 637.199 320.1 637.199H348.7C349.1 637.199 349.4 637.499 349.4 637.899V639.899C349.4 640.299 349.1 640.599 348.7 640.599Z" fill="#565656" stroke="black" stroke-miterlimit="10" stroke-linecap="round" stroke-linejoin="round"/>
<path d="M334.4 648.5C335.339 648.5 336.1 647.739 336.1 646.8C336.1 645.861 335.339 645.1 334.4 645.1C333.461 645.1 332.7 645.861 332.7 646.8C332.7 647.739 333.461 648.5 334.4 648.5Z" fill="#F4F4F5" stroke="black" stroke-miterlimit="10"/>
<path d="M400.2 506.3H268.6V562.6H400.2V506.3Z" fill="#EAEAEA" stroke="black" stroke-miterlimit="10"/>
<path d="M348.7 516.1H320.1C319.7 516.1 319.4 515.8 319.4 515.4V513.4C319.4 513 319.7 512.7 320.1 512.7H348.7C349.1 512.7 349.4 513 349.4 513.4V515.4C349.4 515.8 349.1 516.1 348.7 516.1Z" fill="#565656" stroke="black" stroke-miterlimit="10" stroke-linecap="round" stroke-linejoin="round"/>
<path d="M334.4 524C335.339 524 336.1 523.239 336.1 522.3C336.1 521.361 335.339 520.6 334.4 520.6C333.461 520.6 332.7 521.361 332.7 522.3C332.7 523.239 333.461 524 334.4 524Z" fill="#F4F4F5" stroke="black" stroke-miterlimit="10"/>
<path d="M764.2 496.1H636.6V697.4H764.2V496.1Z" fill="#2A2A2A" stroke="black" stroke-miterlimit="10" stroke-linecap="round" stroke-linejoin="round"/>
<path d="M760.5 501.899H640.2V691.699H760.5V501.899Z" fill="#565656" stroke="black" stroke-miterlimit="10" stroke-linecap="round" stroke-linejoin="round"/>
<path d="M757.4 507H643.5V686.7H757.4V507Z" fill="#EAEAEA" stroke="black" stroke-miterlimit="10"/>
<path d="M653.8 605.3V576.7C653.8 576.3 654.1 576 654.5 576H656.5C656.9 576 657.2 576.3 657.2 576.7V605.3C657.2 605.7 656.9 606 656.5 606H654.5C654.1 606 653.8 605.7 653.8 605.3Z" fill="#565656" stroke="black" stroke-miterlimit="10" stroke-linecap="round" stroke-linejoin="round"/>
<path d="M655.5 614.1C656.439 614.1 657.2 613.339 657.2 612.4C657.2 611.461 656.439 610.7 655.5 610.7C654.561 610.7 653.8 611.461 653.8 612.4C653.8 613.339 654.561 614.1 655.5 614.1Z" fill="#F4F4F5" stroke="black" stroke-miterlimit="10"/>
<path d="M613.5 437.199H407.6C400.6 437.199 394.9 431.499 394.9 424.499V281.099C394.9 274.099 400.6 268.399 407.6 268.399H613.4C620.4 268.399 626.1 274.099 626.1 281.099V424.499C626.1 431.499 620.5 437.199 613.5 437.199Z" fill="#3A3A3A" stroke="black" stroke-miterlimit="10"/>
<path d="M484.1 432.999C484.1 432.999 488.6 454.899 480 462.899C471.4 470.999 541.9 467.499 541.9 467.499C541.9 467.499 528 451.399 531.3 432.999C534.6 414.599 484.1 432.999 484.1 432.999Z" fill="#E2E2E2" stroke="black" stroke-miterlimit="10"/>
<path d="M611.1 409.9H410C404.3 409.9 399.8 405.3 399.8 399.7V284.5C399.8 278.8 404.4 274.3 410 274.3H611.1C616.8 274.3 621.3 278.9 621.3 284.5V399.7C621.4 405.3 616.8 409.9 611.1 409.9Z" fill="#686868"/>
<path d="M619.5 437.2H401.5C397.9 437.2 394.9 434.2 394.9 430.6V414.8H626.1V430.6C626.1 434.3 623.2 437.2 619.5 437.2Z" fill="#E2E2E2" stroke="black" stroke-miterlimit="10"/>
<path d="M550.6 471.8H470.5C469.7 471.8 469 471.1 469 470.3V466.1C469 465.3 469.7 464.6 470.5 464.6H550.6C551.4 464.6 552.1 465.3 552.1 466.1V470.3C552 471.2 551.4 471.8 550.6 471.8Z" fill="#E2E2E2" stroke="black" stroke-miterlimit="10"/>
<path d="M507.7 428.599C508.97 428.599 510 426.898 510 424.799C510 422.7 508.97 420.999 507.7 420.999C506.43 420.999 505.4 422.7 505.4 424.799C505.4 426.898 506.43 428.599 507.7 428.599Z" fill="white" stroke="black" stroke-width="0.5" stroke-miterlimit="10"/>
<path d="M408.8 282.499C409.628 282.499 410.3 281.827 410.3 280.999C410.3 280.171 409.628 279.499 408.8 279.499C407.972 279.499 407.3 280.171 407.3 280.999C407.3 281.827 407.972 282.499 408.8 282.499Z" fill="#CDBFDE" stroke="black" stroke-width="0.25" stroke-miterlimit="10" stroke-linecap="round" stroke-linejoin="round"/>
<path d="M414.9 282.499C415.728 282.499 416.4 281.827 416.4 280.999C416.4 280.171 415.728 279.499 414.9 279.499C414.072 279.499 413.4 280.171 413.4 280.999C413.4 281.827 414.072 282.499 414.9 282.499Z" fill="#CDBFDE" stroke="black" stroke-width="0.25" stroke-miterlimit="10" stroke-linecap="round" stroke-linejoin="round"/>
<path d="M420.8 282.499C421.628 282.499 422.3 281.827 422.3 280.999C422.3 280.171 421.628 279.499 420.8 279.499C419.972 279.499 419.3 280.171 419.3 280.999C419.3 281.827 419.972 282.499 420.8 282.499Z" fill="#CDBFDE" stroke="black" stroke-width="0.25" stroke-miterlimit="10" stroke-linecap="round" stroke-linejoin="round"/>
<path d="M526.5 279.499H477.8V282.199H526.5V279.499Z" fill="#EBE7F2" stroke="black" stroke-width="0.25" stroke-miterlimit="10" stroke-linecap="round" stroke-linejoin="round"/>
<path d="M574.9 274.199V409.899" stroke="black" stroke-width="0.25" stroke-miterlimit="10" stroke-linecap="round" stroke-linejoin="round"/>
<path d="M615.1 290.899H581.2V294.499H615.1V290.899Z" fill="#F0E7F2" stroke="black" stroke-width="0.25" stroke-miterlimit="10" stroke-linecap="round" stroke-linejoin="round"/>
<path d="M615.1 297.8H581.2V301.4H615.1V297.8Z" fill="#F0E7F2" stroke="black" stroke-width="0.25" stroke-miterlimit="10" stroke-linecap="round" stroke-linejoin="round"/>
<path d="M615.1 304.8H581.2V308.4H615.1V304.8Z" fill="#F0E7F2" stroke="black" stroke-width="0.25" stroke-miterlimit="10" stroke-linecap="round" stroke-linejoin="round"/>
<path d="M615.1 311.699H581.2V315.299H615.1V311.699Z" fill="#F0E7F2" stroke="black" stroke-width="0.25" stroke-miterlimit="10" stroke-linecap="round" stroke-linejoin="round"/>
<path d="M615.1 318.6H581.2V322.2H615.1V318.6Z" fill="#F0E7F2" stroke="black" stroke-width="0.25" stroke-miterlimit="10" stroke-linecap="round" stroke-linejoin="round"/>
<path d="M615.1 325.6H581.2V329.2H615.1V325.6Z" fill="#F0E7F2" stroke="black" stroke-width="0.25" stroke-miterlimit="10" stroke-linecap="round" stroke-linejoin="round"/>
<path d="M615.1 332.499H581.2V336.099H615.1V332.499Z" fill="#F0E7F2" stroke="black" stroke-width="0.25" stroke-miterlimit="10" stroke-linecap="round" stroke-linejoin="round"/>
<path d="M615.1 339.399H581.2V342.999H615.1V339.399Z" fill="#F0E7F2" stroke="black" stroke-width="0.25" stroke-miterlimit="10" stroke-linecap="round" stroke-linejoin="round"/>
<path d="M615.1 346.399H581.2V349.999H615.1V346.399Z" fill="#F0E7F2" stroke="black" stroke-width="0.25" stroke-miterlimit="10" stroke-linecap="round" stroke-linejoin="round"/>
<path d="M574.9 354.8H621.4" stroke="black" stroke-width="0.25" stroke-miterlimit="10" stroke-linecap="round" stroke-linejoin="round"/>
<path d="M598.2 372.199H579.2V391.199H598.2V372.199Z" fill="#F8F2F8" stroke="black" stroke-width="0.25" stroke-miterlimit="10" stroke-linecap="round" stroke-linejoin="round"/>
<path d="M608.3 386.6C611.006 386.6 613.2 384.406 613.2 381.7C613.2 378.994 611.006 376.8 608.3 376.8C605.594 376.8 603.4 378.994 603.4 381.7C603.4 384.406 605.594 386.6 608.3 386.6Z" fill="white" stroke="black" stroke-width="0.25" stroke-miterlimit="10" stroke-linecap="round" stroke-linejoin="round"/>
<path d="M574.9 285.6H399.7H621.4" fill="#F8F2F8"/>
<path d="M574.9 285.6H399.7H621.4" stroke="black" stroke-width="0.25" stroke-miterlimit="10" stroke-linecap="round" stroke-linejoin="round"/>
<path d="M420.9 285.6H399.8V370.6H420.9V285.6Z" stroke="black" stroke-width="0.25" stroke-miterlimit="10" stroke-linecap="round" stroke-linejoin="round"/>
<path d="M408.7 289H403.4V294.3H408.7V289Z" fill="#DCDBDB" stroke="black" stroke-width="0.25" stroke-miterlimit="10" stroke-linecap="round" stroke-linejoin="round"/>
<path d="M417.6 289H412.3V294.3H417.6V289Z" fill="#DCDBDB" stroke="black" stroke-width="0.25" stroke-miterlimit="10" stroke-linecap="round" stroke-linejoin="round"/>
<path d="M408.7 296.2H403.4V301.5H408.7V296.2Z" fill="#DCDBDB" stroke="black" stroke-width="0.25" stroke-miterlimit="10" stroke-linecap="round" stroke-linejoin="round"/>
<path d="M417.6 296.2H412.3V301.5H417.6V296.2Z" fill="#DCDBDB" stroke="black" stroke-width="0.25" stroke-miterlimit="10" stroke-linecap="round" stroke-linejoin="round"/>
<path d="M408.7 303.5H403.4V308.8H408.7V303.5Z" fill="#DCDBDB" stroke="black" stroke-width="0.25" stroke-miterlimit="10" stroke-linecap="round" stroke-linejoin="round"/>
<path d="M417.6 303.5H412.3V308.8H417.6V303.5Z" fill="#DCDBDB" stroke="black" stroke-width="0.25" stroke-miterlimit="10" stroke-linecap="round" stroke-linejoin="round"/>
<path d="M408.7 310.7H403.4V316H408.7V310.7Z" fill="#DCDBDB" stroke="black" stroke-width="0.25" stroke-miterlimit="10" stroke-linecap="round" stroke-linejoin="round"/>
<path d="M417.6 310.7H412.3V316H417.6V310.7Z" fill="#DCDBDB" stroke="black" stroke-width="0.25" stroke-miterlimit="10" stroke-linecap="round" stroke-linejoin="round"/>
<path d="M408.7 318H403.4V323.3H408.7V318Z" fill="#DCDBDB" stroke="black" stroke-width="0.25" stroke-miterlimit="10" stroke-linecap="round" stroke-linejoin="round"/>
<path d="M417.6 318H412.3V323.3H417.6V318Z" fill="#DCDBDB" stroke="black" stroke-width="0.25" stroke-miterlimit="10" stroke-linecap="round" stroke-linejoin="round"/>
<path d="M408.7 325.5H403.4V330.8H408.7V325.5Z" fill="#DCDBDB" stroke="black" stroke-width="0.25" stroke-miterlimit="10" stroke-linecap="round" stroke-linejoin="round"/>
<path d="M417.6 325.5H412.3V330.8H417.6V325.5Z" fill="#DCDBDB" stroke="black" stroke-width="0.25" stroke-miterlimit="10" stroke-linecap="round" stroke-linejoin="round"/>
<path d="M408.7 332.9H403.4V338.2H408.7V332.9Z" fill="#DCDBDB" stroke="black" stroke-width="0.25" stroke-miterlimit="10" stroke-linecap="round" stroke-linejoin="round"/>
<path d="M417.6 332.9H412.3V338.2H417.6V332.9Z" fill="#DCDBDB" stroke="black" stroke-width="0.25" stroke-miterlimit="10" stroke-linecap="round" stroke-linejoin="round"/>
<path d="M408.7 340.4H403.4V345.7H408.7V340.4Z" fill="#DCDBDB" stroke="black" stroke-width="0.25" stroke-miterlimit="10" stroke-linecap="round" stroke-linejoin="round"/>
<path d="M417.6 340.4H412.3V345.7H417.6V340.4Z" fill="#DCDBDB" stroke="black" stroke-width="0.25" stroke-miterlimit="10" stroke-linecap="round" stroke-linejoin="round"/>
<path d="M408.7 347.9H403.4V353.2H408.7V347.9Z" fill="#DCDBDB" stroke="black" stroke-width="0.25" stroke-miterlimit="10" stroke-linecap="round" stroke-linejoin="round"/>
<path d="M417.6 347.9H412.3V353.2H417.6V347.9Z" fill="#DCDBDB" stroke="black" stroke-width="0.25" stroke-miterlimit="10" stroke-linecap="round" stroke-linejoin="round"/>
<path d="M408.7 355.4H403.4V360.7H408.7V355.4Z" fill="#DCDBDB" stroke="black" stroke-width="0.25" stroke-miterlimit="10" stroke-linecap="round" stroke-linejoin="round"/>
<path d="M417.6 355.4H412.3V360.7H417.6V355.4Z" fill="#DCDBDB" stroke="black" stroke-width="0.25" stroke-miterlimit="10" stroke-linecap="round" stroke-linejoin="round"/>
<path d="M408.7 362.9H403.4V368.2H408.7V362.9Z" fill="#DCDBDB" stroke="black" stroke-width="0.25" stroke-miterlimit="10" stroke-linecap="round" stroke-linejoin="round"/>
<path d="M417.6 362.9H412.3V368.2H417.6V362.9Z" fill="#DCDBDB" stroke="black" stroke-width="0.25" stroke-miterlimit="10" stroke-linecap="round" stroke-linejoin="round"/>
<path d="M414.9 376.2H409.2V381.9H414.9V376.2Z" stroke="black" stroke-miterlimit="10"/>
<path d="M411.1 372.3H404.4V379H411.1V372.3Z" fill="#CDBFDE" stroke="black" stroke-width="0.25" stroke-miterlimit="10" stroke-linecap="round" stroke-linejoin="round"/>
<path d="M406.9 383.899H404.4V386.399H406.9V383.899Z" fill="#CDBFDE" stroke="black" stroke-width="0.25" stroke-miterlimit="10" stroke-linecap="round" stroke-linejoin="round"/>
<path d="M411 383.899H408.5V386.399H411V383.899Z" fill="url(#paint0_linear_2_1956)" stroke="black" stroke-width="0.25" stroke-miterlimit="10" stroke-linecap="round" stroke-linejoin="round"/>
<path d="M415.2 383.899H412.7V386.399H415.2V383.899Z" fill="white" stroke="black" stroke-width="0.25" stroke-miterlimit="10" stroke-linecap="round" stroke-linejoin="round"/>
<path d="M420.9 289.899H574.9" stroke="black" stroke-width="0.25" stroke-miterlimit="10" stroke-linecap="round" stroke-linejoin="round"/>
<path d="M574.9 293.3H424.2V409.7" stroke="black" stroke-width="0.25" stroke-miterlimit="10" stroke-linecap="round" stroke-linejoin="round"/>
<path d="M420.9 370.699V409.899" stroke="black" stroke-width="0.25" stroke-miterlimit="10" stroke-linecap="round" stroke-linejoin="round"/>
<path d="M574.9 293.3H424.2V409.6H574.9V293.3Z" fill="#8E8E8E" stroke="black" stroke-width="0.2" stroke-miterlimit="10"/>
<path d="M547.9 310.1H456.4V391.8H547.9V310.1Z" fill="white"/>
<path d="M495.5 372.699H476.5C474 372.699 472 370.699 472 368.199V325.999C472 323.499 474 321.499 476.5 321.499H495.5C498 321.499 500 323.499 500 325.999V368.199C500 370.699 498 372.699 495.5 372.699Z" fill="#5C58A6" stroke="black" stroke-width="0.25" stroke-miterlimit="10" stroke-linecap="round" stroke-linejoin="round"/>
<path d="M494.9 329.799H477.1C476.5 329.799 476.1 329.299 476.1 328.799V327.299C476.1 326.699 476.6 326.299 477.1 326.299H494.9C495.5 326.299 495.9 326.799 495.9 327.299V328.799C496 329.299 495.5 329.799 494.9 329.799Z" fill="#D7CBE5"/>
<path d="M494.9 367.999H477.1C476.5 367.999 476.1 367.499 476.1 366.999C476.1 366.399 476.6 365.999 477.1 365.999H494.9C495.5 365.999 495.9 366.499 495.9 366.999C496 367.499 495.5 367.999 494.9 367.999Z" fill="#D7CBE5"/>
<path d="M495.5 333.999H476.5C476.3 333.999 476.1 333.799 476.1 333.599V332.499C476.1 332.299 476.3 332.099 476.5 332.099H495.5C495.7 332.099 495.9 332.299 495.9 332.499V333.599C496 333.799 495.8 333.999 495.5 333.999Z" fill="#D7CBE5"/>
<path d="M494.5 356.298H477.5C476.7 356.298 476.1 355.698 476.1 354.898V338.798C476.1 337.998 476.7 337.398 477.5 337.398H494.5C495.3 337.398 495.9 337.998 495.9 338.798V354.898C496 355.698 495.3 356.298 494.5 356.298Z" fill="#D7CBE5"/>
<path d="M480.2 363.599H477.1C476.6 363.599 476.1 363.199 476.1 362.599V359.699C476.1 359.199 476.5 358.699 477.1 358.699H480.2C480.7 358.699 481.2 359.099 481.2 359.699V362.599C481.2 363.099 480.8 363.599 480.2 363.599Z" fill="#D7CBE5"/>
<path d="M495 363.599H491.9C491.4 363.599 490.9 363.199 490.9 362.599V359.699C490.9 359.199 491.3 358.699 491.9 358.699H495C495.5 358.699 496 359.099 496 359.699V362.599C496 363.099 495.5 363.599 495 363.599Z" fill="#D7CBE5"/>
<path d="M487.6 363.599H484.5C484 363.599 483.5 363.199 483.5 362.599V359.699C483.5 359.199 483.9 358.699 484.5 358.699H487.6C488.1 358.699 488.6 359.099 488.6 359.699V362.599C488.6 363.099 488.1 363.599 487.6 363.599Z" fill="#D7CBE5"/>
<path d="M529.3 372.699H510.3C507.8 372.699 505.8 370.699 505.8 368.199V325.999C505.8 323.499 507.8 321.499 510.3 321.499H529.3C531.8 321.499 533.8 323.499 533.8 325.999V368.199C533.7 370.699 531.7 372.699 529.3 372.699Z" fill="#5C58A6" stroke="black" stroke-width="0.25" stroke-miterlimit="10" stroke-linecap="round" stroke-linejoin="round"/>
<path d="M528.7 363.199H510.9C510.3 363.199 509.9 362.699 509.9 362.199C509.9 361.599 510.4 361.199 510.9 361.199H528.7C529.3 361.199 529.7 361.699 529.7 362.199C529.7 362.699 529.3 363.199 528.7 363.199Z" fill="#D7CBE5"/>
<path d="M528.3 346.799H511.3C510.5 346.799 509.9 346.199 509.9 345.399V329.299C509.9 328.499 510.5 327.899 511.3 327.899H528.3C529.1 327.899 529.7 328.499 529.7 329.299V345.399C529.7 346.199 529.1 346.799 528.3 346.799Z" fill="#D7CBE5"/>
<path d="M514 355.7H510.9C510.4 355.7 509.9 355.3 509.9 354.7V351.8C509.9 351.3 510.3 350.8 510.9 350.8H514C514.5 350.8 515 351.2 515 351.8V354.7C515 355.3 514.5 355.7 514 355.7Z" fill="#D7CBE5"/>
<path d="M528.7 355.7H525.6C525.1 355.7 524.6 355.3 524.6 354.7V351.8C524.6 351.3 525 350.8 525.6 350.8H528.7C529.2 350.8 529.7 351.2 529.7 351.8V354.7C529.7 355.3 529.3 355.7 528.7 355.7Z" fill="#D7CBE5"/>
<path d="M521.3 355.7H518.2C517.7 355.7 517.2 355.3 517.2 354.7V351.8C517.2 351.3 517.6 350.8 518.2 350.8H521.3C521.8 350.8 522.3 351.2 522.3 351.8V354.7C522.3 355.3 521.9 355.7 521.3 355.7Z" fill="#D7CBE5"/>
<path d="M480.7 192.499C505.166 192.499 525 172.666 525 148.199C525 123.733 505.166 103.899 480.7 103.899C456.234 103.899 436.4 123.733 436.4 148.199C436.4 172.666 456.234 192.499 480.7 192.499Z" fill="#EEDBEB" stroke="black" stroke-miterlimit="10" stroke-linecap="round" stroke-linejoin="round"/>
<path d="M480.7 185.999C501.576 185.999 518.5 169.076 518.5 148.199C518.5 127.323 501.576 110.399 480.7 110.399C459.824 110.399 442.9 127.323 442.9 148.199C442.9 169.076 459.824 185.999 480.7 185.999Z" fill="white" stroke="black" stroke-miterlimit="10" stroke-linecap="round" stroke-linejoin="round"/>
<path d="M460.8 147.9H480.8V118.2" stroke="black" stroke-miterlimit="10" stroke-linecap="round" stroke-linejoin="round"/>
<path d="M462.5 145.1C462.3 145.3 460.4 147.8 460.4 147.8L462.7 150.7" stroke="black" stroke-miterlimit="10" stroke-linecap="round" stroke-linejoin="round"/>
<path d="M483.5 120.5C483.3 120.3 480.8 117.8 480.8 117.8L477.9 120.7" stroke="black" stroke-miterlimit="10" stroke-linecap="round" stroke-linejoin="round"/>
<path d="M480.7 149.5C481.584 149.5 482.3 148.783 482.3 147.9C482.3 147.016 481.584 146.3 480.7 146.3C479.816 146.3 479.1 147.016 479.1 147.9C479.1 148.783 479.816 149.5 480.7 149.5Z" fill="black"/>
<path d="M373.2 189.5H244V275.4H373.2V189.5Z" fill="#3A3A3A" stroke="black" stroke-miterlimit="10" stroke-linecap="round" stroke-linejoin="round"/>
<path d="M365.8 194.4H251.4V270.4H365.8V194.4Z" fill="white" stroke="black" stroke-miterlimit="10" stroke-linecap="round" stroke-linejoin="round"/>
<path d="M352.4 206.9H264.7V258.1H352.4V206.9Z" stroke="black" stroke-width="0.25" stroke-miterlimit="10"/>
<path d="M331.8 210.2H285.4V212.7H331.8V210.2Z" fill="#B7B4DA" stroke="black" stroke-width="0.25" stroke-miterlimit="10" stroke-linecap="round" stroke-linejoin="round"/>
<path d="M335.1 212.8H327.6V214.1H335.1V212.8Z" fill="#B7B4DA" stroke="black" stroke-width="0.25" stroke-miterlimit="10" stroke-linecap="round" stroke-linejoin="round"/>
<path d="M289.2 212.8H281.7V214.1H289.2V212.8Z" fill="#B7B4DA" stroke="black" stroke-width="0.25" stroke-miterlimit="10" stroke-linecap="round" stroke-linejoin="round"/>
<path d="M277.932 245.129L275.64 244.13L272.364 251.647L274.655 252.646L277.932 245.129Z" fill="#B7B4DA" stroke="black" stroke-width="0.25" stroke-miterlimit="10" stroke-linecap="round" stroke-linejoin="round"/>
<path d="M279.377 244.178L277.152 245.317L280.889 252.616L283.114 251.477L279.377 244.178Z" fill="#B7B4DA" stroke="black" stroke-width="0.25" stroke-miterlimit="10" stroke-linecap="round" stroke-linejoin="round"/>
<path d="M277.8 247.201C280.948 247.201 283.5 244.649 283.5 241.501C283.5 238.353 280.948 235.801 277.8 235.801C274.652 235.801 272.1 238.353 272.1 241.501C272.1 244.649 274.652 247.201 277.8 247.201Z" fill="#B7B4DA" stroke="black" stroke-width="0.25" stroke-miterlimit="10" stroke-linecap="round" stroke-linejoin="round"/>
<path d="M337.1 250.3C340.027 250.3 342.4 247.927 342.4 245C342.4 242.073 340.027 239.7 337.1 239.7C334.173 239.7 331.8 242.073 331.8 245C331.8 247.927 334.173 250.3 337.1 250.3Z" stroke="#B7B4DA" stroke-width="0.75" stroke-miterlimit="10" stroke-linecap="round" stroke-linejoin="round"/>
<path d="M281.7 222.101C281.4 222.201 281 221.901 281 221.501C281.1 221.101 281.6 220.901 282 221.001C282.4 221.001 282.8 221.201 283.2 221.201C283.6 221.101 284 220.701 283.8 220.301C283.3 220.701 283 221.401 282.8 222.001C282.6 222.601 282.2 223.301 281.5 223.501C281.3 223.601 281 223.501 280.9 223.301C280.9 223.201 280.9 223.101 280.9 223.001C281 222.501 281.6 222.501 282.1 222.601C282.6 222.701 283.1 222.901 283.5 222.601C283.7 222.501 283.8 222.301 284 222.301C284.2 222.301 284.3 222.301 284.5 222.401C284.9 222.501 285.3 222.601 285.6 222.401C285.9 222.201 286.1 221.701 285.9 221.401C285.5 221.401 285.2 221.801 285.3 222.201C285.4 222.601 285.9 222.701 286.3 222.601C286.6 222.501 286.9 222.301 287.1 222.401C287.2 222.501 287.3 222.601 287.4 222.701C287.5 222.801 287.7 222.801 287.9 222.801C288.6 222.801 289.2 222.801 289.9 223.001C290.4 223.101 290.9 223.301 291.3 223.101C291.8 223.001 292.2 222.501 292 222.001C291.6 222.001 291.2 222.401 291.2 222.801" stroke="black" stroke-width="0.25" stroke-miterlimit="10" stroke-linecap="round" stroke-linejoin="round"/>
<path d="M296.2 222.501C296.4 222.301 296.6 222.201 296.7 221.901C296.8 221.701 296.7 221.301 296.4 221.301C296.2 221.301 296.1 221.401 295.9 221.501C295.7 221.701 295.4 221.901 295.3 222.201C295.2 222.501 295.4 222.901 295.7 222.901C296.2 223.001 296.5 222.201 296.9 222.301C297.1 222.301 297.3 222.601 297.5 222.701C298 223.001 298.5 222.501 299 222.301C299.1 222.301 299.2 222.201 299.3 222.301C299.4 222.401 299.4 222.501 299.5 222.701C299.6 222.901 300 222.901 300.2 222.801C300.4 222.701 300.7 222.501 301 222.601C301.1 222.601 301.2 222.701 301.2 222.701C301.6 222.901 302.2 222.901 302.6 222.501C302.9 222.101 302.8 221.401 302.4 221.201C302 221.001 301.4 221.401 301.4 221.901C301.4 222.401 301.7 222.801 302.2 223.001C302.6 223.201 303.1 223.101 303.6 222.901C304 222.701 304.4 222.401 304.7 222.101C304.6 222.501 305 222.901 305.4 222.901C305.8 222.901 306.2 222.601 306.5 222.301" stroke="black" stroke-width="0.25" stroke-miterlimit="10" stroke-linecap="round" stroke-linejoin="round"/>
<path d="M311 222.6C311.2 222.2 311.3 221.8 311.3 221.4C311 221.2 310.5 221.5 310.5 221.9C310.5 222.3 310.9 222.6 311.2 222.7C311.6 222.8 312 222.7 312.4 222.5C312.6 222.4 312.9 222.3 313.1 222.2C313.3 222.2 313.6 222.2 313.8 222.2C315.5 222.4 317.2 222.6 318.9 222.7C319.5 222.7 320.3 222.6 320.4 222C320.4 221.8 320.4 221.6 320.3 221.4C320 220.8 319.1 220.7 318.6 221.1C318.1 221.5 318.1 222.4 318.7 222.8C319.5 223.4 320.6 222.7 321.3 221.9C321.2 222.4 321.9 222.8 322.4 222.7C322.9 222.6 323.4 222.2 324 222.2C324.6 222.2 325.1 222.6 325.6 222.6C326 222.6 326.5 222.5 326.9 222.5C327.7 222.4 328.4 222.7 329.1 222.9C329.8 223 330.7 223 331.2 222.4C331.1 222.4 330.9 222.4 330.8 222.4" stroke="black" stroke-width="0.25" stroke-miterlimit="10" stroke-linecap="round" stroke-linejoin="round"/>
<path d="M289.5 230.001C289.9 229.601 290.2 229.301 290.4 228.801C290.6 228.301 290.4 227.701 289.9 227.501C289.1 228.401 288.8 229.701 289.2 230.901C290.2 230.501 291 229.801 291.7 228.901C291.9 229.301 292.2 229.801 292.7 229.601C292.8 229.601 293 229.501 293.1 229.401C293.5 229.301 293.9 229.601 294.3 229.801C294.7 230.001 295.3 230.001 295.4 229.601C295.3 230.101 295.9 230.401 296.3 230.401C296.8 230.401 297.2 230.101 297.6 230.001C297.9 229.901 298.2 230.001 298.5 229.801C298.9 229.601 299.2 229.201 299.1 228.801C299.1 228.401 298.7 228.001 298.3 227.901C297.8 228.201 297.5 228.901 297.8 229.401C298 229.901 298.7 230.301 299.3 230.101C299.8 230.001 300.1 229.501 300.6 229.501C301 229.501 301.3 229.601 301.7 229.701C302.1 229.801 302.5 229.701 302.7 229.401C302.8 229.901 303.5 230.201 304 229.901C304.1 229.801 304.3 229.701 304.4 229.701C304.5 229.701 304.6 229.801 304.7 229.901C305.3 230.401 306.2 230.001 306.9 229.601" stroke="black" stroke-width="0.25" stroke-miterlimit="10" stroke-linecap="round" stroke-linejoin="round"/>
<path d="M310.7 229.501C311.3 228.701 311.7 227.901 312.1 227.001C311.5 227.101 310.9 227.401 310.6 227.901C310.3 228.301 310.3 229.101 310.8 229.201C311 229.301 311.2 229.201 311.4 229.101C312.1 228.901 312.7 228.501 313.2 228.101C313.1 228.701 313.8 229.101 314.4 229.001C315 228.901 315.4 228.401 315.9 228.101C316 228.001 316.1 227.901 316.2 227.901C316.3 227.901 316.5 228.001 316.6 228.001C317.2 228.301 317.9 228.401 318.5 228.101C318.6 228.001 318.8 228.001 318.9 228.001C319.1 228.001 319.2 228.201 319.3 228.301C319.9 229.001 321.2 229.001 321.8 228.201" stroke="black" stroke-width="0.25" stroke-miterlimit="10" stroke-linecap="round" stroke-linejoin="round"/>
<path d="M287.2 234.301C286.9 234.001 287.4 233.501 287.7 233.601C288.1 233.701 288.3 234.101 288.6 234.401C288.8 234.701 289.1 235.101 289.5 235.101C290.3 235.201 290.8 233.901 291.6 234.101C291.8 234.201 292 234.401 292.3 234.501C292.7 234.701 293.2 234.401 293.6 234.201C294.5 233.801 295.5 234.001 296.4 233.901C297.3 233.801 298.4 233.201 298.4 232.301C297.7 232.101 297.2 233.301 297.8 233.801C298.3 234.301 299.2 234.301 299.9 234.001C300.6 233.701 301.3 233.301 302 233.201C301.8 233.701 302.6 234.101 303.2 234.101C303.7 234.101 304.1 234.101 304.6 234.201C306.2 234.301 307.9 234.301 309.5 234.001C309.8 233.901 310.2 233.901 310.4 234.001C310.6 234.101 310.7 234.201 310.8 234.201C311.4 234.401 311.9 233.701 312.5 233.601C312.8 233.601 313.2 233.701 313.5 233.801C314.8 234.201 316.3 233.801 317.2 232.801C317.5 232.501 317.6 231.801 317.2 231.701C317.1 231.701 316.9 231.701 316.8 231.801C316.1 232.401 316.7 233.701 317.6 233.901C318.5 234.101 319.4 233.601 320.2 233.101C320 233.701 320.6 234.201 321.2 234.301C321.8 234.401 322.3 234.101 322.9 233.801C323.2 234.401 324.1 234.501 324.8 234.501C326.1 234.501 327.4 234.401 328.7 234.401C329.7 234.401 330.7 234.301 331.5 233.601C331.3 233.601 331 233.601 330.8 233.501" stroke="black" stroke-width="0.25" stroke-miterlimit="10" stroke-linecap="round" stroke-linejoin="round"/>
<path d="M320.6 250.501C321.3 249.501 321.2 247.901 320.4 247.001C319.9 247.401 319.5 247.901 319.4 248.601C319.3 249.201 319.5 250.001 320.1 250.201C320.7 250.401 321.4 250.101 321.8 249.601C322.2 249.101 322.5 248.501 323 248.101C322.9 248.401 322.8 248.801 322.8 249.101C322.8 249.401 323.1 249.801 323.5 249.801C323.8 249.801 324 249.601 324.2 249.401C324.7 248.901 325.2 248.401 325.8 248.001C325.8 248.601 326.5 249.101 327.1 249.001C327.7 248.901 328.2 248.401 328.6 248.001C329.1 247.401 329.5 246.301 328.7 245.901C328.6 245.801 328.4 245.801 328.2 245.801C327.4 245.901 326.9 246.901 327.2 247.601C327.5 248.301 328.5 248.701 329.2 248.401C330 248.101 330.4 247.301 330.4 246.501C330.4 246.801 330.5 247.101 330.5 247.501C331.1 247.401 331.6 247.101 331.9 246.601C332.1 247.201 332.9 247.301 333.4 247.001C333.9 246.701 334.2 246.201 334.5 245.701C336 246.401 338.1 245.301 338.4 243.701C337.5 243.501 336.6 244.101 336.3 244.901C336.2 245.201 336.2 245.601 336.5 245.901C336.9 246.301 337.5 246.101 338 245.801C338.6 245.401 339.1 244.901 339.4 244.201C339 244.601 339.4 245.301 339.9 245.501C340.4 245.701 341 245.501 341.5 245.301C342.7 244.901 343.9 244.401 345.1 244.001C340.9 245.301 336.7 246.801 332.6 248.601C331.3 249.101 330.1 249.701 329.2 250.801C329.5 250.701 329.8 250.601 330.1 250.501" stroke="black" stroke-width="0.25" stroke-miterlimit="10" stroke-linecap="round" stroke-linejoin="round"/>
<path d="M636.9 470.899H671.4C671.4 470.899 673 453.399 654.1 453.299C634.6 453.199 636.9 470.899 636.9 470.899Z" fill="#DADAE0" stroke="black" stroke-miterlimit="10" stroke-linecap="round" stroke-linejoin="round"/>
<path d="M638.2 462.1C638.2 462.1 655.7 467.8 669.9 462.1H638.2Z" fill="#DADAE0"/>
<path d="M638.2 462.1C638.2 462.1 655.7 467.8 669.9 462.1" stroke="black" stroke-miterlimit="10" stroke-linecap="round" stroke-linejoin="round"/>
<path d="M647.5 454.1C647.5 454.1 653.1 463.5 662.3 454.7" stroke="black" stroke-miterlimit="10" stroke-linecap="round" stroke-linejoin="round"/>
<path d="M671.5 469.999H636.9V472.099H671.5V469.999Z" fill="#DADAE0" stroke="black" stroke-miterlimit="10" stroke-linecap="round" stroke-linejoin="round"/>
<path d="M283.9 471.8H259.3C256.3 471.8 253.9 469.4 253.9 466.4V434.1C253.9 431.1 256.3 428.7 259.3 428.7H283.9C286.9 428.7 289.3 431.1 289.3 434.1V466.4C289.3 469.4 286.9 471.8 283.9 471.8Z" fill="#EEDBEB" stroke="black" stroke-miterlimit="10" stroke-linecap="round" stroke-linejoin="round"/>
<path d="M296.5 438.8H289.8V442.1H296.5V438.8Z" fill="#EEDBEB" stroke="black" stroke-miterlimit="10" stroke-linecap="round" stroke-linejoin="round"/>
<path d="M296.5 455.8H289.8V459.1H296.5V455.8Z" fill="#EEDBEB" stroke="black" stroke-miterlimit="10" stroke-linecap="round" stroke-linejoin="round"/>
<path d="M296.553 459.024V438.824H293.753V459.024H296.553Z" fill="#EEDBEB" stroke="black" stroke-miterlimit="10" stroke-linecap="round" stroke-linejoin="round"/>
<path d="M271.3 432.2C279.474 432.2 286.1 431.081 286.1 429.7C286.1 428.319 279.474 427.2 271.3 427.2C263.126 427.2 256.5 428.319 256.5 429.7C256.5 431.081 263.126 432.2 271.3 432.2Z" fill="white" stroke="black" stroke-miterlimit="10" stroke-linecap="round" stroke-linejoin="round"/>
<path d="M266 417.9C264.9 417.3 264.7 415.8 265 414.6C265.3 413.4 266.1 412.4 266.6 411.3C267.5 409.4 267.7 407.2 267.2 405.2" stroke="#CDBFDE" stroke-miterlimit="10" stroke-linecap="round" stroke-linejoin="round"/>
<path d="M272.8 421.1C271.6 420.8 271 419.4 271.1 418.1C271.2 416.8 271.9 415.8 272.4 414.6C272.9 413.4 273.1 412.1 272.5 411" stroke="#CDBFDE" stroke-miterlimit="10" stroke-linecap="round" stroke-linejoin="round"/>
<path d="M363.2 385.501H220.3V375.301C220.3 372.701 222.4 370.601 225 370.601H357.9C360.8 370.601 363.2 373.001 363.2 375.901V385.501Z" fill="#E2E2E2" stroke="black" stroke-miterlimit="10" stroke-linecap="round" stroke-linejoin="round"/>
<path d="M353.5 318.601H283.2V370.601H353.5V318.601Z" fill="#D2D0E2" stroke="black" stroke-miterlimit="10" stroke-linecap="round" stroke-linejoin="round"/>
<path d="M349.5 370.701H278.9L283.2 318.601H353.5L349.5 370.701Z" fill="#F3F2F9" stroke="black" stroke-miterlimit="10" stroke-linecap="round" stroke-linejoin="round"/>
<path d="M287.2 321.3C287.2 321.3 288.2 311.9 294.2 317.9" stroke="black" stroke-miterlimit="10" stroke-linecap="round" stroke-linejoin="round"/>
<path d="M297.4 321.3C297.4 321.3 298.4 311.9 304.4 317.9" stroke="black" stroke-miterlimit="10" stroke-linecap="round" stroke-linejoin="round"/>
<path d="M292.6 321.3C292.6 321.3 293.6 311.9 299.6 317.9" stroke="black" stroke-miterlimit="10" stroke-linecap="round" stroke-linejoin="round"/>
<path d="M302 321.3C302 321.3 303 311.9 309 317.9" stroke="black" stroke-miterlimit="10" stroke-linecap="round" stroke-linejoin="round"/>
<path d="M307.3 321.3C307.3 321.3 308.3 311.9 314.3 317.9" stroke="black" stroke-miterlimit="10" stroke-linecap="round" stroke-linejoin="round"/>
<path d="M327.5 321.3C327.5 321.3 328.5 311.9 334.5 317.9" stroke="black" stroke-miterlimit="10" stroke-linecap="round" stroke-linejoin="round"/>
<path d="M332.8 321.3C332.8 321.3 333.8 311.9 339.8 317.9" stroke="black" stroke-miterlimit="10" stroke-linecap="round" stroke-linejoin="round"/>
<path d="M343.2 321.3C343.2 321.3 344.2 311.9 350.2 317.9" stroke="black" stroke-miterlimit="10" stroke-linecap="round" stroke-linejoin="round"/>
<path d="M338.7 321.3C338.7 321.3 339.7 311.9 345.7 317.9" stroke="black" stroke-miterlimit="10" stroke-linecap="round" stroke-linejoin="round"/>
<path d="M317.4 321.3C317.4 321.3 318.4 311.9 324.4 317.9" stroke="black" stroke-miterlimit="10" stroke-linecap="round" stroke-linejoin="round"/>
<path d="M312.6 321.3C312.6 321.3 313.6 311.9 319.6 317.9" stroke="black" stroke-miterlimit="10" stroke-linecap="round" stroke-linejoin="round"/>
<path d="M322.1 321.3C322.1 321.3 323.1 311.9 329.1 317.9" stroke="black" stroke-miterlimit="10" stroke-linecap="round" stroke-linejoin="round"/>
<path d="M299 363.4C298.9 361.5 298.8 359.5 298.9 357.6C299.5 359.1 300.3 360.6 301.1 362C301.7 360.6 302.3 359.1 302.8 357.6C302.9 359.5 303 361.8 303.1 363.7" stroke="black" stroke-miterlimit="10" stroke-linecap="round" stroke-linejoin="round"/>
<path d="M305.5 357.699C305.3 357.899 305.2 358.099 305.1 358.399C304.5 359.699 304.2 361.099 304.7 362.399C304.8 362.799 305.1 363.199 305.5 363.199C305.8 363.199 306.1 363.099 306.4 362.799C307 362.199 307.3 361.499 307.5 360.699C307.7 360.099 307.8 359.499 307.7 358.899C307.6 358.299 307.2 357.699 306.6 357.499C306.1 357.499 305.8 357.399 305.5 357.699Z" stroke="black" stroke-miterlimit="10" stroke-linecap="round" stroke-linejoin="round"/>
<path d="M308.6 357.399C308.7 359.399 308.9 361.299 309 363.299C309 363.199 309 363.099 309 362.999" stroke="black" stroke-miterlimit="10" stroke-linecap="round" stroke-linejoin="round"/>
<path d="M311.8 357.3C312.1 359.1 312.2 361 312.3 362.8C312.3 362.7 312.3 362.5 312.3 362.4" stroke="black" stroke-miterlimit="10" stroke-linecap="round" stroke-linejoin="round"/>
<path d="M308.7 357.399C309.4 359.299 310.7 360.799 311.9 362.399C312.1 362.599 312.2 362.899 312.2 363.099" stroke="black" stroke-miterlimit="10" stroke-linecap="round" stroke-linejoin="round"/>
<path d="M294.1 334.5C294.2 333.8 294.3 333 294.7 332.4C295.8 330.8 298.4 330.8 299.8 332.1C301.2 333.5 301.4 335.7 300.8 337.6C300.1 339.4 298.7 340.9 297.2 342.2C296.2 343 295.2 343.8 294.4 344.8C293.3 346.4 293.1 348.7 294 350.4C296.8 350 299.7 350.1 302.6 350.7C303.3 350.8 303.9 351 304.6 350.8C305.3 350.6 305.7 349.9 305.5 349.3" stroke="black" stroke-miterlimit="10" stroke-linecap="round" stroke-linejoin="round"/>
<path d="M307.1 336.6C306.8 334 309 331.4 311.6 331.3C312.3 331.3 312.9 331.4 313.5 331.8C314.4 332.5 314.5 333.8 314.4 334.9C314.1 337.1 312.8 339 311 340.2C312.2 338.8 313.8 337.4 315.6 337.4C320.5 337.4 320.3 343.9 318.9 347.1C318.5 348 317.9 348.9 317.1 349.5C316.2 350.1 315 350.4 313.9 350.4C311.6 350.4 308.7 349.7 307.3 347.7" stroke="black" stroke-miterlimit="10" stroke-linecap="round" stroke-linejoin="round"/>
<path d="M317.5 329.5C317.6 329.1 317.7 328.7 317.8 328.3C317.9 328 317.9 327.7 317.8 327.4C317.7 327.1 317.3 326.9 317.1 327C317.1 327.4 317.6 327.8 318 327.8C318.4 327.8 318.8 327.5 319.1 327.2C318.5 327.6 318.3 328.6 318.9 329.1C319.1 329.3 319.3 329.4 319.6 329.3C319.9 329.2 320.1 328.9 320.2 328.6C320.3 328.3 320.3 327.9 320.5 327.7C320.8 327.2 321.7 327.2 322 327.6C321.6 327.2 320.9 327.3 320.6 327.7C320.2 328.1 320.2 328.7 320.4 329.2C320.5 329.5 320.7 329.8 321.1 329.8C321.6 329.8 321.9 329.3 322 328.8C322.4 327.4 322.6 326 322.6 324.6C322.4 324.5 322.2 324.7 322.1 324.9C322 325.1 322 325.3 322 325.6C322.1 326.7 322.2 327.7 322.3 328.8C322.3 329 322.4 329.2 322.5 329.3C322.7 329.5 323 329.3 323.2 329.1C323.4 328.9 323.6 328.6 323.9 328.7" stroke="black" stroke-width="0.5" stroke-miterlimit="10" stroke-linecap="round" stroke-linejoin="round"/>
<path d="M326.5 340.9C327.8 340.9 329 340.8 330.3 340.7C330.9 343.3 331.4 346.1 330.5 348.7C330.4 349 330.2 349.3 330 349.5C329.8 349.6 329.5 349.7 329.2 349.6C328.2 349.6 327.3 349.2 326.6 348.6" stroke="black" stroke-miterlimit="10" stroke-linecap="round" stroke-linejoin="round"/>
<path d="M332.2 349.6C333.2 346.8 334 344 334.8 341.1" stroke="black" stroke-miterlimit="10" stroke-linecap="round" stroke-linejoin="round"/>
<path d="M334.8 340.7C335.8 343.3 337.1 345.9 338.4 348.3C338.6 348.7 338.9 349.1 338.9 349.5" stroke="black" stroke-miterlimit="10" stroke-linecap="round" stroke-linejoin="round"/>
<path d="M333 347C334.1 346.4 335.2 345.8 336.3 345.1" stroke="black" stroke-miterlimit="10" stroke-linecap="round" stroke-linejoin="round"/>
<path d="M339.4 340.4C340.1 343.4 339.9 346.5 340.3 349.5" stroke="black" stroke-miterlimit="10" stroke-linecap="round" stroke-linejoin="round"/>
<path d="M345.5 340C345.4 340.6 345.4 341.2 345.5 341.8C345.8 344.4 346 346.9 346.1 349.5C346.1 349.4 346.1 349.3 346.1 349.2C345 348.1 344 347 343.1 345.7C341.9 344 340.7 342.3 339.6 340.6" stroke="black" stroke-miterlimit="10" stroke-linecap="round" stroke-linejoin="round"/>
<path d="M426.5 463.2H415.8V465.7H426.5V463.2Z" fill="#F4F2F9" stroke="black" stroke-width="0.5" stroke-miterlimit="10" stroke-linecap="round" stroke-linejoin="round"/>
<path d="M441.2 463.2H430.5V465.7H441.2V463.2Z" fill="#F4F2F9" stroke="black" stroke-width="0.5" stroke-miterlimit="10" stroke-linecap="round" stroke-linejoin="round"/>
<path d="M454.8 463.2H444.1V465.7H454.8V463.2Z" fill="#F4F2F9" stroke="black" stroke-width="0.5" stroke-miterlimit="10" stroke-linecap="round" stroke-linejoin="round"/>
<path d="M470.5 463.2H459.8V465.7H470.5V463.2Z" fill="#F4F2F9" stroke="black" stroke-width="0.5" stroke-miterlimit="10" stroke-linecap="round" stroke-linejoin="round"/>
<path d="M483.7 463.2H473V465.7H483.7V463.2Z" fill="#F4F2F9" stroke="black" stroke-width="0.5" stroke-miterlimit="10" stroke-linecap="round" stroke-linejoin="round"/>
<path d="M497.5 463.2H486.8V465.7H497.5V463.2Z" fill="#F4F2F9" stroke="black" stroke-width="0.5" stroke-miterlimit="10" stroke-linecap="round" stroke-linejoin="round"/>
<path d="M512 463.2H501.3V465.7H512V463.2Z" fill="#F4F2F9" stroke="black" stroke-width="0.5" stroke-miterlimit="10" stroke-linecap="round" stroke-linejoin="round"/>
<path d="M526.8 463.2H516.1V465.7H526.8V463.2Z" fill="#F4F2F9" stroke="black" stroke-width="0.5" stroke-miterlimit="10" stroke-linecap="round" stroke-linejoin="round"/>
<path d="M542 463.2H531.3V465.7H542V463.2Z" fill="#F4F2F9" stroke="black" stroke-width="0.5" stroke-miterlimit="10" stroke-linecap="round" stroke-linejoin="round"/>
<path d="M557.1 463.2H546.4V465.7H557.1V463.2Z" fill="#F4F2F9" stroke="black" stroke-width="0.5" stroke-miterlimit="10" stroke-linecap="round" stroke-linejoin="round"/>
<path d="M570.9 463.2H560.2V465.7H570.9V463.2Z" fill="#F4F2F9" stroke="black" stroke-width="0.5" stroke-miterlimit="10" stroke-linecap="round" stroke-linejoin="round"/>
<path d="M586.9 463.2H576.2V465.7H586.9V463.2Z" fill="#F4F2F9" stroke="black" stroke-width="0.5" stroke-miterlimit="10" stroke-linecap="round" stroke-linejoin="round"/>
<path d="M604.3 463.2H593.6V465.7H604.3V463.2Z" fill="#F4F2F9" stroke="black" stroke-width="0.5" stroke-miterlimit="10" stroke-linecap="round" stroke-linejoin="round"/>
<path d="M623.7 471.8H399.8V468.8C399.8 466.4 401.8 464.4 404.2 464.4H618.7C621.5 464.4 623.7 466.6 623.7 469.4V471.8Z" fill="white" stroke="black" stroke-width="0.5" stroke-miterlimit="10" stroke-linecap="round" stroke-linejoin="round"/>
<path d="M341.63 404.839L338.593 404.22L329.822 447.233L332.859 447.852L341.63 404.839Z" fill="#EEEEF7" stroke="black" stroke-width="0.5" stroke-miterlimit="10" stroke-linecap="round" stroke-linejoin="round"/>
<path d="M330.036 404.517L327.066 404.934L333.168 448.408L336.139 447.991L330.036 404.517Z" fill="#EEEEF7" stroke="black" stroke-width="0.5" stroke-miterlimit="10" stroke-linecap="round" stroke-linejoin="round"/>
<path d="M328.8 411.099C331.12 411.099 333 408.368 333 404.999C333 401.63 331.12 398.899 328.8 398.899C326.48 398.899 324.6 401.63 324.6 404.999C324.6 408.368 326.48 411.099 328.8 411.099Z" fill="#EEEEF7" stroke="black" stroke-width="0.5" stroke-miterlimit="10" stroke-linecap="round" stroke-linejoin="round"/>
<path d="M328.8 409.099C330.346 409.099 331.6 407.264 331.6 404.999C331.6 402.735 330.346 400.899 328.8 400.899C327.254 400.899 326 402.735 326 404.999C326 407.264 327.254 409.099 328.8 409.099Z" fill="#EEEEF7" stroke="black" stroke-width="0.5" stroke-miterlimit="10" stroke-linecap="round" stroke-linejoin="round"/>
<path d="M339.9 411.099C342.22 411.099 344.1 408.368 344.1 404.999C344.1 401.63 342.22 398.899 339.9 398.899C337.58 398.899 335.7 401.63 335.7 404.999C335.7 408.368 337.58 411.099 339.9 411.099Z" fill="#EEEEF7" stroke="black" stroke-width="0.5" stroke-miterlimit="10" stroke-linecap="round" stroke-linejoin="round"/>
<path d="M339.9 409.099C341.446 409.099 342.7 407.264 342.7 404.999C342.7 402.735 341.446 400.899 339.9 400.899C338.354 400.899 337.1 402.735 337.1 404.999C337.1 407.264 338.354 409.099 339.9 409.099Z" fill="#EEEEF7" stroke="black" stroke-width="0.5" stroke-miterlimit="10" stroke-linecap="round" stroke-linejoin="round"/>
<path d="M354.5 404.999H351.3V459.699H354.5V404.999Z" fill="#EEEEF7" stroke="black" stroke-width="0.5" stroke-miterlimit="10" stroke-linecap="round" stroke-linejoin="round"/>
<path d="M349.061 400.978L345.874 401.275L350.952 455.74L354.138 455.443L349.061 400.978Z" fill="#EEEEF7" stroke="black" stroke-width="0.5" stroke-miterlimit="10" stroke-linecap="round" stroke-linejoin="round"/>
<path d="M351.4 464.699C350.8 463.199 357.3 402.999 357.3 402.999L369.1 404.399L362.1 464.699H351.4Z" fill="#EEEEF7" stroke="black" stroke-width="0.5" stroke-miterlimit="10" stroke-linecap="round" stroke-linejoin="round"/>
<path d="M362.9 471.799H334C331.2 471.799 328.8 469.799 328.7 467.199L325.9 422.699C325.7 419.899 328.2 417.499 331.2 417.499H365.4C368.5 417.499 370.9 419.799 370.7 422.599L368.2 467.099C368 469.799 365.7 471.799 362.9 471.799Z" fill="#6D6D6D" stroke="black" stroke-miterlimit="10"/>
<path d="M773.4 471.5H703.7C700.9 471.5 698.6 469.2 698.6 466.4V451.1C698.6 448.3 700.9 446 703.7 446H773.4C776.2 446 778.5 448.3 778.5 451.1V466.4C778.5 469.2 776.2 471.5 773.4 471.5Z" fill="#C6C6C5" stroke="black" stroke-miterlimit="10"/>
<path d="M767.5 468.9H703.7C700.9 468.9 698.6 466.6 698.6 463.8V453.5C698.6 450.7 700.9 448.4 703.7 448.4H767.5C770.3 448.4 772.6 450.7 772.6 453.5V463.8C772.5 466.7 770.3 468.9 767.5 468.9Z" fill="#F9F9FA" stroke="black" stroke-miterlimit="10"/>
<path d="M776.9 445.8H714.8C712.7 445.8 711.1 444.1 711.1 442.1V430.5C711.1 428.4 712.8 426.8 714.8 426.8H776.9C779 426.8 780.6 428.5 780.6 430.5V442C780.6 444.1 779 445.8 776.9 445.8Z" fill="#C6C6C5" stroke="black" stroke-miterlimit="10"/>
<path d="M770.3 443.6H714.4C712.6 443.6 711.1 442.1 711.1 440.3V432.3C711.1 430.5 712.6 429 714.4 429H770.3C772.1 429 773.6 430.5 773.6 432.3V440.3C773.7 442.1 772.2 443.6 770.3 443.6Z" fill="#F9F9FA" stroke="black" stroke-miterlimit="10"/>
<defs>
<linearGradient id="paint0_linear_2_1956" x1="408.548" y1="385.196" x2="411.084" y2="385.196" gradientUnits="userSpaceOnUse">
<stop stop-color="white"/>
<stop offset="1"/>
</linearGradient>
</defs>
</svg>
