<svg width="984" height="843" viewBox="0 0 984 843" fill="none" xmlns="http://www.w3.org/2000/svg">
<path opacity="0.15" d="M1.9 340.2C-2.2 286.8 17.4 229.6 57.8 200.6C76.4 187.2 98.3 180.3 117 167C162.4 134.8 182.1 71.0003 224.6 34.3003C264.6 -0.199703 319.9 -5.79971 369.3 6.5003C418.7 18.8003 463.5 46.9003 507.4 74.9003C551.3 102.9 595.8 131.4 645 144.7C700.9 159.8 759.4 154.5 816.5 162C873.6 169.6 934.1 194.5 962.5 250.3C974.5 273.9 979.7 301 982.2 328C986.4 374.5 982.8 422.8 965 465.1C945 512.7 909 549.2 873.9 584.4C850.1 608.2 825.5 632.6 795.2 643.9C759.4 657.3 720.1 650.8 683.8 639.3C647.5 627.8 612.3 611.3 575.1 604.6C540.2 598.3 504.6 600.8 469.2 600.7C427 600.6 384.9 596.8 342.9 593C312.9 590.3 282.8 587.5 253.2 581.5C194.1 569.4 112.5 546.2 65.4 502.4C47.4 485.6 43.9 459.8 32.7 437.7C17 406.9 4.6 375.8 1.9 340.2Z" fill="#CDBFDE"/>
<path d="M801.3 577.401H250.2C245.9 577.401 242.5 573.901 242.5 569.701V177.801C242.5 173.501 246 170.101 250.2 170.101H801.4C805.7 170.101 809.1 173.601 809.1 177.801V569.701C809 574.001 805.6 577.401 801.3 577.401Z" fill="#F0EFEF" stroke="black" stroke-width="0.5" stroke-miterlimit="10" stroke-linecap="round" stroke-linejoin="round"/>
<path d="M791.6 564.701H259.9C255.5 564.701 251.9 561.101 251.9 556.701V190.801C251.9 186.401 255.5 182.801 259.9 182.801H791.6C796 182.801 799.6 186.401 799.6 190.801V556.701C799.6 561.101 796 564.701 791.6 564.701Z" fill="white" stroke="black" stroke-width="0.5" stroke-miterlimit="10" stroke-linecap="round" stroke-linejoin="round"/>
<path d="M540.3 251.801C540.3 253.101 540.3 254.401 541 255.401C542 256.801 544 257.001 545.8 257.001C575.7 257.801 605.5 257.901 635.4 257.501C636.2 257.501 637.2 257.401 637.8 256.801C638.4 256.201 638.4 255.301 638.4 254.401C638 240.101 637.5 225.801 637.1 211.501C637 207.201 636.5 202.301 633.1 199.701C630.5 197.701 626.9 197.801 623.6 197.901C605 198.601 586.4 198.801 567.8 198.601C563.3 198.501 558.8 198.501 554.4 198.401C551.9 198.301 543.9 196.801 542 198.501C538.9 201.301 541.1 217.101 541 221.301C540.7 231.501 540.5 241.701 540.3 251.801Z" stroke="black" stroke-width="0.5" stroke-miterlimit="10" stroke-linecap="round" stroke-linejoin="round"/>
<path d="M562.9 211.401C562.9 210.701 561.8 210.301 561.2 210.701C560.6 211.101 560.4 211.901 560.4 212.701C560.4 213.101 560.5 213.501 560.7 213.801C561.1 214.301 561.9 214.301 562.4 213.901C562.9 213.501 563.2 212.901 563.3 212.201C563.1 212.801 563.5 213.601 564.1 213.801C564.5 213.501 564.8 213.101 565.1 212.701C565 213.101 565.5 213.401 565.9 213.301C566.3 213.201 566.7 213.001 567.1 213.001C567.3 213.001 567.5 213.101 567.7 213.101C567.9 213.001 568.1 212.801 568.1 212.601C568.3 212.001 568.3 211.401 568.1 210.801C568.1 210.701 568 210.501 567.9 210.401C567.6 210.201 567.3 210.501 567.1 210.801C566.8 211.301 566.4 211.801 566.4 212.401C566.4 213.001 566.9 213.601 567.5 213.501C567.8 213.401 568 213.201 568.3 213.101C569 212.801 569.8 213.601 569.5 214.301C569.9 214.101 570.3 213.701 570.3 213.201C570.9 213.501 571.5 213.801 572.1 214.001C572.5 213.501 572.9 213.001 573.3 212.501C574.5 213.101 576.2 212.201 576.2 210.901C576.2 210.401 575.9 209.701 575.4 209.801C575.2 209.801 575.1 209.901 574.9 210.001C573.9 210.801 574.3 212.701 575.5 213.201C576.7 213.701 578.2 213.001 578.8 211.801C578.6 212.301 578.9 212.901 579.3 213.201C579.7 213.501 580.4 213.401 580.7 213.001C581.2 213.801 582.4 214.001 583.2 213.501" stroke="black" stroke-width="0.5" stroke-miterlimit="10" stroke-linecap="round" stroke-linejoin="round"/>
<path d="M588 213.6C589.3 212.9 589.8 211.2 589 209.9C588.4 210.3 587.9 210.9 587.7 211.6C587.5 212.6 588.1 213.6 589.1 213.8C590.1 214 591.1 213 590.8 212.1C591.1 212.5 591.5 212.9 591.9 213.2C591.9 212.6 592.8 212.4 593.5 212.5C594.5 212.6 595.5 212.7 596.5 212.8C597 212.8 597.4 212.9 597.9 212.8C598.2 212.7 598.5 212.6 598.8 212.5C599.6 212.3 600.5 212.9 600.7 213.7C600.2 212.8 600.4 211.6 601.2 211C602 210.4 603.3 210.5 603.8 211.3C604.3 212.1 603.8 213.5 602.8 213.6C604.7 212.9 607 213.4 608.9 212.5C609.5 212.2 610.1 211.6 610.4 211C610.2 213.2 610 215.4 609.8 217.6C608.8 216.8 609.1 215.1 610 214.1C610.9 213.1 612.1 212.5 612.9 211.4C612.8 211.8 612.9 212.2 613.1 212.5C613.8 212.6 614.4 212.3 614.9 211.8C616.5 211.9 618.1 211.9 619.7 211.8C620.4 211.7 621.3 211.4 621.2 210.7C620.8 211 620.5 211.2 620.1 211.5" stroke="black" stroke-width="0.5" stroke-miterlimit="10" stroke-linecap="round" stroke-linejoin="round"/>
<path d="M563 225.201C563.2 224.501 563.4 223.701 562.8 223.301C562.1 222.801 561.1 223.601 560.8 224.401C560.5 225.201 560.3 226.201 560.9 226.801C561.5 227.401 562.9 226.901 562.6 226.001C562.7 226.601 563.5 227.101 564.1 227.001C564.8 226.901 565.3 226.401 565.6 225.801C566.1 226.001 566.5 226.401 566.7 226.901C567.3 226.701 567.8 226.301 568.1 225.801C568.6 226.501 569.6 226.701 570.3 226.401C571 226.101 571.5 225.101 571.2 224.301C569.9 224.101 568.6 225.401 568.9 226.701C569.1 228.001 570.8 228.701 571.9 228.001C572.5 227.601 572.9 226.901 573.5 226.601C573.6 227.101 574 227.601 574.4 228.001C574.6 227.401 575.2 226.601 575.8 226.901C576 227.001 576.1 227.201 576.3 227.301C577.1 228.001 578.3 227.201 579 226.501C579 227.101 579.5 227.701 580.1 227.701C580.7 227.701 581.1 227.301 581.6 227.001C582.1 226.701 582.7 226.501 583.2 226.801C583.7 227.101 583.4 228.101 582.8 227.901C582.2 226.501 584 224.701 585.4 225.401C586.8 226.001 586.6 228.501 585.1 229.001C585 227.601 586.2 226.301 587.6 226.201C587.9 226.601 588 227.101 587.8 227.601C588.4 226.701 589.9 226.701 590.7 227.501C591.4 228.301 591.5 229.601 590.9 230.601C590.4 231.601 589.5 232.301 588.5 232.801C589.2 230.401 590.4 228.101 591.8 226.101C591.9 226.001 592 225.801 592.2 225.901C592.4 226.001 592.2 226.301 592.1 226.101" stroke="black" stroke-width="0.5" stroke-miterlimit="10" stroke-linecap="round" stroke-linejoin="round"/>
<path d="M601.6 227.001C601.9 226.601 602.2 226.101 602.2 225.601C602.2 225.101 601.6 224.601 601.2 224.801C601 224.901 600.9 225.001 600.8 225.201C600.4 225.701 600 226.301 600 226.901C600 227.501 600.3 228.301 601 228.301C601.6 228.401 602.1 227.801 602.5 227.301C602.9 226.801 603.6 226.401 604.1 226.801C604.3 227.001 604.5 227.301 604.7 227.401C605.3 227.801 606 227.201 606.6 227.001C607.6 226.601 608.7 226.901 609.8 227.001C610.9 227.101 612.2 226.901 612.7 225.901" stroke="black" stroke-width="0.5" stroke-miterlimit="10" stroke-linecap="round" stroke-linejoin="round"/>
<path d="M563 240.801C563.6 240.601 563 239.501 562.4 239.601C561.8 239.701 561.4 240.401 561.2 241.001C561 241.601 560.7 242.201 560.8 242.901C560.9 243.501 561.4 244.201 562 244.101C563.1 244.001 563.7 242.201 564.8 242.401C565.2 242.501 565.5 242.801 565.8 243.001C566.7 243.501 567.9 243.001 568.3 242.101C568.8 242.901 569.8 243.201 570.7 243.401C571.4 243.501 572.2 243.601 572.9 243.301C573.6 243.001 574.2 242.401 574.2 241.601C574.2 240.801 573.3 240.201 572.6 240.501C572.3 241.101 572.1 241.701 572.1 242.401C572.1 243.101 572.6 243.801 573.2 243.901C573.9 244.001 574.6 243.401 575.3 243.101C576 242.801 577.1 243.501 576.6 244.101C577.2 243.401 578.1 242.701 579 243.001C579.3 243.101 579.5 243.301 579.8 243.401C580.7 243.801 581.8 243.401 582.4 242.601C583.8 243.901 585.9 243.601 587.7 243.101C588.1 243.001 588.6 242.801 588.8 242.501C589.3 241.801 588.4 240.701 587.6 241.001C586.8 241.201 586.4 242.301 586.8 243.101C587.2 243.801 588.2 244.101 589 243.901C589.8 243.701 590.5 243.101 591 242.401C591.2 242.801 591.4 243.201 591.6 243.601" stroke="black" stroke-width="0.5" stroke-miterlimit="10" stroke-linecap="round" stroke-linejoin="round"/>
<path d="M593.6 243.601C593.8 242.701 594 241.701 594.2 240.801C593.2 241.301 593.8 243.101 594.9 243.201C596 243.301 597 242.401 597.4 241.301C597.6 241.901 598.1 242.501 598.7 242.801C600.1 243.601 602.1 243.301 603.2 242.101C604.3 240.901 604.4 238.901 603.5 237.601C602.7 237.901 602.6 239.101 603.1 239.801C603.6 240.501 604.4 240.801 605.2 241.101C606 241.401 606.9 241.601 607.5 242.201C607.8 242.501 608.1 242.901 608.5 242.901C608.7 242.901 609 242.801 609.2 242.601C610.4 241.901 611.9 241.901 613.3 242.001C616.3 242.101 619.4 242.201 622.4 242.301" stroke="black" stroke-width="0.5" stroke-miterlimit="10" stroke-linecap="round" stroke-linejoin="round"/>
<path d="M564.3 310.001C564.3 309.501 563.6 309.301 563.2 309.601C562.8 309.901 562.7 310.401 562.7 310.901C562.6 311.201 562.6 311.601 562.7 311.901C562.8 312.201 563.1 312.501 563.4 312.501C563.7 312.501 563.9 312.301 564 312.101C564.5 311.601 564.8 311.001 565.1 310.401C565.3 310.801 565.6 311.201 565.9 311.501C566.1 311.301 566.3 311.101 566.4 310.901C566.6 311.501 567.7 311.601 567.9 310.901C567.9 311.501 568.7 311.901 569.3 311.601C569.9 311.401 570.2 310.801 570.4 310.201C570.5 309.901 570.5 309.401 570.2 309.301C569.9 309.301 569.8 309.601 569.7 309.901C569.5 310.501 569.5 311.401 570.1 311.501C570.7 311.601 571 310.901 571.6 310.801C572 310.701 572.5 311.001 572.6 311.401C572.8 311.201 572.9 310.901 573.2 310.801C573.4 310.701 573.8 310.701 573.9 310.901C574 311.101 574.1 311.401 574.3 311.401C574.5 311.401 574.6 311.301 574.7 311.201C575 310.901 575.3 310.501 575.6 310.201C575.6 310.601 575.7 311.001 575.9 311.301C576.3 311.301 576.6 311.001 576.9 310.901C577.2 310.701 577.7 310.701 577.9 311.101C578 311.301 577.9 311.501 577.9 311.701C577.5 312.801 576.8 313.701 575.9 314.301C575.8 312.801 577.1 311.401 578.6 311.401" stroke="black" stroke-width="0.5" stroke-miterlimit="10" stroke-linecap="round" stroke-linejoin="round"/>
<path d="M586.5 311.001C586.2 310.501 585.9 309.901 586.3 309.501C586.7 309.101 587.4 309.501 587.6 310.001C587.8 310.501 587.6 311.101 587.4 311.601C587.4 311.201 587.6 310.701 587.9 310.401C588.2 310.801 588.4 311.201 588.7 311.601C588.9 311.101 589.3 310.601 589.8 310.801C589.9 310.901 590 311.001 590.1 311.201C590.5 311.601 591.4 311.401 591.5 310.801C591.7 311.601 592.8 311.801 593.5 311.501C594.2 311.201 594.7 310.401 595.1 309.701C595.2 309.501 595.4 309.301 595.4 309.001C595.4 308.801 595.2 308.501 595 308.501C594.9 308.501 594.8 308.501 594.7 308.601C594.2 308.901 593.9 309.501 594 310.101C594.1 310.701 594.5 311.201 595.1 311.401C596.1 311.701 597.1 311.001 597.9 310.301C598 310.901 598.8 311.401 599.4 311.001C599.6 310.901 599.8 310.601 600.1 310.601C600.4 310.601 600.6 310.801 600.9 310.901C601.7 311.401 602.9 311.101 603.5 310.301" stroke="black" stroke-width="0.5" stroke-miterlimit="10" stroke-linecap="round" stroke-linejoin="round"/>
<path d="M565.3 321.401C565.4 320.701 565.2 319.601 564.5 319.701C564.1 319.801 563.9 320.201 563.8 320.601C563.6 321.301 563.6 322.101 563.7 322.801C563.8 323.501 564.2 324.301 564.9 324.401C565.9 324.501 566.4 323.101 566.5 322.101C566.4 322.701 566.7 323.301 567.1 323.801C567.7 323.501 568.1 322.901 568.2 322.301C568.3 322.901 568.5 323.601 568.6 324.201C569.3 323.601 569.7 322.801 569.9 321.901C569.2 322.001 569.2 323.201 569.8 323.501C570.4 323.801 571.3 323.401 571.5 322.701C571.3 323.001 571.7 323.301 572.1 323.201C572.4 323.101 572.6 322.701 572.7 322.401C573 323.901 572.7 325.501 571.9 326.801C571.5 325.801 571.6 324.701 572.1 323.801C572.5 323.201 573.1 322.701 573.8 323.001C574.4 323.201 574.4 324.501 573.7 324.401C573.2 324.001 574 323.401 574.6 323.301C575.8 323.101 577 323.101 578.3 323.001C579.3 323.001 580.3 323.001 581.2 322.501C582.1 322.001 582.6 320.801 582.1 320.001C582 319.801 581.9 319.701 581.7 319.601C581.2 319.401 580.7 319.701 580.4 320.101C579.7 321.001 579.9 322.501 580.9 323.101C581.9 323.701 583.4 323.001 583.4 321.801C583.6 322.801 585.2 323.201 585.8 322.301C585.9 323.001 586.9 323.401 587.4 322.901C587.8 323.701 589 323.801 589.5 323.101C590.6 323.801 592.4 323.001 592.5 321.701C592 321.501 591.3 321.901 591.3 322.501C591.3 323.101 591.7 323.601 592.2 323.601C593.1 323.601 593.7 322.401 594.6 322.401C594.4 322.801 595 323.201 595.5 323.101C596 323.001 596.3 322.701 596.8 322.601C597.3 322.601 597.8 322.901 598.3 322.801C598.8 322.701 599.2 322.001 599.8 322.101C600.3 322.201 600.5 322.801 601 322.801C601.4 322.801 601.6 322.401 602 322.201C602.9 321.901 604 323.401 604.6 322.701C604.3 323.601 603.2 324.201 602.3 324.001C602.8 323.001 603.7 322.201 604.7 321.901" stroke="black" stroke-width="0.5" stroke-miterlimit="10" stroke-linecap="round" stroke-linejoin="round"/>
<path d="M550.8 332.801C550.8 333.601 550.8 334.601 551.3 335.201C552 336.101 553.3 336.301 554.5 336.301C574.5 336.801 594.5 336.901 614.5 336.601C615.1 336.601 615.7 336.601 616.1 336.101C616.5 335.701 616.5 335.101 616.5 334.501C616.2 324.901 615.9 315.401 615.6 305.801C615.5 302.901 615.2 299.601 612.9 297.901C611.1 296.601 608.7 296.601 606.5 296.701C594 297.201 581.6 297.301 569.1 297.101C566.1 297.101 563.1 297.001 560.1 296.901C558.4 296.901 553.1 295.801 551.8 297.001C549.8 298.901 551.2 309.401 551.2 312.301C551 319.201 550.9 326.001 550.8 332.801Z" stroke="black" stroke-width="0.5" stroke-miterlimit="10" stroke-linecap="round" stroke-linejoin="round"/>
<path d="M432.1 317.601C432.1 318.401 432.1 319.401 432.6 320.001C433.3 320.901 434.6 321.101 435.8 321.101C455.8 321.601 475.8 321.701 495.8 321.401C496.4 321.401 497 321.401 497.4 320.901C497.8 320.501 497.8 319.901 497.8 319.301C497.5 309.701 497.2 300.201 496.9 290.601C496.8 287.701 496.5 284.401 494.2 282.701C492.4 281.401 490 281.401 487.8 281.501C475.3 282.001 462.9 282.101 450.4 281.901C447.4 281.901 444.4 281.801 441.4 281.701C439.7 281.701 434.4 280.601 433.1 281.801C431.1 283.701 432.5 294.201 432.5 297.101C432.4 304.001 432.3 310.801 432.1 317.601Z" stroke="black" stroke-width="0.5" stroke-miterlimit="10" stroke-linecap="round" stroke-linejoin="round"/>
<path d="M447.4 298.401C446.1 298.701 445.2 300.301 445.7 301.601C446.7 301.301 447.5 300.501 448 299.501C448.2 300.101 448.4 300.801 448.7 301.401C449.2 301.401 449.3 300.501 449.8 300.301C450.2 300.101 450.6 300.301 451 300.501C451.4 300.601 452 300.601 452.1 300.201C452.2 300.801 453.1 301.101 453.6 300.801C454.2 300.501 454.5 299.901 454.6 299.201C454.7 298.701 454.7 298.001 454.2 297.701C453.7 297.501 453.2 297.701 452.9 298.201C452.6 298.601 452.6 299.201 452.7 299.701C452.7 300.101 452.8 300.601 453.1 300.901C453.5 301.301 454.2 301.201 454.7 300.901C455.2 300.601 455.5 300.001 455.7 299.501C455.7 300.101 456 300.601 456.5 301.001C457.1 300.701 457.6 300.401 458.1 299.901C458.7 300.701 460.1 300.501 460.6 299.601C460.7 300.401 461.7 300.801 462.5 300.601C463.3 300.401 463.9 299.801 464.5 299.201C465.7 301.501 464.7 304.601 462.4 305.801C462 303.701 462.9 301.501 464.5 300.201C464.7 300.001 464.9 299.901 465.1 299.901C465.5 299.901 465.9 300.201 466 300.601C466.1 301.001 466 301.401 465.9 301.801C466.5 300.901 467.5 300.301 468.5 300.201C468.6 300.601 468.8 301.101 469.2 301.401" stroke="black" stroke-width="0.5" stroke-miterlimit="10" stroke-linecap="round" stroke-linejoin="round"/>
<path d="M477.2 299.201C476.8 298.501 477.2 297.501 476.6 296.901C476.2 296.501 475.4 296.701 475 297.201C474.6 297.701 474.5 298.301 474.5 299.001C474.5 299.201 474.5 299.401 474.5 299.601C474.7 299.901 475.1 300.101 475.5 300.001C475.9 299.901 476.2 299.601 476.5 299.401C476.6 300.001 476.9 300.501 477.3 300.901C477.6 300.101 478.7 299.701 479.5 300.101C479.8 300.301 480.2 300.601 480.5 300.501C481 300.401 481.2 299.601 481.7 299.701C481.9 299.801 482 299.901 482.1 300.101C482.5 300.501 483.2 300.501 483.7 300.301C484.2 300.001 484.6 299.601 485 299.101C485.2 298.801 485.4 298.601 485.4 298.201C485.4 297.901 485.2 297.601 485 297.401C484.1 296.601 482.5 296.701 481.8 297.701C481 298.601 481.3 300.201 482.2 300.901C483.2 301.601 484.7 301.301 485.4 300.301C485.5 300.101 485.6 300.001 485.7 299.901C485.9 299.801 486.1 299.901 486.1 300.001C488.9 297.101 489.1 293.701 487.7 289.901C487.5 289.401 487.3 289.001 486.9 288.701C486.4 288.501 485.8 288.701 485.4 289.101C485 289.501 484.8 290.001 484.6 290.501" stroke="black" stroke-width="0.5" stroke-miterlimit="10" stroke-linecap="round" stroke-linejoin="round"/>
<path d="M665.7 332.601C665.7 333.401 665.7 334.401 666.1 335.001C666.7 335.901 667.7 336.101 668.7 336.101C684.8 336.601 700.9 336.701 717 336.401C717.5 336.401 718 336.401 718.3 335.901C718.6 335.501 718.6 334.901 718.6 334.301C718.4 324.701 718.1 315.201 717.9 305.601C717.8 302.701 717.6 299.401 715.8 297.701C714.4 296.401 712.4 296.401 710.7 296.501C700.7 297.001 690.7 297.101 680.7 296.901C678.3 296.901 675.9 296.801 673.5 296.701C672.1 296.701 667.8 295.601 666.8 296.801C665.2 298.701 666.3 309.201 666.3 312.101C665.9 319.001 665.8 325.801 665.7 332.601Z" stroke="black" stroke-width="0.5" stroke-miterlimit="10" stroke-linecap="round" stroke-linejoin="round"/>
<path d="M675.3 310.101C675.4 309.801 674.9 309.801 674.8 310.001C674.4 310.501 674.2 311.301 674.3 312.101C674.3 312.201 674.3 312.301 674.4 312.401C674.5 312.501 674.7 312.401 674.8 312.201C675 311.901 675.3 311.601 675.5 311.401C675.6 311.701 675.6 312.001 675.7 312.301C676 312.201 676.2 312.001 676.4 311.701C676.5 311.901 676.5 312.101 676.5 312.301C676.8 312.401 677.2 312.301 677.4 312.101C677.3 312.501 677.6 312.801 677.9 312.801C678.2 312.801 678.5 312.601 678.7 312.301C679.2 311.801 679.7 310.901 679.4 310.201C678.9 310.701 678.7 311.401 678.6 312.101C678.6 312.301 678.6 312.501 678.7 312.601C678.9 313.001 679.4 312.901 679.7 312.701C680 312.401 680.3 312.001 680.7 311.901C680.9 312.201 681 312.501 681.2 312.701C681.5 312.701 681.7 312.001 682 312.101C682.1 312.101 682.2 312.301 682.3 312.401C682.7 312.801 683.4 312.501 683.5 311.901C683.7 312.401 684.3 312.401 684.7 312.201C685.1 312.001 685.6 311.701 686 312.001C686.5 312.401 686.3 313.401 686 314.101C685.7 314.601 685.3 315.001 684.8 315.401C684.5 314.301 685.3 313.201 686 312.401C686.2 312.101 686.5 311.801 686.8 311.701C687.1 311.601 687.5 311.901 687.5 312.301C687.4 311.701 688 311.401 688.5 311.401C689 311.501 689.4 311.901 689.8 311.901C690 311.901 690.2 311.901 690.5 312.001C690.7 312.101 691 312.201 691.2 312.301C691.9 312.401 692.6 311.601 692.5 310.801C692.5 310.401 692.2 310.101 691.9 310.101C691.8 310.101 691.7 310.201 691.6 310.401C691.1 311.001 690.7 312.001 691.1 312.701C691.4 313.401 692.2 313.601 692.8 313.401C693.4 313.201 693.9 312.701 694.4 312.201C694.7 312.701 694.9 313.301 695.4 313.601C695.9 313.901 696.5 313.601 696.6 313.001" stroke="black" stroke-width="0.5" stroke-miterlimit="10" stroke-linecap="round" stroke-linejoin="round"/>
<path d="M701.6 312.201C701.9 312.301 702.2 312.201 702.3 311.901C702.5 311.601 702.5 311.301 702.6 310.901C702.6 310.601 702.6 310.301 702.4 310.201C702.2 310.101 702 310.201 701.9 310.301C701.4 310.801 701 311.501 700.8 312.301C700.8 312.401 700.8 312.601 700.8 312.701C700.9 313.201 701.4 313.201 701.8 313.101C702.1 313.001 702.4 312.901 702.6 312.701C702.7 312.601 702.9 312.501 703 312.601C703.1 312.701 703.2 312.901 703.3 313.001C703.5 313.301 703.9 313.201 704.2 313.101C704.5 313.001 704.8 312.801 705.1 313.001C705.3 313.101 705.5 313.401 705.7 313.501C706 313.601 706.3 313.201 706.6 313.401C706.7 313.401 706.7 313.501 706.8 313.601C707.2 314.001 707.7 314.101 708.1 313.901C708.5 313.701 708.9 313.201 709 312.701C709 312.501 709 312.301 708.9 312.201C708.8 312.101 708.6 312.201 708.5 312.301C708.1 312.601 707.7 313.001 707.4 313.501" stroke="black" stroke-width="0.5" stroke-miterlimit="10" stroke-linecap="round" stroke-linejoin="round"/>
<path d="M676.4 321.801C676.7 321.601 677 321.301 677 320.901C677 320.401 676.4 320.301 676.1 320.501C675.8 320.801 675.7 321.301 675.5 321.701C675.4 322.001 675.3 322.401 675.4 322.701C675.5 323.001 675.7 323.401 676 323.301C676.1 323.301 676.3 323.201 676.4 323.101C676.9 322.701 677.4 322.301 677.9 321.801C677.7 322.301 678.4 322.701 678.8 322.601C679.2 322.501 679.7 322.101 680.1 322.301C680.3 322.401 680.5 322.701 680.8 322.701C681 322.701 681.2 322.401 681.4 322.401C681.5 322.401 681.6 322.501 681.7 322.601C682.6 323.401 684.1 322.601 684.2 321.301C683.8 321.501 683.6 322.001 683.6 322.601C684 322.801 684.4 322.601 684.8 322.501C685.2 322.401 685.6 322.301 686 322.501C686.4 322.701 686.4 323.501 686.1 323.701C686.4 322.701 687.8 322.601 688.1 323.601C688.6 323.501 688.9 323.101 689.4 322.901C689.9 322.701 690.5 323.201 690.3 323.701C690.7 323.201 691.3 323.201 691.9 323.301C692.5 323.401 693 323.501 693.5 323.201C694 322.901 694.3 322.001 694 321.501C693.5 321.101 692.8 321.901 693 322.601C693.2 323.301 693.9 323.601 694.4 323.401C695 323.201 695.4 322.601 695.6 321.901C695.3 321.901 695.1 322.301 695.1 322.701C695.4 322.801 695.7 322.501 696 322.301C696.3 322.101 696.7 322.001 696.9 322.301C697 322.401 697 322.601 697 322.801C697 324.801 696.5 326.701 695.6 328.401C695.2 327.901 695.5 327.101 695.8 326.501C696.3 325.501 697 324.401 698 324.201C698.4 324.201 698.9 324.301 699.3 324.201C699.7 324.101 700.2 323.701 700.1 323.201C700.2 323.401 700.2 323.601 700.3 323.801C700.5 323.601 700.8 323.701 700.9 324.001" stroke="black" stroke-width="0.5" stroke-miterlimit="10" stroke-linecap="round" stroke-linejoin="round"/>
<path d="M657 514.4C657 515.1 657 515.8 657.3 516.3C657.7 517.1 658.6 517.1 659.3 517.2C672 517.6 684.8 517.7 697.5 517.5C697.9 517.5 698.3 517.5 698.5 517.1C698.7 516.8 698.7 516.3 698.7 515.8C698.5 508.2 698.3 500.6 698.1 493C698 490.7 697.9 488.1 696.4 486.7C695.3 485.6 693.7 485.7 692.3 485.7C684.4 486.1 676.4 486.2 668.5 486C666.6 486 664.7 485.9 662.8 485.9C661.7 485.9 658.3 485 657.5 486C656.2 487.5 657.1 495.8 657.1 498.1C657.2 503.7 657.1 509 657 514.4Z" stroke="black" stroke-width="0.5" stroke-miterlimit="10" stroke-linecap="round" stroke-linejoin="round"/>
<path d="M666.8 496.6C667 495.8 665.8 495.401 665.2 495.901C664.6 496.401 664.5 497.3 664.5 498.1C664.5 498.7 664.7 499.501 665.2 499.501C665.5 499.501 665.7 499.3 665.9 499.1C666.4 498.6 666.7 498.001 666.9 497.401C667.2 497.701 667.3 498.101 667.4 498.501C667.8 498.301 668.1 498 668.4 497.6C668.5 498.1 668.7 498.6 668.8 499.1C669.2 498.8 669.6 498.601 670.1 498.301C670.8 498.801 671.9 498.301 672.2 497.401C672.5 496.601 672.3 495.601 671.9 494.801C671.4 495.401 671.2 496.201 671.2 496.901C671.2 497.401 671.5 498.001 672 498.001C672.3 498.001 672.5 497.8 672.7 497.6C673.3 497 673.9 496.301 674.5 495.701C675.4 497.101 675.8 498.801 675.4 500.401C675.3 500.901 674.8 501.601 674.3 501.401C674.1 501.301 673.9 501.001 673.9 500.801C673.6 499.201 674.6 497.5 676.1 497.1C676.4 497.6 676.6 498.201 676.9 498.701C677.3 498.301 677.7 497.901 678.2 497.501C678.3 497.401 678.4 497.301 678.6 497.201C679.2 497.101 679.3 498.101 679.9 498.201C680.4 498.301 680.6 497.601 681 497.401C681.4 497.201 681.8 497.5 682.2 497.6C682.6 497.7 683.2 497.701 683.3 497.301C683.2 498.001 684.3 498.301 684.9 497.901C685.5 497.501 685.6 496.701 685.7 496.001C685.7 495.601 685.7 495.101 685.3 495.001C684.4 495.601 684.2 497.101 685 497.801C685.8 498.501 687.4 498.001 687.4 496.901C688 498.601 690.9 499.001 691.9 497.401C692.8 497.201 693.3 496.001 692.7 495.201C692.1 494.501 690.8 494.601 690.4 495.401C690 496.201 690.7 497.401 691.6 497.401" stroke="black" stroke-width="0.5" stroke-miterlimit="10" stroke-linecap="round" stroke-linejoin="round"/>
<path d="M669.5 505.1C669.7 504.5 669 503.9 668.4 503.9C667.8 504 667.3 504.6 667.1 505.2C666.9 505.8 667 506.5 667.1 507.1C667.7 507 667.9 506.2 668.5 505.9C669.1 505.7 669.9 506.3 669.7 506.9C670.1 506.2 671.1 505.9 671.8 506.3C672.2 506.6 672.6 507 673.1 506.8C673.3 506.7 673.4 506.4 673.6 506.2C674.3 505.6 675.3 507.1 676.2 506.8C676.5 506.7 676.7 506.4 677 506.1C677.5 505.6 678.3 505.5 679 505.3C679.7 505.1 680.4 504.4 680.1 503.7C679.5 503.6 678.9 504 678.7 504.6C678.6 504.8 678.6 505 678.7 505.1C678.9 505.7 679.8 505.5 680.3 505.1C680.8 504.7 681.5 504.3 682 504.7C682 505 682 505.2 682 505.5C683.1 505.5 684.2 505.4 685.3 505.4C685.9 505.4 686.5 505.3 687 505C687.5 504.7 687.7 503.9 687.3 503.5C687.3 503.9 687.3 504.3 687.3 504.8C687.7 505.2 688.4 504.7 688.8 504.2C689.2 503.7 689.9 503.2 690.3 503.7C690.4 503.8 690.4 504 690.5 504.2C690.7 505.8 690.7 507.4 690.3 508.9C689.7 506.9 690.9 504.5 692.8 503.6" stroke="black" stroke-width="0.5" stroke-miterlimit="10" stroke-linecap="round" stroke-linejoin="round"/>
<path d="M674.1 416.201C675 416.801 675.4 416.901 676.3 417.601C677 417.101 677.8 416.801 678.5 416.201" stroke="black" stroke-width="0.5" stroke-miterlimit="10" stroke-linecap="round" stroke-linejoin="round"/>
<path d="M497 399.301C497.9 399.901 498.3 400.001 499.2 400.701C499.9 400.201 500.7 399.901 501.4 399.301" stroke="black" stroke-width="0.5" stroke-miterlimit="10" stroke-linecap="round" stroke-linejoin="round"/>
<path d="M499.3 400.8V380.9" stroke="black" stroke-width="0.5" stroke-miterlimit="10" stroke-linecap="round" stroke-linejoin="round"/>
<path d="M676.2 417.101V381.001" stroke="black" stroke-width="0.5" stroke-miterlimit="10" stroke-linecap="round" stroke-linejoin="round"/>
<path d="M584.2 381.501L584.1 336.801" stroke="black" stroke-width="0.5" stroke-miterlimit="10" stroke-linecap="round" stroke-linejoin="round"/>
<path d="M499.1 381.101C521.9 381.801 544.8 382.101 567.7 382.101C579.5 382.101 591.2 382.001 603 381.901C607.4 381.901 611.7 381.801 616.1 381.801C636.2 381.601 656.3 381.401 676.3 381.101" stroke="black" stroke-width="0.5" stroke-miterlimit="10" stroke-linecap="round" stroke-linejoin="round"/>
<path d="M674.1 416.201C675 416.801 675.4 416.901 676.3 417.601C677 417.101 677.8 416.801 678.5 416.201" stroke="black" stroke-width="0.5" stroke-miterlimit="10" stroke-linecap="round" stroke-linejoin="round"/>
<path d="M497 399.301C497.9 399.901 498.3 400.001 499.2 400.701C499.9 400.201 500.7 399.901 501.4 399.301" stroke="black" stroke-width="0.5" stroke-miterlimit="10" stroke-linecap="round" stroke-linejoin="round"/>
<path d="M499.3 400.8V380.9" stroke="black" stroke-width="0.5" stroke-miterlimit="10" stroke-linecap="round" stroke-linejoin="round"/>
<path d="M676.2 417.101V381.001" stroke="black" stroke-width="0.5" stroke-miterlimit="10" stroke-linecap="round" stroke-linejoin="round"/>
<path d="M584.2 381.501L584.1 336.801" stroke="black" stroke-width="0.5" stroke-miterlimit="10" stroke-linecap="round" stroke-linejoin="round"/>
<path d="M499.1 381.101C521.9 381.801 544.8 382.101 567.7 382.101C579.5 382.101 591.2 382.001 603 381.901C607.4 381.901 611.7 381.801 616.1 381.801C636.2 381.601 656.3 381.401 676.3 381.101" stroke="black" stroke-width="0.5" stroke-miterlimit="10" stroke-linecap="round" stroke-linejoin="round"/>
<path d="M584.2 257.801V296.601" stroke="black" stroke-width="0.5" stroke-miterlimit="10" stroke-linecap="round" stroke-linejoin="round"/>
<path d="M582 295.001C582.9 295.701 583.3 295.801 584.2 296.601C584.9 296.001 585.7 295.601 586.4 295.001" stroke="black" stroke-width="0.5" stroke-miterlimit="10" stroke-linecap="round" stroke-linejoin="round"/>
<path d="M480.6 409.201C476.6 414.101 473.9 420.301 474.1 426.601C474.4 435.201 480.2 443.201 488.1 446.701C496 450.201 505.5 449.301 513 445.001C517.3 442.601 521 439.001 523 434.501C526.7 426.501 524.5 416.501 518.6 410.001C508.6 399.201 490.4 397.401 480.6 409.201Z" stroke="black" stroke-width="0.5" stroke-miterlimit="10" stroke-linecap="round" stroke-linejoin="round"/>
<path d="M487.2 418.501C487.4 418.101 487.1 417.701 486.7 417.601C486.3 417.501 485.9 417.801 485.7 418.201C485.5 418.501 485.5 419.001 485.4 419.401C485.4 419.801 485.4 420.301 485.7 420.601C486.1 420.901 486.7 420.801 487 420.401C487.3 420.001 487.5 419.601 487.6 419.101C487.3 419.401 487.8 420.001 488.3 419.801C488.7 419.701 489 419.201 489.1 418.801C489.3 419.201 489.8 419.701 490.2 419.501C490.3 419.501 490.4 419.401 490.5 419.401C490.7 419.401 490.8 419.601 490.9 419.701C491.2 420.101 491.9 419.901 492.2 419.601C492.5 419.301 492.6 418.701 492.7 418.301C492.8 418.001 492.8 417.601 492.5 417.501C492.2 417.301 491.9 417.701 491.7 418.001C491.5 418.501 491.4 419.001 491.4 419.601C491.4 420.001 491.5 420.501 491.8 420.701C492.2 421.001 492.8 420.901 493.2 420.501C493.6 420.101 493.7 419.601 493.9 419.201C494.3 419.501 494.5 420.101 494.4 420.601C494.6 420.301 494.9 419.901 495.1 419.601C495.1 420.001 495.5 420.401 495.9 420.401C496.3 420.401 496.7 420.101 496.7 419.601C496.8 420.001 497.1 420.301 497.5 420.401C497.9 420.401 498.3 420.201 498.5 419.801C498.7 420.101 498.4 420.401 498.6 420.701C498.8 421.001 499.3 420.901 499.5 420.601C499.7 420.301 499.7 419.901 499.6 419.601C499.2 419.901 499.1 420.601 499.4 421.001" stroke="black" stroke-width="0.5" stroke-miterlimit="10" stroke-linecap="round" stroke-linejoin="round"/>
<path d="M507.6 419.301C508 419.201 508.2 418.701 508.3 418.301C508.4 417.901 508.4 417.301 508 417.101C507.8 417.001 507.5 417.101 507.3 417.301C507.1 417.501 507 417.701 507 418.001C506.9 418.401 506.8 418.801 506.9 419.201C507 419.601 507.3 420.001 507.7 420.001C508 420.001 508.2 419.901 508.5 419.701C508.9 419.401 509.2 419.101 509.4 418.801C509.5 418.701 509.5 418.601 509.6 418.601C509.8 418.601 509.9 418.901 509.9 419.001C510.1 419.301 510.5 419.401 510.9 419.201C511.2 419.001 511.5 418.701 511.7 418.401C511.7 418.801 512 419.101 512.4 419.101C512.8 419.101 513.1 418.901 513.2 418.501C513.3 419.001 513.9 419.201 514.4 419.001C514.9 418.801 515.1 418.301 515.2 417.801C515.2 417.501 515.2 417.101 515.1 416.801C514.9 416.501 514.6 416.301 514.2 416.401C513.8 416.501 513.6 417.001 513.5 417.401C513.3 417.901 513.2 418.601 513.7 418.901C514.4 419.301 515 418.001 515.8 418.101C516.2 418.201 516.5 418.601 516.5 419.001C516.5 419.401 516.3 419.801 516.1 420.201C516.1 419.901 516.3 419.501 516.6 419.401C516.9 419.301 517.3 419.501 517.3 419.901" stroke="black" stroke-width="0.5" stroke-miterlimit="10" stroke-linecap="round" stroke-linejoin="round"/>
<path d="M481 433.501C480.3 432.401 480.5 430.801 481.6 430.001C481.7 429.901 481.9 429.801 482.1 429.901C482.3 430.001 482.3 430.201 482.3 430.401C482.3 431.001 482.4 431.601 482.4 432.201C482.8 432.301 482.9 431.601 483.3 431.501C483.7 431.401 483.8 432.001 484.1 432.201C484.5 432.701 485.4 432.201 485.3 431.601C485.5 432.501 486.8 432.801 487.4 432.101C487.9 431.401 487.3 430.201 486.4 430.201C485.5 430.201 485 431.201 485.2 432.101C485.4 432.901 486.2 433.501 487 433.801C487.6 434.001 488.2 434.101 488.8 433.801C489.6 433.501 490.1 432.601 490 431.801C489.5 431.901 489.5 432.801 490 433.001C490.5 433.201 491.1 432.701 491.2 432.201C491 432.701 491.7 433.201 492.2 433.001C492.7 432.801 493 432.301 493.2 431.801C493.1 432.301 493.5 432.801 493.9 432.801C494.4 432.901 494.9 432.501 494.8 432.001C495 432.501 495.5 432.901 496.1 432.801C496.7 432.701 497.1 432.201 497.1 431.701C497.1 432.101 497.4 432.401 497.8 432.601" stroke="black" stroke-width="0.5" stroke-miterlimit="10" stroke-linecap="round" stroke-linejoin="round"/>
<path d="M501.3 432.201C501.8 431.801 502.3 431.401 502.5 430.901C502.8 430.301 502.7 429.601 502.2 429.301C501.9 429.801 501.7 430.401 501.7 431.001C501.7 431.301 501.7 431.501 501.9 431.701C502.2 432.101 502.8 432.101 503.2 431.801C503.6 431.601 503.9 431.101 504.1 430.701C504.3 431.301 504.8 432.001 505.4 431.701C505.8 431.501 506 431.001 506.4 431.101C506.6 431.201 506.7 431.401 506.8 431.501C507.1 431.701 507.5 431.601 507.7 431.401C507.9 431.201 508.1 430.901 508.2 430.601C508.6 431.501 510.2 431.401 510.5 430.501C511.2 431.201 512.5 431.101 513.2 430.301C513.9 429.601 513.8 428.301 513.1 427.601C512.8 428.201 512.5 428.801 512.6 429.401C512.7 430.001 513.3 430.601 513.9 430.401C514.3 430.301 514.6 429.801 515 429.601C515 430.201 515.5 430.701 516.1 430.801C516.7 430.901 517.3 430.601 517.5 430.001C517.9 430.401 518.5 430.501 519 430.301C519.5 430.101 520 429.801 520.4 429.501" stroke="black" stroke-width="0.5" stroke-miterlimit="10" stroke-linecap="round" stroke-linejoin="round"/>
<path d="M318.5 301.001C314.5 305.901 311.8 312.101 312 318.401C312.3 327.001 318.1 335.001 326 338.501C333.9 342.001 343.4 341.101 350.9 336.801C355.2 334.401 358.9 330.801 360.9 326.301C364.6 318.301 362.4 308.301 356.5 301.801C346.5 290.901 328.3 289.101 318.5 301.001Z" stroke="black" stroke-width="0.5" stroke-miterlimit="10" stroke-linecap="round" stroke-linejoin="round"/>
<path d="M325.1 310.301C325.3 309.901 325 309.501 324.6 309.401C324.2 309.301 323.8 309.601 323.6 310.001C323.4 310.301 323.4 310.801 323.3 311.201C323.3 311.601 323.3 312.101 323.6 312.401C324 312.701 324.6 312.601 324.9 312.201C325.2 311.801 325.4 311.401 325.5 310.901C325.2 311.201 325.7 311.801 326.2 311.601C326.6 311.501 326.9 311.001 327 310.601C327.2 311.001 327.7 311.501 328.1 311.301C328.2 311.301 328.3 311.201 328.4 311.201C328.6 311.201 328.7 311.401 328.8 311.501C329.1 311.901 329.8 311.701 330.1 311.401C330.4 311.101 330.5 310.501 330.6 310.101C330.7 309.801 330.7 309.401 330.4 309.301C330.1 309.101 329.8 309.501 329.6 309.801C329.4 310.301 329.3 310.801 329.3 311.401C329.3 311.801 329.4 312.301 329.7 312.501C330.1 312.801 330.7 312.701 331.1 312.301C331.5 311.901 331.6 311.401 331.8 311.001C332.2 311.301 332.4 311.901 332.3 312.401C332.5 312.101 332.8 311.701 333 311.401C333 311.801 333.4 312.201 333.8 312.201C334.2 312.201 334.6 311.901 334.6 311.401C334.7 311.801 335 312.101 335.4 312.201C335.8 312.201 336.2 312.001 336.4 311.601C336.6 311.901 336.3 312.201 336.5 312.501C336.7 312.801 337.2 312.701 337.4 312.401C337.6 312.101 337.6 311.701 337.5 311.401C337.1 311.701 337 312.401 337.3 312.801" stroke="black" stroke-width="0.5" stroke-miterlimit="10" stroke-linecap="round" stroke-linejoin="round"/>
<path d="M345.4 311.001C345.8 310.901 346 310.401 346.1 310.001C346.2 309.601 346.2 309.001 345.8 308.901C345.6 308.801 345.3 308.901 345.1 309.101C344.9 309.301 344.8 309.501 344.8 309.801C344.7 310.201 344.6 310.601 344.7 311.001C344.8 311.401 345.1 311.801 345.5 311.801C345.8 311.801 346 311.701 346.3 311.501C346.7 311.201 347 310.901 347.2 310.601C347.3 310.501 347.3 310.401 347.4 310.401C347.6 310.401 347.7 310.701 347.7 310.801C347.9 311.101 348.3 311.201 348.7 311.001C349 310.801 349.3 310.501 349.5 310.201C349.5 310.601 349.8 310.901 350.2 310.901C350.6 310.901 350.9 310.701 351 310.301C351.1 310.801 351.7 311.001 352.2 310.801C352.7 310.601 352.9 310.101 353 309.601C353 309.301 353 308.901 352.9 308.601C352.7 308.301 352.4 308.101 352 308.201C351.6 308.301 351.4 308.801 351.3 309.201C351.1 309.701 351 310.401 351.5 310.701C352.2 311.101 352.8 309.801 353.6 309.901C354 310.001 354.3 310.401 354.3 310.801C354.3 311.201 354.1 311.601 353.9 312.001C353.9 311.701 354.1 311.301 354.4 311.201C354.7 311.101 355.1 311.301 355.1 311.701" stroke="black" stroke-width="0.5" stroke-miterlimit="10" stroke-linecap="round" stroke-linejoin="round"/>
<path d="M318.9 325.301C318.2 324.201 318.4 322.601 319.5 321.801C319.6 321.701 319.8 321.601 320 321.701C320.2 321.801 320.2 322.001 320.2 322.201C320.2 322.801 320.3 323.401 320.3 324.001C320.7 324.101 320.8 323.401 321.2 323.301C321.6 323.201 321.7 323.801 322 324.001C322.4 324.501 323.3 324.001 323.2 323.401C323.4 324.301 324.7 324.601 325.3 323.901C325.9 323.201 325.2 322.001 324.3 322.001C323.4 322.001 322.9 323.001 323.1 323.901C323.3 324.701 324.1 325.301 324.9 325.601C325.5 325.801 326.1 325.901 326.7 325.601C327.5 325.301 328 324.401 327.9 323.601C327.4 323.701 327.4 324.601 327.9 324.801C328.4 325.001 329 324.501 329.1 324.001C328.9 324.501 329.6 325.001 330.1 324.801C330.6 324.601 330.9 324.101 331.1 323.601C331 324.101 331.4 324.601 331.8 324.601C332.3 324.701 332.8 324.301 332.7 323.801C332.9 324.301 333.4 324.701 334 324.601C334.6 324.501 335 324.001 335 323.501C335 323.901 335.3 324.201 335.7 324.401" stroke="black" stroke-width="0.5" stroke-miterlimit="10" stroke-linecap="round" stroke-linejoin="round"/>
<path d="M339.2 324.001C339.7 323.601 340.2 323.201 340.4 322.701C340.7 322.101 340.6 321.401 340.1 321.101C339.8 321.601 339.6 322.201 339.6 322.801C339.6 323.101 339.6 323.301 339.8 323.501C340.1 323.901 340.7 323.901 341.1 323.601C341.5 323.401 341.8 322.901 342 322.501C342.2 323.101 342.7 323.801 343.3 323.501C343.7 323.301 343.9 322.801 344.3 322.901C344.5 323.001 344.6 323.201 344.7 323.301C345 323.501 345.4 323.401 345.6 323.201C345.8 323.001 346 322.701 346.1 322.401C346.5 323.301 348.1 323.201 348.4 322.301C349.1 323.001 350.4 322.901 351.1 322.101C351.8 321.401 351.7 320.101 351 319.401C350.7 320.001 350.4 320.601 350.5 321.201C350.6 321.801 351.2 322.401 351.8 322.201C352.2 322.101 352.5 321.601 352.9 321.401C352.9 322.001 353.4 322.501 354 322.601C354.6 322.701 355.2 322.401 355.4 321.801C355.8 322.201 356.4 322.301 356.9 322.101C357.4 321.901 357.9 321.601 358.3 321.301" stroke="black" stroke-width="0.5" stroke-miterlimit="10" stroke-linecap="round" stroke-linejoin="round"/>
<path d="M318.5 407C314.5 411.9 311.8 418.1 312 424.4C312.3 433 318.1 441 326 444.5C333.9 448 343.4 447.1 350.9 442.8C355.2 440.4 358.9 436.8 360.9 432.3C364.6 424.3 362.4 414.3 356.5 407.8C346.5 397 328.3 395.2 318.5 407Z" stroke="black" stroke-width="0.5" stroke-miterlimit="10" stroke-linecap="round" stroke-linejoin="round"/>
<path d="M325.1 416.3C325.3 415.9 325 415.5 324.6 415.4C324.2 415.3 323.8 415.6 323.6 416C323.4 416.3 323.4 416.8 323.3 417.2C323.3 417.6 323.3 418.1 323.6 418.4C324 418.7 324.6 418.6 324.9 418.2C325.2 417.8 325.4 417.4 325.5 416.9C325.2 417.2 325.7 417.8 326.2 417.6C326.6 417.5 326.9 417 327 416.6C327.2 417 327.7 417.5 328.1 417.3C328.2 417.3 328.3 417.2 328.4 417.2C328.6 417.2 328.7 417.4 328.8 417.5C329.1 417.9 329.8 417.7 330.1 417.4C330.4 417 330.5 416.5 330.6 416.1C330.7 415.8 330.7 415.4 330.4 415.3C330.1 415.1 329.8 415.5 329.6 415.8C329.4 416.3 329.3 416.8 329.3 417.4C329.3 417.8 329.4 418.3 329.7 418.5C330.1 418.8 330.7 418.7 331.1 418.3C331.5 417.9 331.6 417.4 331.8 417C332.2 417.3 332.4 417.9 332.3 418.4C332.5 418.1 332.8 417.7 333 417.4C333 417.8 333.4 418.2 333.8 418.2C334.2 418.2 334.6 417.9 334.6 417.4C334.7 417.8 335 418.1 335.4 418.2C335.8 418.2 336.2 418 336.4 417.6C336.6 417.9 336.3 418.2 336.5 418.5C336.7 418.8 337.2 418.7 337.4 418.4C337.6 418.1 337.6 417.7 337.5 417.4C337.1 417.7 337 418.4 337.3 418.8" stroke="black" stroke-width="0.5" stroke-miterlimit="10" stroke-linecap="round" stroke-linejoin="round"/>
<path d="M345.4 417.1C345.8 417 346 416.5 346.1 416.1C346.2 415.7 346.2 415.1 345.8 415C345.6 414.9 345.3 415 345.1 415.2C344.9 415.4 344.8 415.6 344.8 415.9C344.7 416.3 344.6 416.7 344.7 417.1C344.8 417.5 345.1 417.9 345.5 417.9C345.8 417.9 346 417.8 346.3 417.6C346.7 417.3 347 417 347.2 416.7C347.3 416.6 347.3 416.5 347.4 416.5C347.6 416.5 347.7 416.8 347.7 416.9C347.9 417.2 348.3 417.3 348.7 417.1C349 416.9 349.3 416.6 349.5 416.3C349.5 416.7 349.8 417 350.2 417C350.6 417 350.9 416.8 351 416.4C351.1 416.9 351.7 417.1 352.2 416.9C352.7 416.7 352.9 416.2 353 415.7C353 415.4 353 415 352.9 414.7C352.7 414.4 352.4 414.2 352 414.3C351.6 414.4 351.4 414.9 351.3 415.3C351.1 415.8 351 416.5 351.5 416.8C352.2 417.2 352.8 415.9 353.6 416C354 416.1 354.3 416.5 354.3 416.9C354.3 417.3 354.1 417.7 353.9 418.1C353.9 417.8 354.1 417.4 354.4 417.3C354.7 417.2 355.1 417.4 355.1 417.8" stroke="black" stroke-width="0.5" stroke-miterlimit="10" stroke-linecap="round" stroke-linejoin="round"/>
<path d="M318.9 431.301C318.2 430.201 318.4 428.601 319.5 427.801C319.6 427.701 319.8 427.601 320 427.701C320.2 427.801 320.2 428.001 320.2 428.201C320.2 428.801 320.3 429.401 320.3 430.001C320.7 430.101 320.8 429.401 321.2 429.301C321.6 429.201 321.7 429.801 322 430.001C322.4 430.501 323.3 430.001 323.2 429.401C323.4 430.301 324.7 430.601 325.3 429.901C325.9 429.201 325.2 428.001 324.3 428.001C323.4 428.001 322.9 429.001 323.1 429.901C323.3 430.701 324.1 431.301 324.9 431.601C325.5 431.801 326.1 431.901 326.7 431.601C327.5 431.301 328 430.401 327.9 429.601C327.4 429.701 327.4 430.601 327.9 430.801C328.4 431.001 329 430.501 329.1 430.001C328.9 430.501 329.6 431.001 330.1 430.801C330.6 430.601 330.9 430.101 331.1 429.601C331 430.101 331.4 430.601 331.8 430.601C332.3 430.701 332.8 430.301 332.7 429.801C332.9 430.301 333.4 430.701 334 430.601C334.6 430.501 335 430.001 335 429.501C335 429.901 335.3 430.201 335.7 430.401" stroke="black" stroke-width="0.5" stroke-miterlimit="10" stroke-linecap="round" stroke-linejoin="round"/>
<path d="M339.2 430C339.7 429.6 340.2 429.2 340.4 428.7C340.7 428.1 340.6 427.4 340.1 427.1C339.8 427.6 339.6 428.2 339.6 428.8C339.6 429.1 339.6 429.3 339.8 429.5C340.1 429.9 340.7 429.9 341.1 429.6C341.5 429.4 341.8 428.9 342 428.5C342.2 429.1 342.7 429.8 343.3 429.5C343.7 429.3 343.9 428.8 344.3 428.9C344.5 429 344.6 429.2 344.7 429.3C345 429.5 345.4 429.4 345.6 429.2C345.8 429 346 428.7 346.1 428.4C346.5 429.3 348.1 429.2 348.4 428.3C349.1 429 350.4 428.9 351.1 428.1C351.8 427.3 351.7 426.1 351 425.4C350.7 426 350.4 426.6 350.5 427.2C350.6 427.8 351.2 428.4 351.8 428.2C352.2 428.1 352.5 427.6 352.9 427.4C352.9 428 353.4 428.5 354 428.6C354.6 428.7 355.2 428.4 355.4 427.8C355.8 428.2 356.4 428.3 356.9 428.1C357.4 427.9 357.9 427.6 358.3 427.3" stroke="black" stroke-width="0.5" stroke-miterlimit="10" stroke-linecap="round" stroke-linejoin="round"/>
<path d="M657.3 425.701C653.3 430.601 650.6 436.801 650.8 443.101C651.1 451.701 656.9 459.701 664.8 463.201C672.7 466.701 682.2 465.801 689.7 461.501C694 459.101 697.7 455.501 699.7 451.001C703.4 443.001 701.2 433.001 695.3 426.501C685.3 415.701 667.1 413.901 657.3 425.701Z" stroke="black" stroke-width="0.5" stroke-miterlimit="10" stroke-linecap="round" stroke-linejoin="round"/>
<path d="M659 436C659.1 435.4 658.1 435.1 657.6 435.5C657.1 435.9 657 436.601 657 437.201C657 437.601 656.9 438.1 656.9 438.5C656.8 439.1 656.9 440.001 657.5 440.201C658 440.401 658.5 439.9 658.8 439.5C659 439 659.1 438.5 659.5 438.1C659.8 438.4 660.1 438.8 660.4 439.1C660.7 438.6 661.1 438 661.4 437.5C661.9 437.7 662.3 438.1 662.5 438.6C662.8 438.5 663 438.3 663.2 438.1C663.7 438.6 664.6 438.701 665.2 438.401C665.8 438.001 666.1 437.2 665.9 436.5C665 436.1 664.3 437.401 664.1 438.401C664 438.701 664 439.1 664.3 439.3C664.8 439.6 665.3 438.601 665.8 438.701C666 438.701 666.1 438.9 666.2 439.1C667.3 440.7 667.9 442.6 667.9 444.5C667.9 445 667.6 445.7 667.1 445.6C666.8 445.6 666.6 445.3 666.5 445.1C665.7 443.7 665.6 442.001 665.6 440.401C665.6 439.601 665.7 438.701 666.4 438.201C667.1 437.701 668.3 438.4 667.9 439.1C668.3 438.6 668.6 438 669 437.5C669.3 438 669.6 438.4 670.2 438.6C670.7 438.7 671.4 438.201 671.1 437.701C672 438.001 673 438.2 673.9 438.5" stroke="black" stroke-width="0.5" stroke-miterlimit="10" stroke-linecap="round" stroke-linejoin="round"/>
<path d="M681 438.5C681.2 437.9 681.4 437.3 681.3 436.7C681.2 436.1 680.8 435.5 680.2 435.4C679.6 435.3 679 435.7 678.7 436.2C678.4 436.7 678.4 437.4 678.4 438C678.4 438.7 678.4 439.5 678.8 440.1C679.2 440.7 680.2 440.9 680.6 440.3C680.8 440 680.8 439.6 681.1 439.3C681.5 438.8 682.3 439.1 683 439.2C683.7 439.3 684.6 438.9 684.4 438.3C684.6 438.1 684.9 438.3 685.1 438.5C685.2 438.7 685.4 439.1 685.6 439.1C686.1 439.2 686.2 438.2 686.7 438.2C687 438.2 687.1 438.5 687.3 438.7C687.8 439.1 688.7 438.9 688.9 438.2C688.8 438.8 689.8 439.1 690.3 438.8C690.8 438.4 691 437.7 691.1 437.1C691.1 436.9 691.2 436.7 691.1 436.6C691 436.5 690.9 436.4 690.7 436.3C689.7 436 688.5 437.3 689.1 438.3C689.5 439.1 690.6 439.2 691.3 439.7C692.4 440.5 692.7 442.2 691.9 443.3C691.7 442 691.9 440.6 692.4 439.4C692.6 438.8 693 438.2 693.7 438.2C694.4 438.3 694.6 439.2 694.7 439.9C695.1 438.8 695.9 437.8 697 437.2C697.2 437.5 697.2 438 696.9 438.2" stroke="black" stroke-width="0.5" stroke-miterlimit="10" stroke-linecap="round" stroke-linejoin="round"/>
<path d="M666.1 453.1C666.6 452.2 665.3 451.3 664.4 451.7C663.5 452.1 663.1 453.2 663.1 454.2C663.1 455.2 663.6 456.4 664.6 456.3C665.5 456.3 666 455.3 666.4 454.6C666.8 453.8 667.7 453.1 668.5 453.6C668.8 453.8 669 454.3 669.4 454.4C670.2 454.6 670.3 453.1 671.1 452.8C671.8 452.5 672.4 453.4 673.1 453.8C673.9 454.2 675 453.7 675.8 454.1C676.1 454.3 676.4 454.6 676.7 454.8C677.7 455.5 679 454.6 679.9 453.7C681.1 452.5 682.5 451.1 682.4 449.3C682.4 448.9 682.3 448.5 682 448.4C681.4 448 680.7 448.9 680.5 449.6C680.1 451 679.9 452.9 681.3 453.5C682.4 453.9 683.5 452.9 684.3 452C684.2 452.7 684.4 453.8 685.2 453.7C685.9 453.6 686.2 452.3 686.9 452.4C687.4 452.5 687.6 453.4 688.1 453.5C688.6 453.6 688.9 452.8 689.5 452.8C689.8 452.8 690.1 453.1 690.4 453.2C691.1 453.6 692 453 692.3 452.3C692.6 451.6 692.5 450.7 692.3 449.9C691.6 449.4 690.6 449.7 689.9 450.3C689.2 450.9 688.6 451.8 688.9 452.6C689.2 453.4 690.6 453.7 690.9 452.8" stroke="black" stroke-width="0.5" stroke-miterlimit="10" stroke-linecap="round" stroke-linejoin="round"/>
<path d="M344.6 446.7C344.6 446.7 415.8 536 657 504.8" stroke="black" stroke-width="0.5" stroke-miterlimit="10" stroke-linecap="round" stroke-linejoin="round"/>
<path d="M655.8 507.1C656.2 506.1 656.2 505.7 656.7 504.7C656 504.1 655.6 503.4 654.9 502.8" stroke="black" stroke-width="0.5" stroke-miterlimit="10" stroke-linecap="round" stroke-linejoin="round"/>
<path d="M718 315.4C718 315.4 828.6 402.6 698.8 502.4" stroke="black" stroke-width="0.5" stroke-miterlimit="10" stroke-linecap="round" stroke-linejoin="round"/>
<path d="M699.2 499.801C699.1 500.701 699 501.701 698.9 502.601C699.6 503.001 700.3 503.501 700.8 504.101" stroke="black" stroke-width="0.5" stroke-miterlimit="10" stroke-linecap="round" stroke-linejoin="round"/>
<path d="M364.7 246.601H315.3V282.201H364.7V246.601Z" fill="#EEDBEB" stroke="black" stroke-width="0.5" stroke-miterlimit="10" stroke-linecap="round" stroke-linejoin="round"/>
<path d="M338.5 252.7C338.7 254.8 338.8 257 339 259.1" stroke="black" stroke-width="0.5" stroke-miterlimit="10" stroke-linecap="round" stroke-linejoin="round"/>
<path d="M342.2 257.2C342.4 257.4 342.4 257.7 342.3 257.9C342 258 341.8 257.5 342 257.3" stroke="black" stroke-width="0.5" stroke-miterlimit="10" stroke-linecap="round" stroke-linejoin="round"/>
<path d="M323.8 269.8C323.8 269.4 323.8 268.9 323.8 268.5C323.5 268.4 323.1 268.3 322.8 268.4C322.3 269.6 322.2 271 322.6 272.3C323.5 271.6 324.4 270.8 325.2 270C325.6 270.6 325.8 271.4 325.7 272.2C326.2 271.8 326.7 271.5 327.2 271.1C327.4 271.4 327.7 271.7 327.9 272C329.1 271.9 330.4 271.7 331.3 270.9C332.2 270.1 332.6 268.5 331.7 267.7C331.5 267.6 331.4 267.5 331.1 267.4C330.4 267.3 330 268.2 330.1 268.9C330.2 270.1 331.3 271.2 332.5 271.3C333.7 271.4 335 270.6 335.3 269.4C335.7 270 336.1 270.6 336.5 271.1C336.5 270.6 337.3 270.3 337.7 270.6C338.2 270.9 338.4 271.4 338.5 272C339 271.6 339.5 271.2 339.9 270.9C340.2 271.9 341.9 272.1 342.3 271.2C342.5 271.9 343.4 272.4 344.1 272.2C344.8 272 345.3 271.1 345 270.4C344 270.5 343.9 272.2 344.8 272.7C345.7 273.2 346.9 272.6 347.5 271.8C347.6 272.1 347.4 272.6 347 272.7C347 271.3 347.3 270 347.7 268.7C348 267.9 348.6 266.9 349.4 267C350 267.1 350.5 267.6 350.8 268.2C351.6 269.6 352 271.1 352.2 272.6C351.8 272.3 352.1 271.6 352.6 271.5C353.1 271.4 353.6 271.9 353.8 272.3C354 272.7 354.3 273.2 354.8 273.5C355.5 273.9 356.3 273.7 356.9 273.2C357.5 272.7 357.8 272 358.1 271.3C358.5 270.4 358.5 269 357.6 269C357.1 269 356.8 269.5 356.6 270C356.1 271.1 355.5 272.3 355.7 273.5C355.9 274.7 357.3 275.8 358.4 275.2" stroke="black" stroke-width="0.5" stroke-miterlimit="10" stroke-linecap="round" stroke-linejoin="round"/>
<path d="M556.1 222.2H506.7V257.8H556.1V222.2Z" fill="#EEDBEB" stroke="black" stroke-width="0.5" stroke-miterlimit="10" stroke-linecap="round" stroke-linejoin="round"/>
<path d="M528.9 230.501C528.5 230.101 528.5 229.301 528.9 228.901C529.3 228.501 530 228.401 530.5 228.801C531 229.201 531.1 229.901 531 230.501C530.9 231.201 530.7 231.801 530.3 232.401C530 232.901 529.5 233.401 529.2 233.901C528.9 234.401 528.7 235.101 528.9 235.701C529.3 235.201 530.1 235.001 530.7 235.201C531 235.301 531.3 235.501 531.6 235.601C531.9 235.701 532.3 235.801 532.5 235.601C532.8 235.401 532.9 235.001 532.6 234.801" stroke="black" stroke-width="0.5" stroke-miterlimit="10" stroke-linecap="round" stroke-linejoin="round"/>
<path d="M533.7 232.801C533.7 232.701 533.4 232.701 533.4 232.901C533.4 233.101 533.5 233.201 533.6 233.301C533.9 233.201 534 232.801 533.8 232.601C533.7 232.701 533.6 232.801 533.6 232.901" stroke="black" stroke-width="0.5" stroke-miterlimit="10" stroke-linecap="round" stroke-linejoin="round"/>
<path d="M516.4 247.2C516.3 246.7 516.2 246.3 515.9 245.9C515.8 245.8 515.7 245.6 515.6 245.6C515.4 245.5 515.1 245.7 515 245.9C514.2 246.7 513.8 247.8 513.9 248.9C513.9 249.3 514.1 249.8 514.5 249.8C514.8 249.8 514.9 249.6 515.1 249.4C515.5 249 515.8 248.5 516.2 248.1C516.4 248.7 516.5 249.3 516.5 249.9C516.8 249.4 517.1 249 517.4 248.5C517.8 248.7 517.6 249.7 518.1 249.7C518.6 249.7 518.6 248.6 519 248.8C519.1 248.8 519.2 248.9 519.3 249C519.7 249.3 520.3 249 520.5 248.6C520.7 248.2 520.7 247.7 520.6 247.2C520.6 247 520.5 246.8 520.4 246.6C520.3 246.4 520 246.4 519.9 246.5C519.8 246.6 519.8 246.6 519.8 246.7C519.6 247.2 519.5 247.7 519.5 248.2C519.5 248.7 519.8 249.3 520.3 249.5C520.8 249.7 521.4 249.6 521.8 249.2C522.2 248.9 522.5 248.4 522.8 248C522.8 248.7 523 249.3 523.4 249.9C523.5 249.5 523.8 248.9 524.2 249.1C524.6 249.3 524.6 250 525 249.9C525.1 249.9 525.2 249.8 525.3 249.8C525.4 249.8 525.5 249.8 525.6 249.7C525.7 249.6 525.7 249.5 525.7 249.4C525.6 249.3 525.5 249.5 525.6 249.5" stroke="black" stroke-width="0.5" stroke-miterlimit="10" stroke-linecap="round" stroke-linejoin="round"/>
<path d="M531.8 247.901C532.1 247.401 532.3 246.901 532.2 246.301C532.1 245.701 531.5 245.301 531 245.601C530.8 245.701 530.7 246.001 530.6 246.301C530.4 246.901 530.3 247.601 530.2 248.301C530.2 248.501 530.2 248.701 530.3 248.901C530.5 249.301 531.1 249.401 531.6 249.201C532 249.001 532.3 248.501 532.6 248.101C532.6 248.601 533.1 249.101 533.6 249.201C534.1 249.201 534.7 248.801 534.7 248.301C535.1 249.201 536.8 249.101 537.1 248.101C537.3 249.001 538.5 249.401 539.2 249.001C539.5 248.801 539.8 248.401 540.2 248.501C540.5 248.501 540.7 248.801 541 248.901C541.6 249.201 542.2 248.501 542.5 247.901C542.7 247.501 543 247.101 543 246.601C543 246.101 542.8 245.601 542.4 245.401C541.9 245.201 541.3 245.501 541.1 246.001C540.8 246.401 540.8 247.001 540.8 247.501C540.8 247.801 540.8 248.101 541 248.401C541.3 248.801 541.9 248.801 542.4 248.501C542.9 248.201 543.3 247.901 543.7 247.801C544.3 247.701 544.9 248.001 545.2 248.501C545.5 249.001 545.4 249.701 545 250.101C545.2 248.701 546.4 247.601 547.8 247.501C547.9 248.201 547.7 249.001 547.3 249.601C547.5 249.001 547.6 248.401 548.1 248.001C548.5 247.601 549.3 247.401 549.7 247.801C549.9 248.001 550 248.201 550.1 248.501C550.7 250.101 550.1 252.001 548.8 253.101C547.7 250.501 548.6 247.301 550.9 245.701" stroke="black" stroke-width="0.5" stroke-miterlimit="10" stroke-linecap="round" stroke-linejoin="round"/>
<path d="M512.039 353.958L464.215 366.328L473.129 400.792L520.953 388.423L512.039 353.958Z" fill="#EEDBEB" stroke="black" stroke-width="0.5" stroke-miterlimit="10" stroke-linecap="round" stroke-linejoin="round"/>
<path d="M486.5 369.9C486 369.3 486.7 368.2 487.5 368.3C488.3 368.3 488.9 369.1 489 369.9C489.1 370.7 488.8 371.5 488.5 372.2C488.2 371.2 489.6 370.3 490.5 370.7C491.4 371.2 491.7 372.5 491.4 373.4C490.9 374.6 489.5 375.4 488.2 375.1" stroke="black" stroke-width="0.5" stroke-miterlimit="10" stroke-linecap="round" stroke-linejoin="round"/>
<path d="M494.1 371.4C493.9 371.6 493.9 372 494.1 372.2C494.1 371.9 494.1 371.7 494.1 371.4Z" stroke="black" stroke-width="0.5" stroke-miterlimit="10" stroke-linecap="round" stroke-linejoin="round"/>
<path d="M476.6 391.4C476.4 390.7 475.8 389.9 475.3 390.4C475.1 390.6 475.1 390.9 475.1 391.1C475.1 391.7 475 392.3 475 392.9C475 393.5 475.1 394.3 475.7 394.3C476.7 394.4 476.3 392.5 477.2 392C477.9 391.5 478.7 392.5 479 393.4C479.3 392.8 479.6 392.1 480 391.5C480.4 391.6 480.8 391.9 480.9 392.3C481.7 391.6 482.8 391.3 483.8 391.3C484.2 391.3 484.5 391.4 484.9 391.3C486 391 486.1 389.2 485 388.8C484.2 389.8 484.5 391.5 485.6 392.1C486.3 391.1 487 390 487.7 389C487.6 389.7 488.4 390.2 489.1 390.1C489.8 390 490.3 389.6 491 389.4C492 389 493.1 389.1 494 389.6C495.6 389 497.8 387.8 498.7 386.4C499.2 386.8 499.7 387.1 500.2 387.5C500.2 386.9 500.9 386.3 501.5 386.4C501.8 386.4 502 386.5 502.3 386.6C503 386.7 503.7 386.2 503.8 385.6C504.1 385.9 504.5 386.1 504.9 386.1C505.2 386.1 505.5 386 505.8 385.9C506.8 385.5 507.8 385 508.5 384.1C509.1 383.2 509.3 381.9 508.8 381C507.6 382.4 507.2 384.4 507.8 386.1C509.1 385 510.2 383.5 510.7 381.9C511.2 383 512.6 383.6 513.7 383.2C514.7 382.9 515.6 382 516.7 382.1" stroke="black" stroke-width="0.5" stroke-miterlimit="10" stroke-linecap="round" stroke-linejoin="round"/>
<path d="M779.8 380.7H730.4V416.3H779.8V380.7Z" fill="#EEDBEB" stroke="black" stroke-width="0.5" stroke-miterlimit="10" stroke-linecap="round" stroke-linejoin="round"/>
<path d="M756.8 392.101C754.3 391.701 751.8 391.901 749.4 392.701C751.1 391.101 752.6 389.201 753.6 387.101C753.8 390.001 753.9 392.801 754.1 395.701" stroke="black" stroke-width="0.5" stroke-miterlimit="10" stroke-linecap="round" stroke-linejoin="round"/>
<path d="M760.1 391.5C759.7 391.9 759.6 392.6 759.9 393.2C760.4 393 761 392.7 761.1 392.1C761.1 391.5 760.2 391.1 760.1 391.5Z" stroke="black" stroke-width="0.5" stroke-miterlimit="10" stroke-linecap="round" stroke-linejoin="round"/>
<path d="M738.3 405.7C738.3 404.7 736.7 404.6 736.2 405.4C735.7 406.2 736 407.3 736.3 408.2C737.6 408.2 739 407.3 739.4 406C740.1 406.7 740.6 407.6 740.8 408.6C741.3 407.9 741.7 407.2 742.2 406.5C742.2 407.3 742.9 408 743.6 408.1C744.4 408.2 745.2 407.7 745.4 407C745.8 408.1 747.4 408.5 748.3 407.7C749.2 406.9 748.9 405.2 747.8 404.7C746.6 405.6 746.6 407.6 747.7 408.6C748.8 409.6 750.8 409.2 751.6 407.9" stroke="black" stroke-width="0.5" stroke-miterlimit="10" stroke-linecap="round" stroke-linejoin="round"/>
<path d="M756 407.201C757.5 406.701 757.7 404.301 756.3 403.601C755.8 404.401 755.4 405.201 755.4 406.001C755.4 406.901 756.2 407.801 757 407.701C757.9 407.601 758.3 406.601 758.5 405.801C758.3 406.601 758.9 407.501 759.7 407.701C760.5 407.901 761.4 407.301 761.6 406.501C762.2 407.801 764.4 407.701 764.9 406.401C765 407.301 765.9 408.101 766.8 408.001C767.7 407.901 768.5 407.001 768.4 406.101C769.2 406.901 770.4 407.501 771.5 407.401C772.6 407.201 773.6 406.001 773.3 404.901C772.7 404.901 772.1 405.501 772.3 406.101" stroke="black" stroke-width="0.5" stroke-miterlimit="10" stroke-linecap="round" stroke-linejoin="round"/>
<path d="M754.8 411.9C754.3 411.4 753.4 411.4 752.9 411.9C752.4 412.4 752.4 413.3 752.9 413.8C753.4 414.4 754.3 413.7 754.8 413.1C755.2 412.4 755.9 411.6 756.6 412C756.9 412.1 757.1 412.5 757.4 412.6C758 412.9 758.7 412.4 759.3 412.2C760.6 411.7 762 412.1 763.4 412.2C764.8 412.4 766.4 412.2 767.1 411" stroke="black" stroke-width="0.5" stroke-miterlimit="10" stroke-linecap="round" stroke-linejoin="round"/>
<path d="M585.2 493.601H535.8V529.201H585.2V493.601Z" fill="#EEDBEB" stroke="black" stroke-width="0.5" stroke-miterlimit="10" stroke-linecap="round" stroke-linejoin="round"/>
<path d="M554.8 509C556.1 509 557.4 509.1 558.6 508.6C559.8 508.1 560.8 507 560.7 505.7C560.6 504.6 559.7 503.6 558.6 503.4C557.5 503.2 556.3 503.6 555.5 504.5C555.4 503.1 555.6 501.7 556.2 500.5C557.7 500.3 559 500.8 560.5 500.6" stroke="black" stroke-width="0.5" stroke-miterlimit="10" stroke-linecap="round" stroke-linejoin="round"/>
<path d="M563.6 507.601C563 507.701 563.1 508.701 563.7 508.801C564.3 508.901 564.4 507.801 563.9 507.601" stroke="black" stroke-width="0.5" stroke-miterlimit="10" stroke-linecap="round" stroke-linejoin="round"/>
<path d="M541.8 520.901C541.7 520.501 541.4 520.101 540.9 520.001C540.4 520.901 540.1 521.801 540 522.801C540 523.501 540.1 524.301 540.7 524.601C541.3 525.001 542.1 524.701 542.6 524.101C543.1 523.601 543.2 522.801 543.4 522.101C544.6 522.501 545.7 523.001 546.9 523.401C547.6 523.701 548.2 523.901 548.9 523.801C549.6 523.701 550.3 523.201 550.3 522.501C549.9 523.801 551.4 525.101 552.6 524.601C553.8 524.101 553.9 522.101 552.8 521.501C552.1 522.301 552.2 523.701 553 524.401C553.8 525.101 555.2 525.101 555.9 524.301C556.2 524.001 556.4 523.701 556.7 523.501C557.3 523.201 558 523.401 558.7 523.501C559.4 523.601 560.2 523.301 560.3 522.701C560.6 523.001 561 523.401 561.3 523.701C561.7 523.501 562 523.201 562.2 522.901C563.3 523.801 565.1 523.901 566.2 523.001C567.4 522.101 567.8 520.401 567.2 519.101C565.7 519.901 565.6 522.301 566.9 523.201C568.3 524.101 570.5 523.101 570.6 521.501C571.4 522.601 573.3 522.601 574.1 521.601C574.4 522.601 575.3 523.401 576.4 523.501C577.5 523.601 578.5 523.001 579 522.001" stroke="black" stroke-width="0.5" stroke-miterlimit="10" stroke-linecap="round" stroke-linejoin="round"/>
<path d="M352.5 298.3C364.7 293.4 382.9 287.7 394.4 288.4C404.9 289.1 422.5 292 432.1 298.3" stroke="black" stroke-width="0.5" stroke-miterlimit="10" stroke-linecap="round" stroke-linejoin="round"/>
<path d="M431.4 296.2L432.3 298.1L430.1 299" stroke="black" stroke-width="0.5" stroke-miterlimit="10" stroke-linecap="round" stroke-linejoin="round"/>
<path d="M497.5 310.701C515.5 310.101 533.2 310.201 551.2 311.401" stroke="black" stroke-width="0.5" stroke-miterlimit="10" stroke-linecap="round" stroke-linejoin="round"/>
<path d="M549.2 309.801L550.7 311.301L548.9 312.801" stroke="black" stroke-width="0.5" stroke-miterlimit="10" stroke-linecap="round" stroke-linejoin="round"/>
<path d="M616.3 314.9C624.2 313.7 632.2 314.6 640.1 315C648.5 315.4 657.5 315.4 665.8 314.5" stroke="black" stroke-width="0.5" stroke-miterlimit="10" stroke-linecap="round" stroke-linejoin="round"/>
<path d="M663.9 313.4L665.6 314.6L664.2 316.4" stroke="black" stroke-width="0.5" stroke-miterlimit="10" stroke-linecap="round" stroke-linejoin="round"/>
<path d="M337.3 398.9V340.9" stroke="black" stroke-width="0.5" stroke-miterlimit="10" stroke-linecap="round" stroke-linejoin="round"/>
<path d="M335.9 397.301C336.5 397.601 337 398.101 337.3 398.701C337.8 398.201 338.3 397.801 338.7 397.301" stroke="black" stroke-width="0.5" stroke-miterlimit="10" stroke-linecap="round" stroke-linejoin="round"/>
<path d="M401.9 460.3C401.9 460.3 406.6 453.2 407.6 439.7C408.6 426.2 410.7 421.8 412.4 419.6C414.1 417.4 411.8 410.9 413.3 409.8C414.8 408.8 420.4 411.3 419.4 419.3C419.4 419.3 431 406.6 433.3 404.7C435.6 402.8 445.7 389.8 446.7 389.4C447.7 389 453.6 385.6 452 392.8C450.4 400 444.3 404.6 443.4 406.3C442.5 407.9 438 412.5 437.3 413.3C436.7 414 435 416.8 435.2 417.5C435.3 418.3 437.1 419.6 440.2 420.1C443.2 420.6 443.1 425.8 443.3 425.9C443.5 426 447.1 428.1 447 431.7C446.8 435.4 452.5 441.1 449.7 444.5C446.9 447.9 442.2 450.7 439.8 455.3C437.4 459.9 429.6 462.8 429.6 462.8L424.5 471.6L401.9 460.3Z" fill="white" stroke="black" stroke-miterlimit="10" stroke-linecap="round" stroke-linejoin="round"/>
<path d="M443.4 442.8C442.4 444 442.2 444.4 441.7 445" stroke="black" stroke-miterlimit="10" stroke-linecap="round" stroke-linejoin="round"/>
<path d="M95.8 542.8C95.8 542.8 84.1 528.8 163.7 525C285.9 519.1 100.3 555.6 100.3 555.6L86 538.3" fill="#5A5A81"/>
<path d="M95.8 542.8C95.8 542.8 84.1 528.8 163.7 525C285.9 519.1 100.3 555.6 100.3 555.6L86 538.3" stroke="black" stroke-miterlimit="10" stroke-linecap="round" stroke-linejoin="round"/>
<path d="M126.1 496.2C126.1 496.2 129 539.4 116.5 558.1C116.5 558.1 156.6 577.4 182.2 554.1C182.2 554.1 162.1 518.8 166.2 496.2H126.1Z" fill="white" stroke="black" stroke-miterlimit="10" stroke-linecap="round" stroke-linejoin="round"/>
<path d="M159.9 526.7C159.9 526.7 161.8 531.6 162.5 534.6L159.9 526.7Z" fill="white"/>
<path d="M159.9 526.7C159.9 526.7 161.8 531.6 162.5 534.6" stroke="black" stroke-miterlimit="10" stroke-linecap="round" stroke-linejoin="round"/>
<path d="M435.6 498.001C430.4 461.401 416.3 455.401 405.7 446.601C401.8 443.401 396.1 444.101 393.1 448.101C342.5 518.201 188.7 524.601 188.7 524.601C130.4 560.301 112.5 530.801 112.5 530.801C112.5 530.801 26.3 553.401 14.2 567.001C2.1 580.701 1.1 811.801 1 822.701C0.900004 833.601 60.4 834.201 63.2 822.601C66 811.101 71.9 664.201 71.9 664.201C78.6 712.201 70.5 816.701 82.2 834.101C93.8 851.601 279.6 834.601 279.6 834.601C279.6 834.601 282.1 819.601 275.2 766.701C268.3 713.801 253.7 596.201 253.7 596.201C284.8 589.301 435.6 498.001 435.6 498.001Z" fill="#5C58A6" stroke="black" stroke-miterlimit="10" stroke-linecap="round" stroke-linejoin="round"/>
<path d="M253.9 596.301C249.7 598.701 244.9 599.901 240.1 599.701" stroke="black" stroke-miterlimit="10" stroke-linecap="round" stroke-linejoin="round"/>
<path d="M251.9 602.001C250.6 605.501 248.2 608.501 245.2 610.601" stroke="black" stroke-miterlimit="10" stroke-linecap="round" stroke-linejoin="round"/>
<path d="M71.9 664.8C74.8 662.9 77.4 660.6 79.6 657.9" stroke="black" stroke-miterlimit="10" stroke-linecap="round" stroke-linejoin="round"/>
<path d="M243.7 731.4C240.8 748 234.6 764 225.6 778.3" stroke="black" stroke-miterlimit="10" stroke-linecap="round" stroke-linejoin="round"/>
<path d="M427.1 490.101C421.7 495.901 415.5 500.801 408.7 504.701" stroke="black" stroke-miterlimit="10" stroke-linecap="round" stroke-linejoin="round"/>
<path d="M182.2 459C182.2 459 178.8 473.3 174.6 477.4" stroke="black" stroke-miterlimit="10" stroke-linecap="round" stroke-linejoin="round"/>
<path d="M184.2 352.101C230 331.401 219.9 439.501 204 443.701C204 443.701 192.2 507.401 138.7 520.401C138.7 520.401 53 469.8 74.1 377.8C74.1 377.8 76.3 298.201 191.1 349" fill="#3A3A3A"/>
<path d="M184.2 352.101C230 331.401 219.9 439.501 204 443.701C204 443.701 192.2 507.401 138.7 520.401C138.7 520.401 53 469.8 74.1 377.8C74.1 377.8 76.3 298.201 191.1 349" stroke="black" stroke-miterlimit="10" stroke-linecap="round" stroke-linejoin="round"/>
<path d="M163.9 471.801C163.9 471.801 157 489.901 149.5 492.801" stroke="black" stroke-miterlimit="10" stroke-linecap="round" stroke-linejoin="round"/>
<path d="M174.5 416.801C174.5 416.801 167.9 445.701 154.9 455.501" stroke="black" stroke-miterlimit="10" stroke-linecap="round" stroke-linejoin="round"/>
</svg>
