<svg width="842" height="709" viewBox="0 0 842 709" fill="none" xmlns="http://www.w3.org/2000/svg">
<path opacity="0.15" d="M2.6 367.2C11.4 308.5 44.8 255.7 89.7 229.4C108.3 218.5 128.6 212 147.4 201.5C214.5 164 255.3 80.1999 319 34.9999C366.4 1.39986 425.4 -8.30015 478.7 8.89986C508.1 18.2999 536 35.5999 566.3 38.1999C606.7 41.7999 646.1 19.0999 686.6 21.5999C719.2 23.5999 749.5 41.8999 777.2 62.4999C786.9 69.6999 796.7 77.5999 803.2 88.7999C811.6 103.2 813.5 121.4 815.3 138.8C818 166.4 820.1 197.4 805.5 219.2C795.7 233.9 779.9 241.5 769.5 255.8C756.9 273.1 754.2 297.9 756 320.7C757.8 343.5 763.4 365.7 765.3 388.5C771.8 467.9 731.5 544.1 678.7 593.1C655.5 614.7 628.7 632.7 599.3 636.1C567.1 639.9 535.5 625.8 504.6 614.3C466.3 600.1 427 589.6 387.2 583C361.2 578.7 334.8 576 308.8 580C277.3 584.9 247.2 599.5 215.7 604.6C187.8 609.2 159.5 606.3 131.6 601.8C83.3 594.1 50.7 577 32.8 522.1C15.4 468.5 -6.5 428 2.6 367.2Z" fill="#CDBFDE"/>
<path d="M465.9 44.7998H84.2V302.8H465.9V44.7998Z" fill="#D6D6D6" stroke="black" stroke-miterlimit="10" stroke-linecap="round" stroke-linejoin="round"/>
<path d="M453.7 55.6997H96.3V291.8H453.7V55.6997Z" fill="#F9F9FA" stroke="black" stroke-miterlimit="10" stroke-linecap="round" stroke-linejoin="round"/>
<path d="M454.2 89.6997V57.0997C454.2 56.8997 454.2 56.7997 454.1 56.5997C454 56.5997 453.8 56.3997 453.8 56.4997H97.8C98 57.0997 97 57.5997 97.2 58.1997L97.7 292.2H200.7C200.9 292.2 201.1 292.7 201.3 292.7C202 291.4 203.6 290.8 205.1 290.5C209.3 289.7 215.4 284.7 208.6 281.8C211.9 281.6 214.9 279.4 215.6 276.1C211.5 276.8 207.2 277.4 203.4 275.9C199.6 274.4 196.7 269.7 198.6 266C201.4 267.2 204.1 268.3 206.9 269.5C209.1 267.7 206 264.4 203.2 263.8C200.4 263.2 196.6 262.2 196.8 259.4C198.6 258.9 200.3 257.7 201.2 256C195.5 255.8 187.8 253.5 188.6 247.8C190.5 246.8 192.5 245.7 194.4 244.7C188.3 240.6 181.3 237.7 174.1 236.2C176 232.5 176.4 228.2 175.2 224.2C177.1 224.1 179.1 224 181 223.9C179.9 222.6 178.1 222 176.5 222.4C176.2 220.7 178.3 219.4 180 219.9C181.7 220.4 182.7 221.9 183.6 223.4C184 221.4 184.4 219.4 184.7 217.3C186.3 217.5 187.6 219.1 187.6 220.7C189.1 220.3 190.4 219.3 191.2 217.9C188.8 216.5 186.3 215 183.9 213.6C185.7 211 190.3 211.4 191.7 214.2C191.7 210.7 189.7 207.2 186.6 205.6C188 204.2 190.6 204.5 191.7 206.1C189.6 204.3 188.9 201 190 198.4C192.4 201.1 196.9 201.7 199.9 199.7C198.2 197.4 195.9 195.6 193.3 194.5C195.7 191.9 201.1 194 201 197.6C200.4 195.1 201.6 192.3 203.9 191C204.7 194.4 208 197 211.5 197.1C212 195.2 212.5 193.3 213.1 191.3C215.4 191.2 217.7 191.1 220 191C219.2 188.5 218.5 185.9 217.7 183.4C220.5 184.7 223.6 185.4 226.7 185.6C226.6 182.4 224.8 179.3 222 177.6C223.3 176.7 224.6 175.8 225.9 174.9C222 173.7 219.1 170 218.9 166C220.6 165.6 222.3 165.2 224 164.8C225.4 162.4 221.4 160.9 219.2 159.4C215.1 156.6 215.9 150.5 217.2 145.7C217.4 144.9 217.7 144.1 218.3 143.7C221.2 141.6 223.8 149.7 227 148.1C227.4 145.2 227.8 142.2 228.3 139.3C232.2 141.9 234.1 147.2 232.5 151.7C234.8 151.2 237.2 150.8 239.5 150.3C239.2 153.6 240.3 157.1 242.4 159.6C243.1 156.6 244.7 153.8 247 151.8C248.9 154.3 249.9 157.4 250 160.5C251.8 159 253.6 157.4 255.4 155.9C256.8 158.2 258.1 160.6 259.5 162.9C264.1 161.6 267.5 156.8 267.1 152C271.4 150.1 276.9 154.9 275.7 159.4C280.4 157.9 283.7 153 283.3 148.1C285.8 149.7 287.7 152.2 288.5 155.1C291 154.6 292.5 151.9 293.3 149.5C294.2 147.1 295 144.3 297.2 143C299.4 141.7 303.2 143.4 302.5 145.9C308.7 146.6 313.5 137.9 309.6 133C312 134.7 315.4 136.5 317.8 134.7C319.7 133.3 319.7 130.4 321 128.3C322.3 126.2 326.6 126.6 325.9 128.8C327.3 127.2 328.6 125.6 330 124C331.8 126.8 335.9 127.9 338.9 126.3C341.8 124.7 343.2 120.6 341.7 117.6C345.1 114.9 350.1 115.7 354.4 115.8C358.8 115.9 364.2 114.1 364.8 109.8C365 108.1 364.4 106.3 364.7 104.6C365 102.9 367.1 101.3 368.4 102.4C366 101.2 364.8 97.9997 365.9 95.4997C367 92.9997 370.1 91.6997 372.6 92.5997C374.6 89.3997 367.4 87.4997 367.3 83.7997C367.2 82.1997 368.8 80.7997 370.4 80.9997C372 81.1997 373 83.0997 372.5 84.5997C376.5 82.6997 381.4 88.2997 379 91.9997C381.3 91.2997 383.7 90.4997 386 89.7997C384.2 93.3997 385.1 98.0997 388 100.8C389.5 99.0997 391 97.2997 392.4 95.5997C392.8 98.3997 393.1 101.3 393.5 104.1C396.5 98.6997 406.8 101.5 406.6 107.7C409.1 105.8 410.5 102.5 410.1 99.3997C412.6 99.4997 414.9 101.6 415.3 104.1C418 102.6 421.6 103.1 423.9 105.2C424.6 103.2 426.5 101.7 428.6 101.4C430.2 104.3 433.7 106.1 436.9 105.6C436.6 103.6 436.4 101.5 436.1 99.4997C438.7 100.4 441.3 101.2 443.9 102.1C444 100.4 444.2 98.6997 444.3 96.9997C444.3 95.3997 453.2 97.0997 452.6 90.6997C452.6 90.7997 452.4 90.6997 452.5 90.6997C452.6 90.6997 452.6 90.6997 452.7 90.6997C453.2 90.5997 453.8 90.3997 454.1 89.8997C454.2 89.6997 454.3 89.6997 454.2 89.6997Z" fill="#F2F2F3" stroke="#898989" stroke-miterlimit="10" stroke-linecap="round" stroke-linejoin="round"/>
<path d="M278.8 55.6997H271.2V291.8H278.8V55.6997Z" fill="#E2E2E2" stroke="black" stroke-miterlimit="10" stroke-linecap="round" stroke-linejoin="round"/>
<path d="M453.421 177.34V170.24L96.6211 170.24V177.34L453.421 177.34Z" fill="#E2E2E2" stroke="black" stroke-miterlimit="10" stroke-linecap="round" stroke-linejoin="round"/>
<path d="M611.1 110.9H522.5V238.7H611.1V110.9Z" fill="#3A3A3A" stroke="black" stroke-miterlimit="10" stroke-linecap="round" stroke-linejoin="round"/>
<path d="M608 115.4H525.6V234.2H608V115.4Z" fill="white" stroke="black" stroke-miterlimit="10" stroke-linecap="round" stroke-linejoin="round"/>
<path d="M551.9 166.4C557.147 166.4 561.4 162.147 561.4 156.9C561.4 151.653 557.147 147.4 551.9 147.4C546.653 147.4 542.4 151.653 542.4 156.9C542.4 162.147 546.653 166.4 551.9 166.4Z" fill="#EDEDED" stroke="black" stroke-miterlimit="10" stroke-linecap="round" stroke-linejoin="round"/>
<path d="M532.4 205C532.4 205 524.8 165.2 552.6 166.4C579.4 167.6 571 205 571 205H532.4Z" fill="#EDEDED" stroke="black" stroke-miterlimit="10" stroke-linecap="round" stroke-linejoin="round"/>
<path d="M581.7 171.3C586.284 171.3 590 167.584 590 163C590 158.416 586.284 154.7 581.7 154.7C577.116 154.7 573.4 158.416 573.4 163C573.4 167.584 577.116 171.3 581.7 171.3Z" fill="#EDEDED" stroke="black" stroke-miterlimit="10" stroke-linecap="round" stroke-linejoin="round"/>
<path d="M564.7 205.1C564.7 205.1 558.1 170.2 582.4 171.3C605.9 172.4 598.5 205.1 598.5 205.1H564.7Z" fill="#EDEDED" stroke="black" stroke-miterlimit="10" stroke-linecap="round" stroke-linejoin="round"/>
<path d="M564.2 185.8C567.458 185.8 570.1 183.158 570.1 179.9C570.1 176.642 567.458 174 564.2 174C560.942 174 558.3 176.642 558.3 179.9C558.3 183.158 560.942 185.8 564.2 185.8Z" fill="#EDEDED" stroke="black" stroke-miterlimit="10" stroke-linecap="round" stroke-linejoin="round"/>
<path d="M552.2 209.7C552.2 209.7 547.5 185 564.7 185.8C581.3 186.5 576.1 209.7 576.1 209.7H552.2Z" fill="#EDEDED" stroke="black" stroke-miterlimit="10" stroke-linecap="round" stroke-linejoin="round"/>
<path d="M731.5 156.7H642.9V284.5H731.5V156.7Z" fill="#3A3A3A" stroke="black" stroke-miterlimit="10" stroke-linecap="round" stroke-linejoin="round"/>
<path d="M728.4 161.2H646V280H728.4V161.2Z" fill="white" stroke="black" stroke-miterlimit="10" stroke-linecap="round" stroke-linejoin="round"/>
<path d="M687.2 209.6C693.054 209.6 697.8 204.854 697.8 199C697.8 193.146 693.054 188.4 687.2 188.4C681.346 188.4 676.6 193.146 676.6 199C676.6 204.854 681.346 209.6 687.2 209.6Z" fill="#EDEDED" stroke="black" stroke-miterlimit="10" stroke-linecap="round" stroke-linejoin="round"/>
<path d="M665.5 252.8C665.5 252.8 657 208.3 688.1 209.7C718.1 211 708.7 252.8 708.7 252.8H665.5Z" fill="#EDEDED" stroke="black" stroke-miterlimit="10" stroke-linecap="round" stroke-linejoin="round"/>
<path d="M143.4 607.7C139.1 588.2 126.7 517.8 148.2 425.9C151.7 410.9 160 395.4 175.4 394.6C276.8 389.5 650.5 383.4 673.8 393.5C700.7 405.2 701.7 431 699 621.7C699 622.7 698.9 623.8 698.8 624.8L693.8 672.4C692 689.8 677.5 703.1 660.1 703.4C550.1 705.6 179.6 712.3 158.5 702.8C137.8 693.4 142.1 637.2 144 618.8C144.4 615.2 144.2 611.4 143.4 607.7Z" fill="#E5E5E5" stroke="black" stroke-miterlimit="10" stroke-linecap="round" stroke-linejoin="round"/>
<path d="M205.6 591.4C205.6 591.4 204.6 583.5 177.6 531.2C150.6 478.9 175.4 482.3 186.6 481.1C197.8 480 260.7 455.5 260.7 455.5C260.7 455.5 320.7 538.7 297.5 555.4C274.4 572.4 261.8 588 205.6 591.4Z" fill="#E7E5F3" stroke="black" stroke-miterlimit="10" stroke-linecap="round" stroke-linejoin="round"/>
<path d="M186 502.3C186 502.3 188.8 525.2 198.9 527.4" stroke="black" stroke-miterlimit="10" stroke-linecap="round" stroke-linejoin="round"/>
<path d="M150.6 581.8C150.6 581.8 180.7 570.2 205.6 574.7C230.5 579.2 451.7 567.9 480.6 566.2C509.5 564.5 519.2 570.4 544.2 574C569.2 577.6 605.6 573.1 623.9 573.9C642.2 574.7 723.2 546.5 722.1 566.2C721 585.9 702.4 614.5 679.1 625C655.8 635.5 569 628.5 553.4 629C537.7 629.5 514.5 625.5 488.6 629C462.7 632.5 294.6 622.3 284.5 624.9C274.4 627.5 196.3 634.3 165.5 627.5C134.6 620.7 143.9 593.4 150.6 581.8Z" fill="white" stroke="black" stroke-miterlimit="10"/>
<path d="M558.3 448.1C549.7 464.1 529.2 509.6 535 570.1C535 570.1 538.2 583.4 603.1 574.6C603.1 574.6 638.5 596.8 668.1 581.7C697.6 566.7 703 463.7 709.4 448.6C711.7 443.1 606.4 434 569.5 440C564.8 440.8 560.6 443.8 558.3 448.1Z" fill="#E7E5F3" stroke="black" stroke-miterlimit="10" stroke-linecap="round" stroke-linejoin="round"/>
<path d="M668.1 522.1C668.1 522.1 658 554.9 647.9 559.1" stroke="black" stroke-miterlimit="10" stroke-linecap="round" stroke-linejoin="round"/>
<path d="M591 491.7C591 491.7 593.8 518.9 613.5 527.3" stroke="black" stroke-miterlimit="10" stroke-linecap="round" stroke-linejoin="round"/>
<path d="M841.3 482.4H785.1V544.2H841.3V482.4Z" fill="#F4F4F5" stroke="black" stroke-miterlimit="10" stroke-linecap="round" stroke-linejoin="round"/>
<path d="M833.2 501.8H793.3V539.8H833.2V501.8Z" fill="#F4F4F5" stroke="black" stroke-miterlimit="10" stroke-linecap="round" stroke-linejoin="round"/>
<path d="M826.5 535.1H801.5C799 535.1 797 533.1 797 530.6V521.6C797 519.1 799 517.1 801.5 517.1H826.5C829 517.1 831 519.1 831 521.6V530.6C831 533.1 829 535.1 826.5 535.1Z" fill="#E5E5E5" stroke="black" stroke-miterlimit="10" stroke-linecap="round" stroke-linejoin="round"/>
<path d="M816.8 525.3H811V526.8H816.8V525.3Z" fill="#E5E5E5" stroke="black" stroke-width="0.5" stroke-miterlimit="10" stroke-linecap="round" stroke-linejoin="round"/>
<path d="M438.9 528.1C438.9 528.1 480.8 526.3 494.9 540.6C509 554.9 565.3 583.5 584.7 573.2C600.7 564.6 647.4 514.2 711.6 513.5C737.7 513.2 760.2 532 765.3 557.6C772.1 591.2 780.6 643.7 776.7 679.7C770.5 736.5 841.6 625.7 814 526" stroke="#707071" stroke-miterlimit="10" stroke-linecap="round" stroke-linejoin="round"/>
<path d="M436.1 525.3H432V531.3H436.1V525.3Z" fill="#E2E2E2" stroke="black" stroke-width="0.5" stroke-miterlimit="10"/>
<path d="M438.7 527.3H436.1V528.9H438.7V527.3Z" fill="#E2E2E2" stroke="black" stroke-width="0.25" stroke-miterlimit="10"/>
<path d="M245.9 463.2C245.9 463.2 233.9 510.4 242.5 517.9C251.1 525.4 294.6 541.1 297.2 538.5C299.8 535.9 284.5 465.4 284.5 465.4L245.9 463.2Z" fill="white" stroke="black" stroke-miterlimit="10"/>
<path d="M246.2 509.6C246.2 509.6 245.4 511.8 247.3 513.8L246.2 509.6Z" fill="#E2E0F0"/>
<path d="M246.2 509.6C246.2 509.6 245.4 511.8 247.3 513.8" stroke="black" stroke-miterlimit="10" stroke-linecap="round" stroke-linejoin="round"/>
<path d="M460.5 455.6C460.5 455.6 472.5 502.8 463.9 510.3C455.3 517.8 411.8 533.5 409.2 530.9C406.6 528.3 421.9 457.8 421.9 457.8L460.5 455.6Z" fill="white" stroke="black" stroke-miterlimit="10"/>
<path d="M461 498.8C461 498.8 461.4 504.6 459.4 505.7L461 498.8Z" fill="#E2E0F0"/>
<path d="M461 498.8C461 498.8 461.4 504.6 459.4 505.7" stroke="black" stroke-miterlimit="10" stroke-linecap="round" stroke-linejoin="round"/>
<path d="M303.9 360.4C303.9 360.4 257.2 362.3 251.6 372.7C246 383.1 239.2 450.3 230.5 458.8C221.8 467.2 278.9 474.9 284.5 468.6C290.1 462.2 290.7 539 290.7 539C290.7 539 403.8 547.4 413.9 539C424 530.6 419 451.6 419 451.6C419 451.6 450.2 465.6 467.1 455.5C467.1 455.5 449.4 386.1 440.1 367.2C430.8 348.3 379.5 356.7 379.5 356.7L303.9 360.4Z" fill="#5C58A6" stroke="black" stroke-miterlimit="10" stroke-linecap="round" stroke-linejoin="round"/>
<path d="M286.4 464.7C286.4 464.7 292.8 433.2 291.3 423.8" stroke="black" stroke-miterlimit="10" stroke-linecap="round" stroke-linejoin="round"/>
<path d="M417.9 444.3L412.2 422.2" stroke="black" stroke-miterlimit="10" stroke-linecap="round" stroke-linejoin="round"/>
<path d="M262.3 409C261.7 411.7 247.4 450.8 244.4 455.2L262.3 409Z" fill="#E5E5E5"/>
<path d="M262.3 409C261.7 411.7 247.4 450.8 244.4 455.2" stroke="black" stroke-miterlimit="10" stroke-linecap="round" stroke-linejoin="round"/>
<path d="M453.7 435.899V448.699" stroke="black" stroke-miterlimit="10" stroke-linecap="round" stroke-linejoin="round"/>
<path d="M432 372C432 372 435.5 374.4 436.1 379.2" stroke="black" stroke-miterlimit="10" stroke-linecap="round" stroke-linejoin="round"/>
<path d="M329.2 318.7C329.2 318.7 329.5 354.9 303.9 360.4C303.9 360.4 341.1 397.8 379.4 356.6C379.4 356.6 353.7 345.7 352.2 318.7H329.2Z" fill="white" stroke="black" stroke-miterlimit="10"/>
<path d="M352.6 350.8C352.6 350.8 352.8 357.7 348.3 360.3L352.6 350.8Z" fill="white"/>
<path d="M352.6 350.8C352.6 350.8 352.8 357.7 348.3 360.3" stroke="black" stroke-miterlimit="10" stroke-linecap="round" stroke-linejoin="round"/>
<path d="M284.5 278C284.5 278 306.4 332.6 343 333.7C379.6 334.8 398.1 266.8 399.8 256.1C401.5 245.4 370 204.9 358.2 211.7C346.4 218.5 299.7 221.8 293.5 239.8C287.3 257.8 284.5 278 284.5 278Z" fill="white" stroke="black" stroke-miterlimit="10"/>
<path d="M353.4 268.4C353.4 268.4 361 262.2 366.5 270.9" stroke="black" stroke-miterlimit="10" stroke-linecap="round" stroke-linejoin="round"/>
<path d="M319.1 269.2C319.1 269.2 325.4 261.8 332.4 269.2" stroke="black" stroke-miterlimit="10" stroke-linecap="round" stroke-linejoin="round"/>
<path d="M326.8 283.9C328.512 283.9 329.9 281.751 329.9 279.1C329.9 276.449 328.512 274.3 326.8 274.3C325.088 274.3 323.7 276.449 323.7 279.1C323.7 281.751 325.088 283.9 326.8 283.9Z" fill="black"/>
<path d="M358.9 283.9C360.612 283.9 362 281.751 362 279.1C362 276.449 360.612 274.3 358.9 274.3C357.188 274.3 355.8 276.449 355.8 279.1C355.8 281.751 357.188 283.9 358.9 283.9Z" fill="black"/>
<path d="M333.3 301.6C333.3 301.6 345.6 304.4 352.6 301.6C352.6 301.6 344.1 324.1 333.3 301.6Z" fill="#EEDBEB" stroke="black" stroke-miterlimit="10" stroke-linecap="round" stroke-linejoin="round"/>
<path d="M299.7 371.4C295.3 368.9 296.1 361.8 292.3 358.4C287.8 354.4 279.1 357.3 276.2 352C275.4 350.4 275.4 348.5 274.6 346.9C272.4 342.5 265.5 342.8 262.7 338.7C259.9 334.5 263.2 328.8 262.6 323.8C262.2 320 259.7 315.8 262 312.8C263.8 310.4 268 310.2 268.8 307.2C270.1 302.2 259.6 300.3 260.9 295.4C261.4 293.4 263.6 292.5 264.6 290.7C266.7 287 262.5 282.6 263.2 278.4C264 273.1 272.1 269.7 270.2 264.7C269.4 262.6 267.1 261.5 265.7 259.9C262.2 255.9 264 249.6 267 245.3C268.3 243.4 269.8 241.1 268.8 239.1C268.2 238 266.9 237.4 265.9 236.6C261.5 233.4 261.7 225.6 266.2 222.5C268.5 221 271.4 220.6 273.4 218.7C276.1 216.1 275.9 211.7 275.8 208C275.7 204.2 276.3 199.7 279.7 198C281.6 197.1 284 197.3 285.7 196.1C288.3 194.2 287.9 189.8 290.4 187.6C292.5 185.7 295.8 186.3 298.6 185.5C303.8 184 306.3 177.6 311.5 176C315 174.9 318.9 176.3 322.5 175.4C324.4 174.9 326.1 173.8 327.9 173.2C332.8 171.5 338.2 173.5 343 175.3C349.9 178 356.7 180.6 363.6 183.3C367.6 184.9 372 186.7 373.8 190.7C374.5 192.2 374.8 193.9 375.9 195.2C376.8 196.2 378.1 196.7 379.2 197.4C384.8 201 384.4 209.5 381.9 215.7C377.7 226.3 369.5 235.2 359.3 240.1C351.1 244.1 341.9 245.5 334 249.9C330.1 252.1 326.6 254.9 323.4 257.9C315.5 265.2 308.8 273.7 303.6 283.1C298.7 292 311.4 312.1 317 318.6C323.6 326.2 326.3 326.3 332.8 332.5C340.3 339.6 336.6 345.3 333.9 353.8C332 359.6 334.9 368.8 331.6 373.3C326.3 380.4 322.3 372.3 317.7 370.3C311.4 367.7 305.3 374.5 299.7 371.4Z" fill="#5C5C5C" stroke="black" stroke-miterlimit="10"/>
<path d="M366.6 249.4C364.1 246.2 361.5 242.9 360.2 238.9C356.8 227.6 365.3 216.5 367.7 204.9C368.7 200.2 368.6 195.3 370.4 190.9C372.2 186.5 376.7 182.8 380.9 184.4C385.4 186.1 386.5 192.2 388.1 197C390.6 204.1 395.6 209.8 399.4 216.2C403.2 222.6 405.8 230.9 402.6 237.7C406.8 239.5 409.9 244.1 410.1 248.9C410.2 252 409.3 255.3 410.3 258.3C411.3 261.4 414.3 263.9 414.1 267.2C414 268.9 413 270.6 413.3 272.3C413.6 273.7 414.6 274.8 415.4 275.9C417.7 279.4 417.3 284 417.3 288.3C417.3 296.8 419.3 305.1 421.3 313.4C423.6 323.1 425.9 332.8 428.2 342.4C428.8 344.9 429.3 347.7 428 349.9C427.2 351.2 425.8 352 424.8 353.2C422.4 356 422.5 360.3 421.9 364.1C421.3 367.9 418.7 372.2 415.2 371.5C414.1 371.3 413.2 370.6 412.1 370.2C408.8 369.1 405.5 371.4 402.1 372C399.3 372.5 396.5 371.8 393.7 371.1C386.8 369.4 379.9 367.6 373.7 364.1C364.2 358.7 356.8 349.3 353.6 338.3C353.3 337.4 353.1 336.4 353.3 335.5C353.6 334.4 354.5 333.7 355.3 333C368.3 322.6 379 308.6 385.6 292.7C393.4 274.5 376.9 262.4 366.6 249.4Z" fill="#5C5C5C" stroke="black" stroke-miterlimit="10"/>
<path d="M366.5 209.6C353 231.7 346.8 261.1 326 260.7C305.2 260.4 293.2 279.6 305.2 307.2C317.2 334.7 272.6 350.9 272.6 350.9" stroke="black" stroke-miterlimit="10" stroke-linecap="round" stroke-linejoin="round"/>
<path d="M369.8 192.8C369.9 192.3 336.6 192.8 319.1 218.7C302.9 242.8 320.5 247.6 300.2 260.7C280 273.8 270.3 295 274.4 318.6C278.5 342.2 288 353 287.9 357.7" stroke="black" stroke-miterlimit="10" stroke-linecap="round" stroke-linejoin="round"/>
<path d="M333 565.2C333 565.2 242.9 547 289 531.3C335.1 515.6 415.6 522.5 420.6 533.6C425.6 544.6 370.2 571.5 333 565.2Z" fill="#2B2B2B" stroke="black" stroke-miterlimit="10" stroke-linecap="round" stroke-linejoin="round"/>
<path d="M448.5 595.3C448.5 595.3 456.7 594.3 464 600.5C471.3 606.7 522.5 608.4 537.7 606.4C552.9 604.4 539.9 638.7 517.5 644.9C495 651.1 469.7 630.6 453.9 631C438.1 631.4 433.1 614.5 433.1 614.5L448.5 595.3Z" fill="#E2E0F0" stroke="black" stroke-miterlimit="10" stroke-linecap="round" stroke-linejoin="round"/>
<path d="M445.6 625.1C445.6 625.1 447 624.4 444.2 621.4L445.6 625.1Z" fill="#E2E0F0"/>
<path d="M445.6 625.1C445.6 625.1 447 624.4 444.2 621.4" stroke="black" stroke-miterlimit="10" stroke-linecap="round" stroke-linejoin="round"/>
<path d="M226.4 589.6C226.4 589.6 193.4 563.4 210.7 535.6C227.9 507.9 284.5 535.6 284.5 535.6C284.5 535.6 414.3 583.6 435.7 581.7C435.7 581.7 447.3 581.7 417 625.9C416.9 626 274.7 611.4 226.4 589.6Z" fill="#3A3A3A" stroke="black" stroke-miterlimit="10" stroke-linecap="round" stroke-linejoin="round"/>
<path d="M415.9 626.9C415.9 626.9 422.5 632.9 429.4 630.5C436.3 628.1 451.1 591.1 450.1 588.6C449.1 586.1 435.9 579.7 434.6 582.3C433.3 584.9 419.4 614.8 415.9 626.9Z" fill="white" stroke="black" stroke-miterlimit="10" stroke-linecap="round" stroke-linejoin="round"/>
<path d="M234.2 574.6C234.2 574.6 235.2 579.1 241.6 578.7L234.2 574.6Z" fill="#3A3A3A"/>
<path d="M234.2 574.6C234.2 574.6 235.2 579.1 241.6 578.7" stroke="black" stroke-miterlimit="10" stroke-linecap="round" stroke-linejoin="round"/>
<path d="M424.5 622.4C424.5 622.4 428.1 624.3 430.1 623.2L424.5 622.4Z" fill="white"/>
<path d="M424.5 622.4C424.5 622.4 428.1 624.3 430.1 623.2" stroke="black" stroke-miterlimit="10" stroke-linecap="round" stroke-linejoin="round"/>
<path d="M275.2 600.999C275.2 600.999 252.4 606.299 240.5 606.599C228.6 606.899 209.7 603.599 222.5 625.699C235.3 647.799 244.1 639.299 269.7 631.699C295.3 624.099 294.6 635.999 298.3 629.999C302 623.999 284.4 599.899 284.4 599.899L275.2 600.999Z" fill="#E2E0F0" stroke="black" stroke-miterlimit="10" stroke-linecap="round" stroke-linejoin="round"/>
<path d="M288.7 625.4C288.7 625.4 291.7 625.4 292.1 622.6L288.7 625.4Z" fill="#E2E0F0"/>
<path d="M288.7 625.4C288.7 625.4 291.7 625.4 292.1 622.6" stroke="black" stroke-miterlimit="10" stroke-linecap="round" stroke-linejoin="round"/>
<path d="M347.1 556.499C349 555.399 351 554.499 353.1 553.799C369.1 548.599 440 525.999 450.8 528.499C463 531.399 510.9 541.299 477.9 577.099C477.9 577.099 391.1 618.099 309.4 628.499L288.4 590.2L347.1 556.499Z" fill="#3A3A3A" stroke="black" stroke-miterlimit="10" stroke-linecap="round" stroke-linejoin="round"/>
<path d="M289.3 587.899C289.3 587.899 279.2 586.499 280.4 592.999C281.6 599.499 294.4 614.699 296 621.799C297.6 628.899 295.1 631.999 300.4 631.899C305.7 631.799 312.2 629.399 311.9 627.299C311.6 625.099 296.9 592.199 289.3 587.899Z" fill="white" stroke="black" stroke-miterlimit="10" stroke-linecap="round" stroke-linejoin="round"/>
<path d="M370.8 578C370.8 578 350.5 597.699 343.5 603.099L370.8 578Z" fill="#3A3A3A"/>
<path d="M370.8 578C370.8 578 350.5 597.699 343.5 603.099" stroke="black" stroke-miterlimit="10" stroke-linecap="round" stroke-linejoin="round"/>
<path d="M473.1 570.299C473.1 570.299 467.9 577.099 464.6 575.999L473.1 570.299Z" fill="#3A3A3A"/>
<path d="M473.1 570.299C473.1 570.299 467.9 577.099 464.6 575.999" stroke="black" stroke-miterlimit="10" stroke-linecap="round" stroke-linejoin="round"/>
<path d="M425.6 544.6H292.1C288.7 544.6 285.8 542.3 285.1 539L264.4 440.5C263.5 436.2 266.9 432.1 271.4 432.1H440.4C444.7 432.1 448.1 435.9 447.4 440.1L432.5 538.6C432.1 542.1 429.1 544.6 425.6 544.6Z" fill="#E2E2E2" stroke="black" stroke-miterlimit="10"/>
<path d="M356.5 496.9C358.212 496.9 359.6 494.571 359.6 491.7C359.6 488.828 358.212 486.5 356.5 486.5C354.788 486.5 353.4 488.828 353.4 491.7C353.4 494.571 354.788 496.9 356.5 496.9Z" fill="white" stroke="black" stroke-width="0.5" stroke-miterlimit="10"/>
<path d="M357.2 498.799C357.2 498.799 360.9 498.899 361.6 493.399" stroke="black" stroke-width="0.5" stroke-miterlimit="10" stroke-linecap="round" stroke-linejoin="round"/>
<path d="M117.4 696C109 668.9 87.3 589.7 100.7 536.2C100.7 536.2 102.9 510.8 138.3 512.6C164.2 513.9 165.9 519.2 171.1 535C175.4 548.1 175.7 657.2 175.6 693.7C175.6 700.2 170.1 705.5 163.4 705.5H130.7C124.5 705.5 119.1 701.7 117.4 696Z" fill="white" stroke="black" stroke-miterlimit="10"/>
<path d="M158.2 547.9C158.2 547.9 159.5 591.9 151.5 599.8L158.2 547.9Z" fill="white"/>
<path d="M158.2 547.9C158.2 547.9 159.5 591.9 151.5 599.8" stroke="black" stroke-miterlimit="10"/>
<path d="M734.2 696C742.6 668.9 764.3 589.7 750.9 536.2C750.9 536.2 748.7 510.8 713.3 512.6C687.4 513.9 685.7 519.2 680.5 535C676.2 548.1 675.9 657.2 676 693.7C676 700.2 681.5 705.5 688.2 705.5H721C727.1 705.5 732.4 701.7 734.2 696Z" fill="white" stroke="black" stroke-miterlimit="10"/>
<path d="M733.9 643.8C733.9 643.8 725.5 676.4 719.8 678.1L733.9 643.8Z" fill="white"/>
<path d="M733.9 643.8C733.9 643.8 725.5 676.4 719.8 678.1" stroke="black" stroke-miterlimit="10"/>
<path d="M560.7 599.9C560.7 599.9 582.6 610 591.1 609.1L560.7 599.9Z" fill="white"/>
<path d="M560.7 599.9C560.7 599.9 582.6 610 591.1 609.1" stroke="black" stroke-miterlimit="10"/>
<path d="M564.9 690.8C564.9 690.8 598.4 688.3 602.3 683.2L564.9 690.8Z" fill="white"/>
<path d="M564.9 690.8C564.9 690.8 598.4 688.3 602.3 683.2" stroke="black" stroke-miterlimit="10"/>
<path d="M497.4 448.7C497.4 448.7 487.3 479.3 497.4 493.5" stroke="black" stroke-miterlimit="10"/>
<path d="M746.9 517.1C750.7 518.3 769.8 532.5 767.1 548C764.5 563.4 756.6 594.6 764.1 604.5C771.6 614.4 760 611 757.1 604.4C754.2 597.8 754 571.6 758.9 549.9C763.8 528.2 745.6 525.4 745.6 525.4L746.9 517.1Z" fill="#EEDBEB" stroke="black" stroke-miterlimit="10" stroke-linecap="round" stroke-linejoin="round"/>
<path d="M750.6 528.8C750.6 528.8 752 487.2 742 463.8C732 440.4 729.5 415.8 729.5 415.8L699.8 412.6L698.6 413.3C698.6 413.3 688.6 447.4 679 462.2C669.4 477 677.1 511.9 677.1 520.6C677.1 529.2 676.8 529.9 676.8 529.9C676.8 529.9 669.7 538.5 672.9 540.9C676.1 543.2 688.6 540.9 688.6 540.9C688.6 540.9 694.8 538 692.8 533L695.7 533.3C695.7 533.3 693.1 538.9 695.7 540.2C698.3 541.6 712.2 541.9 712.5 541C712.8 540.1 715.3 537 715.3 537C715.3 537 726.6 540.9 735.2 538.4L737.4 537.6C737.6 537.6 748.5 533.7 750.6 528.8Z" fill="#EEDBEB" stroke="black" stroke-miterlimit="10" stroke-linecap="round" stroke-linejoin="round"/>
<path d="M675.7 540.9C675.7 540.9 676.6 536.3 678 535.8" stroke="black" stroke-miterlimit="10" stroke-linecap="round" stroke-linejoin="round"/>
<path d="M680.2 541.8C680.2 541.8 680.6 537.1 682.5 536.3" stroke="black" stroke-miterlimit="10" stroke-linecap="round" stroke-linejoin="round"/>
<path d="M698.1 540.9C698.1 540.9 698.2 536.6 699.3 536.4" stroke="black" stroke-miterlimit="10" stroke-linecap="round" stroke-linejoin="round"/>
<path d="M702.8 540.9C702.8 540.9 702.9 536.6 704 536.4" stroke="black" stroke-miterlimit="10" stroke-linecap="round" stroke-linejoin="round"/>
<path d="M742.1 512.7C742.1 512.7 742.3 527.1 739.4 529.4" stroke="black" stroke-miterlimit="10" stroke-linecap="round" stroke-linejoin="round"/>
<path d="M686.2 470.6C686.2 470.6 680.9 473.7 684.4 486.5" stroke="black" stroke-miterlimit="10" stroke-linecap="round" stroke-linejoin="round"/>
<path d="M737.4 397.3C737.4 397.3 735 422.9 706.1 428.6C706.1 428.6 692.6 427.4 690.7 397.3C690.7 397.3 692.1 389.7 690.4 385.9C688.7 382.1 688.5 372.3 689.9 373.4C691.3 374.5 701.2 382 703.7 383.4C706.2 384.8 717.3 385.7 720.4 385.8C723.5 385.9 727.2 384.8 729.2 381.7C731.2 378.6 735.8 372.1 737.5 374C739.2 375.9 740.9 383.4 737.5 387.9C737.5 387.9 739.2 390.7 738.3 392.7C737.4 394.7 737.4 397.3 737.4 397.3Z" fill="#EEDBEB" stroke="black" stroke-miterlimit="10" stroke-linecap="round" stroke-linejoin="round"/>
<path d="M701.4 390.7C701.4 390.7 699.7 384.6 698.3 383C696.9 381.4 693.4 377.8 692.1 376.8" stroke="#010101" stroke-miterlimit="10" stroke-linecap="round" stroke-linejoin="round"/>
<path d="M720.8 391.5C720.8 391.5 727.7 386.3 729.6 383" stroke="#010101" stroke-miterlimit="10" stroke-linecap="round" stroke-linejoin="round"/>
<path d="M731.1 397.5C731.1 397.5 734.5 396.9 735.8 394.8" stroke="#010101" stroke-miterlimit="10" stroke-linecap="round" stroke-linejoin="round"/>
<path d="M702.4 408.3C702.4 408.3 701.4 401 696.5 404.9" stroke="#010101" stroke-miterlimit="10" stroke-linecap="round" stroke-linejoin="round"/>
<path d="M711.2 408.3C711.2 408.3 713.1 402.2 718.8 405.7" stroke="#010101" stroke-miterlimit="10" stroke-linecap="round" stroke-linejoin="round"/>
<path d="M707.8 418.199C707.8 418.199 704.2 416.199 701.6 418.199C701.6 418.199 703.7 421.699 704.7 421.399C705.7 421.099 707.8 418.199 707.8 418.199Z" fill="#E8B5D4" stroke="black" stroke-miterlimit="10" stroke-linecap="round" stroke-linejoin="round"/>
<path d="M699.8 421.399C702.5 423.299 704.7 421.399 704.7 421.399C704.7 421.399 706.7 424.399 711.2 421.399" stroke="#010101" stroke-miterlimit="10" stroke-linecap="round" stroke-linejoin="round"/>
<path d="M702 418.7C702 418.7 691.7 412.7 688.9 413" stroke="#010101" stroke-width="0.5" stroke-miterlimit="10" stroke-linecap="round" stroke-linejoin="round"/>
<path d="M702.4 419.4C702.4 419.4 689.7 418 688 418.2" stroke="#010101" stroke-width="0.5" stroke-miterlimit="10" stroke-linecap="round" stroke-linejoin="round"/>
<path d="M707.8 418.2C707.8 418.2 716.8 415.9 719.3 416.7" stroke="#010101" stroke-width="0.5" stroke-miterlimit="10" stroke-linecap="round" stroke-linejoin="round"/>
<path d="M707.4 418.8C707.4 418.8 718.1 420 720.1 421.4" stroke="#010101" stroke-width="0.5" stroke-miterlimit="10" stroke-linecap="round" stroke-linejoin="round"/>
</svg>
