<svg width="930" height="695" viewBox="0 0 930 695" fill="none" xmlns="http://www.w3.org/2000/svg">
<path opacity="0.15" d="M279.9 0.500006C308.9 1.60001 337.8 11.6 364.2 33.1C393.3 56.9 407 95.2 433.9 121.5C477.8 164.5 545.9 167.4 607.3 167.7C676.5 168 761.2 153.7 825.8 183.1C853.3 195.6 876.6 216.4 894.3 240.8C943.7 309 940.6 403.8 890.9 471.5C842.9 536.8 760.2 567.7 679.9 578.1C599.5 588.5 517.9 581.8 437.2 589.2C389.5 593.6 341.1 603.3 300 628C270.9 645.5 246.1 670.1 214.9 683.4C112.1 727.4 14.8 629.4 2.49998 532C-5.00002 472.3 7.79998 412 18.9 352.7C33.4 275.3 45.6 195.6 83.5 126.5C120.7 58.7 201.1 -2.59999 279.9 0.500006Z" fill="#CDBFDE"/>
<path d="M773.4 168.9H115.8V512.1H773.4V168.9Z" fill="#DDDDDD" stroke="black" stroke-miterlimit="10" stroke-linecap="round" stroke-linejoin="round"/>
<path d="M331.9 178.9H125.8V335.1H331.9V178.9Z" fill="#FEFEFF" stroke="black" stroke-miterlimit="10" stroke-linecap="round" stroke-linejoin="round"/>
<path d="M331.9 346H125.8V502.2H331.9V346Z" fill="#FEFEFF" stroke="black" stroke-miterlimit="10" stroke-linecap="round" stroke-linejoin="round"/>
<path d="M548 178.9H341.9V335.1H548V178.9Z" fill="#FEFEFF" stroke="black" stroke-miterlimit="10" stroke-linecap="round" stroke-linejoin="round"/>
<path d="M763.4 178.9H557.3V335.1H763.4V178.9Z" fill="#FEFEFF" stroke="black" stroke-miterlimit="10" stroke-linecap="round" stroke-linejoin="round"/>
<path d="M548 346H341.9V502.2H548V346Z" fill="#FEFEFF" stroke="black" stroke-miterlimit="10" stroke-linecap="round" stroke-linejoin="round"/>
<path d="M763.4 346H557.3V502.2H763.4V346Z" fill="#FEFEFF" stroke="black" stroke-miterlimit="10" stroke-linecap="round" stroke-linejoin="round"/>
<path d="M670 93.1C668.6 91.7 667.8 89.8 667 87.9C666.4 86.6 665.8 85.2 665.2 83.9C664.8 82.9 664.3 81.8 663.5 81.1C662.7 80.3 661.6 79.8 660.5 80.1C659.2 80.5 658.5 81.9 658.2 83.3C658 83.9 657.9 84.5 658 85.2C658.1 86.2 658.5 87.2 659 88.1C660.7 91.2 662.8 94.1 665.4 96.6C666.2 97.4 667.1 98.2 668.1 98.8C669.6 99.7 671.2 100.4 672.9 100.8C673.5 101 674.2 101.1 674.8 100.9C675.2 100.7 675.5 100.4 675.7 100C676.7 98.5 676.7 96.5 675.9 95C675.7 94.6 675.3 94.5 674.9 94.6C674.9 94.9 674.9 94.7 675 95.1C673.3 95.4 671.2 94.3 670 93.1Z" fill="#CCCCCB" stroke="black" stroke-miterlimit="10" stroke-linecap="round" stroke-linejoin="round"/>
<path d="M686.7 107.8C682.5 103.8 680.6 97.9 680.3 92.1C680 86.3 681 80.5 682.1 74.8C682.7 71.3 683.4 67.7 682.6 64.2C682.5 63.6 682.3 62.9 681.8 62.5C680.9 61.7 679.3 62 678.5 62.9C677.7 63.8 677.3 65.1 677.1 66.3C674.9 76.8 674.1 87.5 674.8 98.2C675 101.8 675.5 105.5 677.4 108.6C679.4 111.8 682.8 113.9 686.4 115.3C687.9 115.9 689.4 116.3 690.9 116.2C693.2 116 696.9 112.7 694 110.7C693.3 110.2 691.8 110.7 691 110.5C689.4 110.1 687.9 108.9 686.7 107.8Z" fill="#CCCCCB" stroke="black" stroke-miterlimit="10" stroke-linecap="round" stroke-linejoin="round"/>
<path d="M692.3 98C692.2 87.8 692.1 77.6 691.9 67.4C691.8 61 691.8 54.1 694.2 48.7C695.1 46.7 696.7 44.9 698.1 45.8C698.8 46.2 699.3 47.2 699.6 48.2C701.3 52.5 701.8 57.7 702.2 62.8C703.7 80.3 705.2 97.9 704 115.4C703.7 119.1 703.3 122.9 701.7 125.6C693.4 140 692.4 103.2 692.3 98Z" fill="#CCCCCB" stroke="black" stroke-miterlimit="10" stroke-linecap="round" stroke-linejoin="round"/>
<path d="M714.9 81.3C714.5 74.4 713.9 67.5 713.1 60.7C712.8 58.1 712.5 55.4 713.5 52.9C713.9 51.8 714.9 50.6 716.1 50.8C717.3 51 717.8 52.4 718 53.6C720.6 66.2 722.9 79.1 721.9 92C721.8 93.9 721.5 95.8 720.8 97.6C720 99.4 718.8 100.8 717.4 102.2C715.7 103.8 713.8 105.2 711.7 106.3C708.7 107.9 703.5 109.4 701.6 105.4C700.1 102.1 703.8 100.9 706.2 99.8C714.3 96.2 715.4 89.6 714.9 81.3Z" fill="#CCCCCB" stroke="black" stroke-miterlimit="10" stroke-linecap="round" stroke-linejoin="round"/>
<path d="M693.7 54.4C693.7 54.9 694 55.4 694.4 55.6" stroke="black" stroke-miterlimit="10" stroke-linecap="round" stroke-linejoin="round"/>
<path d="M698.2 51C697.8 51.5 697.6 52.1 697.8 52.7" stroke="black" stroke-miterlimit="10" stroke-linecap="round" stroke-linejoin="round"/>
<path d="M699.2 58.2C699.1 58.8 699 59.5 698.9 60.1" stroke="black" stroke-miterlimit="10" stroke-linecap="round" stroke-linejoin="round"/>
<path d="M696.1 64.3C696.3 64.3 696.6 64.3 696.8 64.3" stroke="black" stroke-miterlimit="10" stroke-linecap="round" stroke-linejoin="round"/>
<path d="M695.7 73C696 73.1 696.3 73.2 696.6 73.3" stroke="black" stroke-miterlimit="10" stroke-linecap="round" stroke-linejoin="round"/>
<path d="M701 69.6C700.9 70.2 700.7 70.9 700.6 71.5" stroke="black" stroke-miterlimit="10" stroke-linecap="round" stroke-linejoin="round"/>
<path d="M697.3 81.2C697.5 81.4 697.6 81.6 697.8 81.8C697.6 81.6 697.5 81.4 697.3 81.2Z" stroke="black" stroke-miterlimit="10" stroke-linecap="round" stroke-linejoin="round"/>
<path d="M695.7 89.2C696 89.4 696.3 89.7 696.6 89.9" stroke="black" stroke-miterlimit="10" stroke-linecap="round" stroke-linejoin="round"/>
<path d="M701.5 87.4C701.3 87.5 701.2 87.9 701.3 88.1" stroke="black" stroke-miterlimit="10" stroke-linecap="round" stroke-linejoin="round"/>
<path d="M697.2 97.3C697 97.5 696.9 97.9 697 98.3" stroke="black" stroke-miterlimit="10" stroke-linecap="round" stroke-linejoin="round"/>
<path d="M696.6 107.1C697.1 107.1 697.5 107.1 698 107.2C697.5 107.1 697 107.1 696.6 107.1Z" stroke="black" stroke-miterlimit="10" stroke-linecap="round" stroke-linejoin="round"/>
<path d="M701.8 109.2C701.6 110.2 701.5 111.3 701.3 112.3" stroke="black" stroke-miterlimit="10" stroke-linecap="round" stroke-linejoin="round"/>
<path d="M704.6 104.7C704.8 104.9 704.9 105 705.1 105.2" stroke="black" stroke-miterlimit="10" stroke-linecap="round" stroke-linejoin="round"/>
<path d="M713 97.8C713.2 97.8 713.3 97.8 713.5 97.8" stroke="black" stroke-miterlimit="10" stroke-linecap="round" stroke-linejoin="round"/>
<path d="M718.2 85.2C718.8 85 719.3 84.9 719.9 84.7" stroke="black" stroke-miterlimit="10" stroke-linecap="round" stroke-linejoin="round"/>
<path d="M715.8 73.6C715.7 72.8 715.6 72 715.4 71.2" stroke="black" stroke-miterlimit="10" stroke-linecap="round" stroke-linejoin="round"/>
<path d="M715.1 63.1C714.8 62.7 714.8 62 715.2 61.6" stroke="black" stroke-miterlimit="10" stroke-linecap="round" stroke-linejoin="round"/>
<path d="M718.7 62C719 61.7 719.3 61.3 719.6 61C719.3 61.3 719 61.6 718.7 62Z" stroke="black" stroke-miterlimit="10" stroke-linecap="round" stroke-linejoin="round"/>
<path d="M677.1 69.8C676.9 69.6 676.6 69.3 676.4 69.1" stroke="black" stroke-miterlimit="10" stroke-linecap="round" stroke-linejoin="round"/>
<path d="M681.1 70.8C681 70.1 681.8 69.4 682.5 69.5" stroke="black" stroke-miterlimit="10" stroke-linecap="round" stroke-linejoin="round"/>
<path d="M677.3 79.3C677.3 80 677.3 80.7 677.3 81.4" stroke="black" stroke-miterlimit="10" stroke-linecap="round" stroke-linejoin="round"/>
<path d="M677.5 90.7C677.8 91.2 678.1 91.7 678.4 92.1" stroke="black" stroke-miterlimit="10" stroke-linecap="round" stroke-linejoin="round"/>
<path d="M680.9 101.4C681.2 101.2 681.5 101.1 681.8 100.9" stroke="black" stroke-miterlimit="10" stroke-linecap="round" stroke-linejoin="round"/>
<path d="M677.8 104.7C677.4 104.8 677.1 105.2 677.1 105.6" stroke="black" stroke-miterlimit="10" stroke-linecap="round" stroke-linejoin="round"/>
<path d="M684.2 109.7C683.7 110 683.5 110.6 683.5 111.2" stroke="black" stroke-miterlimit="10" stroke-linecap="round" stroke-linejoin="round"/>
<path d="M689.9 111.4C690.1 111.5 690.4 111.6 690.6 111.6" stroke="black" stroke-miterlimit="10" stroke-linecap="round" stroke-linejoin="round"/>
<path d="M659.5 85.3C658.9 85.1 658.2 85 657.6 84.8" stroke="black" stroke-miterlimit="10" stroke-linecap="round" stroke-linejoin="round"/>
<path d="M661.9 82.4C661.9 81.5 661.9 80.7 661.9 79.8" stroke="black" stroke-miterlimit="10" stroke-linecap="round" stroke-linejoin="round"/>
<path d="M665.3 87C665.8 86.4 666.5 86 667.3 85.8" stroke="black" stroke-miterlimit="10" stroke-linecap="round" stroke-linejoin="round"/>
<path d="M666.2 91.9C666.7 91.8 667.1 91.7 667.6 91.7" stroke="black" stroke-miterlimit="10" stroke-linecap="round" stroke-linejoin="round"/>
<path d="M664 94.7C663.6 94.9 663.2 95.2 662.8 95.4" stroke="black" stroke-miterlimit="10" stroke-linecap="round" stroke-linejoin="round"/>
<path d="M718.8 168.8H678.8L667.5 117.9H729.1L718.8 168.8Z" fill="#F4F4F5" stroke="black" stroke-miterlimit="10" stroke-linecap="round" stroke-linejoin="round"/>
<path d="M669.8 128.2H727" stroke="black" stroke-miterlimit="10" stroke-linecap="round" stroke-linejoin="round"/>
<path d="M147.254 223.23L125.777 227.516L147.069 334.216L168.546 329.93L147.254 223.23Z" fill="#F4F4F5" stroke="black" stroke-miterlimit="10" stroke-linecap="round" stroke-linejoin="round"/>
<path d="M255.4 291.7H181.2V335.3H255.4V291.7Z" fill="#F4F4F5" stroke="black" stroke-miterlimit="10" stroke-linecap="round" stroke-linejoin="round"/>
<path d="M257 280.9H179.7V291.7H257V280.9Z" fill="#F4F4F5" stroke="black" stroke-miterlimit="10" stroke-linecap="round" stroke-linejoin="round"/>
<path d="M239.7 303.1H197V321.8H239.7V303.1Z" fill="white" stroke="black" stroke-width="0.5" stroke-miterlimit="10" stroke-linecap="round" stroke-linejoin="round"/>
<path d="M202.7 308.2C202.9 307.9 202.5 307.6 202.2 307.7C201.9 307.8 201.7 308.1 201.6 308.4C201.5 308.8 201.5 309.3 201.8 309.6C202.1 309.9 202.8 309.6 202.6 309.2C202.8 309.2 203.1 309.4 203.2 309.6C203.4 309.3 203.6 309.1 203.9 308.9C204.1 309.2 204.3 309.5 204.5 309.7C204.8 309.4 205 309.1 205.3 308.9C205.6 309.5 206.4 309.7 206.9 309.3C207.4 308.9 207.4 308.1 206.9 307.7C206.2 307.9 206.1 309.1 206.7 309.4C207.3 309.7 208.3 309.3 208.4 308.6C208.6 308.8 208.8 309.1 208.9 309.5C209.1 309.4 209.1 309.2 209.2 309C209.3 308.8 209.5 308.7 209.6 308.8C209.7 308.9 209.7 309 209.8 309.1C210 309.5 210.8 309.4 210.9 308.9C211 309.2 211.3 309.5 211.6 309.5C211.9 309.5 212.2 309.2 212.2 308.9C212.6 309.2 213.2 309.2 213.6 308.9C214 308.6 214.1 307.9 213.8 307.5C213.1 307.8 212.6 308.6 212.7 309.4C213.2 308.9 213.7 308.5 214.2 308C215.2 309.8 215.6 311.9 215.5 313.9C214.7 312.2 214.8 310.1 215.7 308.5" stroke="black" stroke-width="0.25" stroke-miterlimit="10" stroke-linecap="round" stroke-linejoin="round"/>
<path d="M220.8 308.5C220.5 308.2 221.1 307.6 220.9 307.3C220.8 307.1 220.5 307.1 220.3 307.2C220.1 307.3 220 307.5 219.9 307.7C219.7 308.1 219.6 308.6 219.6 309.1C219.6 309.2 219.6 309.3 219.7 309.4C219.8 309.5 220 309.5 220.2 309.5C220.7 309.4 221.2 308.9 221.3 308.4C221.3 308.7 221.5 309 221.8 309.1C222.1 309.2 222.5 309 222.6 308.7C222.7 308.5 222.7 308.2 222.9 308.3C223 308.3 223 308.4 223 308.4C223.2 308.7 223.4 308.9 223.6 309.2C223.8 309.2 223.9 308.9 223.9 308.7C223.9 308.5 224.2 308.3 224.4 308.4C224.5 308.5 224.5 308.6 224.5 308.6C224.6 308.8 224.8 308.8 225 308.7C225.2 308.6 225.4 308.5 225.6 308.5C225.9 308.5 226.2 308.8 226.5 308.9C226.9 309.1 227.4 309 227.7 308.8C228.1 308.6 228.3 308.2 228.6 307.9C228.8 307.6 229 307.3 229 306.9C229 306.6 228.9 306.2 228.7 306C228.6 305.9 228.4 305.9 228.3 305.8C227.5 305.6 226.6 305.9 226.1 306.6C225.6 307.3 225.7 308.2 226.2 308.9" stroke="black" stroke-width="0.25" stroke-miterlimit="10" stroke-linecap="round" stroke-linejoin="round"/>
<path d="M204.5 316.4C204.6 315.9 204.5 315.4 204.4 315C203.7 315.2 203.2 316 203.5 316.7C203.9 316.5 204.4 316.2 204.8 316.2C205.2 316.2 205.8 316.5 205.8 317C206 316.7 206.3 316.4 206.5 316.1C206.6 316.4 206.8 316.6 207.1 316.7C207.3 316.5 207.4 316.3 207.6 316.1C207.5 316.4 207.9 316.8 208.2 316.8C208.6 316.8 208.9 316.6 209.1 316.3C209.3 316.1 209.4 315.8 209.3 315.5C209.1 315 208.3 315.1 208.1 315.6C207.9 316.1 208.3 316.6 208.8 316.8C209.3 317 209.8 316.8 210.3 316.6C210.8 316.4 211.2 316.1 211.7 315.9C211.7 316.4 211.8 317 212 317.5C212.4 317 212.8 316.5 213.3 316.1C213.6 316.5 213.9 316.8 214.2 317.2C214.2 316.7 214.9 316.5 215.4 316.6C215.9 316.7 216.5 316.9 216.8 316.6C217 316.4 217.1 316.2 217.3 316C217.6 315.8 218 316 218.3 316C218.8 315.9 219.1 315.4 219.6 315.5C219.9 315.5 220.2 315.8 220.3 316.2C220.6 316.9 220.3 317.7 219.8 318.2C219.5 318.4 219 318.5 218.8 318.2C218.7 318.1 218.7 317.9 218.7 317.8C218.8 317 219.4 316.3 220.2 316.2C221 316.1 221.8 316.7 221.9 317.5C222 318.3 221.3 319.1 220.5 319.1C220.2 318.6 220.4 317.9 220.8 317.4C221.2 316.9 221.8 316.6 222.3 316.4C222.4 316.3 222.6 316.3 222.7 316.4C222.8 316.5 222.6 316.7 222.5 316.6C223.2 316.2 223.6 315.3 223.6 314.5C223.2 314.8 223.1 315.4 223.2 315.8C223.9 315.7 224.4 315 224.3 314.3C223.8 314.4 223.7 315.2 224.1 315.6C224.5 315.9 225.2 315.8 225.5 315.3C225.3 315.7 225.7 316.2 226.2 316.1C226.7 316 227 315.8 227.5 315.7C228.6 315.4 229.7 316 230.9 316.2C231.6 316.3 232.3 316.3 233 316.1C233.6 315.9 234.2 315.7 234.5 315.2C234.9 314.7 235 314 234.7 313.5C234.2 312.7 233 312.6 232.1 313C231.7 313.1 231.3 313.3 231.1 313.7C230.9 314.1 230.9 314.6 231.3 314.8" stroke="black" stroke-width="0.25" stroke-miterlimit="10" stroke-linecap="round" stroke-linejoin="round"/>
<path d="M747 222.9H672.8V266.5H747V222.9Z" fill="#F4F4F5" stroke="black" stroke-miterlimit="10" stroke-linecap="round" stroke-linejoin="round"/>
<path d="M748.6 212.1H671.3V222.9H748.6V212.1Z" fill="#F4F4F5" stroke="black" stroke-miterlimit="10" stroke-linecap="round" stroke-linejoin="round"/>
<path d="M731.3 234.3H688.6V253H731.3V234.3Z" fill="white" stroke="black" stroke-width="0.5" stroke-miterlimit="10" stroke-linecap="round" stroke-linejoin="round"/>
<path d="M694.3 239.4C694.5 239.1 694.1 238.8 693.8 238.9C693.5 239 693.3 239.3 693.2 239.6C693.1 240 693.1 240.5 693.4 240.8C693.7 241.1 694.4 240.8 694.2 240.4C694.4 240.4 694.7 240.6 694.8 240.8C695 240.5 695.2 240.3 695.5 240.1C695.7 240.4 695.9 240.7 696.1 240.9C696.4 240.6 696.6 240.3 696.9 240.1C697.2 240.7 698 240.9 698.5 240.5C699 240.1 699 239.3 698.5 238.9C697.8 239.1 697.7 240.3 698.3 240.6C698.9 240.9 699.9 240.5 700 239.8C700.2 240 700.4 240.3 700.5 240.7C700.7 240.6 700.7 240.4 700.8 240.2C700.9 240 701.1 239.9 701.2 240C701.3 240.1 701.3 240.2 701.4 240.3C701.6 240.7 702.4 240.6 702.5 240.1C702.6 240.4 702.9 240.7 703.2 240.7C703.5 240.7 703.8 240.4 703.8 240.1C704.2 240.4 704.8 240.4 705.2 240.1C705.6 239.8 705.7 239.1 705.4 238.7C704.7 239 704.2 239.8 704.3 240.6C704.8 240.1 705.3 239.7 705.8 239.2C706.8 241 707.2 243.1 707.1 245.1C706.3 243.4 706.4 241.3 707.3 239.7" stroke="black" stroke-width="0.25" stroke-miterlimit="10" stroke-linecap="round" stroke-linejoin="round"/>
<path d="M712.4 239.7C712.1 239.4 712.7 238.8 712.5 238.5C712.4 238.3 712.1 238.3 711.9 238.4C711.7 238.5 711.6 238.7 711.5 238.9C711.3 239.3 711.2 239.8 711.2 240.3C711.2 240.4 711.2 240.5 711.3 240.6C711.4 240.7 711.6 240.7 711.8 240.7C712.3 240.6 712.8 240.1 712.9 239.6C712.9 239.9 713.1 240.2 713.4 240.3C713.7 240.4 714.1 240.2 714.2 239.9C714.3 239.7 714.3 239.4 714.5 239.5C714.6 239.5 714.6 239.6 714.6 239.6C714.8 239.9 715 240.1 715.2 240.4C715.4 240.4 715.5 240.1 715.5 239.9C715.6 239.7 715.8 239.5 716 239.6C716.1 239.7 716.1 239.8 716.1 239.8C716.2 240 716.4 240 716.6 239.9C716.8 239.8 717 239.7 717.2 239.7C717.5 239.7 717.8 240 718.1 240.1C718.5 240.3 719 240.2 719.3 240C719.7 239.8 719.9 239.4 720.2 239.1C720.4 238.8 720.6 238.5 720.6 238.1C720.6 237.8 720.5 237.4 720.3 237.2C720.2 237.1 720 237.1 719.9 237C719.1 236.8 718.2 237.1 717.7 237.8C717.2 238.5 717.3 239.4 717.8 240.1" stroke="black" stroke-width="0.25" stroke-miterlimit="10" stroke-linecap="round" stroke-linejoin="round"/>
<path d="M696.1 247.6C696.2 247.1 696.1 246.6 696 246.2C695.3 246.4 694.8 247.2 695.1 247.9C695.5 247.7 696 247.4 696.4 247.4C696.9 247.4 697.4 247.7 697.4 248.2C697.6 247.9 697.9 247.6 698.1 247.3C698.2 247.6 698.4 247.8 698.7 247.9C698.9 247.7 699 247.5 699.2 247.3C699.1 247.6 699.5 248 699.8 248C700.2 248 700.5 247.8 700.7 247.5C700.9 247.3 701 247 700.9 246.7C700.7 246.2 699.9 246.3 699.7 246.8C699.5 247.3 699.9 247.8 700.4 248C700.9 248.2 701.4 248 701.9 247.8C702.4 247.6 702.8 247.3 703.3 247.1C703.3 247.6 703.4 248.2 703.6 248.7C704 248.2 704.4 247.7 704.9 247.3C705.2 247.7 705.5 248 705.8 248.4C705.8 247.9 706.5 247.7 707 247.8C707.5 247.9 708.1 248.1 708.4 247.8C708.6 247.6 708.7 247.4 708.9 247.2C709.2 247 709.6 247.2 709.9 247.2C710.4 247.1 710.7 246.6 711.2 246.7C711.5 246.7 711.8 247 711.9 247.4C712.2 248.1 711.9 248.9 711.4 249.4C711.1 249.6 710.6 249.7 710.4 249.4C710.3 249.3 710.3 249.1 710.3 249C710.4 248.2 711 247.5 711.8 247.4C712.6 247.3 713.4 247.9 713.5 248.7C713.6 249.5 712.9 250.3 712.1 250.3C711.8 249.8 712 249.1 712.4 248.6C712.8 248.1 713.4 247.8 713.9 247.6C714 247.5 714.2 247.5 714.3 247.6C714.4 247.7 714.2 247.9 714.1 247.8C714.8 247.4 715.2 246.5 715.2 245.7C714.8 246 714.7 246.6 714.8 247C715.5 246.9 716 246.2 715.9 245.5C715.4 245.6 715.3 246.4 715.7 246.8C716.1 247.2 716.8 247 717.1 246.5C716.9 246.9 717.3 247.4 717.8 247.3C718.3 247.2 718.6 247 719.1 246.9C720.2 246.6 721.3 247.2 722.5 247.4C723.2 247.5 723.9 247.5 724.6 247.3C725.2 247.1 725.8 246.9 726.1 246.4C726.5 245.9 726.6 245.2 726.3 244.7C725.8 243.9 724.6 243.8 723.7 244.2C723.3 244.3 722.9 244.5 722.7 244.9C722.5 245.3 722.5 245.8 722.9 246" stroke="black" stroke-width="0.25" stroke-miterlimit="10" stroke-linecap="round" stroke-linejoin="round"/>
<path d="M749.5 278.9H655.2V334.3H749.5V278.9Z" fill="#F4F4F5" stroke="black" stroke-miterlimit="10" stroke-linecap="round" stroke-linejoin="round"/>
<path d="M751.4 265.2H653.2V278.9H751.4V265.2Z" fill="#F4F4F5" stroke="black" stroke-miterlimit="10" stroke-linecap="round" stroke-linejoin="round"/>
<path d="M729.5 293.5H675.2V317.3H729.5V293.5Z" fill="white" stroke="black" stroke-width="0.5" stroke-miterlimit="10" stroke-linecap="round" stroke-linejoin="round"/>
<path d="M682.5 299.9C682.8 299.6 682.3 299.1 681.9 299.2C681.5 299.3 681.3 299.7 681.2 300.1C681.1 300.6 681.1 301.3 681.5 301.6C681.9 301.9 682.7 301.6 682.6 301.1C682.9 301.1 683.2 301.3 683.3 301.6C683.5 301.3 683.8 301 684.1 300.7C684.4 301.1 684.6 301.4 684.9 301.8C685.2 301.4 685.6 301.1 685.9 300.7C686.2 301.4 687.3 301.7 687.9 301.2C688.5 300.7 688.6 299.6 687.9 299.1C687 299.4 686.9 300.8 687.7 301.3C688.5 301.8 689.7 301.2 689.8 300.3C690.1 300.6 690.3 301 690.4 301.4C690.6 301.3 690.7 301 690.7 300.8C690.8 300.6 691 300.4 691.2 300.5C691.3 300.6 691.4 300.7 691.4 300.8C691.7 301.3 692.7 301.2 692.8 300.6C692.9 301 693.3 301.3 693.7 301.3C694.1 301.3 694.5 300.9 694.5 300.5C695 300.9 695.8 300.9 696.3 300.5C696.8 300.1 696.9 299.3 696.6 298.7C695.7 299.1 695.1 300.1 695.2 301.1C695.8 300.5 696.4 299.9 697.1 299.3C698.3 301.6 698.9 304.2 698.7 306.8C697.7 304.6 697.8 302 698.9 299.9" stroke="black" stroke-width="0.25" stroke-miterlimit="10" stroke-linecap="round" stroke-linejoin="round"/>
<path d="M705.4 300.2C705 299.8 705.8 299.1 705.5 298.6C705.4 298.4 705 298.3 704.8 298.4C704.6 298.5 704.4 298.8 704.3 299C704 299.6 703.9 300.2 703.9 300.8C703.9 300.9 703.9 301.1 704 301.2C704.1 301.4 704.4 301.3 704.6 301.3C705.3 301.1 705.8 300.6 706 299.9C706 300.3 706.2 300.7 706.6 300.8C707 300.9 707.4 300.7 707.6 300.3C707.7 300.1 707.8 299.7 708 299.8C708.1 299.8 708.1 299.9 708.2 300C708.4 300.3 708.7 300.7 708.9 301C709.2 300.9 709.2 300.6 709.3 300.3C709.4 300 709.7 299.8 709.9 300C710 300.1 710 300.2 710 300.3C710.1 300.5 710.4 300.6 710.7 300.5C710.9 300.4 711.2 300.3 711.4 300.3C711.8 300.3 712.1 300.7 712.5 300.9C713 301.1 713.6 301.1 714.1 300.8C714.6 300.5 714.9 300.1 715.2 299.6C715.4 299.2 715.7 298.8 715.7 298.4C715.7 298 715.6 297.5 715.3 297.2C715.2 297.1 715 297 714.8 297C713.8 296.7 712.6 297.2 712.1 298C711.5 298.9 711.6 300.1 712.2 300.9" stroke="black" stroke-width="0.25" stroke-miterlimit="10" stroke-linecap="round" stroke-linejoin="round"/>
<path d="M684.8 310.3C684.9 309.7 684.9 309.1 684.7 308.5C683.8 308.7 683.2 309.8 683.6 310.7C684.1 310.4 684.7 310.1 685.3 310.1C685.9 310.1 686.6 310.5 686.6 311.1C686.9 310.7 687.2 310.4 687.5 310C687.7 310.3 687.9 310.6 688.2 310.8C688.4 310.5 688.6 310.3 688.8 310C688.7 310.4 689.1 310.9 689.6 310.9C690 310.9 690.5 310.7 690.8 310.3C691 310 691.2 309.6 691.1 309.3C690.9 308.7 689.8 308.8 689.6 309.4C689.4 310 689.9 310.7 690.5 310.9C691.1 311.1 691.8 310.9 692.4 310.6C693 310.3 693.5 309.9 694.2 309.7C694.2 310.4 694.4 311.1 694.6 311.7C695.1 311 695.6 310.4 696.2 309.9C696.6 310.4 696.9 310.8 697.3 311.3C697.3 310.7 698.2 310.4 698.8 310.6C699.4 310.7 700.2 311 700.6 310.5C700.8 310.3 700.9 309.9 701.2 309.8C701.6 309.6 702.1 309.8 702.5 309.7C703.1 309.6 703.6 309 704.2 309C704.6 309 705 309.4 705.1 309.8C705.4 310.7 705.2 311.8 704.4 312.4C704 312.7 703.4 312.8 703.2 312.4C703.1 312.3 703.1 312.1 703.1 311.9C703.2 310.9 704 310 705 309.9C706 309.8 707.1 310.5 707.2 311.5C707.4 312.5 706.5 313.6 705.5 313.5C705.1 312.8 705.4 311.9 705.9 311.3C706.4 310.7 707.1 310.3 707.8 310C708 309.9 708.2 309.8 708.4 310C708.5 310.1 708.2 310.4 708.2 310.2C709.1 309.6 709.6 308.5 709.5 307.5C709 307.9 708.8 308.6 709 309.2C709.9 309.1 710.5 308.1 710.4 307.3C709.8 307.5 709.6 308.5 710.1 308.9C710.6 309.3 711.5 309.1 711.8 308.6C711.5 309.1 712.1 309.7 712.7 309.7C713.3 309.7 713.8 309.3 714.3 309.2C715.7 308.8 717.1 309.5 718.6 309.8C719.5 310 720.4 309.9 721.3 309.7C722 309.5 722.8 309.2 723.2 308.6C723.7 308 723.8 307.1 723.5 306.5C722.9 305.4 721.4 305.4 720.2 305.8C719.7 306 719.2 306.2 718.9 306.7C718.6 307.1 718.7 307.8 719.1 308.1" stroke="black" stroke-width="0.25" stroke-miterlimit="10" stroke-linecap="round" stroke-linejoin="round"/>
<path d="M282.8 286.2C281.3 284.7 280.1 282.8 279.4 280.8C277.4 275.1 277.3 268.2 281.2 263.5C288.3 255 304.7 254.8 311.1 264.2C315.2 270.3 315.6 279.9 311.1 285.8C309.2 288.3 306.3 290.1 303.3 291.1C296.4 293.4 287.8 291.4 282.8 286.2Z" fill="#CCCCCB" stroke="black" stroke-miterlimit="10" stroke-linecap="round" stroke-linejoin="round"/>
<path d="M278.9 272C278 272.4 277 272.7 276.1 272.9C276.2 272.8 276.4 272.7 276.5 272.6" stroke="black" stroke-miterlimit="10" stroke-linecap="round" stroke-linejoin="round"/>
<path d="M285.4 275C285.6 275.8 285.5 276.6 285.1 277.3" stroke="black" stroke-miterlimit="10" stroke-linecap="round" stroke-linejoin="round"/>
<path d="M291.7 270.5C291.7 271.1 291.8 271.6 291.8 272.2C291.8 272.3 291.8 272.4 291.9 272.5C292 272.6 292.2 272.5 292.1 272.4" stroke="black" stroke-miterlimit="10" stroke-linecap="round" stroke-linejoin="round"/>
<path d="M298 278.7C298.7 279.3 299.2 280.1 299.4 280.9" stroke="black" stroke-miterlimit="10" stroke-linecap="round" stroke-linejoin="round"/>
<path d="M290.7 282.7C290.6 283.3 290.6 283.8 290.5 284.4" stroke="black" stroke-miterlimit="10" stroke-linecap="round" stroke-linejoin="round"/>
<path d="M299.4 260.6C300 259.6 300.6 258.6 301.2 257.6C301.2 257.5 301.3 257.4 301.4 257.5C301.5 257.6 301.4 257.7 301.4 257.6" stroke="black" stroke-miterlimit="10" stroke-linecap="round" stroke-linejoin="round"/>
<path d="M302.9 264.2C303.5 262.9 304.4 261.6 305.4 260.6C314.3 252 327.7 260.7 324.5 272.4C321.5 283.5 306.2 284.7 302.3 273.6C301.3 270.5 301.6 267.1 302.9 264.2Z" fill="#CCCCCB" stroke="black" stroke-miterlimit="10" stroke-linecap="round" stroke-linejoin="round"/>
<path d="M315.6 276C315.9 276.7 316 277.5 315.9 278.3" stroke="black" stroke-miterlimit="10" stroke-linecap="round" stroke-linejoin="round"/>
<path d="M320 273.1C320.9 273.1 321.7 273.1 322.6 273.1" stroke="black" stroke-miterlimit="10" stroke-linecap="round" stroke-linejoin="round"/>
<path d="M317.6 260.5C317.8 259.2 318.3 258 319 256.9" stroke="black" stroke-miterlimit="10" stroke-linecap="round" stroke-linejoin="round"/>
<path d="M313.8 266.5C313.2 266.9 312.6 267.4 311.9 267.8" stroke="black" stroke-miterlimit="10" stroke-linecap="round" stroke-linejoin="round"/>
<path d="M306.9 266.3C306 266 305 265.8 304.1 265.5C304.3 265.4 304.6 265.3 304.9 265.4" stroke="black" stroke-miterlimit="10" stroke-linecap="round" stroke-linejoin="round"/>
<path d="M308.2 273.1C307.8 273.9 307.5 274.6 307.1 275.4" stroke="black" stroke-miterlimit="10" stroke-linecap="round" stroke-linejoin="round"/>
<path d="M276.6 261.8C272.7 257.4 271 251.2 271.3 245.3C271.5 242 272.4 238.6 274.7 236.2C280.9 229.8 290.5 232.6 295.9 238.7C299.4 242.7 301 248.3 299.9 253.5C298.6 259.6 293.5 264 287.6 265.7C283.7 266.8 280 265.3 277.2 262.5C277 262.2 276.8 262 276.6 261.8Z" fill="#CCCCCB" stroke="black" stroke-miterlimit="10" stroke-linecap="round" stroke-linejoin="round"/>
<path d="M273.9 246.8C273.1 247.3 272.5 247.9 272 248.6" stroke="black" stroke-miterlimit="10" stroke-linecap="round" stroke-linejoin="round"/>
<path d="M279.3 244.8C279.2 245.5 279.9 246.2 280.6 246.3" stroke="black" stroke-miterlimit="10" stroke-linecap="round" stroke-linejoin="round"/>
<path d="M287 240.6C287.3 241.2 287.6 241.7 288.1 242.1" stroke="black" stroke-miterlimit="10" stroke-linecap="round" stroke-linejoin="round"/>
<path d="M292.1 237.8C292.4 237.3 292.9 237 293.4 236.8" stroke="black" stroke-miterlimit="10" stroke-linecap="round" stroke-linejoin="round"/>
<path d="M282.3 235.6C282.2 234.5 282.1 233.3 282 232.2" stroke="black" stroke-miterlimit="10" stroke-linecap="round" stroke-linejoin="round"/>
<path d="M280.4 256.2C280.4 256.7 280.4 257.2 280.4 257.7" stroke="black" stroke-miterlimit="10" stroke-linecap="round" stroke-linejoin="round"/>
<path d="M291.1 250C291.2 250.5 291.4 251.1 291.7 251.5" stroke="black" stroke-miterlimit="10" stroke-linecap="round" stroke-linejoin="round"/>
<path d="M297.7 247C298.2 246.8 298.7 246.8 299.2 247" stroke="black" stroke-miterlimit="10" stroke-linecap="round" stroke-linejoin="round"/>
<path d="M275.9 237.1C275.2 236.7 274.5 236.2 273.8 235.8" stroke="black" stroke-miterlimit="10" stroke-linecap="round" stroke-linejoin="round"/>
<path d="M314.4 334.3H282.2L273 286.3H322.7L314.4 334.3Z" fill="#F4F4F5" stroke="black" stroke-miterlimit="10" stroke-linecap="round" stroke-linejoin="round"/>
<path d="M274.9 296.1H321" stroke="black" stroke-miterlimit="10" stroke-linecap="round" stroke-linejoin="round"/>
<path d="M149.9 414.7H133.7V497.9H149.9V414.7Z" fill="#F4F4F5" stroke="black" stroke-miterlimit="10" stroke-linecap="round" stroke-linejoin="round"/>
<path d="M166.1 398H149.9V498H166.1V398Z" fill="#EAEAEA" stroke="black" stroke-miterlimit="10" stroke-linecap="round" stroke-linejoin="round"/>
<path d="M182.3 424.9H166.1V497.9H182.3V424.9Z" fill="#F4F4F5" stroke="black" stroke-miterlimit="10" stroke-linecap="round" stroke-linejoin="round"/>
<path d="M198.5 398H182.3V498H198.5V398Z" fill="#EAEAEA" stroke="black" stroke-miterlimit="10" stroke-linecap="round" stroke-linejoin="round"/>
<path d="M214.3 424.9H198.1V497.9H214.3V424.9Z" fill="#F4F4F5" stroke="black" stroke-miterlimit="10" stroke-linecap="round" stroke-linejoin="round"/>
<path d="M230.5 411.9H214.3V497.9H230.5V411.9Z" fill="#EAEAEA" stroke="black" stroke-miterlimit="10" stroke-linecap="round" stroke-linejoin="round"/>
<path d="M246.7 401.8H230.5V497.9H246.7V401.8Z" fill="#F4F4F5" stroke="black" stroke-miterlimit="10" stroke-linecap="round" stroke-linejoin="round"/>
<path d="M262.476 401.402L246.89 405.818L273.087 498.275L288.673 493.859L262.476 401.402Z" fill="#EAEAEA" stroke="black" stroke-miterlimit="10" stroke-linecap="round" stroke-linejoin="round"/>
<path d="M282.252 411.876L266.666 416.292L286.729 487.103L302.315 482.687L282.252 411.876Z" fill="#F4F4F5" stroke="black" stroke-miterlimit="10" stroke-linecap="round" stroke-linejoin="round"/>
<path d="M275.3 502.1H125.5V448H310.6C314.8 448 317.6 452.3 315.8 456.2L303 484.4C298 495.2 287.2 502.1 275.3 502.1Z" fill="#F1F0F8" stroke="black" stroke-miterlimit="10" stroke-linecap="round" stroke-linejoin="round"/>
<path d="M285.3 531.2C285.3 531.2 318.2 510.2 362.1 528.8C406 547.4 280.3 539 285.3 531.2Z" fill="#595980" stroke="black" stroke-miterlimit="10" stroke-linecap="round" stroke-linejoin="round"/>
<path d="M302.7 521.4C302.7 521.4 298.5 577.3 303.4 583.5C308.3 589.8 314.2 593.1 317.9 592.3C321.6 591.5 351 567.4 351 567.4C351 567.4 343.9 510.4 343.4 506.1C343 501.8 302.7 521.4 302.7 521.4Z" fill="white" stroke="black" stroke-miterlimit="10" stroke-linecap="round" stroke-linejoin="round"/>
<path d="M568.1 528.5L606.8 598.1L635.5 583.6L640.9 517.4L568.1 528.5Z" fill="white" stroke="black" stroke-miterlimit="10" stroke-linecap="round" stroke-linejoin="round"/>
<path d="M439.3 353.1C444.2 359.9 452.4 362.9 460.1 365.5C463.1 366.5 466.2 367.6 469.4 368C473.8 368.6 478.2 368 482.4 366.5C489.4 364 495.7 359.2 499.9 352.8C498.7 346.2 494 340.8 492.3 334.3C491.2 330.1 491.4 325.7 491.6 321.4C485.3 322.4 479 323.5 472.7 322.6C464.2 321.5 454.9 315.5 446.3 317C449.4 319.2 446.1 330.4 445.4 333.7C443.9 340.4 441.9 346.9 439.3 353.1Z" fill="white" stroke="black" stroke-miterlimit="10" stroke-linecap="round" stroke-linejoin="round"/>
<path d="M438.8 351.6C438.8 351.6 351.7 361.8 344.7 367.5C337.7 373.2 323.4 381.9 285.2 531C285.2 531 318 518.4 362 528.6C362 528.6 367.8 621.4 364.6 653.6C364.6 653.6 421.6 678.1 578 648.9C578 648.9 591.8 646.5 572.9 536.8C572.9 536.8 630.9 531.5 642.2 521.3C653.1 511.6 627.5 494.9 600.3 391.4C598 382.6 591.2 375.8 582.5 373.4C558.6 366.8 508 355.1 500 350.4C499.9 350.4 485.3 382.8 438.8 351.6Z" fill="#5C58A6" stroke="black" stroke-miterlimit="10" stroke-linecap="round" stroke-linejoin="round"/>
<path d="M480.3 346.3C480.3 346.3 476.5 350.7 475.8 354.5" stroke="black" stroke-miterlimit="10" stroke-linecap="round" stroke-linejoin="round"/>
<path d="M386.2 627.3C386.2 627.3 391.1 637.5 394.7 641.1" stroke="black" stroke-miterlimit="10" stroke-linecap="round" stroke-linejoin="round"/>
<path d="M553.8 589.3C553.8 589.3 560.5 632.6 557.6 636.6" stroke="black" stroke-miterlimit="10" stroke-linecap="round" stroke-linejoin="round"/>
<path d="M335.8 468.7C335.8 468.7 345.3 483.9 345.4 488.8" stroke="black" stroke-miterlimit="10" stroke-linecap="round" stroke-linejoin="round"/>
<path d="M339.8 420.3L351 465.3" stroke="black" stroke-miterlimit="10" stroke-linecap="round" stroke-linejoin="round"/>
<path d="M358.7 373.1C358.7 373.1 370.3 483 364.4 492.5" stroke="black" stroke-miterlimit="10" stroke-linecap="round" stroke-linejoin="round"/>
<path d="M572.8 536.9C572.8 536.9 557.6 450.8 557.6 397.3" stroke="black" stroke-miterlimit="10" stroke-linecap="round" stroke-linejoin="round"/>
<path d="M469.6 470.3C469.6 470.3 316.3 631.1 300.9 583.5C300.9 583.5 286.2 517.8 390 486.3C390 486.3 432.7 467.2 455.7 444.6C456.6 443.7 457.7 443 458.9 442.5C461.6 441.3 468.2 436.4 479.6 415.6C479.6 415.6 483.3 405.3 491.2 404.7C491.2 404.7 489.3 395.5 497.5 397.3C497.5 397.3 498.2 383.7 507.3 390.6C507.3 390.6 512.4 382.1 516 368.3C519.4 355 519.4 349.1 520.7 349.1C525.6 349.1 523.3 360 523 364.4C522.7 367.9 522.1 371.3 521.6 374.7C520.5 383 518.8 391.2 517.9 399.6C517.8 400.2 517.8 400.8 518.1 401.2C518.3 401.5 518.6 401.6 518.9 401.8C520.5 402.4 522.4 402.1 523.7 401.1C527.6 398.2 527.9 393.3 530.5 389.6C531.1 388.8 532 388.3 533 388.4C534.8 388.6 535.1 390.4 535.2 391.8C535.4 395 534.9 398.1 533.9 401.1C531.9 406.9 529.5 412.6 526.9 418.2C525.3 421.8 525 425.5 523.1 428.9C520.1 434.5 515.2 438.5 509.7 441.5C500.9 446.2 487.9 444.8 482.2 456C481.1 458.1 479.7 459.9 478.1 461.6L469.6 470.3Z" fill="white" stroke="black" stroke-miterlimit="10" stroke-linecap="round" stroke-linejoin="round"/>
<path d="M491.3 404.7C491.3 404.7 503 419.4 505.1 428.6C505.1 428.6 508 437.6 502.7 435.7C501.1 435.1 499.9 433.8 499.3 432.3C498.4 430.1 496.3 425.6 491.3 417.4C491.3 417.4 488 413.8 483.9 414" stroke="black" stroke-miterlimit="10" stroke-linecap="round" stroke-linejoin="round"/>
<path d="M497.5 397.3C497.5 397.3 508.3 415.9 510.8 421.1C513.5 426.7 512.7 430.8 509 427.5C505.4 424.1 500.5 418.5 500.5 418.5" stroke="black" stroke-miterlimit="10" stroke-linecap="round" stroke-linejoin="round"/>
<path d="M507.3 390.6L517.2 418.1C517.2 418.1 520 431.3 512.1 420.2C505 410.3 503.8 408.2 503.8 408.2" stroke="black" stroke-miterlimit="10" stroke-linecap="round" stroke-linejoin="round"/>
<path d="M328.3 577.7C328.3 577.7 335.1 576.8 340.6 570.1" stroke="black" stroke-miterlimit="10" stroke-linecap="round" stroke-linejoin="round"/>
<path d="M496.1 430C496.1 430 491.6 429.6 489.7 431.2" stroke="black" stroke-miterlimit="10" stroke-linecap="round" stroke-linejoin="round"/>
<path d="M458.5 449.6C458.5 449.6 458.6 447.2 461.5 446.5" stroke="black" stroke-miterlimit="10" stroke-linecap="round" stroke-linejoin="round"/>
<path d="M621.3 397.7C619.6 392.9 611.7 374.2 622.9 388.4C634.1 402.6 633.1 401.9 633.1 401.9" fill="white"/>
<path d="M621.3 397.7C619.6 392.9 611.7 374.2 622.9 388.4C634.1 402.6 633.1 401.9 633.1 401.9" stroke="black" stroke-miterlimit="10" stroke-linecap="round" stroke-linejoin="round"/>
<path d="M611.7 465.4H558.6C552.1 465.4 546.8 460.1 546.8 453.6V347.8C546.8 341.3 552.1 336 558.6 336H611.7C618.2 336 623.5 341.3 623.5 347.8V453.5C623.5 460.1 618.2 465.4 611.7 465.4Z" fill="#EEDBEB" stroke="black" stroke-miterlimit="10" stroke-linecap="round" stroke-linejoin="round"/>
<path d="M585.2 377.4C586.691 377.4 587.9 375.609 587.9 373.4C587.9 371.191 586.691 369.4 585.2 369.4C583.709 369.4 582.5 371.191 582.5 373.4C582.5 375.609 583.709 377.4 585.2 377.4Z" fill="white" stroke="black" stroke-width="0.5" stroke-miterlimit="10" stroke-linecap="round" stroke-linejoin="round"/>
<path d="M589.6 374.4C589.6 374.4 590.1 377.9 587.7 378.2" stroke="black" stroke-width="0.25" stroke-miterlimit="10" stroke-linecap="round" stroke-linejoin="round"/>
<path d="M602.9 430.4L577.7 418.3C577 418 576.6 417.2 576.9 416.4C577.3 415.3 581.7 414.3 585.2 415.7C590.6 417.9 604.3 422.9 608.1 422.5C611.9 422.1 578.1 409.8 576.6 407.7C576.6 407.7 569.5 400 579.9 402.5C590.3 405 611 416 613.9 415.5C616.8 415 580.3 399.2 579 396.2C579 396.2 571.4 387.3 582.7 391C594 394.7 615.1 406.9 618.2 406.9C621.3 406.9 593.1 389.1 593.1 389.1C593.1 389.1 585.2 380.7 596.1 383.7C607 386.7 611.3 393.3 625.7 397.1C625.7 397.1 641.7 400.8 641.7 430.2C641.7 458.4 657.4 599.3 619 601.8C580.6 604.3 605.9 508.4 615.5 477.9C624.8 448.2 614.2 450.3 605.4 432.7C604.8 431.8 604 430.9 602.9 430.4Z" fill="white" stroke="black" stroke-miterlimit="10" stroke-linecap="round" stroke-linejoin="round"/>
<path d="M638.2 410.8C638.2 410.8 638.2 413.5 635.5 415.7" stroke="black" stroke-miterlimit="10" stroke-linecap="round" stroke-linejoin="round"/>
<path d="M624.5 457.2C624.5 457.2 624.1 460 622.8 460.9" stroke="black" stroke-miterlimit="10" stroke-linecap="round" stroke-linejoin="round"/>
<path d="M631.3 579.2C631.3 579.2 630.8 591.9 625.2 592.4" stroke="black" stroke-miterlimit="10" stroke-linecap="round" stroke-linejoin="round"/>
<path d="M413.6 275.9C414.3 287.7 416.5 300.1 424.2 308.8C432.2 317.9 466 335.6 472.7 336.6C482 338 490.6 331.8 498.1 325.9C507.1 318.8 516.4 311.4 521.8 301.1C526.3 292.5 527.6 282.5 528.1 272.7C528.9 256.6 527.4 240.1 521.2 225.3C515 210.5 503.3 197.7 488.5 192.9C479.9 190.1 470.6 190 461.6 190.7C440.4 192.3 425.2 198.3 418.1 220.5C412.3 238.1 412.5 257.9 413.6 275.9Z" fill="white" stroke="black" stroke-miterlimit="10" stroke-linecap="round" stroke-linejoin="round"/>
<path d="M448.8 258.3C448.8 258.3 458.5 250.9 464.5 258.3" stroke="black" stroke-width="2" stroke-miterlimit="10" stroke-linecap="round" stroke-linejoin="round"/>
<path d="M489.1 256.6C489.1 256.6 498.8 249.2 504.8 256.6" stroke="black" stroke-width="2" stroke-miterlimit="10" stroke-linecap="round" stroke-linejoin="round"/>
<path d="M462.4 298.3C462.4 298.3 478 302.2 494.7 297.7C494.7 297.7 480.5 323.9 462.4 298.3Z" fill="#EEDBEB" stroke="black" stroke-miterlimit="10" stroke-linecap="round" stroke-linejoin="round"/>
<path d="M450.7 293.6C453.24 293.6 455.3 291.541 455.3 289C455.3 286.459 453.24 284.4 450.7 284.4C448.159 284.4 446.1 286.459 446.1 289C446.1 291.541 448.159 293.6 450.7 293.6Z" fill="#FDF0F6"/>
<path d="M509 293.6C511.54 293.6 513.6 291.541 513.6 289C513.6 286.459 511.54 284.4 509 284.4C506.459 284.4 504.4 286.459 504.4 289C504.4 291.541 506.459 293.6 509 293.6Z" fill="#FDF0F6"/>
<path d="M458.9 274.8C461.275 274.8 463.2 272.293 463.2 269.2C463.2 266.107 461.275 263.6 458.9 263.6C456.525 263.6 454.6 266.107 454.6 269.2C454.6 272.293 456.525 274.8 458.9 274.8Z" fill="black"/>
<path d="M497 274.8C499.375 274.8 501.3 272.293 501.3 269.2C501.3 266.107 499.375 263.6 497 263.6C494.625 263.6 492.7 266.107 492.7 269.2C492.7 272.293 494.625 274.8 497 274.8Z" fill="black"/>
<path d="M500.4 156.5C496.4 153.8 490.9 155.4 489.1 159.9C483.6 173.5 474.1 199.5 478.6 206.1C484.8 215 521.4 272.2 525.4 290.6C527.2 299.6 561.7 198 500.4 156.5Z" fill="#3A3A3A" stroke="black" stroke-miterlimit="10" stroke-linecap="round" stroke-linejoin="round"/>
<path d="M414.6 342.5C414.6 342.5 380.2 371.6 390.9 422.6C401.6 473.6 395.8 480.3 395.8 480.3C395.8 480.3 407 468.7 405.2 454.4C403.4 440.1 407.5 462.3 407.1 464.7C406.7 467 417.3 452.9 413.6 436.3C413.6 436.3 416.6 444.6 415.9 447.5C415.2 450.4 460.8 383.1 439.3 351.5C439.3 351.6 423.3 342.1 414.6 342.5Z" fill="#3A3A3A" stroke="black" stroke-miterlimit="10" stroke-linecap="round" stroke-linejoin="round"/>
<path d="M417.7 336.8C417.7 336.8 333.5 255.6 417.7 166.2C417.7 166.2 462.2 130 489.1 149.4C516 168.8 437.4 261.4 417.7 286.1C417.7 286.1 428 315.6 447 324.7C447 324.7 444 344 441.5 347.3C439.1 350.5 417.7 336.8 417.7 336.8Z" fill="#3A3A3A" stroke="black" stroke-miterlimit="10" stroke-linecap="round" stroke-linejoin="round"/>
<path d="M417.2 336C417.2 336 413.7 339.9 414.6 342.5C415.5 345.1 436.9 353 439.3 351.5C441.7 350 443.3 345.8 442.1 345.2C440.9 344.6 417.2 336 417.2 336Z" fill="#EBE9F5" stroke="black" stroke-miterlimit="10" stroke-linecap="round" stroke-linejoin="round"/>
<path d="M439.3 347.1C439.3 347.1 438.9 348.4 437.5 349.1L439.3 347.1Z" fill="#EBE9F5"/>
<path d="M439.3 347.1C439.3 347.1 438.9 348.4 437.5 349.1" stroke="black" stroke-miterlimit="10" stroke-linecap="round" stroke-linejoin="round"/>
<path d="M417.7 285.9C417.7 285.9 418.3 290.3 394 305.8C369.7 321.3 369.5 346.3 369.5 346.3" stroke="black" stroke-miterlimit="10" stroke-linecap="round" stroke-linejoin="round"/>
<path d="M437.5 379.3C437.5 379.3 438.1 402.9 426.5 411.4" stroke="black" stroke-miterlimit="10" stroke-linecap="round" stroke-linejoin="round"/>
</svg>
